<?xml version="1.0" encoding="UTF-8"?>
<svg id="Layer_1" xmlns="http://www.w3.org/2000/svg" version="1.1" viewBox="0 0 792 612">
  <!-- Generator: Adobe Illustrator 30.2.1, SVG Export Plug-In . SVG Version: 2.1.1 Build 1)  -->
  <defs>
    <style>
      .st0 {
        fill: #f1a01f;
      }
    </style>
  </defs>
  <g>
    <path class="st0" d="M215.85,198.44c15.55-17.75,23.6-27.12,24.17-28.09,3.14-5.38,9.9-7.81,12.24-15.75.32-1.04.86-1.99,1.61-2.77,2.36-2.48,8.68-10.13,18.97-22.94,4.19-5.2,6.83-13.49-.55-16.9-8.85-4.11-22.63,9.25-29.45,15.67-2.35,2.22-9.37,9.33-21.09,21.33-.31.3-.82,0-.67-.41.78-2.2,2.2-4.25,2.95-6.67,7.26-23.33,14.19-46.77,20.83-70.29,1.63-5.79,4.71-18.89.89-24.64-4.81-7.24-13.72-3.74-17.11,2.87-7.8,15.21-14.64,39.19-23.02,59.49-.01.03-.07.03-.07,0-.09-.24-.12-.38-.12-.44,7.15-23.56,10.92-48.19,14.24-67.94.7-4.16,1.11-14.05-3.25-16.87-16.37-10.64-21.35,18.52-23.34,27.76-.25,1.22-.66,2.41-1.22,3.53l-11.86,24.22c-.07.17-.25.22-.42.17s-.27-.22-.23-.4c1.04-5.32,3.09-12.94,3.98-19.91.81-6.35,2.13-13.33,3.98-20.96,1.99-8.08,2.11-19.36-7.03-22.27-8.81-2.84-15.61,8.16-18.24,15.32-.54,1.48-3.24,8.31-8.1,20.48-.06.13-.21.22-.34.17-.14-.03-.25-.18-.22-.32.74-5.38-.4-9.8-3.4-13.26-.72-.83-1.01-1.97-.78-3.04,1.21-5.48,1.08-10.19-.36-14.11-3.22-8.78-13.84-6.45-18.14.16-2.42,3.71-4.84,9.75-7.31,18.15-6.67,22.71-12.02,41.88-16.05,57.54-.04.18-.21.29-.39.25-.18-.02-.3-.18-.3-.37.63-14.24,3.83-34.41,2.11-48.41-.9-7.35-7.86-11.18-13.86-5.75-2.52,2.28-4.37,5.41-5.55,9.41-5.06,16.97-9.01,34.12-11.91,51.47-7.53,45.19-11.97,72.11-13.34,80.76-3.01,18.97-7.58,35.33-13.71,49.07-6.63,14.85-18.8,37.01-36.52,66.51-3.88,6.48,1.67,10.23,6.86,15.35,22.34,22.07,56.57,38.53,88.49,34.05,1.52-.21,2.75-1.29,3.19-2.75l2.22-7.45c.22-.73.97-1.17,1.71-.98,18.18,4.48,36.8,5.79,55.89,3.92,1.02-.1,1.86-.86,2.1-1.87,5.45-23.74,10.71-50.09,15.81-79.09,2.09-11.84,5.75-24.82,10.98-38.96,3.18-8.58,8.83-17.33,14.71-24.03ZM228.26,147.48c1.05-.99,2.94-2.22,3.91-3.31,7.14-8.16,26.76-31.51,38.67-28.6,1.74.44,2.9,2.09,2.69,3.89-.39,3.5-2.44,6.62-4.83,9.32-8.02,9.05-13.94,16.26-17.74,21.63-.32.47-.99.47-1.34.02-3.5-4.62-10.57-6.58-16.21-4.1-3.21,1.42-4.82,2.14-4.84,2.13-.47-.08-.66-.66-.31-.98ZM213.3,55.67c.22.07.37.31.32.54-8.23,39.33-12.77,60.26-13.64,62.78-.04.12-.05,1.24,0,3.37.02,1.4,1.78,2,2.64.89,3.36-4.31,6.12-10.92,8.32-17.32,7.29-21.15,13.16-37.11,17.63-47.89,2.2-5.32,5.05-8.88,8.52-10.68,2.11-1.1,4.67-.39,5.77,1.59,3.3,5.98-.7,20.76-2.29,26.43-3.19,11.46-10.84,36.38-22.96,74.76-.24.74-.76,1.37-1.43,1.8-11.42,6.91-23.29,13.34-35.6,19.31-.47.23-.86.29-1.14.18-.65-.27-.94-.75-.82-1.45,4.1-23.97,12.05-44.29,21.37-69.32.95-2.55,3.48-10.13,7.57-22.76,1.46-4.5,2.43-8.56,2.89-12.22.54-4.13,1.3-7.37,2.3-9.73.09-.22.34-.33.57-.27ZM214.32,26.61c.51.32.88.8,1.08,1.36,2.27,6.56.55,17.72-1.21,23.55-.08.3-.49.28-.57-.01l-1.39-5.76c-.07-.37-.29-.69-.57-.93-3.33-2.79-7.32-3.09-10.68-.27-1.13.94-2.09,1.68-2.91,2.19-.37.24-.84-.11-.76-.54,1.16-5.93,6.93-26.11,17.01-19.6ZM180.18,54.12s.07-.05.13-.05c.09-.03.16.03.14.09-.59,1.73-.79,3.5-.6,5.31.05.49.02,1-.08,1.48-2.4,10.52-4.56,20.75-6.44,30.71-.86,4.52-2.71,9-5.58,13.44-.08.13-.23.17-.36.11-.13-.06-.2-.2-.16-.34,1.79-6.45,5.37-19.36,10.68-38.74.85-3.1,1.52-6.94,2.02-11.56.03-.22.11-.4.24-.45ZM149.32,44.64c1.12,4.85,1.28,11.09.47,18.7-.03.16-.07.32-.12.48l-10.12,28.51s-.1.08-.15.05l-.47-.19s-.07-.08-.06-.11l9.16-47.41c.13-.7,1.13-.7,1.28-.02ZM105.13,346.34c-33.13,1.21-67.1-14.86-88.03-40.49-.69-.86-.86-2.04-.39-3.05l.81-1.77c.35-.76,1.38-.84,1.87-.17,3.27,4.6,8.59,9.66,15.92,15.16,20.02,15.02,48.61,26.77,74.1,23.91.57-.06,1.06.38,1.06.96-.05,3.51-1.83,5.33-5.34,5.45ZM141.64,252.37c-12.31,25.01-21.62,57.32-28.89,82.31-.27.94-1.1,1.6-2.07,1.66-13.51.73-25.8-.79-36.87-4.52-19.92-6.73-39.73-18.21-52.86-34.4-.56-.68-.61-1.63-.14-2.35,12.03-18.81,22.99-38.78,32.85-59.92,8.33-17.83,12.12-37.2,15.29-57.36,6.33-40.23,10.47-65.73,12.46-76.51,3.21-17.4,6.62-32.29,10.21-44.69,1.43-5,3.68-8.78,6.72-11.31,1.97-1.64,4.96-.89,5.92,1.49,1.39,3.43,1.88,7.44,1.46,12.05-1.4,15.3-2.44,28.5-3.09,39.59-.38,6.26-.18,11.23.58,14.89.39,1.84,2.97,1.99,3.54.19,1.03-3.19,1.57-4.9,1.63-5.15,9.51-36.21,13.77-53.32,22.9-79.32,1.07-3.1,3-5.61,5.77-7.52,9.66-6.66,9.41,9.13,8.67,14.23-.09.69-4.09,22.55-11.94,65.57-1.19,6.45-1.7,10.69-1.57,12.68.04.7.2,1.25.49,1.63.73.98,2.25.74,2.65-.41,10.31-30.07,19.62-58.32,31.33-84.78.9-2.05,2.23-4.17,3.99-6.35,3.3-4.14,9.15-6.49,12.33-.98,2.96,5.15-1.16,23.69-3.85,28.8-1.32,2.52-2.54,6.47-3.68,11.83-.02.05-1.25,3.99-3.69,11.81-6.44,20.53-10.7,36.01-12.79,46.43-.17.88.02,1.61.6,2.18.81.8,2.17.54,2.72-.5,5.13-9.75,11.29-22.2,18.49-37.32,4.81-10.11,10.72-20.75,15.95-31.06,1.87-3.66,3.84-5.49,6.63-7.47,1.59-1.14,3.83-.88,5.33.61,1.43,1.4,1.9,3.2,1.44,5.41-1.95,9.54-4.14,18.71-7.67,28.29-8.84,24.13-15.28,42.13-19.32,54.01-3.82,11.23-6.68,22.04-8.61,32.37-.59,3.26.23,5.81,2.46,7.67.55.47,1.31.66,2.02.51,4.73-1,8.76-2.42,12.13-4.25.66-.38,1.35-.64,2.08-.82,6.65-1.73,13.89-5.43,21.72-11.11.13-.09.14-.26.07-.38-.08-.12-.24-.15-.37-.08-10.83,6.03-19.91,10.89-30.73,14.22-.19.07-.41-.04-.49-.24-.07-.19,0-.42.19-.51,15.54-8.19,30.39-15.62,44.54-22.32,4.02-1.9,12.99-3.32,17.07,1.13,2.42,2.62.7,5.82-1.62,7.38-32.59,21.69-62.26,45.99-89.02,72.95-4.3,4.34-8.64,10.93-12.99,19.76ZM171.57,336.52l-.15.45c-.43,1.25-1.57,2.1-2.87,2.13-20.29.53-33.73.5-50.64-4.33-.89-.25-1.36-1.19-1.06-2.06l.66-1.84c.32-.85,1.23-1.29,2.07-1.02,17.11,5.62,32.75,5.81,50.41,4.64,1.11-.07,1.92.99,1.58,2.04ZM195.54,226.94c-10.08,33.08-14.6,68.39-22.54,102.44-.13.51-.55.91-1.07.98-16.74,2.32-36.32,2.16-51.8-4.45-.5-.22-.75-.78-.6-1.3,6.64-21.67,11.56-37.12,14.75-46.31,4.35-12.55,9.62-23.66,15.8-33.32,3.17-4.96,8.17-10.7,14.97-17.22,22.66-21.71,46.84-41.62,72.48-59.74.17-.12.39-.08.52.05.14.16.14.39,0,.53-5.59,6.15-14.16,15.61-25.73,28.38-7.68,8.48-13.26,18.45-16.77,29.93Z"/>
    <path class="st0" d="M135.73,73.1h-.04c-.42-.1-.83.17-.93.58l-6.64,30.03c-.09.42.17.84.59.93h.04c.42.1.83-.17.93-.58l6.64-30.03c.09-.42-.17-.84-.59-.93Z"/>
    <path class="st0" d="M92.96,70c.1-.49-.24-.96-.72-1.06h-.07c-.49-.1-.97.22-1.06.71l-9.27,49.64c-.1.49.24.96.72,1.06h.07c.49.1.97-.22,1.06-.71l9.27-49.64Z"/>
    <path class="st0" d="M262.06,127.73c.83.65,2.06.18,1.99-.78,0-.27-.29-.46-.84-.56-.57-.11-1.01.07-1.3.54-.19.3-.13.57.16.8Z"/>
    <path class="st0" d="M188.66,108c-.97,2.62-1.31,3.99-1.02,4.11.29.1.93-1.14,1.91-3.78.97-2.62,1.32-3.97,1.02-4.09-.29-.11-.93,1.14-1.9,3.76Z"/>
    <path class="st0" d="M220.53,124.64c-1.25,4.56-1.68,6.9-1.29,7.01s1.21-2.12,2.44-6.69c1.25-4.56,1.67-6.89,1.29-6.99-.38-.11-1.19,2.12-2.44,6.67Z"/>
    <path class="st0" d="M186.93,114.05l-.58-.2c-.26-.09-.54.05-.62.31l-13.49,40.14c-.08.26.05.54.31.62l.58.2c.26.09.54-.05.62-.31l13.49-40.14c.08-.26-.05-.54-.31-.62Z"/>
    <path class="st0" d="M217.54,135.74c-.46-.13-1.39,1.58-2.07,3.84-.68,2.25-.87,4.21-.41,4.34.46.13,1.39-1.58,2.07-3.84.68-2.25.87-4.21.41-4.34Z"/>
    <path class="st0" d="M213.19,146.59c-.36.59-.45,1.26-.27,2.03.14.56.88.63,1.12.12.27-.58.26-1.27,0-2.06-.12-.38-.66-.44-.87-.09Z"/>
    <path class="st0" d="M231.96,163.45c2.96-1.22,5.37-3.35,7.23-6.36.05-.1.03-.22-.04-.3-.09-.07-.21-.07-.3,0l-7.39,5.83c-.2.14-.25.41-.13.62.12.21.4.3.62.2Z"/>
    <path class="st0" d="M215.96,175.71c.21.01.43-.03.64-.13.15-.06.27-.25.27-.43,0-.15-.13-.23-.28-.19-.43.16-.7.32-.77.49-.06.11.01.25.14.26Z"/>
    <path class="st0" d="M80.79,138.49c.49.04,1.04-1.63,1.21-3.75.18-2.11-.06-3.87-.56-3.9-.49-.04-1.04,1.63-1.21,3.75-.18,2.11.06,3.87.56,3.9Z"/>
    <path class="st0" d="M172.05,163.83c-.45.02-.67.26-.68.69,0,.55.28.83.83.88.47.02.76-.11.88-.42.22-.61-.32-1.23-1.03-1.16Z"/>
    <path class="st0" d="M68.79,200.43c.12.44.74.43.86,0,2.51-9.49,4.65-19.04,6.42-28.66,1.78-9.61,3.19-19.31,4.24-29.07.06-.46-.54-.67-.8-.3-.59.82-.96,1.82-1.14,2.96-1.06,6.95-2.55,15.61-4.46,26.01-1.92,10.39-3.63,19.02-5.12,25.88-.24,1.14-.25,2.21,0,3.18Z"/>
    <path class="st0" d="M183,200.38l.04.06c.22.28.61.32.89.1l20.52-16.28c.28-.21.32-.62.1-.89l-.04-.06c-.22-.28-.61-.32-.89-.1l-20.52,16.28c-.28.21-.32.62-.1.89Z"/>
    <path class="st0" d="M162.87,217.21l.09.11c.22.26.63.3.89.07l14.61-12.62c.26-.22.3-.63.07-.89l-.09-.11c-.22-.26-.63-.3-.89-.07l-14.61,12.62c-.26.22-.3.63-.07.89Z"/>
    <path class="st0" d="M196.02,214.55c.46.24,1.31-.48,1.87-1.61.57-1.13.66-2.22.2-2.46-.46-.24-1.31.48-1.87,1.61-.57,1.13-.66,2.22-.2,2.46Z"/>
    <path class="st0" d="M191.54,224.26l.1.05c.49.25,1.11.06,1.37-.43l3.41-6.56c.25-.49.06-1.11-.43-1.37l-.1-.05c-.49-.25-1.11-.06-1.37.43l-3.41,6.56c-.25.49-.06,1.11.43,1.37Z"/>
    <path class="st0" d="M173.95,222.6c-1.12.68-1.68,1.07-1.71,1.15-.16.38.29.74.62.49,1.03-.77,1.56-1.15,1.56-1.16.22-.31-.16-.68-.47-.48Z"/>
    <path class="st0" d="M159.14,221.78c-.48-.4-3.21,1.94-6.12,5.23l-.42.45c-2.9,3.32-4.88,6.33-4.4,6.73l.21.18,10.94-12.42-.21-.18Z"/>
    <path class="st0" d="M187.52,238.7c.38-.51.57-1.38.57-2.6,0-.66-.82-.98-1.26-.45-.42.53-.62,1.42-.55,2.68.03.66.87.9,1.25.37Z"/>
    <path class="st0" d="M184.98,245.78l-.53-.11c-.27-.05-.52.11-.58.38l-6.96,32.81c-.05.27.11.53.38.58l.53.11c.27.05.52-.11.58-.38l6.96-32.81c.05-.27-.11-.53-.38-.58Z"/>
    <path class="st0" d="M65.84,212.38c.17.59.92.74,1.32.28.61-.7.76-1.91.45-3.64-.07-.42-.66-.5-.83-.1-.78,1.8-1.1,2.95-.95,3.46Z"/>
    <path class="st0" d="M145.93,255.13l-.07-.02c-.42-.14-.86.1-1,.52l-15.25,48.44c-.14.42.1.86.52,1l.07.02c.42.14.86-.1,1-.52l15.25-48.44c.14-.42-.1-.86-.52-1Z"/>
    <path class="st0" d="M63.54,231.17l-.35-.15c-.69-.34-1.58.05-1.97.88l-21.46,45.22c-.39.83-.14,1.76.57,2.09l.34.17c.08.05.17,0,.22-.08l22.73-47.92c.05-.08,0-.17-.08-.22Z"/>
    <path class="st0" d="M129.65,258.23l-.24-.08c-.41-.14-.86.08-1.01.5l-9.39,27.95c-.14.42.09.87.5,1.01l.24.08c.41.13.86-.08,1.01-.5l9.39-27.95c.14-.42-.09-.87-.5-1.01Z"/>
    <path class="st0" d="M170.06,320.01l.71.14c.26.05.52-.11.58-.38l5.83-28.72c.06-.27-.12-.52-.38-.58l-.71-.14c-.26-.05-.53.11-.58.38l-5.83,28.72c-.06.27.12.52.38.58Z"/>
    <path class="st0" d="M54.78,264.51l-.06-.03c-.4-.2-.89-.04-1.09.36l-7.97,15.94c-.2.39-.04.89.36,1.09l.06.03c.4.2.89.04,1.09-.36l7.97-15.94c.2-.39.04-.89-.36-1.09Z"/>
    <path class="st0" d="M34.04,289.27c-.15-.05-.33,0-.41.15l-4.56,9.08c-.06.11.01.25.14.27.2.03.41-.02.63-.12.06-.02.14-.09.22-.2,2.04-2.74,3.43-5.68,4.19-8.81.03-.16-.05-.32-.2-.39Z"/>
    <path class="st0" d="M41.08,291.28c-.12.19-.47.91-1.06,2.17-.58,1.26-.91,2.01-.98,2.22-.22.73.7,1.24,1.21.68.22-.25.61-1,1.18-2.24.58-1.24.9-2.03.93-2.36.11-.75-.88-1.11-1.28-.46Z"/>
    <path class="st0" d="M37.04,300.97c-.15.16-.68.9-1.61,2.18-.14.2-.2.43-.19.7.04.51.32.83.83.94.37.08.73-.14.82-.51l.74-3c.1-.35-.36-.58-.59-.31Z"/>
  </g>
  <path class="st0" d="M354.5,385.46c-1.93-.73-3.87-.9-5.83-.54-1.57.29-2.73,1.64-2.76,3.24-.1,3.89.51,9.02,1.83,15.37,3.5,16.97,10.86,31.82,22.1,44.55,1.13,1.29,1.83,2.9,1.97,4.61.37,4.4.7,7.53.99,9.39,5.96,39.02,11.42,77.58,16.39,115.65.39,2.89.39,5,3.11,6.67,8.42,5.13,17.82,8.8,28.23,11.03,35.22,7.56,69.92,7.47,104.08-.29,7.01-1.59,14.07-3.94,21.17-7.07,2.86-1.26,5.21-2.7,7.07-4.33.66-.57,1.07-1.36,1.19-2.21l16.24-116.77c.07-.54.29-1.06.6-1.5,1.93-2.69,4.99-5.4,6.7-7.66,13.87-18.13,20.77-38.95,20.73-62.45,0-3.64-.59-6.59-1.74-8.83-.27-.53-.71-.94-1.26-1.16-1.66-.7-3.53-.74-5.6-.16-.69.2-1.34-.4-1.2-1.1,1.01-5.1.07-8.93-2.83-11.52-3.69-3.29-9.16-5.43-14-6.81-15.59-4.47-31.73-7.41-48.45-8.83-47.66-4.03-96.77-3.53-143.13,6.46-5.47,1.19-11.19,3.1-17.13,5.76-8.86,3.96-7.59,9.73-7.66,17.92,0,.43-.43.73-.83.57ZM348.86,395.11c-.21-1.33-.21-3.69,0-7.04.03-.47.47-.8.94-.7l2.7.61c.21.04.26.33.09.44-.5.34-.73.86-.69,1.56,2.77,36.57,29.53,65.91,60.75,83.01,15.86,8.67,30.72,14.1,44.59,16.27.86.14,1.49.9,1.47,1.77l-.06,2.26c-.03.73-.69,1.27-1.41,1.14-28.07-4.93-52.59-16.83-73.56-35.73-19.17-17.29-30.77-38.49-34.82-63.59ZM571.09,443.34c.14,1.09-.14,2.2-.8,3.09-7.37,9.89-15.94,17.74-25.72,23.57-2.34,1.39-3.83,2.3-4.44,2.73-6.21,4.23-12.64,6.86-20.6,9.76-.49.17-1.03.06-1.4-.3-2.07-2.01-4-2.8-5.79-2.36-15.6,3.86-31.43,4.69-47.49,2.49-3.79-.51-5.87-.37-7.03,3.21-.19.56-.76.9-1.33.79-29.32-6-58.69-21.4-78.12-44.09-2.87-3.36-4.86-6.16-5.93-8.4-1.33-2.76-1.04-6.81-1.43-9.39-1.47-9.59-2.69-16.9-3.67-21.93-.04-.17.13-.31.29-.26,17.57,6.63,36.66,9.52,54.36,11,37.15,3.13,74.01,2.67,110.58-1.39,14.14-1.56,28.55-4.76,43.19-9.59.21-.07.43.11.4.34-2.13,16.5-3.81,28.33-5.06,35.49-.27,1.61-.29,3.36-.01,5.23ZM460.68,485.96c-.13-.49.29-.94.79-.89,17.72,2.34,34.96,1.57,51.75-2.33.91-.21,1.86.09,2.49.79,1.89,2.14,2.67,4.99,2.34,8.54-.39,4.07-5.69,5.06-9.12,5.54-10.87,1.53-18.93,2.27-24.14,2.26-1.6,0-9.29-.44-23.04-1.33-.5-.03-.84-.49-.76-.97.76-3.84.66-7.71-.3-11.62ZM367.9,427.45c.03.27-.33.4-.47.17-5.99-9.29-9.86-19.1-11.6-29.46-.09-.56.47-1,.99-.77l6.46,2.77c.76.33,1.29,1.03,1.39,1.84l3.24,25.45ZM552.02,578.01l-.44,2.33c-.2,1.03-.84,1.9-1.74,2.4-7.41,4.13-15.06,7.13-22.93,9.03-28.89,6.94-59.56,8.1-92.01,3.47-13.84-1.97-26.83-5.77-38.95-11.39-1.46-.67-2.6-1.91-3.16-3.43l-1.21-3.3c-.27-.73.51-1.41,1.2-1.04,8.69,4.63,18.36,7.93,29,9.89-.27,1.04-.33,1.84-.19,2.4.07.27.46.27.53,0,.29-1.14.73-1.86,1.34-2.13,25.77,5.21,52.42,6.21,79.95,2.99,18.23-2.13,34.09-6.14,47.56-12.04.56-.24,1.16.23,1.04.83ZM555.48,547.53c-4.04,1.16-6.71,3.77-8.03,7.84-.11.34.06.71.37.87.33.16.71.04.91-.26,1.59-2.41,3.76-4.23,6.49-5.41l-1.47,11.92c-.87-.44-1.61-.59-2.23-.43-.39.1-.59.31-.63.66-.06.47-.09.73-.1.79-.07.49-.36.91-.79,1.17-1.01.59-1.64,1.16-1.89,1.73-.21.51-.64.9-1.17,1.07-1.7.54-2.83,1.77-3.41,3.69-.17.56-.54,1.03-1.03,1.33-1.3.8-1.74,1.77-1.33,2.93.31.9,1.6.83,1.84-.09l.59-2.29c.11-.43.5-.74.96-.73.09.01.24.1.46.29.33.3.73.29,1.19-.03.41-.3.63-.8.61-1.5-.01-.5.36-.91.86-.99.04,0,.19.01.46.03.54.04,1.04-.29,1.19-.81.26-.9.77-1.64,1.56-2.2.3-.21.47-.57.47-.94,0-1.06.69-1.57,2.07-1.54l-.79,5.8c-.13.99-.73,1.86-1.6,2.36-7.11,4-14.1,6.84-20.94,8.52-39.95,9.76-79.61,9.42-118.98-1.01-3-.8-5.94-1.81-8.83-3.04-3.23-1.37-10.93-3.99-11.37-7.93-1.76-15.77-4.8-38.45-9.1-68.01-2.93-19.99-5.21-35.27-6.87-45.83-.06-.34.36-.56.61-.31,22.9,22.53,49.63,36.55,80.21,42.05.5.09.99.29,1.4.6,1.74,1.27,1.94,3.67,4.67,3.76,5.99.17,10.56.43,13.72.77,12.62,1.34,28.32-.44,39.12-2.84,1.56-.34,2.93-1.2,3.91-2.44l2.47-3.16c.14-.17.33-.3.54-.37,13.66-3.87,26.03-10.17,37.12-18.93.47.09.77.2.9.34.5.6.33,1.5-.36,1.83-2.64,1.31-8.43,4.5-8.44,7.51,0,.3-.24.54-.54.56-1.61.06-2.7,1.01-3.23,2.86-.13.47.4.86.8.59l2.06-1.39c.43-.29,1-.1,1.19.37.56,1.44.86,2.91.9,4.43l-7.3,53.96c.3,1.44.11,2.94-.57,4.5-.66,1.47-.44,2.21.06,3.61.16.43.11.9-.1,1.3-.9,1.7-1.09,3.39-.53,5.03.17.51.86.59,1.14.14,1.27-1.99,1.67-3.59,1.19-4.79-.64-1.64-.5-3.5.44-5.57.19-.41.57-.7,1.03-.79l.81-.13c.33-.06.63-.2.87-.41l7.44-6.73c.06,1.7-.27,3.6-.99,5.71ZM562.85,479.84c-.37.01-.63.1-.77.26-.59.66-1.66.09-1.46-.77.36-1.5,1.24-1.79,2.63-.86.6.41.33,1.34-.4,1.37ZM557.53,481.41s-.01-.06-.01-.1c0-1.37.64-1.63,1.93-.79.34.23.43.69.17,1.01l-5.1,6.49c-.3.37-.9.24-1-.23-.33-1.49-.23-3.11.33-4.89.36-1.11,1.77-1.46,2.6-.63l.61.61c.23.23.6.04.57-.27l-.1-1.21ZM556.15,540.86c-3.23,1.56-6.09,3.6-8.59,6.11-.56.56-.93.19-1.11-1.09l6.86-54.06c-.11-1.13.37-1.76,1.44-1.86.34-.04.67-.2.9-.46l3.1-3.53c.23-.26.4-.59.49-.93.59-2.5,2.39-3.39,5.39-2.64l-8.47,58.45ZM592.61,386.5c0-.4.4-.66.76-.5l.64.27c1.04.44,1.73,1.46,1.76,2.59.63,25.93-6.56,47.99-21.54,66.18-13.82,16.74-31.39,28.65-52.72,35.69-.16.06-.34-.06-.34-.23l-.37-4.73c-.01-.17.1-.33.26-.39,21.06-7.81,38.33-20.17,51.8-37.09,11.99-15.03,18.26-31.02,19.53-49.76.13-1.81.2-5.81.23-12.03ZM588.75,386.81c.04-.34.34-.6.69-.56l.26.03c.34.04.6.34.56.69l-.6,5.88c-.04.34-.34.6-.69.56l-.26-.03c-.34-.04-.6-.34-.56-.69l.6-5.88ZM589.15,395.32c.26-.26.69-.07.69.29-.46,17.02-5.54,32.27-15.26,45.78-.17.24-.56.09-.51-.2l5.46-39.29c.11-.87.76-1.57,1.6-1.8,2.99-.8,5.67-2.39,8.03-4.77ZM359.83,372.66c3.66-2.61,8.23-4.79,13.72-6.51,11.93-3.76,24.63-6.26,38.09-7.5,42.52-3.94,83.41-3.89,122.67.17,10.86,1.13,21.82,3.23,32.89,6.33,5.47,1.53,14.83,4.2,17.89,9.06.33.51.3,1.19-.06,1.67-2.27,3.03-5.33,5.11-9.17,6.24-.34.1-.64-.27-.46-.57,2.91-5.07,1.16-7.71-3.83-9.99-5.47-2.49-12.56-4.5-21.26-6.04-13.92-2.44-27.39-4.09-40.43-4.9-33.52-2.11-67.99-1.43-101.71,2.36-11.42,1.27-25.83,3.43-35.93,8.76-3.67,1.94-4.79,5.1-3.33,9.46.1.31-.19.61-.5.53-3.63-1.01-6.6-2.74-8.93-5.2-1.07-1.13-.9-2.96.36-3.86ZM568.82,375.16c-3-1.39-6.8-2.3-11.39-2.74-.76-.07-1.49.33-1.83,1.01-.7,1.39-1.84,2.3-3.41,2.71-.87.24-1.63-.63-1.27-1.46.67-1.54,1.09-2.53,1.24-2.97.34-.97-.6-1.91-1.57-1.57-1.07.37-1.53,1.27-1.41,2.4.33,3.27-.39,5.61-2.13,7.03-.2.16-.34.37-.43.6l-1.83,5.11c-.07.19.01.4.19.49l.4.19c.29.14.64.04.8-.23l3.79-6.33c.24-.41.64-.7,1.1-.79,2.8-.56,5.29-1.51,7.46-2.87.44-.29.99.17.79.66l-.49,1.21c-.07.19-.21.33-.4.41-2.19.99-3.96,2.94-5.3,5.89-.43.93.19,2,1.2,2.1,1.66.17,3.21-.23,4.66-1.19.26-.16.57-.2.86-.09l.96.39c.39.16.81.11,1.16-.13,3.6-2.56,7.1-3.53,10.49-2.89-12.44,4.53-27.23,7.7-44.36,9.54-49.75,5.36-96.05,3.86-138.9-4.47-4.16-.81-10.22-2.34-13.1-3.36-3.33-1.17-7.01-4.93-3.66-8.19,1.44-1.41,3.67-2.57,6.66-3.5,9.84-3.07,18.94-5.04,27.27-5.94,36.69-3.96,74.08-4.57,112.18-1.86,14.62,1.04,28.93,3.49,43.45,7.09,3.67.91,7.24,2.36,10.7,4.31,1.01.59,1.27,1.5.74,2.77-1.41-.41-2.86-.49-4.36-.24-.47.09-.9-.23-.99-.69-.13-.64.11-1.09.71-1.34.47-.2.49-.86.03-1.09ZM567.45,381.03c0,.1-.07.17-.17.17s-.17-.07-.17-.17.07-.17.17-.17.17.07.17.17ZM560.78,378.09c-.04-.5.29-.96.77-1.06.93-.2,1.69-.23,2.26-.09,1.09.27,1.33,1.69.41,2.31l-3.99,2.69c-.41.29-.74.69-.93,1.17-.07.19-.13.36-.19.5-.2.49-.84.6-1.17.2-.17-.2-.34-.81-.51-1.86-.1-.64.36-1.26,1-1.33,1.73-.2,2.5-1.04,2.34-2.54ZM358.35,380.59c8.01,4.41,16.96,7.56,26.79,9.43,28.92,5.49,57.66,7.67,86.96,7.69,29.3,0,58.05-2.17,86.96-7.64,9.84-1.86,18.77-5,26.8-9.42.16-.09.36.04.33.23l-2.46,14.72c-.03.2-.16.36-.34.43-10.27,4-18.82,6.77-25.64,8.31-27.63,6.26-56.99,7.83-85.65,7.81-28.66,0-58.02-1.6-85.66-7.86-6.81-1.54-15.36-4.33-25.63-8.33-.19-.07-.31-.24-.34-.43l-2.44-14.72c-.03-.19.16-.33.33-.23ZM356.05,388.29c.32-.06.64.17.69.49l.96,5.78c.05.33-.17.64-.49.69l-.73.12c-.32.06-.64-.17-.69-.49l-.96-5.78c-.05-.33.17-.64.49-.69l.73-.12Z"/>
  <path class="st0" d="M518.07,368.42c.3.06.51-.07.64-.4.03-.09,0-.19-.07-.24-.19-.16-.39-.14-.61.01-.27.19-.24.59.04.63Z"/>
  <path class="st0" d="M525.77,368.85c-.9-.63-2.1.29-1.53,1.17.01.04.29.14.79.31.39.13.7-.07.94-.63.16-.36.1-.64-.2-.86Z"/>
  <path class="st0" d="M408.38,369.35c-.2-.16-.78.23-1.28.86-.5.63-.74,1.29-.54,1.45.2.16.78-.23,1.28-.86.5-.64.74-1.29.54-1.45Z"/>
  <path class="st0" d="M536.62,371.83c-.47-1.39-.94-2-1.4-1.81-.44.17-.39.93.2,2.29.31.7.51,1.43.61,2.17.04.39.39.46,1,.21.63-.24.83-.51.6-.84-.43-.61-.77-1.29-1.01-2.01Z"/>
  <path class="st0" d="M520.96,370.67c-.3.09-.47.37-.51.86-.01.13.04.26.14.34.23.16.47.16.74-.01s.39-.53.3-.83c-.1-.29-.39-.44-.67-.36Z"/>
  <path class="st0" d="M545.68,370.86c-.41-.06-.81.21-.93.61-.53,1.8-1.47,2.66-2.84,2.59-.86-.04-1.6.84-1.67,2-.21,3.27-.51,6.3-.87,9.12-.11.8.54,1.5,1.33,1.41.47-.06.81-.21,1.04-.49,3.37-4.07,4.94-8.87,4.7-14.43-.01-.41-.34-.77-.76-.81ZM542.7,382.33c-.03.09-.11.14-.2.11h-.06c-.83-.21-1.16-1.8-.73-3.57l.23-.94c.43-1.76,1.44-3.03,2.27-2.83h.06c.09.04.14.13.13.23l-1.7,7Z"/>
  <path class="st0" d="M529.47,377.9c.39.12,1.15-1.29,1.71-3.14.56-1.85.7-3.44.32-3.56-.39-.12-1.15,1.29-1.71,3.14-.56,1.85-.7,3.44-.32,3.56Z"/>
  <path class="st0" d="M388.79,372.43c-.04.79.09,1.47.39,2.06.17.33.64.24.71-.11.17-1.03.2-1.69.09-1.96-.26-.61-1.16-.61-1.19.01Z"/>
  <path class="st0" d="M396.79,371.93c-.39,0-.7.31-.7.7s.31.7.7.7.7-.31.7-.7-.31-.7-.7-.7Z"/>
  <path class="st0" d="M379.8,376.68c.33-.47.51-.84.56-1.09.13-.61-.57-1.06-1.06-.69-.41.31-.63.76-.67,1.31-.04.67.8,1,1.17.46Z"/>
  <path class="st0" d="M386.05,375.63c0-.41-.17-.64-.5-.7-.23-.04-.43.1-.47.33-.06.21.07.44.29.53.24.09.37.13.39.13.16.01.3-.13.3-.29Z"/>
  <path class="st0" d="M382.19,376.76l-.04,1.97c0,.43.56.6.8.24.43-.64.44-1.44.03-2.39-.17-.4-.79-.27-.79.17Z"/>
  <path class="st0" d="M402.18,377.46c-.16.47-.06.84.31,1.11.74.54.84-1,.64-1.26-.26-.36-.81-.27-.96.14Z"/>
  <path class="st0" d="M390.93,377.93c-.29.23-.39.69-.23,1.01.16.33.53.43.83.23.3-.2.43-.59.41-1.17,0-.09-.04-.16-.1-.2-.24-.2-.56-.16-.91.13Z"/>
  <path class="st0" d="M374.1,377.88c-.6.43-.58,1.48.05,2.38.63.89,1.62,1.26,2.22.85.59-.43.58-1.48-.05-2.38-.63-.89-1.62-1.26-2.22-.85Z"/>
  <path class="st0" d="M523.15,380.03c.63-.19,1-.46,1.13-.8.14-.4.13-.77-.03-1.11-.24-.5-.97-.47-1.31.06-.46.7-.61,1.21-.47,1.51.13.31.36.43.69.34Z"/>
  <path class="st0" d="M535.99,381.98c.2-.4.21-.93.04-1.6-.24-.97-1.57-1.11-1.76-.2-.11.56-.03,1.13.24,1.69.31.63,1.19.7,1.47.11Z"/>
  <path class="st0" d="M381.42,380.02c-1.19.6-1.54,1.1-1.04,1.5.01.01.01.06-.01.06l-.47.07c-.3.04-.44.39-.3.66.07.13.29.29.67.47.36.17.77.01.93-.34l.8-1.87c.16-.36-.23-.71-.57-.54Z"/>
  <path class="st0" d="M387.21,381.79c-.46-.28-1.16.04-1.54.7-.39.66-.32,1.42.14,1.69.46.28,1.16-.04,1.54-.7.39-.66.32-1.42-.14-1.69Z"/>
  <path class="st0" d="M400.05,382.42c-.3.16-.51.54-.49.87.03.33.29.49.59.34.11-.06.26-.23.44-.5.17-.24.14-.47-.09-.66-.16-.11-.3-.13-.46-.06Z"/>
  <path class="st0" d="M391.03,383.03c-.01.17.06.41.21.74.07.17.31.17.4,0,.16-.3.16-.59.03-.86-.14-.33-.63-.24-.64.11Z"/>
  <path class="st0" d="M531.56,382.68c-.44-.16-.93.19-.91.67.01.69-.11,1.34-.4,1.96-.27.63-.69,1.16-1.2,1.59-.37.33-.33.91.1,1.14.19.1.39.13.6.09.13-.04.26-.1.37-.16.06-.04.41-.79,1.07-2.23.64-1.46.97-2.21.96-2.27-.01-.14-.06-.27-.11-.39-.11-.2-.26-.33-.47-.4Z"/>
  <path class="st0" d="M395.49,383.15c-.36.19-.59.4-.71.61-.19.31.2.64.49.43.16-.13.36-.34.57-.67.16-.23-.1-.5-.34-.37Z"/>
  <path class="st0" d="M523.38,384.69c.38-.48.45-1.07.16-1.3-.29-.24-.85-.04-1.23.45-.38.48-.45,1.07-.16,1.3.29.24.85.04,1.23-.45Z"/>
  <path class="st0" d="M416.56,384.68c-.21.31-.47.99-.74,2-.09.31.29.54.53.33.81-.69,1.21-1.36,1.2-2.03-.01-.51-.69-.73-.99-.3Z"/>
  <path class="st0" d="M562.69,399.92c1.24.11,2.33-.16,3.24-.83.46-.34.73-.89.7-1.47-.07-1.81.86-3.37,2.79-4.67.81-.56,1.89.2,1.63,1.16-.46,1.64-1.09,2.37-1.87,2.21-.63-.13-1.17.46-.99,1.07l.11.43c.2.64.83,1.07,1.5,1,.74-.07,1.23-.27,1.46-.6.44-.64,1.17-1.01,1.94-1.03,1.21-.01,2.46-.51,3.73-1.47.44-.33.59-.93.34-1.43l-.87-1.76c-.13-.23-.43-.29-.63-.11l-1.67,1.47c-.33.29-.81.29-1.13-.01-.31-.29-.37-.77-.11-1.11,1.06-1.47,1.57-2.36,1.54-2.69-.04-.44.43-.76.83-.57.24.11.51.6.81,1.44.16.43.64.61,1.04.41,1.06-.56,1.53-1.44,1.41-2.66-.03-.3.31-.49.56-.3.43.34,1.43.46,3.01.36.66-.04,1.17-.57,1.19-1.23l.06-2.26c.01-.59-.63-.93-1.11-.61-3.37,2.2-7.59,3.99-12.66,5.37-3.13.86-4.64,2.91-4.54,6.19.01.4-.3.74-.71.77-.73.04-1.14.07-1.26.1-.7.17-1.29.81-1.37,1.5-.09.7.36,1.27,1.03,1.33Z"/>
  <path class="st0" d="M362.03,387.86c.5.67,1.47-.17,1.41-1.23-.04-.69-.6-1.26-1.67-1.73-.37-.16-.74.19-.63.57.43,1.37.73,2.17.89,2.39Z"/>
  <path class="st0" d="M535.56,385.19c-1.13.96-1.59,1.64-1.37,2.04.43.83,1.67.7,2.06-.23.26-.61.37-1.09.34-1.41-.06-.5-.64-.73-1.03-.4Z"/>
  <path class="st0" d="M407.91,385.4c-.17.14-.21.4-.1.6.1.16.34.17.73.07.07-.03.13-.1.14-.17.01-.21-.04-.37-.17-.5-.17-.14-.43-.14-.6,0Z"/>
  <path class="st0" d="M412.42,385.19c-.59-.09-1.01.53-.64.93.26.27.54.11.86-.5.13-.24.06-.39-.21-.43Z"/>
  <path class="st0" d="M525.49,386.99c-.41.24-1.19,1.06-2.31,2.44-.19.23.07.54.33.41,1.2-.59,2.03-1.4,2.49-2.43.13-.31-.21-.6-.5-.43Z"/>
  <path class="st0" d="M369.25,388.79c.39-.2.27-.77-.16-.81-.39-.04-.54.19-.49.66.03.3.24.36.64.16Z"/>
  <path class="st0" d="M365.69,390.86c.23-.33.36-.74.39-1.23.03-.36-.44-.53-.66-.24-.23.29-.34.7-.36,1.26-.01.34.43.49.63.21Z"/>
  <path class="st0" d="M422.06,389.25c-.22.07-.34.34-.24.61.09.26.35.4.57.33.22-.07.34-.34.24-.61-.09-.26-.35-.4-.57-.33Z"/>
  <path class="st0" d="M517.89,389.42c-.27.34-.29.6-.03.76.29.19.67.14.91-.1.23-.24.24-.61.03-.87-.26-.3-.56-.23-.91.21Z"/>
  <path class="st0" d="M368.76,390.78c.01.09.09.14.17.11.09-.01.14-.11.14-.2-.01-.04-.09-.26-.21-.61-.07.41-.11.64-.1.7Z"/>
  <path class="st0" d="M581.98,390.38l-.77.14c-.69.14-1.21.69-1.33,1.37l-.41,2.61c-.11.66.69,1.07,1.17.61,1.33-1.31,2.13-2.54,2.37-3.7.13-.61-.4-1.17-1.03-1.04Z"/>
  <path class="st0" d="M513.92,390.78c-.3-.19-.63.19-.43.47.16.21.46.27.87.16.16-.04.19-.24.06-.33l-.5-.3Z"/>
  <path class="st0" d="M386.23,395.07c.21.08.58-.45.84-1.15.25-.71.3-1.35.09-1.43-.21-.08-.58.45-.84,1.15-.25.71-.3,1.35-.09,1.43Z"/>
  <path class="st0" d="M369.22,395.52c.13-.23.16-.83.09-1.79-.01-.33-.44-.44-.63-.17-.49.7-.7,1.21-.63,1.54.11.64.89.91,1.17.41Z"/>
  <path class="st0" d="M363.5,394.31c.23.24.5.34.83.3.41-.04.66-.5.47-.87-.1-.23-.34-.34-.71-.36-.56-.01-.93.56-.59.93Z"/>
  <path class="st0" d="M555.18,401.06c.44.07,1.16-.17,2.16-.73.4-.23.51-.74.26-1.13-.59-.84-.63-1.69-.14-2.53.23-.39.69-.57,1.11-.44.01,0,.17.06.49.19.89.34,1.67-.69,1.1-1.46-1.1-1.49-2.29-1.61-3.57-.39-.36.33-1.04,2.13-2.06,5.43-.16.47.16.97.66,1.06Z"/>
  <path class="st0" d="M377.28,396.86l.13-.36c.07-.19-.01-.4-.2-.49-.19-.1-.4-.04-.51.13-.24.34-.36.53-.36.57.01.53.77.64.94.14Z"/>
  <path class="st0" d="M372.58,397.64c.18.07.46-.22.65-.64.19-.42.2-.84.02-.91-.18-.07-.46.22-.65.64-.19.42-.2.84-.02.91Z"/>
  <path class="st0" d="M542.38,402.93c2.01,1.41,3.39.5,4.14-2.74.09-.39.51-.57.86-.39.56.33.66.74.29,1.26-.2.27-.07.67.24.77.31.1,1.79-.11,4.4-.67.79-.17,1.21-.63,1.29-1.36.07-.73.13-1.27.16-1.61.09-.9-1.07-1.36-1.63-.64l-1.79,2.27c-.79,1-2.4.43-2.37-.86l.03-.81c.01-.67-.49-1.24-1.16-1.31-.66-.06-1.27.4-1.39,1.06-.34,1.94-1.3,3.16-2.86,3.64-.63.19-.76,1.01-.21,1.4Z"/>
  <path class="st0" d="M387,397.99c-.31,0-.57.57-.58,1.27-.01.71.23,1.3.53,1.3.31,0,.57-.57.58-1.27.01-.71-.23-1.3-.53-1.3Z"/>
  <path class="st0" d="M534.79,403.35c.26.17.51.21.8.11.2-.07.4-.26.57-.57.31-.53.63-1.03.97-1.51.33-.47.7-.96,1.09-1.43.23-.27.34-.51.33-.73,0-.3-.13-.54-.39-.71-.26-.19-.51-.21-.8-.11-.2.06-.4.24-.57.56-.31.53-.63,1.04-.97,1.51-.33.49-.7.96-1.09,1.43-.23.27-.34.53-.33.74,0,.3.13.53.39.71Z"/>
  <path class="st0" d="M382.25,400.29c.19-.13.27-.37.24-.76-.01-.24-.27-.4-.5-.29-.26.13-.4.2-.43.24-.16.2-.16.5.01.7.17.2.46.24.67.1Z"/>
  <path class="st0" d="M559.31,399.71c-.13.3-.1.47.06.5.66.13,1.26-.24,1.2-.74-.03-.19-.14-.3-.36-.34-.41-.09-.71.11-.9.59Z"/>
  <path class="st0" d="M523.73,405.9l.27.09c.37.13.77-.07.91-.44l1.61-4.67c.13-.37-.07-.79-.44-.91l-.27-.09c-.37-.13-.77.07-.91.44l-1.61,4.67c-.13.37.07.79.44.91Z"/>
  <path class="st0" d="M393.72,401.52c.07-.13-.04-.41-.37-.87-.24-.34-.76-.31-.86.06-.07.24.01.51.26.84.24.33.76.31.97-.03Z"/>
  <path class="st0" d="M568.31,411.94l2.57-2.26c.2-.19.51-.19.71-.01.21.19.27.49.13.71l-7.53,12.6c-.13.2.11.43.31.3,1.71-1.16,3.66-2.91,5.81-5.29.41-.46.67-1.03.74-1.64.16-1.37.7-2.31,1.64-2.83,1.73-.96,1.51-2.9.76-4.29-.17-.31-.21-.69-.13-1.03l.53-2.03c.17-.63-.41-1.21-1.04-1.04-3.81.99-5.59,3.14-5.29,6.5.03.37.49.56.77.3Z"/>
  <path class="st0" d="M561.73,414.92l2.86-6.69c.17-.4-.24-.8-.63-.6-1.81.9-2.67,2.17-2.54,3.84.03.4-.26.77-.66.84-1.39.24-1.93,1.03-1.63,2.36.29,1.3,2.07,1.47,2.6.24Z"/>
  <path class="st0" d="M554.65,418.04c.3-.26.44-.54.44-.87.01-.64-.33-.9-1.01-.76-.39.07-.89.34-1.5.81-.41.31-.97-.13-.76-.6,1.01-2.27,2.56-3.86,4.64-4.73.87-.37,1.21-1.41.71-2.17-.27-.4-.7-.49-1.27-.26-1.44.57-2.33,1.51-2.67,2.81-.14.51-.57.9-1.1.97-1.04.14-1.51,1.03-1.39,2.64.04.6-.13,1.2-.5,1.67-1.2,1.56-1.71,3.17-1.54,4.84.01.1.1.17.2.19l.47.06c.23.03.46-.13.5-.36.57-2.53,1.83-3.8,3.77-3.79.3.01.63-.14,1-.47Z"/>
  <path class="st0" d="M389.95,410.78c-.3-.1-.53-.06-.7.16-.1.11-.1.29-.01.4.13.16.34.23.61.19.4-.06.47-.6.1-.74Z"/>
  <path class="st0" d="M566.89,413.28c.24-.5.09-1.11-.37-1.44-.47-.31-1.1-.26-1.49.14-2,2.07-.69,5.53-3.61,6.71-.1.04-.13.19-.03.24l.34.21c-.84-.37-1.31-.09-1.4.87-1,10.62-2.23,21.52-3.7,32.73-.04.36.19.7.54.79.36.09.71-.1.84-.44l1.2-3.16c.09-.24.14-.49.16-.73l2.59-28.63c1.99-2.17,3.63-4.6,4.93-7.3Z"/>
  <path class="st0" d="M546.78,419.42c1.21-1.89,1.74-4.16,1.57-6.83-.03-.53-.61-.83-1.06-.56l-.76.46c-.39.24-.57.73-.41,1.16.66,1.97.3,3.46-1.07,4.46-.49.34-.53,1.04-.07,1.46l.06.07c.53.47,1.36.37,1.74-.21Z"/>
  <path class="st0" d="M386.73,412.76c-.34.29-.5.57-.49.87.04.39.51.56.79.27.29-.3.39-.61.29-.94-.11-.36-.31-.41-.59-.2Z"/>
  <path class="st0" d="M540.32,417.19c1.16-.41,1.79-.69,1.89-.83.11-.14.2-.83.26-2.06.01-.44-.39-.79-.81-.69-.83.19-1.41.53-1.77,1-.36.49-.5,1.14-.44,2,.03.43.47.71.89.57Z"/>
  <path class="st0" d="M556.99,413.92c-.79,1.09-1.06,2.07-.81,2.96.19.66,1.06.79,1.41.2.33-.53.39-1.51.2-2.96-.06-.4-.56-.53-.8-.2Z"/>
  <path class="st0" d="M379.92,414.92c-.11.06-.26.33-.44.83-.07.19.13.37.3.29.36-.16.54-.43.56-.83.01-.21-.21-.37-.41-.29Z"/>
  <path class="st0" d="M397.62,417.46c.56-.47.93-1.2,1.11-2.21.06-.34-.34-.57-.6-.34-.84.73-1.34,1.37-1.49,1.96-.14.56.53.97.97.6Z"/>
  <path class="st0" d="M402.54,414.91c-.41.16-.69.63-.81,1.4-.07.44.37.77.76.57.44-.24.7-.66.77-1.23.06-.49-.33-.89-.71-.74Z"/>
  <path class="st0" d="M409.44,415.15c-.9.16-1.34.67-1.34,1.57,0,.41.5.63.8.33l1-1.01c.37-.36.04-.97-.46-.89Z"/>
  <path class="st0" d="M534.83,415.37c-.52-.13-1.17.67-1.44,1.79-.27,1.12-.09,2.13.44,2.26.52.13,1.17-.67,1.44-1.79.27-1.12.09-2.13-.44-2.26Z"/>
  <path class="st0" d="M417.05,415.99c-.27.24-.4.59-.36,1.03.06.61.81.87,1.27.41.46-.47.46-.93-.01-1.37-.31-.3-.61-.33-.9-.07Z"/>
  <path class="st0" d="M383.96,417.91c.47-.3.7-.71.66-1.21-.03-.31-.33-.53-.63-.43-.5.16-.77.5-.79,1.03-.03.49.41.84.76.61Z"/>
  <path class="st0" d="M523.33,416.49c-.56.61-.77,1.21-.67,1.8.07.4.59.51.83.19.53-.74.8-1.27.81-1.59.01-.53-.63-.79-.97-.4Z"/>
  <path class="st0" d="M528.73,416.25c-.53-.02-.97.71-1,1.63-.03.91.39,1.67.91,1.68.53.02.97-.71,1-1.63.03-.91-.39-1.67-.91-1.68Z"/>
  <path class="st0" d="M378.78,417.09l-.49.59c-.21.27.04.66.37.56.03,0,.19-.3.49-.9.04-.1.01-.23-.09-.29-.09-.06-.21-.04-.29.04Z"/>
  <path class="st0" d="M517.73,417.15c-.54,0-.97.63-.97,1.4s.44,1.4.98,1.4.97-.63.97-1.4-.44-1.4-.98-1.4Z"/>
  <path class="st0" d="M374.86,417.48c-.39.16-.71.34-.99.59-.43.39-.1,1.09.41.91.33-.1.66-.41,1-.94.2-.3-.1-.69-.43-.56Z"/>
  <path class="st0" d="M570.53,418.82l-7.07,11.84c-.13.23.1.49.34.37,2.9-1.41,4.5-3.09,4.8-5.01.13-.77.66-1.41,1.4-1.67,2.31-.8,3.24-2.5,2.77-5.11-.2-1.11-1.66-1.39-2.24-.41Z"/>
  <path class="st0" d="M381.45,420.45c.44-.34.79-.87,1.06-1.6.04-.1,0-.23-.1-.27-.1-.06-.21-.04-.29.04-.8.96-1.2,1.46-1.21,1.49-.07.31.29.54.54.34Z"/>
  <path class="st0" d="M538.8,419.11c-.14-.14-.34-.14-.6-.01-.43.23-.5.79-.13.97.1.04.19.07.26.07.56.01.86-.64.47-1.03Z"/>
  <path class="st0" d="M540.67,421.08c-.46.75-.46,1.6.01,1.89.47.29,1.22-.09,1.69-.84.46-.75.46-1.6-.01-1.89-.47-.29-1.22.09-1.69.84Z"/>
  <path class="st0" d="M555.72,420.64c-.36-.38-1.38,0-2.25.83-.88.83-1.3,1.83-.93,2.21.36.38,1.38,0,2.25-.83.88-.83,1.3-1.84.93-2.21Z"/>
  <path class="st0" d="M377.58,422.79c-.06-.33-.49-.41-.67-.14-.16.23-.31.83-.5,1.79-.06.3.31.5.53.27.54-.56.76-1.2.64-1.91Z"/>
  <path class="st0" d="M383.55,424.57c-.63.79-.92,1.62-.66,1.83.27.21,1-.26,1.62-1.07.63-.79.92-1.62.66-1.83-.27-.21-1,.26-1.62,1.07Z"/>
  <path class="st0" d="M550.19,424.43c-.52-.24-1.38.52-1.93,1.7-.56,1.18-.58,2.32-.07,2.57.52.24,1.38-.52,1.93-1.7.56-1.18.58-2.32.07-2.57Z"/>
  <path class="st0" d="M374.65,428.02c-.19.11-.44.53-.77,1.23-.21.47.31.93.76.67.27-.16.44-.46.5-.89.09-.61-.19-1.2-.49-1.01Z"/>
  <path class="st0" d="M570.92,428.47c-.13-.33-.59-.34-.74-.03-1.09,2.14-3.01,3.93-5.79,5.34-.36.19-.73.56-1.11,1.14-.59.9-.9,1.46-.94,1.67-.09.41.31.76.71.63,1.66-.53,2.56-.9,2.7-1.09.8-1.14,2-1.96,3.59-2.44.41-.13.77-.39,1.01-.74,1.03-1.47,1.21-2.96.57-4.49Z"/>
  <path class="st0" d="M552.02,430.85c.29.04.54.01.79-.07.47-.17.81-.64.83-1.13,0-.47-.34-.81-.8-.79-.07.01-.44.36-1.13,1.03-.33.33-.14.89.31.96Z"/>
  <path class="st0" d="M396.25,430.48c-.06-.42-.46-.72-.87-.66h-.06c-.43.07-.71.45-.66.88l3.3,23.49c.06.42.46.72.87.66h.06c.43-.07.71-.45.66-.88l-3.3-23.49Z"/>
  <path class="st0" d="M528.03,429.66h-.06c-.44-.02-.83.34-.84.79l-.76,28.91c0,.46.35.83.79.84h.06c.44.02.83-.34.84-.79l.76-28.91c0-.46-.35-.83-.79-.84Z"/>
  <path class="st0" d="M378.15,430.95c-.44.41-.67.67-.71.76-.07.2.13.37.33.29.14-.07.39-.3.73-.71.09-.1.07-.24-.01-.33-.1-.09-.24-.09-.33,0Z"/>
  <path class="st0" d="M550.18,431.19c.19-.29-.06-.66-.39-.57-.89.21-1.57.71-2.07,1.47-.2.31-.16.71.11.97.27.24.69.27.97.04.14-.1.6-.74,1.37-1.91Z"/>
  <path class="st0" d="M382.95,432.84c-.14-.46-.76-.53-1-.11-.61,1.11-.94,1.74-.96,1.89-.03.27.3.43.49.23,1.04-1.09,1.54-1.76,1.47-2Z"/>
  <path class="st0" d="M551.8,437.85l.13.41c.16.51.83.64,1.16.21l3.66-4.6c.09-.13.09-.31-.03-.43l-.24-.24c-.17-.16-.44-.13-.57.06-.84,1.31-2.11,2.57-3.8,3.77-.27.19-.39.51-.3.81Z"/>
  <path class="st0" d="M540.59,436.31c-.67.37-.89.74-.66,1.11.23.39.66.37,1.3-.04,2.5-1.6,3.67-2.54,3.5-2.83-.17-.29-1.56.3-4.14,1.76Z"/>
  <path class="st0" d="M568.52,436.04c-2.99.99-4.17,2.51-3.54,4.59.16.54-.16,1.1-.71,1.24-1.49.37-2.37,1.47-2.64,3.31-.07.43.19.83.59.96.41.14.86-.04,1.04-.43,1.03-2.06,2.8-3.2,5.3-3.44.01,0,.26-.14.71-.44.16-.1.2-.34.13-.76-.04-.3-.3-.47-.8-.53-.56-.07-.94-.2-1.19-.36-.37-.26-.34-.81.04-1.04.81-.49,1.47-1.11,2-1.87.43-.64-.19-1.47-.93-1.23Z"/>
  <path class="st0" d="M549.53,438.49c-1.14,1.09-1.26,2.49-.36,4.2.24.46.93.31.97-.2l.31-3.54c.04-.51-.56-.8-.93-.46Z"/>
  <path class="st0" d="M382.76,440.08c-.46.83-.49,1.43-.07,1.81.5.46,1.29.07,1.23-.6l-.09-.99c-.04-.56-.8-.73-1.07-.23Z"/>
  <path class="st0" d="M542.63,441.34c.39-.54.56-1,.54-1.39-.01-.4-.54-.53-.74-.19-.41.7-.59,1.19-.51,1.46.1.33.53.39.71.11Z"/>
  <path class="st0" d="M545.93,443.8c.34-.79.5-1.24.46-1.39-.11-.37-.57-.49-.84-.21-.44.41-.59.93-.4,1.54.11.37.63.41.79.06Z"/>
  <path class="st0" d="M549.68,447.14c.5.04.89-.4.66-.77-.61-1.03-1-1.6-1.13-1.7-.54-.41-1.27.19-.97.8.53,1.07,1,1.63,1.44,1.67Z"/>
  <path class="st0" d="M552.49,444.67c-.4.3-.64.54-.73.7-.23.41.26.84.64.57.19-.13.41-.34.67-.64.14-.17.14-.41-.01-.57-.14-.17-.4-.19-.57-.06Z"/>
  <path class="st0" d="M539.5,450.68c2.33-3.01,3.53-4.64,3.63-4.89.14-.4-.36-.7-.64-.4-1.67,1.76-2.87,3.39-3.6,4.91-.07.17-.01.37.14.46.16.1.36.06.47-.09Z"/>
  <path class="st0" d="M386.82,447.05c-.26.09-.39.34-.3.6.09.26.34.41.61.39.21-.03.27-.21.19-.56-.1-.37-.26-.51-.5-.43Z"/>
  <path class="st0" d="M549.96,449.1c.09-.23-.03-.49-.26-.59-.21-.11-.49-.03-.61.17-.54.81-1.1,1.66-1.67,2.51-.57.86-1.13,1.67-1.69,2.49-.13.2-.1.47.09.64.17.16.46.17.64.01.81-.69,1.53-1.47,2.11-2.36.61-.91,1.07-1.87,1.39-2.89Z"/>
  <path class="st0" d="M554.15,450.81c-.23,0-.41.19-.41.41s.19.41.41.41.41-.19.41-.41-.19-.41-.41-.41Z"/>
  <path class="st0" d="M548.77,456.08c-.7.96-1.03,1.93-.73,2.16.3.22,1.13-.38,1.84-1.34.7-.96,1.03-1.93.73-2.16-.3-.22-1.13.38-1.84,1.34Z"/>
  <path class="st0" d="M540.98,457.14c.73-.99,1.07-1.96.79-2.17-.29-.22-1.11.41-1.84,1.39-.73.99-1.07,1.96-.79,2.17.29.22,1.11-.41,1.84-1.39Z"/>
  <path class="st0" d="M556.86,455.37l-1.04,2.61c-.19.46.34.87.74.59,1.36-.97,1.76-2.04,1.2-3.21-.17-.4-.74-.39-.9.01Z"/>
  <path class="st0" d="M542.48,461.3c-.77,1.01-1.16,2.03-.85,2.26.31.23,1.19-.4,1.96-1.41.77-1.01,1.16-2.03.85-2.26-.31-.23-1.19.4-1.96,1.41Z"/>
  <path class="st0" d="M549.94,460.46c-.45-.15-1.06.48-1.38,1.41-.32.93-.2,1.8.25,1.95.45.15,1.06-.48,1.38-1.41.32-.93.2-1.8-.25-1.95Z"/>
  <path class="st0" d="M541.08,466.23c-.55-.13-1.23.7-1.5,1.86-.27,1.15-.06,2.21.5,2.34.55.13,1.23-.7,1.5-1.86.27-1.15.06-2.21-.5-2.34Z"/>
  <path class="st0" d="M388.2,474.56c.24-.05.15-1.38-.19-2.94-.35-1.58-.82-2.81-1.05-2.75-.24.05-.15,1.38.19,2.94.35,1.58.82,2.81,1.05,2.75Z"/>
  <path class="st0" d="M380.96,472.84c-.64.4-.86.86-.64,1.39.17.44.73.57,1.07.26.43-.41.5-.9.21-1.46-.13-.24-.43-.33-.64-.19Z"/>
  <path class="st0" d="M396.31,529.19l-1.91-14.96c-.03-.29-.11-.57-.26-.83l-.61-1.1c-.26-.49-.37-1.04-.3-1.59.23-2.09.13-3.77-.63-5.64-.49-1.2-.4-2.19.27-2.94.37-.41.17-1.09-.39-1.21-.04-.01-.09-.03-.1-.03-.51-.2-.89-.67-.96-1.23-.43-3.76-.67-7.2-.73-10.33-.04-1.77-1.7-5.01-.9-5.93.36-.41.27-1.5-.29-3.26-.26-.83-.53-1.74-.81-2.73-.07-.24-.31-.4-.57-.34-.24.04-.43.27-.4.53l.51,5.69c.07.8.23,1.57.46,2.33.49,1.57.69,3.13.61,4.69-.1,2.24.49,6.71,1.79,13.39,1.06,5.43,1.76,9.63,2.1,12.6.66,5.7,1.27,10,1.83,12.87.06.27.31.46.6.41l.44-.07c.16-.03.26-.16.24-.31Z"/>
  <path class="st0" d="M381.22,479.76c-.32-.02-.62.53-.66,1.21-.04.69.18,1.26.51,1.28.32.02.62-.53.66-1.21.04-.69-.18-1.26-.51-1.28Z"/>
  <path class="st0" d="M383.73,487.27s.1.03.14,0c.31-.17.31-.43,0-.79-.21-.23-.6-.1-.63.21-.01.19.16.39.49.57Z"/>
  <path class="st0" d="M558.32,488.93l-1.53,1.59c-1.89,1.97-2.81,4.14-2.09,4.86l.04.04c.07.06.19.06.24-.01l8.13-8.47c.07-.07.07-.17,0-.24l-.04-.04c-.74-.71-2.87.31-4.76,2.29Z"/>
  <path class="st0" d="M410.92,539.3l-6.3-50.53c-.01-.13-.14-.23-.29-.21l-.37.04c-.57.07-1.01.31-.99.54l6.24,50.22c.03.23.53.34,1.1.27l.37-.04c.14-.01.24-.14.23-.29Z"/>
  <path class="st0" d="M383.82,490.83c.21-.57.2-1-.04-1.3-.24-.27-.7-.21-.87.13-.17.31-.13.71.11,1.21.17.34.67.31.8-.04Z"/>
  <path class="st0" d="M539.96,493.08c1.1-.9,1.76-1.86,1.94-2.87.09-.5-.29-.97-.8-.99-.96-.04-1.59.56-1.91,1.79-.34,1.24.16,2.57.77,2.07Z"/>
  <path class="st0" d="M536.89,515.1l.86.1s.09-.03.1-.06c1.91-3.8,4.6-6.53,8.07-8.17.43-.21.51-.79.16-1.11-.01-.01-.09-.04-.2-.11-.86-.47-1.07-1.59-.4-2.14,1.57-1.3,2.36-2.89,2.37-4.74,0-.53.14-1.06.4-1.51l1.27-2.27c.27-.49.19-1.1-.21-1.49l-.24-.16c-.64-.37-1.46-.04-1.67.67l-2.79,9.57c-.06.2-.16.39-.29.54-.99,1.14-1.66,2.43-2,3.87-.14.61-.6,1.1-1.2,1.3-.07.01-.2.06-.37.11-.27.09-.5.24-.67.47l-3.49,4.43c-.21.27-.04.66.3.7Z"/>
  <path class="st0" d="M561.18,494.03c-.27-.24-.7-.19-.9.13-1.27,2.13-3.21,4.19-5.84,6.19-.4.31-.57.84-.41,1.33l.23.63c.26.81,1.34.99,1.84.29l5.54-7.51c.14-.21.11-.49-.06-.66l-.4-.39Z"/>
  <path class="st0" d="M385.86,495.71c-.3-.13-.74.3-1.01.94-.27.63-.24,1.26.04,1.38.3.13.74-.3,1.01-.94.27-.63.24-1.26-.04-1.38Z"/>
  <path class="st0" d="M538.66,498.59c.5-.06.83-.46.79-.96-.03-.27-.21-.87-.54-1.79-.14-.37-.63-.41-.83-.07-.56.99-.77,1.67-.61,2.09.19.47.7.79,1.2.73Z"/>
  <path class="st0" d="M538.52,500.22c-.58.06-.96.92-.85,1.92.11,1,.67,1.76,1.25,1.69.58-.06.96-.92.86-1.92-.11-1-.67-1.76-1.25-1.69Z"/>
  <path class="st0" d="M384.15,502.9c-.1-.04-.21-.06-.37-.04-.33.03-.46.46-.16.57.3.1.49.14.53.13.27-.13.27-.53,0-.66Z"/>
  <path class="st0" d="M556.9,505.6c-1.27,1.21-2.01,2.48-1.67,2.85.35.37,1.65-.32,2.93-1.53,1.27-1.21,2.01-2.48,1.67-2.85-.35-.37-1.65.32-2.93,1.53Z"/>
  <path class="st0" d="M387.02,505.36l-.87,2.17c-.13.31.26.57.51.36.97-.81,1.34-1.64,1.11-2.49-.1-.37-.61-.4-.76-.04Z"/>
  <path class="st0" d="M547.75,510.44h-.5c-.37.01-.7.26-.81.61-.74,2.31-1.7,4.17-2.87,5.59-.17.21-.1.53.13.66l.37.19c.16.07.36.03.47-.13l3.87-5.7c.36-.53-.03-1.23-.66-1.21Z"/>
  <path class="st0" d="M555.11,512.14c.88-.68,1.44-1.46,1.22-1.73-.21-.27-1.1.07-1.98.76-.88.68-1.44,1.46-1.22,1.73.21.27,1.1-.07,1.98-.76Z"/>
  <path class="st0" d="M555.47,514.31c-1.82,1.36-3.07,2.76-2.79,3.14.29.38,1.99-.41,3.81-1.77,1.82-1.36,3.07-2.76,2.79-3.14-.29-.38-1.99.41-3.81,1.77Z"/>
  <path class="st0" d="M386.49,513.76c-.3.01-.43.14-.41.41.04.67.69,1.13,1.07.77.1-.1.13-.29.09-.59-.07-.43-.31-.63-.74-.6Z"/>
  <path class="st0" d="M540.7,514.88c-.22-.18-1.08.58-1.89,1.69-.82,1.11-1.3,2.14-1.07,2.3.23.18,1.08-.58,1.9-1.69.82-1.11,1.3-2.14,1.07-2.3Z"/>
  <path class="st0" d="M525.57,539.45c-.3,1.07-.27,2.07.1,3.01.16.41.76.33.81-.1.14-1.04-.09-2.19-.69-3.4-.17-.36-.11-.73.19-1.1.29-.36.44-.69.46-.99.33-5.56.49-12.33.44-20.29,0-.21-.19-.39-.4-.39h-.43c-.29.03-.5.26-.51.54-.01,7.1-1.24,14.96.07,21.49.09.4.07.81-.04,1.21Z"/>
  <path class="st0" d="M558.2,518.32l-1.06.27c-.44.11-.41.76.04.81,1.1.13,1.53-.17,1.31-.91-.04-.13-.17-.2-.3-.17Z"/>
  <path class="st0" d="M545.65,520.07c-1.4,1.56-2.4,3-2.99,4.33-.06.16,0,.31.14.4.13.07.31.04.4-.09,1.93-2.66,2.93-4.1,3.01-4.31.11-.34-.33-.6-.57-.33Z"/>
  <path class="st0" d="M552.95,521.63c.55-.55.84-1.17.64-1.35-.19-.19-.79.11-1.34.67-.55.55-.84,1.17-.64,1.35.19.19.79-.11,1.34-.67Z"/>
  <path class="st0" d="M538.56,520.66c-.33-.01-.5.4-.24.61.1.07.31.16.64.24.14.04.3-.04.36-.17.04-.14-.01-.3-.14-.37-.4-.21-.6-.31-.61-.31Z"/>
  <path class="st0" d="M549.77,529.31c.14.15.37.15.53,0l6.65-6.6c.14-.15.14-.38,0-.53l-.2-.2c-.15-.15-.37-.15-.53,0l-6.65,6.6c-.14.15-.14.38,0,.53l.2.2Z"/>
  <path class="st0" d="M538.09,527.35c1.43-1.44,2.06-2.24,1.87-2.43-.19-.19-.99.44-2.43,1.87-1.43,1.43-2.06,2.24-1.87,2.43.19.17,1-.44,2.43-1.87Z"/>
  <path class="st0" d="M555.3,528.08c-.81.88-1.3,1.73-1.11,1.91.19.18,1-.39,1.81-1.27.81-.88,1.3-1.73,1.11-1.91-.19-.18-1,.39-1.8,1.27Z"/>
  <path class="st0" d="M389.43,527.27c-.13.34-.17.76-.1,1.26.07.54.77.71.94.24.2-.54.2-1.06,0-1.53-.16-.37-.7-.36-.84.03Z"/>
  <path class="st0" d="M543.23,528.12c-.36.07-.79.74-1.29,2-.13.34.26.64.56.43.47-.34.91-.87,1.33-1.59.26-.43-.11-.96-.6-.84Z"/>
  <path class="st0" d="M389.88,531.66c.13-.3.19-.53.19-.7,0-.37-.49-.51-.7-.21-.24.33-.33.63-.27.87.1.39.63.41.79.04Z"/>
  <path class="st0" d="M541.52,534.72s.1-.41.26-1.11c.07-.33-.31-.56-.56-.33-.54.49-.81.86-.81,1.1,0,.63.81.87,1.11.34Z"/>
  <path class="st0" d="M552.82,533.7c-.47-.21-.84-.13-1.13.29-.14.19-.16.39-.03.57.13.21.33.23.63.06.51-.29.8-.79.53-.91Z"/>
  <path class="st0" d="M397.39,536.55c.14-.71.07-1.34-.2-1.89-.21-.41-.83-.34-.96.11-.21.79-.2,1.41.04,1.91.24.51,1,.41,1.11-.14Z"/>
  <path class="st0" d="M535.8,536.83c1.11-1.04,1.84-2.09,1.62-2.32-.22-.23-1.31.42-2.42,1.47-1.11,1.04-1.84,2.09-1.62,2.32.22.23,1.31-.42,2.42-1.47Z"/>
  <path class="st0" d="M551.08,539.05c-.96-.1-1.14-1.03-.59-2.81.11-.39-.2-.77-.61-.73l-.71.1c-.1.01-.17.09-.19.19-.13,1.21.1,2.07.66,2.56.3.26.37.69.17,1.03l-1.13,1.9c-.44.73.44,1.53,1.13,1.03.41-.3,1-1.03,1.76-2.2.29-.43.01-1-.49-1.06Z"/>
  <path class="st0" d="M554.92,536.02c-.14,0-.3.07-.47.21-1.76,1.56-2.46,2.53-2.1,2.91.37.37,1.37-.27,3.01-1.96.16-.16.23-.31.23-.46.01-.19-.06-.36-.19-.5-.14-.13-.3-.2-.49-.21Z"/>
  <path class="st0" d="M543.03,545.5c.13-.01.26-.07.33-.19.24-.3.3-.6.19-.89-.11-.26-.39-.41-.66-.36-.96.21-1.53-.07-1.71-.83-.37-1.6.27-3.36,1.67-4.53.56-.47.87-1.07.91-1.83.04-.61-.8-.84-1.07-.29l-1.29,2.61c-.07.14-.21.24-.37.23-.33-.01-.56-.21-.69-.6-.11-.34-.53-.44-.79-.21-.34.31-.59.74-.71,1.29-.01.06.03.1.09.11l.37.07c.26.04.46.27.46.53,0,1.3.13,2.44.4,3.43.39,1.39-.7,2.89-2.39,3.29-2.34.56-4.44,1.8-4.49,4.53,0,.29.34.44.56.23l4.59-4.57c.1-.1.23-.16.37-.17.94-.04,1.74-.46,2.39-1.23.27-.34.67-.54,1.11-.57l.73-.06Z"/>
  <path class="st0" d="M397.46,539.77c-.29-.2-.56-.2-.83-.01-.24.19-.36.49-.33.79l1.56,13.46c.01.16.04.3.07.46l3.3,15.94c.04.19.21.31.39.29h.03c.17-.03.29-.19.26-.36l-4.33-30.37c-.01-.07-.06-.14-.11-.19Z"/>
  <path class="st0" d="M389.73,540.09c-.23.21-.34.41-.33.59.03.21.23.36.43.31.27-.04.43-.19.5-.41.13-.41-.31-.77-.6-.49Z"/>
  <path class="st0" d="M537.86,539.96c-.83.47-1.46,1.24-1.89,2.33-.16.4.16.83.59.79.29-.03.87-.91,1.76-2.67.14-.3-.17-.6-.46-.44Z"/>
  <path class="st0" d="M392.82,544.19c.47-.4.59-.84.34-1.33-.26-.49-.99-.39-1.09.16l-.13.66c-.1.5.49.84.87.51Z"/>
  <path class="st0" d="M535.09,543.93c.06-.13.01-.29-.1-.36-.11-.09-.27-.06-.36.04l-1.59,1.8c-.1.11-.11.29-.04.43.44.74,1.13.1,2.09-1.91Z"/>
  <path class="st0" d="M527.79,550.56c.47-.26.97-1.33.1-1.5-.51-.1-.83.01-.94.36-.1.29-.04.6.17.96.19.29.4.34.67.19Z"/>
  <path class="st0" d="M409.59,549.75c-.26.6-.27,1.06-.04,1.36.17.23.56.13.67-.19.19-.51.16-.93-.09-1.24-.14-.19-.44-.14-.54.07Z"/>
  <path class="st0" d="M540.79,550.55c-.89.51-1.8,1.06-2.73,1.59-.96.56-1.87,1.09-2.77,1.59-.23.13-.33.4-.23.64.09.24.34.37.6.31,1.1-.26,2.14-.69,3.14-1.26.97-.57,1.86-1.26,2.63-2.07.17-.19.19-.49.03-.69-.16-.2-.44-.26-.67-.11Z"/>
  <path class="st0" d="M393.55,553.65s0-.77.01-2.29c0-.41-.5-.64-.8-.34-.67.66-.97,1.47-.91,2.43.03.43.34.77.77.81.41.04.81-.21.93-.61Z"/>
  <path class="st0" d="M528.53,552.39l-1.19.03c-.06.01-.1.06-.11.11l-1.64,15.46c-.03.31.33.5.57.3.71-.61,1.09-1.34,1.13-2.21.24-5.06.81-9.42,1.71-13.09.09-.3-.16-.6-.47-.6Z"/>
  <path class="st0" d="M395.66,554.76c-.33-.07-.72.53-.86,1.32-.15.78-.01,1.48.32,1.54.33.07.72-.53.86-1.32.15-.78.01-1.48-.32-1.54Z"/>
  <path class="st0" d="M411.3,554.45c-.33.01-.55.94-.49,2.04.06,1.11.37,2,.71,1.98.33-.01.55-.94.49-2.04-.06-1.11-.37-2-.71-1.98Z"/>
  <path class="st0" d="M535.75,560.3c.11-.09.2-.2.26-.33,1.1-2.47,1.49-3.8,1.16-3.99-.33-.2-1.29.81-2.87,3-.09.11-.14.24-.16.39-.06.49.1.83.47,1.04.37.23.76.19,1.14-.11Z"/>
  <path class="st0" d="M546.38,561.73l-1.76.46c-.39.1-.66.44-.66.84.01,1.09-.64,2.16-2,3.23-.17.14-.1.43.13.44l2.84.26c.49.04.93-.33.96-.81.1-1.79.71-2.93,1.84-3.43.5-.23.87-.66,1.03-1.19.27-.93.83-1.49,1.67-1.69.41-.1.71-.44.76-.86.1-.97.71-1.67,1.87-2.1.13-.04.19-.19.13-.31l-.17-.39c-.06-.13-.2-.19-.34-.16-3.07.77-4.93,2.41-5.54,4.93-.09.37-.39.67-.76.77Z"/>
  <path class="st0" d="M393.51,562.62c.4-.26.8-.91,1.19-1.96.39-1.06.5-1.81.36-2.27-.13-.41-.64-.54-.96-.26-1.07.99-1.63,1.56-1.69,1.69-.04.14.01.93.2,2.39.06.41.53.64.9.41Z"/>
  <path class="st0" d="M541,557.75c-.33-.29-.84-.23-1.1.11-1.81,2.46-1.8,4.94-4.43,6.97-.44.34-.47,1.01-.04,1.39l.29.26c.4.34,1.01.31,1.36-.09l3.23-3.66c.1-.11.1-.29.01-.4-.14-.21-.23-.33-.24-.36-.21-.41-.24-.9-.07-1.33.17-.43.61-1.01,1.34-1.76.23-.26.21-.64-.04-.87l-.3-.27Z"/>
  <path class="st0" d="M531.55,560.64c-.14-.15-.51-.04-.8.25-.29.29-.4.65-.26.8.14.15.51.04.8-.25.29-.29.4-.65.26-.8Z"/>
  <path class="st0" d="M404.63,565.18c.06-1.68-.2-3.04-.56-3.05-.37-.02-.7,1.34-.75,3.01-.06,1.68.2,3.04.56,3.05.37.02.7-1.34.75-3.01Z"/>
  <path class="st0" d="M397.56,563.35c.21-.16.23-.37.04-.63-.14-.19-.41-.16-.51.04-.1.21-.07.41.09.57.1.1.27.1.39.01Z"/>
  <path class="st0" d="M412.42,565.38c-.37.04-.45,2.47-.19,5.45.25,2.97.75,5.37,1.12,5.34.37-.04.45-2.47.19-5.45-.25-2.97-.75-5.37-1.12-5.34Z"/>
  <path class="st0" d="M394.29,565.39c-.33.11-.53.46-.44.79.16.67.2,1.11.1,1.34-.09.23-.41.54-.97.91-.3.2-.39.59-.21.89.24.44.69.56,1.33.37.87-.27,1.46-.76,1.73-1.44.26-.69.16-1.43-.3-2.23-.34-.57-.76-.79-1.23-.63Z"/>
  <path class="st0" d="M538.02,567.38l-6.96,4.67c-.19.13-.26.37-.16.59l.23.43c.16.3.53.37.79.17,1.73-1.41,4-2.57,6.81-3.46.44-.14.74-.54.76-.99v-.61c.03-.77-.83-1.23-1.47-.8Z"/>
  <path class="st0" d="M398.28,569.38l-1.1,2.74c-.13.33,0,.7.31.87.3.17.7.09.9-.2.64-.9.77-2.03.36-3.39-.07-.23-.39-.24-.47-.03Z"/>
  <path class="st0" d="M404.05,569.42c-.42,0-.77,1.24-.8,2.79-.03,1.54.3,2.81.71,2.81.42,0,.77-1.24.8-2.79.03-1.54-.3-2.81-.71-2.81Z"/>
  <path class="st0" d="M525.23,570.76c-.19-.16-.46-.13-.61.04-.74.73-1.36,1.56-1.86,2.49-.5.91-.86,1.87-1.07,2.89-.06.23.07.46.3.54.21.09.47-.01.59-.23.44-.83.9-1.69,1.37-2.56.49-.89.96-1.74,1.41-2.57.13-.2.07-.46-.13-.6Z"/>
  <path class="st0" d="M538.2,572.13c-.07-.07-.2-.07-.27.01l-4.09,4.36c-.07.09-.07.2.01.29l.06.06c.77.71,2.31.33,3.44-.87l.27-.3c1.13-1.2,1.41-2.76.64-3.49l-.07-.06Z"/>
  <path class="st0" d="M420.81,573.36c-.13-.09-.27-.04-.41.14-.14.16-.07.4.13.47,1.21.44,1.83,1.29,1.84,2.53,0,.34.47.46.63.14.5-.96-.23-2.04-2.19-3.29Z"/>
  <path class="st0" d="M516.66,574.78s-.17,1.07-.51,3.17c-.04.31.33.5.54.27,1.14-1.23,1.51-2.34,1.13-3.34-.2-.5-.87-.56-1.16-.1Z"/>
  <path class="st0" d="M526.96,575.91c-.69.27-1.47.91-2.36,1.91-.3.33-.09.87.36.9,1.41.13,2.33-.26,2.77-1.14.43-.9-.06-1.96-.77-1.67Z"/>
  <path class="st0" d="M512.86,577.62c-.36,0-.66.71-.67,1.6-.01.9.26,1.63.61,1.63.36,0,.66-.71.67-1.6.01-.9-.26-1.63-.61-1.63Z"/>
  <path class="st0" d="M395.32,580.22c-.24-.09-.44.2-.29.39.16.19.33.33.53.41.21.1.43-.16.29-.34-.17-.24-.34-.39-.53-.46Z"/>
  <path class="st0" d="M506.93,580.85c-.33.16-.47.44-.4.86.04.33.2.51.44.57.89.2,1.53-.84.86-1.4-.23-.19-.53-.2-.9-.03Z"/>
  <path class="st0" d="M397.08,581.09c-.14-.06-.26.13-.14.23l2.56,2.23c.27.24.71.1.8-.26.01-.07,0-.2-.04-.39-.27-.91-1.79-1.31-3.17-1.81Z"/>
  <path class="st0" d="M415.72,585.62c-.31-.16-.69.06-.7.41-.03.34.09.7.33,1.07.19.29.64.2.7-.14.14-.73.03-1.17-.33-1.34Z"/>
  <path class="st0" d="M505.54,591.85c-.46,0-.83.37-.83.83s.37.83.83.83.83-.37.83-.83-.37-.83-.83-.83Z"/>
  <path class="st0" d="M500.86,592.29c-.61-.26-1.3.2-1.3.87.01.67.61,1.01,1.8,1.03.44,0,.76-.41.64-.84-.11-.43-.5-.79-1.14-1.06Z"/>
  <path class="st0" d="M493.01,593.88c-.34-.24-.61-.3-.83-.14-.34.24-.33.76.04.99.13.07.3.1.53.09.47-.04.64-.66.26-.93Z"/>
  <path class="st0" d="M625.45,96.84c-5.18,5.51-9.63,10.44-13.31,14.78-7.64,8.95-16.96,12.13-27.94,9.52-12.82-3.04-26.1-5.88-39.84-8.5-14.44-2.75-29.13-2.85-34.87,13.1-1.57,4.37-.49,7.56,3.24,9.58.26.14.37.48.23.76-8.93,17.53-18.17,33.85-27.72,48.98-.73,1.14-.12,2.67,1.19,3.01l6.39,1.68c.2.05.42-.02.56-.17l.35-.42c.26-.29.72-.23.91.12.52,1.05,1.31,1.59,2.36,1.62,2.73.06,2.82,2.5,6.22,1.17.69-.26,1.5-.06,1.96.52,1.62,2.01,3.92,1.02,5.68,2.55.93.82,2.08.89,3.46.26.49-.23,1.08-.06,1.36.4.93,1.51,2.28,1.91,4.07,1.2.45-.17.94-.06,1.3.26,1.71,1.68,3.84,2.53,6.4,2.55.63,0,1.25.23,1.73.66l1.57,1.37c.8.71,1.99.71,2.78-.02.12-.11.25-.25.39-.39.42-.46,1.16-.39,1.48.14,1.34,2.19,2.78,2.82,4.3,1.88.48-.29,1.08-.34,1.62-.12l6.29,2.7c.22.09.43.11.65.03.57-.2,1.39-.59,2.45-1.16.57-.31,1-.43,1.33-.35.46.09.86.37,1.2.83.56.76,1.06,1.2,1.51,1.34,2.89.85,4.64,1.23,5.29,1.14.49-.08.99,0,1.43.22l6.29,3.07c.32.15.68.22,1.03.19l1.2-.09c.36-.02.71.09.99.32,2.41,2.02,4.63,2.73,6.65,2.13.31-.09.63-.08.93.05l6.97,2.99c.72.31,1.54.23,2.19-.22l.51-.34c.69-.46,1.6-.43,2.27.06.59.45,1.73,1.34,3.44,2.72.91.73,2.25.31,2.62-.79.02-.06.32-.37.93-.94.28-.26.72-.05.69.34-.08.69.02,1.28.25,1.74.25.48.82.69,1.33.51,2.13-.77,3.83-.08,5.09,2.1.09.17.34.23.51.11l.35-.23c.52-.35,1.22-.32,1.7.09,1.56,1.31,3.12,1.17,4.67-.42.25-.26.69-.2.86.12,1.16,2.11,2.99,3.02,5.51,2.7.48-.06.96.11,1.28.48,1.37,1.59,3.18,2.3,5.43,2.13.86-.06,1.71.28,2.3.93,1.77,1.94,3.67,1.88,5.68-.19.35-.37.42-.94.14-1.37-.63-.97-.62-2.59.03-4.88.08-.28-.09-.59-.37-.65l-.49-.14c-.23-.06-.48.06-.57.28l-1.34,3.15c-.56,1.28-2.45.89-2.47-.49l-.03-3.09c0-.48-.35-.88-.83-.93-.48-.06-.91.23-1.03.69l-.57,2.19c-.12.46-.57.76-1.03.68-1.39-.2-2.27-.77-2.64-1.71-.18-.49-.22-1.03-.09-1.54,1.3-4.84,1.93-8.3,1.91-10.35,0-.49-.37-.91-.86-.97-.49-.06-.96.25-1.08.73-.8,3.04-2.53,6.09-5.17,9.13-.08.08-.17.14-.26.19l-2.92,1.31c-.22.09-.43-.09-.37-.31l4.57-17.43c.11-.4-.12-.8-.51-.94-.39-.14-.82.06-.97.43l-6.34,14.81c-.15.37-.56.56-.94.46l-.71-.19c-.66-.17-1.05-.88-.83-1.53l16.72-49.85c.25-.73,1.02-1.14,1.76-.96l1.34.35c.91.25,1.45,1.17,1.22,2.08l-4.43,17.56c-.03.11.03.25.14.29l.03.02c.09.03.2-.02.25-.11,2.7-5.99,4.52-12.02,5.48-18.11.08-.49.56-.8,1.02-.68l.45.12c.2.05.31.25.26.43l-7.7,29.39c-.12.45.14.89.59,1l.85.22c.52.14,1.06-.17,1.2-.69l7.41-28.28c.19-.71.93-1.14,1.65-.96l2.81.73c.54.14.86.71.73,1.27l-5.14,19.64c-.09.39.37.65.65.37.56-.57,1.02-1.43,1.39-2.61,1.51-4.83,2.55-8.22,3.09-10.17.06-.22.28-.35.51-.32.22.03.39.23.37.46-.49,8.9-1.84,18.25-4.03,28.05-.26,1.14-.42,2.3-.46,3.46-.22,4.74-.65,8.35-1.3,10.86-.15.62-.17,1.27-.02,1.88.45,1.84.37,3.66-.22,5.46-.65,2.02.56,4.15,2.59,4.61,1.3.29,1.7.59,2.56,1.59,1.03,1.2,2.35,1.1,3.93-.31.63-.57,1.62-.46,2.13.23,1.68,2.28,4.1,3.13,7.28,2.55.48-.09.96.05,1.31.37,2.27,2.04,4.34,2.33,6.2.88.45-.34,1.1-.2,1.34.31l.48.97c.08.15.22.28.37.32l5.49,1.85c.6.19,1.25.25,1.87.14l3.13-.51c.54-.09,1.08.08,1.48.45,1.88,1.68,3.9,2.31,6.06,1.87.22-.05.45-.03.66.06l5.92,2.53c1.05.45,2.27-.14,2.56-1.25,4.95-18.96,8.66-38.12,11.12-57.49.11-.79.76-1.4,1.54-1.47,6.25-.49,7.74-6.87,8.89-12.2,1.68-7.84-1.51-15.01-8.32-18.99-13.59-7.96-38.93-11.42-48.38-14.46-4.72-1.51-7.7-2.99-8.95-4.44-6-6.97,2.31-17.05,7.9-21.92,8.58-7.48,19.59-13.82,33.06-19.02,7.85-3.02,23.14-6.96,33.88-13.5,6.16-3.73,11.74-11.8,9.07-19.02-6.59-17.82-39.31-6.99-51.02-1.5-19.38,9.12-37.94,22.39-52.7,38.08ZM607.47,209.61c-.66,2.04-1.17,3.41-1.54,4.13-.62,1.19-2.01,1.76-3.27,1.33-1.27-.42-2.04-1.7-1.82-3.02l1.4-8.5c.06-.34-.15-.66-.48-.76-.34-.09-.69.08-.82.4-1.5,3.8-2.99,7.16-4.47,10.11-.34.68-.82,1.13-1.43,1.33-.79.26-1.56-.48-1.31-1.28.91-2.92,2.19-6.06,3.87-9.43.11-.23.03-.49-.18-.62l-.4-.22c-.2-.11-.48-.03-.6.17l-5.83,9.75c-.15.26-.45.4-.74.35l-.54-.09c-.57-.09-.91-.68-.74-1.22,1.6-5.18,2.55-8.86,2.82-11.02.03-.31-.15-.6-.45-.68-.31-.08-.62.08-.74.35l-4.91,11.45c-.23.56-.91.77-1.43.46l-.49-.29c-.4-.25-.57-.73-.43-1.16l5.72-16.92c.12-.37-.03-.77-.39-.96l-.03-.02c-.39-.15-.82,0-1.02.35-5.2,9.12-8.22,14.6-9.04,16.46-.2.43-.46.65-.79.65-.42,0-.74-.32-.96-.97-.14-.42-.69-.46-.91-.09l-.31.51c-.15.26-.51.34-.76.15-.96-.69-1.06-1.84-.31-3.42,1.45-3.07,2.24-4.86,2.34-5.34.22-.88.14-1.6-.22-2.14-.11-.17-.36-.15-.43.02l-4.21,8.62c-.15.32-.54.46-.86.32-.32-.12-.49-.49-.39-.83,1.11-3.32,2.65-6.7,4.61-10.11.17-.28.08-.65-.18-.83-.26-.2-.63-.15-.85.09-2.45,2.78-4.66,6.02-6.59,9.74-.31.6-.83.77-1.59.54-.48-.15-.74-.65-.6-1.13l5.37-18.27c.08-.23-.05-.46-.28-.56l-.42-.17c-.14-.05-.28,0-.35.14-4.04,7.53-6.54,12.65-7.5,15.37-.39,1.11-1.56,1.74-2.7,1.45-1.14-.29-1.88-1.42-1.68-2.58l1.51-9.07c.23-1.36-1.54-2.07-2.33-.94-1.57,2.27-2.78,4.97-3.61,8.1-.12.46-.45.85-.86,1.06l-2.59,1.28c-.57.28-1.19-.28-.96-.86l1.94-5.08c.2-.52-.4-.97-.85-.63-.03.02-1.23,1.81-3.59,5.35-.42.63-1.25.86-1.94.56-.69-.31-1.06-1.08-.86-1.82l2.44-9.3c.11-.39-.11-.79-.49-.93-.39-.12-.8.06-.96.43l-4.09,9.55c-.28.63-.97.97-1.64.82l-.4-.09c-.73-.2-1.13-.97-.86-1.68l4.07-10.86c.23-.63-.15-1.31-.82-1.42h-.05c-.62-.08-1.2.23-1.48.77l-5.58,10.94c-.32.63-1.06.91-1.73.66-.66-.25-1.03-.97-.85-1.65l1.97-7.54c.09-.39-.09-.77-.46-.93-.35-.15-.77-.02-.97.32l-4.46,7.44c-.74,1.25-2.67.54-2.41-.89l1.88-10.34s0-.05-.03-.06l-.6-.28c-.36-.17-.77-.03-.94.32l-3.73,7.67c-.56,1.13-1.88,1.62-3.04,1.13l-.49-.2c-.82-.35-1.23-1.28-.94-2.13l2.87-8.58c.09-.28-.11-.57-.4-.57h-.63c-.12,0-.25.08-.31.19l-5.18,8.67c-.39.63-1.08,1.02-1.82,1l-.6-.02c-.42,0-.69-.43-.54-.82l4.71-11.73c.11-.28-.03-.6-.31-.71l-.42-.17c-.15-.06-.32-.02-.4.12-2.02,3.04-4.37,6.36-7.02,9.92-.45.6-1.11,1-1.97,1.19-1.2.25-1.93-1.3-.94-2.01.15-.11.46-.52.94-1.25.4-.63-.23-1.42-.94-1.16-.88.32-2.35,1.51-4.4,3.55-.17.17-.43.08-.49-.14l-.12-.46c-.05-.14-.02-.28.08-.39l3.8-5.21c.46-.63-.29-1.43-.94-1-1.96,1.3-3.32,3.75-5.51,5.96-.2.2-.51.22-.74.05-.22-.15-.29-.46-.15-.71l8.32-15.2s0-.09-.05-.12l-.74-.45c-.25-.14-.57-.08-.72.17-3.66,5.58-7.21,10.37-10.66,14.36-.48.57-.96.8-1.42.68-.6-.17-.9-.85-.59-1.4,8.84-15.78,17.42-31.54,25.75-47.23.23-.45.79-.62,1.25-.4l.02.02c.34.22.48.66.31,1.02l-8.72,18.7c-.12.26.09.56.39.54l.74-.05c.14-.02.26-.09.32-.22l9.41-18.05c.32-.6.96-.97,1.65-.96h.45c.34.02.56.34.43.65l-14.36,35.75c-.11.26,0,.56.25.68.25.14.54.08.71-.15,2.56-3.56,4.77-7.56,6.2-11.57,3.09-8.66,6.34-16.6,9.78-23.84.26-.56.88-.83,1.47-.63l3.95,1.33c.43.14.65.65.43,1.06-3.7,7.17-6.68,15.15-8.95,23.94-.15.62.66.99,1.02.46,5.15-7.33,9.06-15.14,11.69-23.39.23-.73.96-1.17,1.71-1.06l.05.02c.65.11,1.05.77.85,1.4l-4.44,13.84c-.03.08.02.15.08.19.06.03.15,0,.19-.06,1.1-1.91,2.85-6.2,5.29-12.88.35-.97,1.34-1.54,2.36-1.37l1.31.22c.71.12,1.1.91.76,1.54-5.49,10.31-10.58,22.05-15.29,35.22-.14.39.2.77.6.69l.42-.11c.31-.09.57-.31.73-.59l16.69-34.28c.51-1.03,1.87-1.28,2.7-.48,1.1,1.03,2.35,1.39,3.75,1.05,1-.23,1.87.76,1.48,1.71-.31.77-1.3,2.07-2.96,3.87-2.39,2.58-4.35,6.22-5.89,10.92-.03.09.02.19.11.23.08.03.19,0,.23-.08l6.12-10.26c.09-.17.31-.23.49-.14l.42.2s.05.06.03.09c-4.21,8.39-6.51,13.1-6.9,14.1-.52,1.37-.93,2.85-1.2,4.41-.08.43.17.85.59.99.42.14.88-.06,1.06-.45l11.37-23.36c.39-.77,1.3-1.13,2.08-.8l1.94.79c.65.26.91,1.03.56,1.62-2.93,4.89-5.45,10.85-7.53,17.83-.02.03,0,.08.03.09.03.02.08,0,.09-.03l9.64-17.63c.28-.49.82-.77,1.37-.71l.59.08c.46.05.73.57.48.97-5.25,8.75-11.31,19.95-12.3,30.07-.05.49.63.69.85.25l14.41-29.59c.19-.37.6-.57,1-.46l4.35,1.13c.48.12.73.65.52,1.1-.49,1.16-1.99,5.23-4.47,12.25-1.42,4.03-2.21,6.91-2.36,8.69-.15,1.79-.66,4.77-1.54,8.93-.06.28.09.56.37.66.28.09.57-.03.69-.29l13.9-28.51c.22-.46.71-.71,1.22-.63l4.38.74c.49.08.79.59.6,1.05-3.52,8.84-5.49,14.58-5.92,17.2-.76,4.63-1.94,9.29-3.58,13.98-.23.63-.32.97-.31,1.02.37.76,1.45.73,1.79-.03l13.79-30.55c.22-.49.74-.77,1.26-.68l3.24.54c.59.09.97.68.82,1.27l-6.56,25.02c-.08.31.08.65.39.77.29.12.65.02.82-.26,4.23-6.77,7.88-14.44,10.95-23,.26-.76,1.03-1.2,1.84-1.08l2.5.43c.65.11,1.06.76.88,1.37l-9.49,33.32c-.12.46.14.94.6,1.08l.03.02c.35.06.71-.12.85-.46l13.38-32.83c.17-.43.65-.66,1.11-.56l3.13.82c.39.09.6.51.48.88-1.3,3.89-3.27,10.49-4.18,15.75-1.65,9.36-4.18,19.39-7.61,30.05ZM576.46,153.99c.29-.76.76-1.16,1.37-1.2.48-.03.83.43.65.88-3.41,8.72-6.28,14.87-8.61,18.44-.08.12-.25.17-.39.09-.14-.06-.2-.23-.14-.37,2.78-6.94,5.15-12.88,7.11-17.84ZM589.81,155.58c.1-.22.35-.31.57-.22l.42.19c.22.09.31.35.22.57l-7.74,17.63c-.1.22-.35.31-.57.22l-.42-.19c-.22-.09-.31-.35-.22-.57l7.74-17.63ZM601.07,159.07c.11-.29.43-.43.71-.33l.09.03c.29.11.43.43.33.71l-5.76,15.4c-.11.29-.43.43-.71.33l-.09-.03c-.29-.11-.43-.43-.33-.71l5.76-15.4ZM611.41,162.8c.06-.11.12-.19.19-.2.18-.11.37-.17.54-.17.12,0,.22.12.17.22l-3.15,8.7c-.05.14-.2.22-.34.17-.15-.03-.25-.17-.23-.32.34-2.9,1.28-5.69,2.82-8.39ZM622.29,164.52l-4.75,14.19c-.07.2-.3.33-.51.25l-.06-.02c-.22-.08-.32-.29-.25-.51l4.75-14.19c.07-.2.3-.33.51-.25l.06.02c.21.08.32.29.25.51ZM686.54,240.02c-.11.42-.66.49-.91.14l-.74-1.1s-.02-.05-.02-.08c.79-3.67,1.08-5.63.88-5.89-.14-.11-.35-.05-.43.11l-1.71,3.61c-.11.22-.34.32-.57.25-.23-.06-.37-.29-.32-.52l1.28-7.68c.05-.28-.17-.52-.45-.52h-.62c-.14,0-.28.09-.31.23l-2.82,9.74c-.15.52-.74.76-1.22.49l-.08-.05c-.46-.25-.68-.8-.48-1.3,1.51-3.72,2.28-7.36,2.33-10.89.02-.56-.48-1-1.03-.94h-.03c-.51.14-.91.54-1.05,1.05l-2.1,7.99c-.09.39-.57.52-.86.26l-.31-.26c-.09-.08-.11-.22-.05-.32,1.43-2.18,1.73-4.12.85-5.83-.15-.29-.59-.26-.68.06l-1.7,6.51c-.12.46-.52.82-1.02.85l-.6.05c-.57.05-1.05-.48-.94-1.05l2.59-15.57c.03-.22-.09-.43-.31-.49-.2-.06-.43.03-.52.23-2.18,4.55-3.81,9.87-4.91,15.97-.11.6-.76.97-1.33.74l-.37-.15c-.51-.2-.79-.74-.66-1.28l2.1-9.24c.05-.17-.08-.32-.25-.31l-.49.02c-.22,0-.39.14-.45.35l-1.05,3.98c-.19.71-.82,1.2-1.54,1.23-1.37.05-2.22.91-2.56,2.62-.09.45-.73.49-.88.06-.34-.94.22-1.94,1.65-3.01.48-.35.79-.89.83-1.48l1.13-13.53c.05-.56-.42-1.03-.97-1h-.03c-.56.03-1,.45-1.08.99-1.37,10.11-2.95,15.95-4.71,17.54-.42.37-1.08.03-1.02-.52l.77-6.82c.03-.26-.14-.51-.4-.57-.25-.08-.52.06-.62.31l-2.14,5.32c-.15.39-.59.6-.99.49-.4-.12-.66-.52-.59-.94.31-1.71.28-3.43-.11-5.14-.11-.48-.76-.56-.97-.11-.42.88-.74,3.01-.99,6.36-.03.4-.51.6-.8.34l-.69-.62c-.69-.6-1-1.56-.79-2.47l3.12-13.75c.09-.43-.14-.88-.54-1.03l-.39-.15c-.48-.19-1,.06-1.14.54l-4.3,13.92c-.03.14-.17.22-.31.2l-.42-.05c-.29-.03-.51-.29-.48-.59l1.03-9.16c.06-.49-.26-.96-.74-1.06-.48-.12-.97.14-1.14.6-1.19,3.18-1.47,6.53-.86,10.03.06.39-.22.73-.6.76l-.48.05c-.43.03-.79-.32-.74-.76l.25-2.81c.03-.34-.34-.56-.62-.35-.29.2-.48.65-.59,1.33-.08.49-.32.63-.73.4-.2-.12-.35-.28-.45-.46-.11-.2-.17-.4-.15-.59.14-3.02-.03-6.03-.51-9.03-.08-.56-.08-1.11.03-1.67l8.41-43.88c.12-.63.79-1,1.39-.76l3.98,1.6c1.06.42,1.7,1.54,1.51,2.67l-2.25,13.5c-.03.2-.22.34-.43.32-.2-.02-.36-.2-.36-.4.05-4.52.65-9.09,1.77-13.68v-.03l-1-.54c-.2-.11-.45.02-.48.23l-1.62,14.33c-.05.39.23.74.62.8.26.05.43.09.49.14.15.11.22.31.17.48-1.4,5.6-2.01,11.02-1.81,16.28.02.26.2.46.46.48.25.03.48-.14.54-.39l7.3-32.15c.12-.51.63-.82,1.13-.68l3.32.86c.63.17,1.03.79.93,1.43l-3.12,18.73c-.02.08.02.15.08.19l.37.22c.32.19.73.02.8-.34l3.87-18.41c.08-.4.46-.69.88-.66h.05c.48.11.79.57.69,1.03-.51,2.55-1.93,9.55-4.23,21.01-.49,2.42-.71,5.45-.65,9.09.02.37.32.66.69.63l.45-.03c.14-.02.25-.11.26-.23l5.83-30.39c.06-.37.42-.6.79-.52l6.74,1.28c.37.08.63.43.59.8l-3.75,29.61c-.05.35.12.71.43.91l.09.03c.76.22,1.54-.28,1.67-1.06l4.44-28.59c.05-.32.37-.52.68-.45l6.43,1.7c.34.09.57.42.52.76l-4.09,36.15c-.05.52.28,1,.77,1.14l.06.02c.57.11,1.13-.28,1.25-.85,2.45-11.65,4.07-23.65,4.83-36.01.03-.51.6-.77,1.02-.48,1.62,1.19,3.09,1.7,4.41,1.5.48-.06.89.35.82.83l-6.13,36.69c-.02.09.05.17.14.19l.86.08c.09.02.19-.06.2-.15l7.31-35.75s.06-.08.11-.06l.4.05c.12.02.2.11.19.23-2.51,19.18-6.26,37.83-11.25,55.96ZM705.19,179.04l-.28.45c-.31.52-.86.85-1.47.86-1.9.03-3.76-.2-5.59-.69-12.56-3.36-24.73-6.48-36.5-9.35-15.41-3.75-27.62-6.77-36.61-9.07-62.28-15.89-98.25-25.1-107.86-27.63-1.68-.45-3.19-1.37-4.54-2.79-1.22-1.28,0-3.36,1.71-2.92l190.62,49.93c.54.14.79.74.51,1.22ZM721.67,56.28c7.95,4.66,4.97,13.07-.65,17.99-3.09,2.72-6.87,4.89-11.32,6.53-24.98,9.18-39.28,13.5-56.7,26.63-2.76,2.08-5.69,5.18-8.81,9.32-3.87,5.17-5.09,10.58-3.64,16.28,1.16,4.55,8.82,7.28,13.68,8.56.26.06,10.58,2.75,31,8.04,13.99,3.63,24.07,6.62,22.66,22.73-.15,1.73-1.84,2.92-3.52,2.47l-189.44-49.63c-1.11-.29-1.56-1.64-.82-2.53,5.8-7.05,13.56-9.72,23.27-8.01,9.21,1.62,24.89,4.91,47.01,9.83,22.28,4.97,32.77-14.9,46.02-28.23,15.49-15.6,33.49-27.86,54.03-36.78,10.24-4.44,27.23-9.06,37.23-3.18Z"/>
  <path class="st0" d="M700.35,71.11c7.21-1.95,12.28-6.36,11.34-9.87-.95-3.5-7.56-4.76-14.76-2.82-7.21,1.95-12.28,6.36-11.34,9.87.95,3.5,7.56,4.76,14.76,2.82ZM691.66,66.34c3.35-.52,6.62-1.68,9.8-3.47,1.77-1,4.58-1.27,6.46-.85.74.17.97,1.11.39,1.6-5,4.18-10.57,5.63-16.69,4.35-.89-.19-.86-1.5.05-1.64Z"/>
  <path class="st0" d="M722.89,64.42c.2-.32.22-.69.02-.81-.19-.12-.51.04-.73.36-.2.32-.22.69-.02.81.19.12.51-.04.73-.36Z"/>
  <path class="st0" d="M721.53,69.13c.22-.02.46-.08.76-.2.26-.12.37-.46.2-.71l-.66-.97c-.15-.23-.49-.23-.65,0-.26.42-.39.79-.37,1.14.03.51.28.76.72.74Z"/>
  <path class="st0" d="M702.59,78.59c-.2.09-.28.31-.26.66.05.65.51,1.17.77.88s.34-.69.23-1.17c-.08-.32-.43-.49-.74-.37Z"/>
  <path class="st0" d="M694.07,81.34c-.15.14-.18.37-.11.71-.52,1.17,1.08.93.82,0,.59-.63-.32-1.06-.71-.71Z"/>
  <path class="st0" d="M688.45,82.46c-.22.05-.43.32-.63.83-.11.28.23.52.46.32.25-.2.42-.46.52-.76.09-.23-.12-.46-.35-.4Z"/>
  <path class="st0" d="M682.5,86.37c.12.06.26-.03.25-.17-.05-.26-.11-.43-.19-.48-.15-.11-.34.05-.29.22.08.23.15.39.23.43Z"/>
  <path class="st0" d="M662.63,97.1c.42-.02,1.08-.45,1.99-1.3.2-.19,0-.52-.26-.45-1.37.42-2.05.62-2.07.63-.52.32-.28,1.14.34,1.11Z"/>
  <path class="st0" d="M658.38,99.85c.19-.37.22-.65.11-.83-.17-.28-.59-.26-.73.05-.2.45-.23.76-.11.89.19.25.57.19.72-.11Z"/>
  <path class="st0" d="M653.99,103.17c.23-.02.54-.15.93-.43.34-.25.14-.79-.28-.76-.43.03-.79.22-1.05.54-.22.26.03.66.4.65Z"/>
  <path class="st0" d="M651.43,105.39c.12-.03.66-.68,1.64-1.93.17-.22-.08-.51-.32-.4-1.1.51-1.76,1.03-1.99,1.6-.17.43.23.86.68.73Z"/>
  <path class="st0" d="M634.87,128.52c-.25.46-.19,1.03.14,1.43.82,1,1.11,1.96.85,2.87-.06.2.2.34.32.17,1.05-1.37,1.3-3.05.74-5.01-1-3.5-.45-6.57,1.64-9.2.48-.6.56-1.42.22-2.11l-.28-.57c-.2-.39-.74-.42-.97-.05-1.65,2.61-2.72,5.15-3.18,7.64-.11.57.02,1.17.34,1.68.69,1.06.76,2.11.19,3.15Z"/>
  <path class="st0" d="M668.63,148.79c.48-.32.65-.66.54-1.05-.28-.89-1.51-.99-1.93-.14-.09.2-.02.49.23.91.29.51.68.6,1.16.28Z"/>
  <path class="st0" d="M671.51,150.32c.17.39.56.65.99.62,2.79-.12,5.17.15,7.14.83.29.11.62-.09.65-.4l.06-.46c.02-.2-.12-.4-.32-.46l-7.67-1.85c-.71-.19-1.31.51-1.05,1.19l.2.54Z"/>
  <path class="st0" d="M682.9,153.85c.26.03.51-.2.71-.69.09-.25.08-.52-.05-.76-.45-.82-.89-1.16-1.34-.99-1.25.48-.72,2.31.68,2.44Z"/>
  <path class="st0" d="M686.34,155.55c.69-.31,1.23-.86,1.64-1.68.31-.62.03-1.28-.62-1.53-.66-.25-1.48.02-1.9.59-.14.19-.19.85-.14,2.01.02.51.56.83,1.02.62Z"/>
  <path class="st0" d="M689.95,159.06c.85-.52,1.36-1.25,1.56-2.14.2-.91.03-1.77-.51-2.61-.32-.49-1.08-.31-1.14.26-.05.57-.15,1.2-.31,1.91-.15.69-.32,1.31-.52,1.85-.19.56.43,1.03.93.73Z"/>
  <path class="st0" d="M692.2,161.95c2.59-1.37,3.69-3.07,3.29-5.06-.17-.8-1.25-.93-1.59-.19l-2.13,4.84c-.12.26.17.54.43.4Z"/>
  <path class="st0" d="M697.68,162.13c.46.17.82.6,1.06,1.3.43,1.16,2.13.82,2.25-.45.15-1.62.51-2.67,1.08-3.15.56-.48.48-1.36-.15-1.71l-2.25-1.31c-.76-.45-1.73-.22-2.19.52-.83,1.34-1.05,2.64-.66,3.87.14.43.45.77.86.93Z"/>
  <path class="st0" d="M700.21,166.33c-.82.17-1.31.56-1.51,1.17-.26.83-.34,1.64-.2,2.41.05.32.48.39.63.11.29-.56,1.08-1.11,2.35-1.65,2.27-.99,2.67-3.69,3.15-5.97.05-.23-.09-.46-.31-.52-.22-.08-.46.03-.56.25-1.16,2.58-2.35,3.98-3.55,4.21Z"/>
  <path class="st0" d="M673.03,178.3c-.68-.12-1.77,2.95-2.44,6.83l-.09.52c-.68,3.89-.66,7.14.02,7.27l.19.03,2.53-14.63-.2-.03Z"/>
  <path class="st0" d="M682.08,181.22c-.66,1.03-1.06,2.22-1.22,3.58-.79,6.93-1.79,12.57-3.04,16.96-.91,3.29-.35,5.82-.94,9.4-.05.26.17.51.43.49l.91-.06s.02-.02.02-.03l.17-7.51c.02-.4.08-.79.2-1.17,1.88-5.57,3.3-12.7,4.24-21.37.05-.45-.54-.65-.77-.28Z"/>
  <path class="st0" d="M692,185.89c.14-.66.14-1.14.03-1.4-.14-.35-.65-.32-.73.05-.22.93-.31,1.42-.28,1.48.22.43.86.35.97-.12Z"/>
  <path class="st0" d="M690.75,188.86c-.02.11-.02.23-.02.34.02,0,.02-.02.02-.02.01-.1.01-.21,0-.32Z"/>
</svg>