<?xml version="1.0" encoding="UTF-8"?>
<svg id="Layer_1" xmlns="http://www.w3.org/2000/svg" version="1.1" viewBox="0 0 792 612">
  <!-- Generator: Adobe Illustrator 30.2.1, SVG Export Plug-In . SVG Version: 2.1.1 Build 1)  -->
  <defs>
    <style>
      .st0 {
        fill: #32a9d9;
      }
    </style>
  </defs>
  <path class="st0" d="M466.25,245.62c-.31-.41-.16-1.02.31-1.23,7.5-3.39,2.14-9.76-1.5-13.64-5.25-5.58-9.85-9.76-13.81-12.55-21.02-14.74-49.02-26.32-74.33-31.09-1.21-.22-2.37-.69-3.4-1.35-2.4-1.56-4.48-3.39-7.14-4.56-15.26-6.69-29.87-11.29-43.78-13.76-2.58-.47-5.62-.55-9.14-.28-1.07.09-1.56,1.37-.79,2.13,4.99,5.03,5.98,10.84,2.96,17.42-.24.54-.64.97-1.14,1.28-1.54.9-4.82,2.11-9.85,3.65-4.58,1.4-12.53,4.58-23.89,9.56-1.28.55-3.3.29-6.08-.79-6.78-2.66-14.03-4.22-21.78-4.67-1.43-.09-2.44,1.38-1.85,2.68l5.67,12.63c.31.69.07,1.49-.57,1.9-6.72,4.3-13.88,7.31-21.5,9.06-.95.21-1.95-.07-2.66-.76-15.94-15.66-32.75-30.5-55.72-32.96-2.13-.22-3.51,2.19-2.21,3.91,11.75,15.45,20.52,25.37,24.89,41.58.28,1,.38,2.04.31,3.08-.9,15-14.05,29.05-23.49,41.12-.19.22-.28.62-.29,1.16-.02.78.64,1.4,1.42,1.35,19.74-1.47,38.06-14.59,52.83-26.79.47-.36,1.02-.59,1.61-.64,2.77-.17,5.32.09,7.66.76,6.26,1.81,12.17,4.23,17.72,7.26.41.22.48.78.16,1.11-2.09,2.06-1.94,5.36.45,9.9.71,1.35.78,2.94.22,4.36l-1.68,4.15c-.29.74.43,1.49,1.18,1.21l23.21-8.57c.52-.19,1.07-.19,1.57,0,2.32.85,7,2.61,14.03,5.32,14.09,5.41,28.1,8.66,42.05,9.77.47.03.76.52.57.95-.14.29-.36.69-.66,1.19-.45.76-.71,1.42-.76,1.99-.78,7.93-2.39,15.5-4.86,22.73-.36,1.05.28,2.19,1.37,2.44,1.61.36,3.4.05,5.41-.9,14.33-6.76,26.13-15.69,35.43-26.81,1.16-1.38,2.78-2.26,4.58-2.51,31.4-3.98,60.61-15.14,85.41-34.95,2.94-2.35,3.56-4.63,1.88-6.83ZM319.17,170.49c16.33,2.47,31.73,7.16,46.16,14.05.17.09.26.28.21.47-.05.19-.24.31-.43.28-15.33-2.06-30.47-1.45-45.39,1.85-.48.1-.88-.4-.66-.83,2.75-5.46,2.58-10.4-.5-14.83-.31-.45.07-1.07.6-.99ZM255.21,199.84c-.28-.62.29-1.3.95-1.12l17.14,4.48c.36.1.41.59.09.76l-12.74,6.33c-.33.16-.74.02-.9-.31l-4.55-10.13ZM229.97,226.28c-.05.45-.52.71-.93.54l-27.81-12.31s-.02-.02-.03,0l-.28.47c-.12.21-.05.48.16.6,8.28,4.86,16.97,8.97,26.08,12.34.9.35,1.54,1.18,1.61,2.14l.05.64c.05.57-.5,1-1.05.83l-19.53-6.55c-.55-.19-1.16.1-1.35.67l-.19.57c-.05.17.03.36.21.43l20.15,6.74c.52.19.86.71.79,1.26l-.07.55c-.03.33-.31.57-.64.57l-16.07-.19c-1.54-.29-2.71.38-3.53,2.04-.16.35.1.73.48.69,2.61-.22,3.7,1.97,5.15,2.89.57.36,1.23.55,1.88.54l9.3-.03c1.07,0,1.76-1.14,1.28-2.09-.05-.07-.16-.19-.33-.36-.16-.16-.09-.41.12-.5.62-.22.85-.55.69-1.02,1.16.99,1.69,1.8,1.64,2.44-.16,1.62-1.09,2.71-2.8,3.27-6.43,2.11-12.81,3.98-19.15,5.6-.41.1-.67.54-.55.95l.33,1.07c.07.26.35.4.59.33l21.53-6.34c.38-.12.74.26.62.64l-.48,1.42c-.21.62-.67,1.12-1.26,1.4l-25.06,11.48-.45.52c-.43.5-.38,1.26.12,1.69l.66.59c.31.28.36.74.1,1.07l-1.97,2.51c-.33.41-.88.54-1.35.31-1.37-.64-2.71-.76-4.06-.35-.74.22-1.37-.62-.92-1.24.21-.29.67-.62,1.42-1.02.45-.24.41-.9-.05-1.09-.16-.07-.45-.07-.88,0-.16.03-.29.12-.4.24l-6.03,8.17c-.1.16-.1.36.02.5l1.31,1.49c.19.21.52.16.62-.1.43-1.07,1.05-1.73,1.88-1.95.12-.03.21-.22.28-.59.07-.35,0-.55-.21-.6-.55-.17-.88-.66-.73-1.05.26-.67.67-1.09,1.24-1.23.41-.1.85.07,1.05.43,1.4,2.32,3.16,2.59,5.29.81,4.82-4.03,9.59-6.36,14.35-6.97-10.18,7.17-20.95,12.27-32.3,15.31-.33.09-.57-.33-.33-.57,6.45-6.86,12.41-15.02,17.87-24.47,7.69-13.34,4.82-23.09-3.09-36.23-5.58-9.28-11.23-17.23-16.95-23.85-.22-.24,0-.64.33-.59,11.86,1.95,22.9,7,33.15,15.14,5.82,4.63,10.89,8.99,15.23,13.08.16.14.17.36.03.52l-.02.02c-.14.14-.36.16-.52.03-5.89-4.86-21.95-17.32-28.67-16.52-1.02.12-1.11,1.56-.12,1.83,3.99,1.09,6.79,2.2,8.38,3.34,7.62,5.48,15.45,10.49,23.45,15.02.54.31.85.9.78,1.52l-.07.57ZM276.69,271.1l-15.35,5.67c-.52.19-.97-.41-.64-.86,1.02-1.4,1.11-2.51.26-3.34-.71-.69-1-1.73-.74-2.7.4-1.54,1.04-2.14,1.9-1.81.66.26,1.24-.5.81-1.05-.05-.07-1.19.03-3.4.29-.76.09-1.37-.6-1.18-1.35l.52-1.94c.21-.81,1.12-1.23,1.88-.85l10.42,5.2c.05.02.09.03.14.03,1.81.02,3.65.66,5.48,1.92.29.21.22.66-.1.78ZM370.95,288.95c-10.23,10.84-21.5,19.22-33.82,25.11-.55.26-1.14-.26-.95-.83l3.77-11.2c.03-.12.05-.24.03-.36-.24-3.82.5-7.69,2.23-11.61.21-.47.66-.76,1.16-.78l27.39-.74c.22,0,.35.26.19.41ZM409.73,277.06c-10.39,3.35-20.6,5.55-30.68,6.6-33.29,3.51-65.21.52-94.09-13.34-21.17-10.16-35.83-18.18-52.66-20.96-.57-.09-1-.55-1.04-1.12-.47-6.95-.12-13.27,1.04-18.98.52-2.56,2-4.15,4.44-4.75,6.48-1.62,11.61-3.44,15.4-5.44,16.19-8.57,24.97-13.17,26.34-13.77,16.7-7.38,38.52-15.5,56.97-17.09,20.08-1.73,39.89.57,59.42,6.9,8.4,2.71,15.83,5.43,22.28,8.14.26.1.31.45.09.62-23,18.27-26.36,49.53-7.14,71.92.38.43.19,1.12-.36,1.3ZM463.5,249.18c-15.21,11.6-31.61,20.5-49.21,26.7-.52.19-1.11-.03-1.4-.5-2.83-4.49-4.56-7.28-5.2-8.33-13.69-22.66-6.55-45.49,12.08-61.94.43-.38,1.07-.47,1.57-.19l20.24,10.75c.12,1.92-1.54,1.83-4.98-.24-1.19-.71-2.02-.31-2.45,1.23-.12.43-.05.76.19.99.19.16.52.19.97.1,1.12-.22,2.28-.29,3.44-.24.64.03,1.26.22,1.81.54,5.31,3.01,10.39,7.33,15.24,12.98.1.12.29.16.45.07l.41-.22c.29-.17.33-.59.07-.8-2.85-2.32-4.91-5.12-6.15-8.4,6.17,4.77,11.56,10.23,16.16,16.4.71.93.35,2.3-.73,2.78l-12.24,5.55s-.02,0-.03.02l-1.11.99c-.83.74-.17,2.09.92,1.92l9.33-1.52c.79-.14,1.24.9.6,1.38Z"/>
  <path class="st0" d="M329.59,177.08c1.37.81,1.47,4.15,3.09,5.51.22.19.55,0,.52-.28-.38-3.72-2.02-6.1-4.91-7.16-.38-.16-.76.21-.62.6.03.14.67.57,1.92,1.31Z"/>
  <path class="st0" d="M325.52,181.79c.53-.48.18-1.72-.78-2.76-.95-1.04-2.16-1.49-2.69-1-.53.48-.18,1.72.78,2.76.95,1.04,2.16,1.49,2.69,1Z"/>
  <path class="st0" d="M337.99,182c.71-.85.86-1.76.47-2.75-.26-.67-1.23-.66-1.47.03-.02.05-.02.83-.03,2.35,0,.54.69.78,1.04.36Z"/>
  <path class="st0" d="M349.33,197.82c.24,0,.43-.38.59-1.19.66-3.54.57-5.32-.22-5.38-.8-.03-1.07,1.73-.81,5.32.07.81.21,1.23.45,1.24Z"/>
  <path class="st0" d="M340.46,193.56l-.4-.86c-.22-.52-.92-.59-1.28-.16-1.76,2.28-2.68,4.63-2.73,7.05-.02.76.67,1.37,1.43,1.24l.09-.02c.64-.1,1.04-.74.83-1.35-.62-1.73-.05-3.27,1.73-4.63.4-.29.54-.83.33-1.28Z"/>
  <path class="st0" d="M345.65,192.42c-.36.73-.5,1.28-.43,1.68.07.36.54.47.76.17.48-.64.6-1.24.36-1.81-.14-.29-.55-.33-.69-.03Z"/>
  <path class="st0" d="M362.43,198.2c.35.19.78.09,1-.24.59-.86,1.3-2.52,2.14-4.99.12-.38-.14-.78-.54-.81l-.48-.03c-.16-.02-.29.07-.36.21l-2.11,4.91c-.16.36,0,.78.35.97Z"/>
  <path class="st0" d="M328,193.41c0-.21-.17-.38-.36-.38h-1.45c-.21,0-.36.16-.36.35l-.03,2.92c-.03,4.11.31,7.45.76,7.45h.52c.47,0,.86-3.32.9-7.41l.03-2.92Z"/>
  <path class="st0" d="M376.67,200.43c.93.1,1.57-1.9,1.9-6,.05-.64-.31-1-1.09-1.09-.78-.09-1.21.17-1.3.83-.6,4.06-.45,6.14.48,6.26Z"/>
  <path class="st0" d="M332.73,193.58c-.6-.09-1.31,1.57-1.59,3.71-.29,2.13-.03,3.91.56,4,.6.09,1.31-1.57,1.59-3.71.29-2.13.03-3.91-.56-4Z"/>
  <path class="st0" d="M370.24,203.66c.19.02.36-.05.47-.19l3.35-4.29c.21-.26.31-.59.29-.92-.14-2.47-.28-3.78-.4-3.98-.28-.36-.85-.19-.86.26-.05,1.37-.45,2.3-1.21,2.8-.38.26-.54.73-.41,1.16.43,1.5-.12,2.73-1.62,3.7-.14.09-.22.24-.24.4-.02.64.19,1,.64,1.05Z"/>
  <path class="st0" d="M324.01,194.67l-.24-.03c-.76-.09-2.21,6.83-3.23,15.45l-.24,1.95c-.02.19.12.36.31.38l2.3.28c.19.03.36-.1.38-.29l.22-1.95c1.04-8.62,1.26-15.69.5-15.78Z"/>
  <path class="st0" d="M385.45,201.7c1.07-1.9,1.66-3.51,1.8-4.84.09-.85-.5-1.62-1.33-1.8l-.54-.12c-.55-.1-1.07.31-1.07.88l-.03,5.57c0,.64.86.86,1.18.31Z"/>
  <path class="st0" d="M316.23,202.69h.1c.62-.02,1.11-.54,1.09-1.16l-.14-4.77c-.02-.62-.53-1.11-1.16-1.09h-.1c-.62.02-1.11.54-1.09,1.16l.14,4.77c.02.62.53,1.11,1.16,1.09Z"/>
  <path class="st0" d="M344.63,196.61c.19.05.36-.05.43-.22.05-.16.03-.35-.09-.59-.07-.14-.24-.19-.36-.1-.14.09-.22.26-.26.52-.02.19.09.36.28.4Z"/>
  <path class="st0" d="M380.85,199.61c1.43-.66,2.09-1.62,1.99-2.9-.03-.48-.59-.74-.99-.47-1.49,1.05-2.19,1.95-2.13,2.71.05.55.62.9,1.12.66Z"/>
  <path class="st0" d="M389.84,200.82c1.59-1.04,2.25-2.33,1.97-3.89-.09-.5-.73-.69-1.07-.31-1.4,1.5-2.18,2.58-2.33,3.18-.21.83.71,1.49,1.43,1.02Z"/>
  <path class="st0" d="M366.49,199.27c.4-.1.62-.48.66-1.14.05-.55-.19-.85-.71-.88-.48-.05-.83.19-1.02.73-.28.74.35,1.5,1.07,1.3Z"/>
  <path class="st0" d="M394.04,198.01s-.21,1.52-.6,4.51c-.07.55.54.92,1,.62,1.21-.78,1.92-2.21,2.11-4.3.14-1.43-1.76-2.07-2.51-.83Z"/>
  <path class="st0" d="M306.66,197.97l-.6.31c-.43.22-.69.71-.6,1.23.48,3.23.45,6.03-.12,8.42-.07.36.19.71.55.71l.55.02c.24,0,.45-.19.48-.43l1.26-9.18c.1-.85-.78-1.47-1.52-1.07Z"/>
  <path class="st0" d="M357.33,203.8c-.12.54.43.99.93.76,1.85-.81,3.06-2.09,3.63-3.82.05-.14-.02-.31-.16-.38s-.29-.03-.4.09l-1.11,1.4c-.45.57-1.33.54-1.71-.09-.43-.71-.57-1.68-.41-2.9,1.23-2.33,1.87-4.67,1.92-7,.02-.33-.43-.43-.59-.16-1.35,2.33-2.09,4.91-2.23,7.73.4,1.43.45,2.89.12,4.37Z"/>
  <path class="st0" d="M399.47,204.02c1.16.12,1.85-.05,2.09-.52.21-.4.28-1.04.22-1.94-.02-.26.09-.48.28-.71.17-.19.41-.36.71-.5.22-.12.5.09.8.6.28.45.57.66.9.6.31-.03.54-.31.54-.62s-.24-.57-.55-.6c-1.47-.16-2.63-.47-3.49-.92-.85-.45-1.9-.02-2.19.88-.78,2.35-.54,3.59.71,3.72Z"/>
  <path class="st0" d="M298.21,201.48c-.4.33-.55.78-.45,1.35.07.4.28.5.64.29.47-.26.67-.67.62-1.23-.03-.43-.5-.67-.81-.41Z"/>
  <path class="st0" d="M302.58,203.29c-.26.02-.48,1.62-.67,4.82,0,.16.03.31.1.43.19.38.5.54.9.52.41-.02.69-.22.85-.62.05-.14.07-.29.03-.45-.55-3.15-.97-4.72-1.21-4.7Z"/>
  <path class="st0" d="M312.38,205.37c.1-.6-.14-1.35-.71-2.23-.26-.4-.85-.28-.93.19-.17,1.02-.17,1.75.02,2.16.35.78,1.49.69,1.62-.12Z"/>
  <path class="st0" d="M264.37,206.18c.54.33,1.26.05,1.59-.6.4-.83.02-1.5-1.18-2-.97-.41-2.02-.21-1.87.38.28,1.05.76,1.8,1.45,2.23Z"/>
  <path class="st0" d="M408.02,207.65c.45-.03,1.09-.36,1.94-.97.83-.6,1.35-1.12,1.52-1.52.21-.52-.03-1.12-.57-1.31-1.5-.57-2.56-.64-3.16-.19-.6.43-.86,1.45-.79,3.06.03.55.52.99,1.07.93Z"/>
  <path class="st0" d="M404.26,205.11c-.22.97-.33,1.56-.31,1.75.09.71,1.02.88,1.38.28.43-.71.38-1.45-.12-2.19-.26-.38-.85-.28-.95.17Z"/>
  <path class="st0" d="M282.96,206.32l-1.07.07c-.25.02-.43.22-.42.48l.85,12.45c.02.24.23.43.48.42l1.07-.07c.25-.02.43-.22.42-.48l-.85-12.45c-.02-.24-.23-.43-.48-.42Z"/>
  <path class="st0" d="M343.99,206.82c.05-.1-.14-.31-.57-.62-.6-.43-1.21-.47-1.81-.1-.54.33-.8.55-.74.67.48,1.3,2.32,1.31,3.13.05Z"/>
  <path class="st0" d="M345.39,205.89c-.41.09-.66.28-.73.54-.12.4.22.8.64.74.45-.05.73-.17.81-.35.24-.48-.19-1.04-.73-.93Z"/>
  <path class="st0" d="M391.23,207.66c-.87,1.13-1.25,2.29-.85,2.6.41.32,1.45-.34,2.32-1.45.87-1.13,1.25-2.29.85-2.6-.41-.32-1.45.34-2.32,1.45Z"/>
  <path class="st0" d="M399.61,207.24c-.75.46-1.06,1.29-.72,1.85.35.56,1.23.63,1.98.17.75-.46,1.06-1.29.72-1.85-.35-.56-1.23-.63-1.98-.17Z"/>
  <path class="st0" d="M335.47,207.53c-.32-.36-1.18-.14-1.92.52-.73.64-1.08,1.47-.75,1.84.32.36,1.18.14,1.92-.52.73-.64,1.08-1.47.75-1.84Z"/>
  <path class="st0" d="M330.87,210.28c.76-.69.74-1.49-.05-2.4-.33-.38-.93-.24-1.07.22-.16.52-.17,1.12-.07,1.8.09.55.78.78,1.19.38Z"/>
  <path class="st0" d="M316.45,212.51c.52-.66.56-1.49.1-1.86-.46-.36-1.27-.14-1.78.53-.52.66-.56,1.49-.1,1.86.46.36,1.27.14,1.78-.53Z"/>
  <path class="st0" d="M306.82,211.37c-.65-.04-1.23.93-1.33,2.18-.11,1.25.34,2.32.98,2.37.65.04,1.23-.93,1.33-2.18.11-1.25-.34-2.32-.98-2.37Z"/>
  <path class="st0" d="M421.27,213.64c.98-.91,1.46-1.96,1.08-2.37-.38-.41-1.47,0-2.44.9-.98.91-1.46,1.96-1.08,2.37.38.41,1.47,0,2.44-.9Z"/>
  <path class="st0" d="M274.49,212.39c-.88.07-1.61.48-2.16,1.24-.43.59.02,1.4.67,1.23.69-.19,1.35-.71,1.99-1.56.29-.4,0-.95-.5-.92Z"/>
  <path class="st0" d="M427.42,215.06c.47-.05.71-.31.69-.81-.02-.79-.22-1.33-.66-1.59-.76-.47-1.64.38-1.26,1.21.38.85.79,1.24,1.23,1.19Z"/>
  <path class="st0" d="M300.78,214.57c-.76-.23-1.63.36-1.91,1.3-.29.96.11,1.91.87,2.14.76.23,1.63-.36,1.91-1.3.29-.96-.11-1.91-.87-2.14Z"/>
  <path class="st0" d="M278.71,215.51c.03-.14-.05-.28-.17-.33-.14-.05-.29,0-.36.12-.36.69-.76,1.4-1.21,2.11-.45.73-.92,1.38-1.38,2-.09.12-.07.28.03.38.1.1.26.1.38.02.69-.55,1.26-1.19,1.73-1.92.45-.73.8-1.52.99-2.39Z"/>
  <path class="st0" d="M268.6,217.12c-.5-.32-1.37.13-1.96,1.02-.59.89-.68,1.87-.18,2.21.5.32,1.37-.13,1.96-1.02.59-.89.68-1.87.18-2.21Z"/>
  <path class="st0" d="M262.05,223.55c.28-.16.41-.5.29-.79-.38-.97-.57-2.32-.55-4.03,0-.26-.17-.47-.43-.5-.24-.05-.48.1-.57.35-.62,1.85-.48,3.44.43,4.77.19.26.54.36.83.21Z"/>
  <path class="st0" d="M257.9,223.45c.16-.5-.07-1.42-.67-2.75-.22-.48-.9-.52-1.14-.05-.54,1-.57,2.04-.07,3.09.38.83,1.61.64,1.88-.29Z"/>
  <path class="st0" d="M266.89,222.31c.05-.22,0-.47-.16-.76-.1-.19-.35-.22-.5-.09l-1.37,1.19c-.28.26-.1.73.28.71.5-.02,1-.26,1.5-.71.14-.12.22-.24.24-.35Z"/>
  <path class="st0" d="M272.73,222.31c.24-.38-.14-.85-.55-.69-1.07.4-1.95.86-2.66,1.43-.45.36-.22,1.07.35,1.12,1.04.09,1.99-.54,2.87-1.87Z"/>
  <path class="st0" d="M439.46,223.14c-3.58,0-6.46,2.89-6.46,6.46s2.89,6.46,6.46,6.46,6.46-2.89,6.46-6.46-2.89-6.46-6.46-6.46ZM443.54,230.34c-.49,2.3-2.61,3.81-4.74,3.35-2.14-.45-3.49-2.68-3-4.97.49-2.3,2.61-3.81,4.74-3.35,2.14.45,3.49,2.68,3,4.97Z"/>
  <path class="st0" d="M249.03,228.82c.64.02,1.18-.81,1.21-1.87.03-1.05-.47-1.92-1.1-1.93-.64-.02-1.18.81-1.21,1.87-.04,1.05.47,1.92,1.1,1.93Z"/>
  <path class="st0" d="M239.65,225.31c-2.35.19-3.79.85-4.29,2-.28.64-.1,1.4.43,1.85.52.41.95,1.12,1.31,2.13.41,1.16,1.99,1.26,2.58.19.17-.33.41-2.11.74-5.38.05-.45-.33-.85-.78-.8Z"/>
  <path class="st0" d="M440.12,226.82c-1.29-.23-2.55.74-2.8,2.18-.26,1.44.57,2.79,1.86,3.03,1.29.23,2.55-.73,2.8-2.18.26-1.44-.57-2.79-1.86-3.03Z"/>
  <path class="st0" d="M243.4,227.41c-.79.05-1.38.88-1.33,1.84.05.97.74,1.73,1.54,1.67.79-.05,1.38-.88,1.33-1.84-.05-.97-.74-1.73-1.54-1.67Z"/>
  <path class="st0" d="M431.23,265.19c-14.92-6.76-19.88-18.61-14.86-35.57.21-.69-.59-1.24-1.18-.81-1.64,1.23-2.7,2.83-3.15,4.86-2.37,10.94-.03,20.19,7.03,27.74,3.13,3.35,7,5.27,11.61,5.76.5.05.97-.26,1.11-.76.14-.48-.1-1-.57-1.21Z"/>
  <path class="st0" d="M391.17,238.05c-10.84-4.79-22.04-7.4-33.63-7.83-.64-.02-1.18.07-1.62.28-1.37.66-1.76,2.42-.8,3.59,3.94,4.8,9.21,10.87,15.8,18.2,2.19,2.44,4.39,3.65,7.67,2.49,4.63-1.61,8.64-3.65,12.01-6.08.66-.47,1.09-1.21,1.18-2l.73-6.34c.1-.99-.43-1.9-1.33-2.3ZM389.25,245.12c-3.23,3.2-6.84,5.39-10.8,6.62-1.85.57-3.85,0-5.13-1.45l-14.07-16.02c-.26-.31-.02-.78.38-.74,8.76.85,18.39,2.94,28.88,6.27.67.22,1.02.95.78,1.61-.09.22-.76.4-2.06.52-.64.07-1.19.45-1.47,1-.29.6-1.4,1.23-3.28,1.87-.29.1-.41.45-.24.71l.36.54c.03.05.1.07.16.03l5.48-2.45c.93-.41,1.75.78,1.02,1.5Z"/>
  <path class="st0" d="M206,233.7c1.3.05,2.42-.45,3.35-1.49.36-.41.12-1.07-.45-1.21-.22-.05-.41-.03-.6.05-.21.12-.4.16-.55.1-1.11-.24-1.83-.16-2.2.24-.79.9-.52,2.26.45,2.3Z"/>
  <path class="st0" d="M458.66,233.12c.64.09.99-.73.48-1.14-.6-.5-1-.81-1.18-.9-.48-.24-.97.33-.81.93.17.64.67,1.02,1.5,1.11Z"/>
  <path class="st0" d="M385.01,241.41c.06-.46-1.11-.99-2.62-1.21-1.52-.22-2.8-.03-2.85.43-.06.46,1.11.99,2.62,1.21,1.52.22,2.8.03,2.85-.43Z"/>
  <path class="st0" d="M378.75,240.87c-.16,0-.28.12-.28.28s.12.28.28.28.28-.12.28-.28-.12-.28-.28-.28Z"/>
  <path class="st0" d="M415.8,242.3c-.1.03-.16.14-.14.22,1.16,4.94,2.97,9.44,5.43,13.48.07.12.21.16.33.1l.35-.19c.29-.16.38-.54.19-.81-2.33-3.42-4.2-7.59-5.62-12.5-.07-.24-.31-.38-.54-.31Z"/>
  <path class="st0" d="M376.93,244.7c-.26.48-.35.81-.29.99.26.81,1.4.93,2.14.24.22-.21.22-.54,0-1-.38-.81-1.47-.95-1.85-.22Z"/>
  <path class="st0" d="M249.92,248.18l-.97,1.23c-.36.47-1.07.45-1.4-.03-1.05-1.47-2.02-1.61-2.9-.43-.09.12-.12.28-.1.43l.05.45c.09.6.67,1.02,1.26.86,1.38-.33,3.04.1,4.98,1.31.66.41,1.5-.1,1.43-.88-.07-.85-.28-1.73-.6-2.64-.28-.74-1.26-.92-1.75-.29Z"/>
  <path class="st0" d="M255.15,250.36c-.79.93-.86,2.15-.14,2.77.72.61,1.93.35,2.71-.57.79-.93.86-2.15.14-2.77-.72-.61-1.93-.35-2.71.57Z"/>
  <path class="st0" d="M260.72,252.36c-.19.47-.21,1.33-.03,2.63.07.52.67.74,1.05.4,1.35-1.21,1.5-2.32.45-3.32-.47-.45-1.23-.29-1.47.29Z"/>
  <path class="st0" d="M265.52,254.3c-.03.09-.07,1.21-.09,3.37,0,.38.52.48.66.14.73-1.71.99-2.89.79-3.49-.21-.66-1.14-.66-1.37-.02Z"/>
  <path class="st0" d="M273.58,256.15c-.74-.43-1.26-.59-1.56-.5-.97.31-1.54,1.3-1.33,2.3.21,1.02,1.14,1.78,2.18,1.8.1.02.45-.92,1.02-2.8.09-.31-.03-.64-.31-.79Z"/>
  <path class="st0" d="M277.4,257.81c.45,2.99.71,4.51.76,4.58.31.4.97.19.97-.33.03-2.7-.07-4.27-.31-4.72-.4-.74-1.54-.36-1.42.47Z"/>
  <path class="st0" d="M197.7,258.79l-2.52,1.38c-.45.24-.31.92.19.97,1.31.16,2.4-.26,3.25-1.21.24-.28.26-.67.03-.95-.24-.28-.64-.36-.95-.19Z"/>
  <path class="st0" d="M431.13,260.48c-.17.02-.29.21-.35.54-.05.29.02.52.17.67.5.5.95.61,1.35.33.81-.55-.07-1.71-1.18-1.54Z"/>
  <path class="st0" d="M289.91,264.11c-1.26,1.85-1.62,3.68-1.09,5.48.22.76,1.33.64,1.4-.14l.45-5.06c.03-.43-.52-.64-.76-.28Z"/>
  <path class="st0" d="M356.68,264.56c-.78.23-1.28.94-1.09,1.59.18.66.98.99,1.77.77.78-.23,1.28-.94,1.09-1.59-.18-.66-.98-.99-1.77-.77Z"/>
  <path class="st0" d="M385.37,265.51c-.29-.05-.54.03-.69.28-.45.66-.43,1.18.07,1.54.71.52,1.23.54,1.59.05.48-.69-.02-1.68-.97-1.87Z"/>
  <path class="st0" d="M312.53,266.31c-.64-.19-1.19.45-.86.99.16.24.4.47.74.67.57.36,1.3-.1,1.19-.76-.07-.41-.43-.71-1.07-.9Z"/>
  <path class="st0" d="M321.5,267.21c-.57.92-.67,2.26-.31,4.04.09.41.62.48.81.12.74-1.5,1.11-2.73,1.11-3.7,0-.88-1.14-1.21-1.61-.47Z"/>
  <path class="st0" d="M368,267c-.33.26-.38.71-.16,1.35.21.57.57.73,1.09.43.29-.16.45-.47.5-.97.07-.78-.81-1.28-1.43-.81Z"/>
  <path class="st0" d="M373.37,267.55c-.4.36-.5.78-.28,1.23.16.33.35.47.54.43.74-.1.97-1.09.36-1.64-.21-.19-.41-.21-.62-.02Z"/>
  <path class="st0" d="M328.31,267.76c-.31-.22-.76.07-.83.55-.09.62.1,1.09.55,1.4.52.35,1.19-.12,1.07-.73-.09-.5-.36-.92-.8-1.23Z"/>
  <path class="st0" d="M297,268.66c-.05.41-.05.71-.02.86.07.41.66.45.78.03.05-.24.03-.55-.09-.95-.12-.36-.64-.31-.67.05Z"/>
  <path class="st0" d="M333.64,268.05c-.55-.05-.97.16-1.23.62-.19.33-.1.54.29.6.54.09.99-.05,1.33-.41.28-.29.03-.78-.4-.81Z"/>
  <path class="st0" d="M343.49,269.59c-.19.78-.12,1.38.21,1.78.31.38.92.31,1.16-.16.41-.81.48-1.4.22-1.78-.43-.66-1.43-.55-1.59.16Z"/>
  <path class="st0" d="M270.55,269.37c-.24-.09-.48,0-.62.19-.62.92-.9,1.49-.85,1.75.28,1.11,1.97.52,2.54-.88.16-.36-.21-.71-1.07-1.05Z"/>
  <path class="st0" d="M351.23,272.53l-.62-.05c-.31-.03-.79,2.49-1.11,5.62l-.41,4.23c-.02.17.1.31.28.33l1.11.12c.17.02.33-.12.35-.28l.41-4.23c.29-3.15.29-5.7,0-5.74Z"/>
  <path class="st0" d="M316.39,273.74c-.22.36-.21.83.07,1.43.19.43.47.52.86.29.64-.36.85-.86.64-1.49-.24-.71-1.19-.86-1.57-.24Z"/>
  <path class="st0" d="M370.1,274.19c-.36.05-.31,1.3.12,3.68.43,2.4.81,3.58,1.18,3.51.36-.07.31-1.3-.12-3.7-.43-2.4-.83-3.56-1.18-3.49Z"/>
  <path class="st0" d="M390.84,273.76c-.19-.16-.29-.21-.35-.17-1.28.93-.59,2.97.99,2.85.02,0,.07-.17.16-.5.26-.88-.02-1.61-.8-2.18Z"/>
  <path class="st0" d="M311.41,275c.19.99.31,1.49.36,1.54.29.33.85.09.79-.36-.12-.9-.24-1.42-.38-1.57-.31-.33-.86-.05-.78.4Z"/>
  <path class="st0" d="M331.3,276.45c-.71.35-1.14.93-1.33,1.78-.19.85-.03,1.56.45,2.16.17.21.48.05.43-.21-.14-.66-.16-1.24-.03-1.78.1-.52.38-1.04.8-1.57.16-.21-.07-.48-.31-.38Z"/>
  <path class="st0" d="M363.23,276.51c-.62.02-.88.31-.8.9.07.48.22.79.47.92.66.35,1.42-.28,1.24-1.02-.12-.54-.41-.8-.92-.8Z"/>
  <path class="st0" d="M321.18,277.13c-.28.36-.35.81-.21,1.37.1.47.67.64,1.02.33.38-.35.5-.8.36-1.35-.14-.57-.85-.78-1.18-.35Z"/>
  <path class="st0" d="M355.6,277.28c-.19-.09-.36-.1-.54-.02-.17.07-.28.21-.31.41-.02.05-.02.1.02.16,1.45,2.83,2.28,4.2,2.49,4.11.21-.1-.31-1.62-1.56-4.55-.02-.05-.05-.1-.1-.12Z"/>
  <path class="st0" d="M340.55,277.87c-.16.64-.1,1.23.16,1.76.22.45.86.4,1.04-.07.1-.28,0-.85-.29-1.71-.16-.45-.78-.43-.9.02Z"/>
  <path class="st0" d="M336.33,278.68c-.14.02-.4.41-.78,1.19-.28.55-.21.92.21,1.11.35.17.69.03,1.04-.41.62-.81.35-1.97-.47-1.88Z"/>
  <path class="st0" d="M362.78,279.41c-.03.05-.17.52-.4,1.43-.1.4.41.66.67.35.17-.21.33-.67.48-1.38.09-.45-.45-.73-.76-.4Z"/>
  <path class="st0" d="M684.74,352.85c-11.42-19.79-26.69-34.39-45.75-43.83-1.61-.79-2.96-2.02-3.91-3.54-2.49-4.01-5.74-7.74-9.73-11.18-5.62-4.8-15.47-4.99-22.43-4.56-21.62,1.37-41.24,7.09-58.85,17.16-6.26,3.58-9.51,9.13-9.76,16.64-.02.57-.33,1.09-.81,1.37-6.86,3.87-11.91,8.02-20.38,5.44-.69-.22-1.35-.57-1.92-1.02-15.21-12.13-28.83-22.04-48-25.8-.92-.17-1.76.48-1.78,1.37,0,.54.29,1.07.9,1.59,11.42,9.75,18.93,23.99,24.75,36.21.6,1.3.6,2.78-.03,4.06l-3.53,6.98c-.5.99-.86,2.04-1.09,3.13-2.32,10.59-7.93,20.17-16.85,28.71-1.07,1.04-.24,2.85,1.24,2.68,15.19-1.73,29.71-12.25,40.05-23.45,5.53-6.01,14.33-3.42,19.7,1.05.45.36.59.99.36,1.54l-1.76,4.1c-.26.6-.12,1.3.35,1.76,6.84,6.84,15.85,14.33,26.08,11.77.5-.12,1.04-.02,1.47.28,8.38,6,17.61,10.54,27.7,13.6.24.07.31.4.12.57l-10.34,9.09c-.5.43-.38,1.23.21,1.52,2.54,1.28,8.35-.29,10.61-.62.41-.05.71.4.47.73-.16.21-2.45,2.35-6.9,6.43-1.52,1.38-1.62,3.66-.21,4.79.43.35,1.35.36,2.78.05,12.01-2.59,22.24-8.17,30.73-16.73.86-.88,2.04-1.38,3.27-1.4,27.74-.48,52.39-14.38,72.16-33.13,1.45-1.37.97-3.79-.88-4.49-4.01-1.54-10.28-.73-13.69-.6-.19,0-.35-.12-.38-.31-.02-.19.09-.36.28-.41l15.17-3.91c1.52-.4,2.49-1.88,2.23-3.44-.22-1.23-.78-2.63-1.66-4.17ZM537.3,318.94c1.35-2.54,2.82-4.63,4.39-6.27,1.78-1.87,3.79-3.39,6.01-4.58,15.64-8.35,32.18-13.39,49.62-15.11,6.86-.67,20.01-1.28,25.73,3.47,3.63,3.02,6.15,5.91,7.57,8.66.16.29-.17.59-.45.43-3.34-1.85-6.93-2.89-10.78-3.11,1.23-3.13.17-5.2-3.15-6.19-.78-.22-1.42.62-.97,1.3,1.28,1.97,1.19,3.27-.26,3.91-.38.02-.69-.12-.92-.43l-1.18-3.2c-.26-.74-.99-1.21-1.76-1.14-1.68.14-3.4-.36-5.15-1.52-.99-.64-2.19.4-1.71,1.47l.92,2.02c.24.52-.14,1.11-.71,1.11l-1.62.02c-.59,0-1.02-.59-.83-1.14.26-.76-.36-1.78-1.85-3.08-.43-.38-1.09-.36-1.5.05l-1.23,1.23c-.57.57-1.5.45-1.9-.24-.54-.92-1.26-.97-2.21-.17-.62.52-1.45.73-2.25.57l-1.45-.28c-.45-.09-.9.1-1.14.5-.07.09-.07.4-.02.9.07.57-.14,1-.6,1.26-.81.47-1.85.02-3.09-1.31-.41-.45-1.09-.57-1.64-.29l-3.4,1.68c-.52.26-1.12.28-1.64.05-1.42-.6-2.52-.07-3.34,1.57-.24.5-.74.79-1.3.78-2.47-.1-5.03.85-7.69,2.83-.43.33-1.05.45-1.83.36-.55-.07-1.11.09-1.56.43-1.43,1.11-2.96,1.73-4.53,1.85-.67.05-1.24.5-1.43,1.14-.43,1.42-2.13,2.45-5.05,3.09-.35.09-.69.07-1-.05-1.75-.55-3.04-.6-3.92-.16-.57.29-.88.9-.81,1.52.07.6.07,1-.02,1.19-.26.57-.95.8-1.5.52-.07-.03-.12-.05-.16-.07-.62-.22-1.31-.03-1.73.48-1.45,1.87-1.9,3.51-1.37,4.94-.88.88-1.54,1.35-1.97,1.4-1.31.14-2.25-1.24-1.62-2.4ZM507.76,359.76s-.17.03-.45.12c-.47.1-.88.38-1.19.74-8.9,10.46-20.32,18.44-34.29,23.95-.47.19-.86-.38-.54-.76l6.88-7.79c.05-.07.1-.14.16-.22l5.91-12.44c.05-.12.07-.26.02-.4-.33-.97.03-2.73,1.09-5.29,1.95-4.7,3.77-8.12,5.43-10.25.35-.45.48-1,.4-1.56-1.19-7.69-6.03-13.2-9.28-18.67-.33-.55.26-1.21.85-.93l19.81,9.32c.07.03.14.02.19-.05l.47-.54c.22-.26.14-.69-.17-.83l-22-10.13c-.55-.26-1-.69-1.28-1.24-2.54-5.13-6.01-9.75-10.39-13.81-.31-.29-.02-.8.4-.67,14.15,4.46,26.67,12.08,37.56,22.85.36.35.36.93,0,1.28-1.33,1.3-2.23,2.58-2.71,3.84-3.2,8.38-2.06,15.78,3.42,22.19.36.41.22,1.05-.26,1.3ZM576.1,407.43l-.1-.17c-.33-.59,3.94-3.59,9.51-6.72l.24-.14c.19-.1.41-.03.52.16l.92,1.62c.1.17.03.41-.14.52l-.24.14c-5.58,3.13-10.37,5.18-10.7,4.6ZM604.39,404c-7.1,6.81-15.49,11.56-25.11,14.24-.45.12-.76-.47-.4-.76,4.72-3.92,8.68-8.66,11.84-14.21.52-.92,1.61-1.33,2.59-.99,3.04,1.05,6.58,1.31,10.65.81.5-.07.79.55.43.9ZM681.36,358.7c-9.49,1.88-18.75,4.72-27.81,8.49-.79.33-1.23,1.21-.99,2.02l.02.07c.22.8,1.05,1.26,1.85,1.02,9.25-2.82,17.99-3.63,26.24-2.42.47.07.66.66.29.97-9.97,8.59-22.07,18.15-34.45,22.85-.54.21-1.14.17-1.64-.09-7.52-3.87-12.67-9.28-15.47-16.23-7.78-19.22-3.28-44.3,14.6-56.03.24-.16.35-.48.22-.74-.12-.28-.41-.41-.69-.35-12.82,3.2-19.18,21.79-20.58,33.67-1.81,15.42,4.48,34.1,19.27,41.1.48.22.45.92-.05,1.11-28.57,10.66-62.25,6.45-86.8-10.87-.02-.02-6.2-4.74-18.54-14.19-9.61-7.36-14.14-10.08-23.42-11.3-2-.26-3.73-1.52-4.6-3.35-3.54-7.47-3.08-14.14,1.37-20.03.41-.54,1.09-.81,1.76-.69,7.38,1.21,14-.09,19.89-3.87,11.39-7.31,21.45-12.93,30.18-16.83,17.09-7.66,40.32-12.01,58.81-6.84,27.79,7.76,48.43,24.3,61.93,49.62.64,1.19-.07,2.68-1.4,2.94Z"/>
  <path class="st0" d="M350.82,291.46c.28-.4.19-.66-.28-.78-.47-.12-.83.02-1.05.43-.1.17-.12.29-.07.38.35.45,1.04.43,1.4-.03Z"/>
  <path class="st0" d="M342.88,298.99c.41.54,1.19.59,1.64.1,1.45-1.54,2.33-3.56,2.63-6.07.05-.48-.43-.86-.88-.69l-.78.29c-.41.16-.66.57-.59,1,.28,1.94-.31,3.25-1.75,3.94-.5.24-.66.9-.31,1.35l.03.07Z"/>
  <path class="st0" d="M354.88,293.56c.22-.31.05-.74-.33-.81-.52-.09-1,.02-1.47.31-.33.21-.6.64-.81,1.3-.43,1.37-.97,2.37-1.61,3.01-2.51,2.51-4.49,4.72-5.96,6.65-.28.36-.66.64-1.11.81-1.28.47-1.76,1.09-1.45,1.88.09.21.33.29.52.17l8.68-5.98c.5-.35.76-.95.67-1.56-.1-1.18.85-3.11,2.87-5.79Z"/>
  <path class="st0" d="M356.16,296.4l-2.78,3.16c-.21.22.05.57.33.45,1.88-.74,3.04-1.75,3.49-3.01.22-.64-.59-1.11-1.04-.6Z"/>
  <path class="st0" d="M608.28,307.81c-.57.22-.83,1-.74,2.33.02.45.59.62.86.28.86-1.02,1.94-1.38,3.2-1.09.21.07.45-.03.55-.24.19-.38.22-.6.07-.69-1.5-.83-2.82-1.02-3.94-.59Z"/>
  <path class="st0" d="M598.74,318.52c-.07-1.92-1.3-2.71-1.62-4.58-.33-1.87.55-3.04-.05-4.86-.17-.48-.66-.8-1.18-.71-.52.07-.92.5-.92,1.04-.03,1.56-.8,4.1-.62,5.01.16.93,1.75,3.06,2.32,4.51.19.48.69.76,1.21.66.5-.1.86-.55.86-1.07Z"/>
  <path class="st0" d="M602.94,308.74h-.12c-.8.07-1.47.6-1.73,1.35-.57,1.68-.71,3.47-.4,5.38.12.71,1.11.79,1.35.12l1.92-5.32c.26-.73-.26-1.5-1.02-1.52Z"/>
  <path class="st0" d="M614.98,314.9c.7.21,1.69-.98,2.22-2.68.53-1.7.37-3.24-.33-3.46-.7-.21-1.69.98-2.22,2.68-.53,1.7-.37,3.24.33,3.46Z"/>
  <path class="st0" d="M591.85,317.35l.59-.19c.59-.19.86-.88.55-1.42l-3.01-5.36c-.35-.62-1.3-.36-1.28.35,0,2.4.29,4.27.9,5.62.38.86,1.35,1.3,2.25,1Z"/>
  <path class="st0" d="M583.57,321.82c.29-.07.54-.26.71-.59,2.4-4.51,1.42-8.07-2.94-10.66-.22-.14.1-.17-.41-.05-.52.12-.21,0-.35.22-2.77,4.27-2.06,7.88,2.11,10.87.29.21.59.28.88.21ZM582.96,316.84c-.16.45-.81.45-.95-.02l-.74-2.52c-.12-.4.07-.81.43-1,.38-.19.83-.07,1.07.26.6.83.67,1.92.19,3.28Z"/>
  <path class="st0" d="M618.64,312.4h4.77c.68,0,1.23.55,1.23,1.23v.1c0,.68-.55,1.23-1.23,1.23h-4.77c-.68,0-1.23-.55-1.23-1.23v-.1c0-.68.55-1.23,1.23-1.23Z" transform="translate(11.35 648.9) rotate(-55.6)"/>
  <path class="st0" d="M609.89,312.83c-.54-.47-1.24-.86-2.13-1.21-1.16-.47-2.21.9-1.45,1.9,2.39,3.2,2.45,5.58.19,7.16-.26.17-.28.55-.03.74l.41.31c.21.17.5.12.66-.1,1.16-1.8,2.11-3.84,2.85-6.12.38-1.16.21-2.04-.5-2.68Z"/>
  <path class="st0" d="M576.22,313.47c-.19-.64-.95-.92-1.49-.54-1.31.92-1.76,2.07-1.37,3.51.31,1.14.35,1.88.1,2.25-.38.59-1.09.78-2.13.57-.03.9.12,1.54.45,1.9.38.43.95.43,1.69,0,2.83-1.69,3.75-4.25,2.73-7.69Z"/>
  <path class="st0" d="M628.57,318.87c-1.28-.62-1.68-1.68-1.18-3.15.36-1.04-.5-2.07-1.42-1.69-.59.22-1.19.88-1.81,1.97-.33.55-.12,1.24.45,1.52,1.19.6,1.85,1.57,1.95,2.9.05.54.54.93,1.07.86.57-.07,1.02-.38,1.35-.92.35-.52.14-1.23-.41-1.5Z"/>
  <path class="st0" d="M633.95,313.84l-.24.02c-1.43.03-2.58,1.43-2.52,3.11l.03,1.21c.05,1.68,1.26,3.01,2.7,2.97l.24-.02c.4,0,.69-.33.69-.73l-.17-5.88c0-.38-.33-.69-.73-.69Z"/>
  <path class="st0" d="M568.53,319.26c-.28-.09-.47-.36-.45-.67,0-.02.09-.62.26-1.83.19-1.31-1.37-2.16-2.39-1.3-.5.4-.28,1.64.66,3.7.59,1.3-.9,2.56-2.09,1.78-.12-.07-.33-.74-.66-2.02-.12-.52-.9-.47-.95.07-.07.67.02,1.68.28,2.99.1.59.6,1,1.19,1.02,2.04.03,3.61-.64,4.7-2.04.19-.26.28-.54.24-.8-.09-.47-.35-.76-.79-.9Z"/>
  <path class="st0" d="M571.12,316.1c-.95-.83-2.4.12-2.02,1.33.52,1.62,1.26,2.23,2.25,1.83.43-1.61.36-2.66-.22-3.16Z"/>
  <path class="st0" d="M559.54,328.16c-.35-3.11.09-6.29,1.26-9.56.12-.33-.02-.71-.33-.9-.31-.17-.71-.09-.93.19-2.06,2.63-2.8,5.91-2.25,9.85.03.24.17.45.38.57l.92.48c.45.24,1-.12.95-.64Z"/>
  <path class="st0" d="M619.88,319.92l-1.28,1.3c-.5.5-1.37.17-1.42-.54-.07-.99-.28-1.83-.64-2.54-.22-.45-.86-.45-1.09-.02-.64,1.23-.9,2.39-.74,3.47.12.85.67,1.28,1.66,1.28.6,0,1.26.47,1.94,1.38.45.6,1.42.43,1.61-.31l.9-3.49c.16-.55-.54-.93-.93-.54Z"/>
  <path class="st0" d="M646.2,319.97c.1,0,.19-.09.19-.19s-.09-.19-.19-.19-.19.09-.19.19.09.19.19.19Z"/>
  <path class="st0" d="M484.03,320.3l-.55-.07c-.29-.03-.48.29-.31.54.36.5.73.59,1.09.28.29-.24.16-.71-.22-.74Z"/>
  <path class="st0" d="M504.72,332.54c-.24-1-.79-1.75-1.62-2.21-4.91-2.73-8.97-5.44-12.17-8.14-.28-.22-.69-.14-.83.19l-.55,1.18c-.03.07,0,.14.05.17l14.55,9.23c.29.19.66-.07.57-.41Z"/>
  <path class="st0" d="M548.55,328.75c.55.03,1.11-.24,1.66-.81,2.18-2.26,5.63-.9,5.76-5.69,0-.55-.55-.92-1.05-.69-1.3.6-2.3,1.87-2.97,3.77-.19.55-.86.8-1.37.48-2.58-1.57-5.43-2.28-7.03.45-2.16,3.66-2.97,5.79-2.45,6.38.83.93,2.3.85,2.96-.16.97-1.5,1.54-3.04,1.71-4.58.05-.43.4-.76.83-.78.41-.03.8.26.9.67.14.6.5.92,1.07.95Z"/>
  <path class="st0" d="M536.01,329.32c-.12.05-.6.5-1.45,1.35-.38.38-.41.97-.1,1.4.43.62.66,1.3.64,2.02-.02.48.5.83.93.6,1.24-.6,1.75-1.43,1.52-2.47-.38-1.75-1.09-3.08-1.54-2.9Z"/>
  <path class="st0" d="M652.17,335.04c-3.58,0-6.48,2.9-6.48,6.48s2.9,6.48,6.48,6.48,6.48-2.9,6.48-6.48-2.9-6.48-6.48-6.48ZM655.8,343.67l-1.02,1.18c-1.28,1.47-3.51,1.64-5,.36l-.78-.68c-1.48-1.28-1.64-3.51-.36-5l1.02-1.18c1.28-1.47,3.51-1.64,5-.36l.78.68c1.48,1.28,1.64,3.51.36,5Z"/>
  <path class="st0" d="M492.09,336.67c.5.36,1.14.54,1.94.55.85,0,1.26-1,.62-1.49-.66-.5-1.38-.73-2.16-.67-.81.05-1.09,1.12-.4,1.61Z"/>
  <path class="st0" d="M523.43,335.41c-.7.22-.99,1.24-.66,2.29.34,1.04,1.17,1.71,1.85,1.5.7-.22.99-1.24.66-2.29-.34-1.04-1.17-1.71-1.85-1.5Z"/>
  <path class="st0" d="M519.64,336.34c-3.27.02-4.91.02-4.94.03-2.33.67-2,4.06.4,4.29,3.02.29,4.82-.79,5.41-3.23.14-.55-.29-1.09-.86-1.09Z"/>
  <path class="st0" d="M493.66,338.95l-.22.36c-.21.36,0,.81.41.88,2.23.33,4.2-.29,5.93-1.88.26-.24.24-.66-.05-.86-.5-.36-1.11-.52-1.83-.43-.4.03-.76.5-1.07,1.4-.28.83-1.26.99-2.94.45-.09-.03-.19,0-.22.09Z"/>
  <path class="st0" d="M650.16,339.75c-1.06,1.22-1.04,3,.06,3.94,1.09.94,2.84.72,3.91-.5,1.06-1.22,1.04-3-.06-3.94-1.09-.94-2.84-.72-3.91.5Z"/>
  <path class="st0" d="M495.49,346.09c1.12-1.33,2.02-2.09,2.71-2.28.38-.1.5-.59.21-.85l-.71-.62c-.19-.17-.47-.19-.69-.07-1.14.66-1.99,1.73-2.54,3.23-.22.62.59,1.11,1.02.59Z"/>
  <path class="st0" d="M495.01,347.68c-.41-.22-.93-.16-1.26.21l-.6.67c-.36.4-.16,1.04.36,1.18,2.66.69,5.06.6,7.21-.26.67-.28.93-1.09.55-1.71l-.05-.09c-.33-.52-1.05-.62-1.49-.21-1.28,1.19-2.85,1.26-4.72.21Z"/>
  <path class="st0" d="M485.85,362.87c3.92-2.44,8.8-4.77,14.6-6.98.99-.38,1.71-1.11,2.14-2.16.16-.36-.22-.71-.57-.55l-17.39,7.81c-.07.03-.1.1-.09.17l.41,1.38c.12.38.55.54.88.33Z"/>
  <path class="st0" d="M504.26,358.58c-1.26.88-2.26,2.02-3.04,3.42-3.23,1.37-5.86,3.47-7.92,6.34-.38.54-.92.97-1.54,1.21-3.61,1.5-6.2,4.18-10.25,4.46-.21.02-.38.17-.41.38l-.17.83c-.05.29.17.55.47.54,1.54-.1,2.9-.48,4.08-1.12,6-3.28,11.49-7.26,16.52-11.91,1.28-1,2.33-2.07,3.18-3.23.19-.26.16-.62-.07-.85-.22-.22-.59-.26-.85-.07Z"/>
  <path class="st0" d="M497.08,359.43c-.5-.05-.97.22-1.18.67-.14.36-.57.83-1.28,1.4-.14.12-.16.35-.02.47l.4.35c.24.22.64.19.86-.07,1.02-1.21,2.23-1.62,3.66-1.24.28.07.54-.12.57-.4l.03-.48c.02-.22-.14-.41-.36-.43l-2.7-.26Z"/>
  <path class="st0" d="M484.35,371.18c2.92-1.14,5.57-2.89,7.93-5.22.1-.1.16-.19.17-.24.05-.22.07-.43.02-.62-.03-.12-.17-.17-.28-.1l-8.16,5.65c-.14.09-.17.26-.1.4.09.14.26.21.41.14Z"/>
  <path class="st0" d="M344.92,422.65l-2.59-.43c-.5-.09-.57-.78-.1-.97,5.76-2.35,3.99-6.38,1.04-10.37-13.1-17.8-30.78-26.27-52.26-29.12-.92-.12-1.78-.45-2.52-.95-12.74-8.59-33.96-10.39-49.72-10.15-1.52.02-2.21,1.92-1.05,2.92,5.82,4.99,10.91,8.66,13.45,14.4.24.55.05,1.21-.47,1.54-7.38,4.68-15.05,9.99-23.04,15.92-2.78,2.07-5.12,2.42-7,1.02-10.56-7.81-23.85-14.17-36.36-15.04-1.21-.09-1.97,1.26-1.26,2.25,5.39,7.52,13.24,15.42,18.7,24.8.29.5.24,1.14-.12,1.61l-15.02,19.13c-.74.93-.09,2.32,1.11,2.35,2.25.07,4.87-.33,7.9-1.18,10.35-2.92,16.66-6.39,24.96-11.91.9-.6,1.97-.9,3.06-.88,7.69.17,17.78,5.63,32.84,12.06.55.24.76.9.45,1.42l-6.5,10.89c-.73,1.23.02,2.8,1.42,3.01,1.18.19,2.44.05,3.77-.38,7.59-2.44,14.62-5.39,21.1-8.87.76-.41,1.61-.62,2.45-.64,4.61-.07,9.14.74,14.09.62,20.2-.54,37.78-6.88,52.77-19.03,1.52-1.24.88-3.7-1.05-4.03ZM242.28,374.38c-.4-.33-.17-.97.35-.97,13.07.1,29.23,1.97,40.75,7.86.26.14.14.5-.14.5-7.73-.19-18.2.97-25.91,4.6-1.14.54-1.88.85-2.25.9-.5.09-1-.16-1.24-.59-3.96-6.86-6.64-8.33-11.56-12.31ZM218.5,426.56c-8.42,5.86-17.44,9.85-27.03,11.96-.33.07-.57-.31-.36-.59l13.22-16.87c.55-.69.73-1.61.48-2.45-1-3.54-3.58-7.07-6.55-10.3-3.99-4.3-7.48-8.5-10.47-12.58-.35-.47.07-1.11.64-1,10.82,2.04,20.52,6.45,29.09,13.24.5.4.69,1.07.5,1.68-1.73,5.34-1.42,10.44.92,15.3.28.57.09,1.26-.43,1.62ZM272.25,444.81l-17.37,7.79c-.52.24-1.04-.33-.76-.83l5.27-9.61c.35-.64,1.09-.99,1.8-.83l10.96,2.49c.48.1.55.78.1.99ZM342.8,425.94c-6.38,4.61-13.39,8.47-21.03,11.6-.64.26-1.61-.07-2.94-.98-3.79-2.58-6.45-5.62-8.02-9.13-3.2-7.1-2.63-14.43,1.71-22.02.21-.35.1-.8-.22-1.04l-.03-.02c-.38-.29-.93-.21-1.23.17-7.26,9.26-6.34,22.71,2.16,30.49,1.76,1.61,3.56,2.52,5.38,2.75.45.05.5.67.07.81-9.26,2.92-18.79,4.3-28.55,4.15-8.11-.12-17.14-1.66-27.08-4.63-6.72-2.02-15.28-5.31-25.68-9.83-4.15-1.81-8.59-3.04-13.33-3.7-1.94-.28-3.42-1.87-3.58-3.82l-.59-7.59c-.12-1.75,1.31-3.18,3.06-3.06,2.33.16,4.96-.92,7.92-3.23,7.76-6.14,18.32-14.4,27.76-17.7,31.25-11.01,66.13-1.78,84.76,26.51.57.88.41,2.02-.36,2.71-2.3,2.02-4.98,3.53-8,4.48-.62.21-1.04.8-.99,1.45l.03.47c.05.52.55.86,1.04.73,2.54-.71,5.01-.97,7.43-.74.6.05.81.83.33,1.18Z"/>
  <path class="st0" d="M555.21,376.11c-.35,0-.8.26-1.33.78-.45.45-1.21.12-1.21-.52.02-2-1.14-3.53-3.46-4.56-1.24-.55-2.47.85-1.75,2,1.26,2.02,3.34,4.04,6.26,6.1.48.33,1.12.31,1.57-.07,1.05-.88,1.38-1.85.99-2.94-.19-.54-.55-.8-1.07-.8Z"/>
  <path class="st0" d="M641.88,388.67c1.26.55,2.25.54,2.96-.07.88-.76,1.69-1.04,2.4-.83,1,.29,1.69-.21,2.07-1.47.17-.57.93-.67,1.24-.17.05.09.1.19.19.35.26.52.88.73,1.42.5,2.23-.95,3.79-2.35,4.68-4.18.22-.47.76-.69,1.24-.54,3.34,1.02,6.93-4.72,8.07-4.65.29.02.45-.35.22-.54l-2.04-1.61c-.59-.45-1.45-.26-1.78.41-1.05,2.14-2.23,3.85-3.56,5.13-.47.45-1.23-.03-1.02-.66l.95-2.85c.36-1.09-.92-1.99-1.81-1.28-1.28,1-1.81,1.88-1.62,2.64.1.4-.07.81-.43,1.02l-13.26,7.73c-.41.24-.38.86.07,1.05Z"/>
  <path class="st0" d="M256.85,384.39l-1.33-4.55c-.21-.71-1.21-.73-1.45-.03-.69,1.95-.24,3.77,1.35,5.41.62.64,1.69.03,1.43-.83Z"/>
  <path class="st0" d="M559.61,379.6c-.76.52-.76,1.87.02,3,.78,1.13,2.02,1.63,2.79,1.11.76-.52.76-1.87-.02-3-.78-1.13-2.02-1.63-2.79-1.11Z"/>
  <path class="st0" d="M620.11,383.67c-.02,1.29.71,2.36,1.62,2.38.92.02,1.68-1.02,1.7-2.32.02-1.29-.71-2.36-1.62-2.38-.92-.02-1.68,1.02-1.7,2.32Z"/>
  <path class="st0" d="M566.77,382.23c-.71,0-1.26.9-1.26,2.01s.57,2,1.27,2,1.26-.9,1.26-2.01-.57-2-1.27-2Z"/>
  <path class="st0" d="M615.7,386.5c.41.29.97.03,1.04-.47.12-.95-.17-1.73-.86-2.33-.41-.36-1.07-.12-1.14.43-.14,1.02.19,1.8.97,2.37Z"/>
  <path class="st0" d="M572.24,384c-.93-.31-2.02.42-2.41,1.62-.4,1.2.03,2.43.97,2.74.93.31,2.02-.42,2.41-1.62.4-1.2-.03-2.43-.97-2.74Z"/>
  <path class="st0" d="M577.6,385.41c-1.02-.17-2.04.83-2.27,2.22-.23,1.39.42,2.65,1.45,2.83,1.02.17,2.04-.83,2.27-2.22.23-1.39-.42-2.65-1.45-2.83Z"/>
  <path class="st0" d="M621.94,389.59l-1.66,4.96c-.05.17.02.36.19.45l.43.17c.07.03.16,0,.19-.07l1.09-1.99c.03-.05.09-.1.14-.14.71-.31.9.07.57,1.12-.1.31.09.66.4.76,1.04.36,1.95.14,2.77-.64.45-.45.33-1.19-.24-1.45-.86-.4-1.56-.93-2.09-1.62-.69-.9.09-2.19,1.26-2.09,2.06.19,3.27-.48,3.65-2,.22-.86-.73-1.56-1.49-1.07l-4.74,3.02c-.22.14-.38.35-.47.59Z"/>
  <path class="st0" d="M288.37,387.58c-1.28,1-2.02,2.04-2.25,3.09-.21,1,.97,1.71,1.73,1.05.9-.78,1.4-1.99,1.52-3.63.03-.54-.59-.85-1-.52Z"/>
  <path class="st0" d="M611.03,387.88c-.33-.19-.74-.07-.92.26-.54.99-.6,1.69-.24,2.11.59.69,1.75.31,2-.64.19-.69-.09-1.26-.85-1.73Z"/>
  <path class="st0" d="M631.08,393.7c.16-.09.29-.19.41-.33,1.37-1.78,1.45-3.53.26-5.27-.19-.29-.66-.14-.64.22.05,1.09-.36,1.85-1.24,2.26-.86.41-1.19,1.49-.71,2.32.52.86,1.16,1.12,1.92.79Z"/>
  <path class="st0" d="M274.04,388.28c-.29-.22-.73-.21-.99.07-1.37,1.37-2.73,1.83-4.13,1.4-1.26-.4-2.21-.41-3.11.41-.38.36-.86.55-1.38.57-4.6.14-8.88,1.78-12.88,4.94-1.05.83-.31,2.52,1,2.32,2.44-.36,4.08-1.49,4.94-3.37.14-.29.55-.26.66.05.16.5.48.83.99.99.38.12.97-.05,1.76-.55,1.47-.9,2.04-1.38,3.94-1.59,1.85-.19,3.04-.97,3.58-2.33.12-.29.5-.36.71-.12l.92,1.04c.47.52,1.24.6,1.81.21.64-.47,1.43-1.49,2.37-3.06.19-.33.1-.74-.19-.97Z"/>
  <path class="st0" d="M283.88,388.64c-.05-.5-.62-.78-1.02-.48-1.3.9-1.97,1.92-1.99,3.04-.03,1.14,1.37,1.71,2.14.88.69-.74.99-1.88.86-3.44Z"/>
  <path class="st0" d="M292.04,388.66c-.73,1.31-.55,2.3.5,2.96.6.38,1.14.29,1.64-.24.29-.31.45-.92.43-1.8,0-.16.07-.31.17-.43.12-.16.19-.24.19-.26-.1-1.47-2.18-1.62-2.94-.22Z"/>
  <path class="st0" d="M584.35,388.31c-.36-.16-.79.03-.95.41-.4.99-.43,2.11-.07,3.39.6,2.18,3.58,2.52,4.23.48.57-1.78-.5-3.21-3.21-4.29Z"/>
  <path class="st0" d="M594.2,388.17l-2.32-.41c-.28-.03-.54.14-.57.41l-.05.22c-.57,3.32-.4,6.14.4,6.27l.41.07c.8.14,1.92-2.44,2.49-5.77l.05-.22c.03-.28-.14-.54-.41-.57Z"/>
  <path class="st0" d="M275.86,390.44c.4,1.18.9,1.75,1.5,1.69.74-.05,1.09-.4,1.04-1.05-.09-1.61-.19-2.45-.29-2.52-1.23-.76-2.71.48-2.25,1.88Z"/>
  <path class="st0" d="M604.45,388.38c-1,.47-1.3,1.24-.86,2.3.45,1.12,2.04,1.12,2.42,0,.09-.26.12-.67.09-1.21-.05-.86-.92-1.43-1.64-1.09Z"/>
  <path class="st0" d="M303.22,389.81l-.35-.07c-2.96-.6-5.5-.41-5.69.45l-.09.4c-.17.86,2.09,2.06,5.05,2.68l.35.07c.38.07.76-.17.83-.55l.45-2.13c.07-.4-.17-.76-.55-.85Z"/>
  <path class="st0" d="M600.45,390.32c-.1-.52-.66-.83-1.16-.64-1.05.4-1.57,1.4-1.52,3.01.03,1.62.6,2.59,1.68,2.94.52.16,1.05-.17,1.12-.71.02-.1,0-.86-.03-2.3-.03-1.43-.07-2.19-.09-2.3Z"/>
  <path class="st0" d="M614.75,391.7c-.6.88-.59,1.85.02,2.94.67,1.18,2.45.85,2.66-.5,0-.02,0-.57-.02-1.66-.02-1.42-1.87-1.95-2.66-.78Z"/>
  <path class="st0" d="M609.11,392.32c-.55.35-.76.76-.6,1.26.22.71.64,1.21,1.24,1.47.62.28,1.31-.1,1.28-.71-.03-.73-.14-1.28-.31-1.64-.26-.57-1.02-.76-1.61-.38Z"/>
  <path class="st0" d="M247.86,400.75c.81-1.54.9-2.47.29-2.83-1.5-.88-2.96,1.14-1.92,2.68.64.95,1.18,1,1.62.16Z"/>
  <path class="st0" d="M199.49,402.22c.29-.45.17-1.05-.28-1.35-.92-.57-1.61-.73-2.11-.45-.36.21-.57.62-.54,1.04.21,2.33,1.21,3.82,2.99,4.49.33.14.62-.26.41-.55-.92-1.21-1.07-2.26-.48-3.18Z"/>
  <path class="st0" d="M209.56,416.31c.8-.12,1.42-.71,1.57-1.49l.12-.64c.17-.93-.6-1.76-1.54-1.64l-2.61.33c-2.3.29-3.99-2.07-2.97-4.17l1.47-3.02c.22-.48.1-1.07-.33-1.4l-.4-.33c-.45-.36-1.12-.21-1.37.31-.43.85-.93,1.52-1.5,2.02-1.09.95-1.07,2.75.02,4.03,2.06,2.44,3.53,6.55,7.54,6Z"/>
  <path class="st0" d="M598.1,404.97c-1.19-.03-1.9-.24-2.13-.6-.38-.6-1.24-.69-1.73-.16l-8.12,8.78c-.12.14-.14.33-.02.47.1.14.29.19.45.1l12.03-6.58c.95-.52.6-1.97-.48-2Z"/>
  <path class="st0" d="M327.1,405.87c-2.63,0-4.75,2.13-4.75,4.75s2.13,4.75,4.75,4.75,4.75-2.13,4.75-4.75-2.13-4.75-4.75-4.75ZM327.02,412.82c-1.3,0-2.35-1.05-2.35-2.35s1.05-2.35,2.35-2.35,2.35,1.05,2.35,2.35-1.05,2.35-2.35,2.35Z"/>
  <path class="st0" d="M209.3,410.42c1.3-.79,1.56-1.66.76-2.61-.79-.97-1.69-.88-2.71.26-1.12,1.23-1.43,2.14-.93,2.75.5.6,1.47.48,2.89-.4Z"/>
  <path class="st0" d="M327.07,409.53c-1.14-.22-1.8,1.24-.85,1.88.28.19.69.21,1.23.09.55-.12.85-.73.57-1.18-.29-.47-.6-.73-.95-.79Z"/>
  <path class="st0" d="M241.02,423.98c-.5.14-1.04-.09-1.3-.54-1.16-1.97-2.61-2.13-4.36-.47-.35.33-.93.21-1.12-.24-.78-1.9-2.78-2.96-6-3.15-.48-.03-.95.22-1.16.66l-.99,2c-.28.57.12,1.26.78,1.28,5.48.19,10.21,1.33,14.21,3.39,1.99,1.04,4.29-.78,3.32-2.63-.38-.74-1.5-.85-3.39-.31Z"/>
  <path class="st0" d="M210.79,423.52c-1.28,1.33-2.25,1.31-2.89-.07-.21-.43-.85-.38-.99.09-.41,1.4-.29,2.47.35,3.21.36.41.4,1.02.09,1.47-.9,1.35-1.78,2.13-2.63,2.35-.69.17-1.33-.4-1.24-1.11l.36-2.59c.09-.64-.76-.93-1.09-.38l-2.42,4.04c-.05.1-.03.22.07.29l.4.22c.31.19.28.64-.07.78-1.76.71-3.15,1.42-4.17,2.13-.19.12-.24.36-.14.57.1.19.35.28.55.21,4.82-1.76,8.81-3.44,11.94-5.03,1.97-.99,3.16-2.77,3.56-5.34.14-.95-1.02-1.54-1.69-.85Z"/>
  <path class="st0" d="M246.15,425.48c-.67.45-.69,1.63-.02,2.66.68,1.03,1.76,1.49,2.44,1.05.67-.45.69-1.63.02-2.66-.68-1.03-1.76-1.49-2.44-1.05Z"/>
  <path class="st0" d="M255.52,427.72h.21c.88,0,1.59.71,1.59,1.59v2.83c0,.88-.71,1.59-1.59,1.59h-.21c-.88,0-1.59-.71-1.59-1.59v-2.83c0-.88.71-1.59,1.59-1.59Z" transform="translate(-242.95 478.62) rotate(-64.8)"/>
  <path class="st0" d="M260.76,431.96c-.85,1.11-.89,2.49-.1,3.1.79.61,2.12.19,2.96-.91.85-1.11.89-2.49.1-3.1-.79-.61-2.12-.19-2.96.91Z"/>
  <path class="st0" d="M509.41,444.84c-.95-.8-1.69-1.81-2.14-2.99-1.52-3.89-4.08-9.13-7.67-9.76-8.24-1.5-16.19-1.38-23.82.35-1.52.35-2.82,1.33-3.56,2.7-1.68,3.09-3.8,5.69-6.36,7.79-1.21,1-3.04.71-3.89-.62-2.3-3.61-5.81-7.22-10.54-10.8-1.14-.86-2.78-.41-3.34.9-1.64,3.84-.16,10.99,1.52,14.74.12.28.09.57-.07.81l-7.6,11.46c-.9,1.37-.02,3.2,1.61,3.34,4.6.38,12.91-4.63,14.93-5.39.52-.19,1.11,0,1.42.47,1.54,2.26,2.04,4.68,1.5,7.26-.45,2.16,1.04,4.3,3.32,4.82,3.58.81,6.86,1.85,9.89,3.08.47.19.6.8.26,1.16-1.45,1.5-2.52,3.09-3.23,4.77-.59,1.4.26,2.99,1.76,3.3,4.98,1.02,8.76-1.76,12.17-3.51.93-.47,1.94-.78,2.97-.9,3.77-.47,9.45-.33,13.64-1.49,6.65-1.85,12.69-4.74,18.1-8.64,1.75-1.26,2.42-3.54,1.62-5.53-2.7-6.84-6.86-12.62-12.48-17.3ZM472.68,439.09l1.47-2.45c.29-.48.76-.83,1.3-.97,9.25-2.35,16.89-2.71,22.93-1.09,2.04.54,3.82,2.3,5.34,5.29.24.45-.19.97-.67.81-1.85-.6-4.58-2.99-7.43-3.56-8.16-1.62-15.64-.79-22.45,2.49-.33.16-.67-.21-.48-.52ZM466.55,468.1c-.49.25-1.34-.41-1.87-1.45-.54-1.06-.58-2.11-.08-2.36.49-.25,1.34.41,1.87,1.45.54,1.06.58,2.11.08,2.36ZM482.86,477.7l-6.77,2.11c-.09.02-.19-.03-.21-.12l-.03-.07c-.47-1.54.62-3.23,2.44-3.79l.52-.17c1.81-.55,3.68.22,4.15,1.76l.02.07c.03.09-.02.19-.1.21ZM519.12,464.1c-.19.36-.52.71-1,1-.35.22-.81.16-1.09-.16l-.5-.59c-.22-.24-.59-.28-.85-.07-.26.19-.31.57-.12.83.07.09.17.22.31.4.43.55.31,1.33-.24,1.75-4.08,2.96-8.16,4.93-12.22,5.91-.57.14-1.18-.12-1.47-.64-5.12-9.07-3.8-16.99,3.92-23.76.24-.21.29-.55.1-.83-.17-.26-.52-.35-.8-.21-3.06,1.54-5.38,4.1-6.91,7.64-2.92,6.67-2.28,12.53,1.92,17.58.36.43.12,1.11-.45,1.19-7.5,1.24-16.7.81-23-3.27-1.68-1.07-3.3-1.94-4.91-2.61-.73-.31-1.35-.8-1.81-1.43l-10.37-14.43c.33-1.16.22-1.95-.33-2.39-.45-.35-1.09-.07-1.14.48-.05.56.18,1.34.7,2.34-.05.06-.03.1.06.12-3.68,3.13-7.76,5.25-12.22,6.39-.28.07-.52-.24-.36-.48l6.14-10.27c.17-.28.21-.6.14-.92l-2.61-11.41c-.22-1,.95-1.71,1.73-1.04,3.92,3.44,6.76,7.05,8.47,10.82.41.9,1.47,1.3,2.37.86,14.43-7.02,28.29-12.13,42.97-1.76,6.38,4.53,10.94,10.25,13.67,17.18.22.57.19,1.21-.09,1.76Z"/>
  <path class="st0" d="M270.5,432.28c-.57-.43-1.38-.24-1.69.4l-1.3,2.64c-.22.47.05,1.04.57,1.14l.45.09c.33.07.66-.09.83-.38.9-1.56,1.57-2.35,2-2.4.35-.05.47-.48.19-.69l-1.05-.8Z"/>
  <path class="st0" d="M293.26,433.54c-.02-.1-.05-.19-.1-.28-.97-1.59-2.06-.95-3.25,1.94-.12.28.16.57.43.45.33-.14.64-.16.88-.05.28.12.47.36.55.64.5,1.81.99,3.06,1.45,3.7.41.57,1.31.17,1.18-.52l-1.14-5.88Z"/>
  <path class="st0" d="M300.14,435.96c-1.09-.55-1.59-1.43-1.54-2.63.03-.48-.36-.88-.85-.86l-.47.02c-.24.02-.43.22-.43.47.07,1.54.64,3.42,1.73,5.62.35.69,1.21.95,1.87.54.8-.47,1.11-1.04.97-1.66-.12-.6-.55-1.11-1.28-1.49Z"/>
  <path class="st0" d="M279.3,434.11c-.74.88-.73,2.09.05,3.59.35.67,1.35.48,1.43-.28l.28-2.56c.12-.99-1.12-1.52-1.76-.76Z"/>
  <path class="st0" d="M287.85,436.84c-.6.36-1.26.4-1.95.07-.05-.03-.28-.45-.66-1.23-.57-1.19-1.19-1.78-1.85-1.78-.54,0-.78.67-.36,1,.85.67,1.5,1.75,1.99,3.18.36,1.07,1.64,1.47,2.4.76.03-.03.33-.57.86-1.61.14-.28-.17-.55-.43-.4Z"/>
  <path class="st0" d="M303.43,434.94c-.22.55,0,1.21.52,1.52l4.03,2.4c.41.24.92-.16.78-.62-.73-2.26-2.02-3.61-3.89-4.04-.59-.14-1.19.17-1.43.74Z"/>
  <path class="st0" d="M323.03,434.2c-1.4-.14-2.39-.05-2.97.26-.8.41-.47,1.62.43,1.59.86-.02,1.78-.33,2.77-.93.4-.26.26-.86-.22-.92Z"/>
  <path class="st0" d="M273.21,434.82c-.45.9-.52,1.61-.19,2.14.55.93,1.99.48,2.02-.64.02-.54-.12-1.05-.45-1.52-.36-.52-1.12-.52-1.38.02Z"/>
  <path class="st0" d="M261.19,444.77c-.47.03-.86.24-1.18.6-.26.31-.02.79.4.74.92-.1,1.4-.26,1.49-.47.17-.45-.21-.93-.71-.88Z"/>
  <path class="st0" d="M451.75,453c-.33.16-.71.52-1.14,1.12-.24.33.09.76.47.62.85-.29,1.33-.54,1.49-.74.38-.55-.19-1.28-.81-1Z"/>
  <path class="st0" d="M509.33,453.59c-1.84.12-3.26,1.53-3.17,3.15.1,1.63,1.67,2.85,3.53,2.75,1.84-.12,3.26-1.53,3.17-3.15-.1-1.63-1.67-2.85-3.53-2.75ZM511.24,457.94c-.81.38-1.59.28-2.33-.29-.5-.4-.67-.71-.48-.93.93-1.16,2.8-.62,3.06.88.02.14-.05.26-.24.35Z"/>
  <path class="st0" d="M470.17,463.53c-.28-.03-.47.26-.35.5.19.36.41.59.69.66.45.12.79-.36.52-.71-.19-.26-.48-.4-.86-.45Z"/>
  <path class="st0" d="M482.32,467.05c-.29.38-.64.71-1.05.97-.47.29-1.07-.02-1.81-.9-.48-.59-1.37-.9-2.63-.92-1.59-.03-2.39-.05-2.4-.03-.78.71-.54,2,.47,2.37l8.24,2.99c1.23.45,2.54-.43,2.58-1.73.02-.57.1-1.04.26-1.4.16-.38.1-.81-.14-1.14-.85-1.14-2.61-1.49-3.51-.21Z"/>
</svg>