<?xml version="1.0" encoding="UTF-8"?>
<svg id="Layer_1" xmlns="http://www.w3.org/2000/svg" version="1.1" viewBox="0 0 792 612">
  <!-- Generator: Adobe Illustrator 30.2.1, SVG Export Plug-In . SVG Version: 2.1.1 Build 1)  -->
  <defs>
    <style>
      .st0 {
        fill: #f29f05;
      }
    </style>
  </defs>
  <path class="st0" d="M525.31,155.31c-.05-21.15.03-43.23-23.18-49.17-3.62-.94-9.45-1.51-17.47-1.69-20.65-.49-38.41-.52-53.31-.1-1.02.03-1.93-.55-2.32-1.48-8.8-21.04-19.48-18.31-39.32-19.48-2.71-.18-5-2.06-5.7-4.66-3.96-14.74-10.68-26.88-28.18-24.74-16.02,1.95-21.51,13.26-22.73,28.1-.13,1.48-1.35,2.6-2.84,2.63-9.04.1-16.8.39-23.28.83-11.38.81-18.18,6.82-20.36,18.05-.18.89-.96,1.51-1.88,1.48-5.94-.23-22.42-.16-49.48.23-11.54.18-19.66,1.74-24.32,4.74-9.56,6.12-14.38,15.81-14.48,29.11-.55,67.71-.99,165.96-1.38,294.77-.1,39.48.31,68.31,1.22,86.51,1.25,24.84,18.98,32.32,40.99,32.42,78.78.39,157.53.23,236.28-.47,20.86-.18,41.9,2.68,50.16-21.54,1.33-3.88,2.01-9.71,2.03-17.5.18-34.19,1.22-70.62.99-102.42-.89-125.34-1.35-210.55-1.43-255.62ZM291.66,104.87c2.08-11.72,9.11-14.45,20.99-14.84,9.74-.34,16.35-.65,19.87-.96,2.4-.21,4.32-2.03,4.69-4.4,1.9-12.4,4.51-25.16,19.17-26.09,8.49-.55,14.66,2.42,18.52,8.85,3.91,6.51,1.9,20.42,14.32,20.86,10.76.36,26.85-1.98,31.72,8.28,4.56,9.66,5.86,19.82,3.85,30.47-.39,2.03-2.16,3.49-4.22,3.52l-124.77,1.02c-2.53.03-4.66-1.85-5-4.35-.89-6.69-.6-14.14.86-22.34ZM286.71,129.69c1.93,5.03,4.22,6.43,9.74,6.38,42.68-.23,84.32-.29,124.97-.16,2.27,0,4.4-1.09,5.75-2.94l2.92-3.98c.57-.78,1.54-1.15,2.47-.94.76.18,14.17.36,40.26.6,12.01.1,21.38,8.8,24.17,19.71.65,2.55,1.04,9.38,1.17,20.44,1.12,97.84,1.72,203.78,1.85,317.86,0,8.36-1.15,16.02-3.41,22.94-.31.94-.81,1.82-1.46,2.58-5.55,6.46-12.32,9.74-20.36,9.84-50.86.62-85.96,1.2-105.36,1.74-37.29,1.07-68.18-.49-117.11-1.48-10.6-.21-17.79-1.56-21.51-4.09-6.67-4.51-9.95-11.74-9.82-21.72.26-19.27.08-65.73-.57-139.38-.86-97.27-.6-166.43.76-207.55.23-7.19,3.07-12.66,8.57-16.38,3.62-2.47,9.77-3.67,18.44-3.65,7.27.03,19.45-.36,36.54-1.15.89-.05,1.69.47,2,1.3ZM201.43,141.61c.03-.94.36-1.85.99-2.58l22.08-25c.1-.1.1-.26.03-.39l-.18-.23c-.29-.31-.76-.39-1.12-.13-5.34,3.67-8.91,7.27-10.7,10.73-.49.96-1.28,1.74-2.27,2.19-2.29,1.07-4.69,4.11-7.19,9.14-.18.36-.62.55-1.02.42-.42-.13-.65-.52-.6-.94,1.85-12.81,9.24-20.83,22.21-24.04.7-.18,1.41-.26,2.11-.26l59.37-.49c.39,0,.68.34.6.7l-1.95,11.67c-.05.34-.34.6-.68.62l-50.08,2.63c-.99.05-1.93.31-2.79.78-9.37,5.23-15.81,17.32-14.4,28.91.34,2.92.21,5.94-.44,9.04-.21.96-.23,1.95-.05,2.92.52,2.97.55,5.99.08,9.06-.03.13-.08.26-.16.36l-13.2,18.54c-.29.39-.89.18-.89-.29l.29-18.44c.03-1.8.6-3.54,1.61-5l11.48-16.43c.36-.55.08-1.3-.55-1.46l-1.25-.31c-.08-.03-.16,0-.18.08l-9.97,15.81c-.47.76-1.64.39-1.61-.49l.42-27.11ZM509.4,365.1l.6.29c.13.05.29.03.36-.1l9.53-13.98c.34-.52,1.17-.26,1.15.36l-.23,8.8c-.03,1.22-.49,2.4-1.33,3.31-3.93,4.35-7.34,9.35-10.23,15-.16.34-.05.73.23.94.31.21.73.16.96-.13,4.04-4.66,7.16-9.4,9.32-14.24.16-.36.57-.57.96-.47.39.1.65.47.62.89l-.86,9.71c-.05.57-.34,1.12-.78,1.51-4.3,3.62-7.73,7.86-10.29,12.79-.18.36-.08.78.26,1.02.34.21.78.13,1.04-.18l9.56-12.19c.18-.23.55-.1.55.18v19.24c0,1.77-.7,3.46-1.98,4.71l-9.87,9.9c-.18.16-.18.44-.03.62l1.17,1.33c.31.36.86.34,1.17-.03l8.96-11.41c.16-.23.52-.1.52.18v56.48c0,.73-.21,1.46-.62,2.06-2.03,2.94-5.05,6.59-9.09,10.94-.7.76-1.12,1.95-1.3,3.62-.05.6.73.91,1.09.42l9.35-11.9c.23-.31.7-.21.81.16.34,1.43.05,4.35-.83,8.75-.16.83-.1,1.72.13,2.55.7,2.5.47,5.31-.73,8.44-.13.29-.29.57-.52.81l-9.64,9.61c-.16.16-.21.39-.1.57l.44.86c.13.26.49.31.7.1l9.04-9.04c.31-.29.83-.08.83.34.34,21.46,5.26,51.43-22.4,58.98-1.04.29-1.77-1.04-.96-1.77,7.24-6.69,15.81-12.76,19.95-22.14.16-.31-.26-.6-.49-.36l-24.01,23.98c-.21.21-.49.34-.81.36-18.88.29-74.38.6-166.48.89-23.96.08-55.18-.1-93.67-.57-8.41-.1-15.94-2.76-22.53-7.99-1.64-1.3-1.9-3.65-.62-5.29,2.79-3.59,8.8-10.16,9.9-16.2.03-.16-.18-.26-.29-.13l-12.06,15.34c-.42.55-1.25.36-1.46-.29l-.52-1.8c-.44-1.51-.21-3.13.68-4.43l10.31-15.34c1.25-1.87-.47-4.32-2.66-3.72-.03.03-.03.57.03,1.67.03.76-.21,1.51-.62,2.16l-8.62,12.99c-.36.55-1.2.36-1.28-.29-.65-4.82-.7-8.8-.16-12.01.13-.73.08-1.48-.13-2.21-1.51-4.97-1.72-11.12-.65-18.46.08-.63.13-1.25.1-1.88-.05-2.79-1.25-7.58-.96-10.63.7-7.27.62-14.53-.18-21.8-.18-1.48.03-3.18.6-5.05.57-1.82.57-3.49,0-5-.34-.91-.36-22.42-.05-64.51.08-12.47.39-20.03.94-22.71.18-.83.08-1.69-.23-2.47-.31-.81-.47-1.28-.47-1.41.05-16.8.16-33.67.29-50.63.03-1.2.47-2.37,1.28-3.23,4.48-4.87,8.02-10.57,10.6-17.16.05-.18,0-.36-.13-.47l-.73-.57c-.44-.34-1.12-.16-1.3.39-1.93,5.42-4.79,10.42-8.59,15-.36.44-1.07.18-1.07-.39v-81.82c0-2.19.73-4.32,2.08-6.04l11.2-14.27c.18-.23.1-.55-.16-.68l-.62-.26c-.52-.21-1.12-.08-1.46.36l-10.1,12.89c-.18.23-.6.13-.62-.18-.6-4.61-.08-7.92,1.56-9.92,4.04-5,6.82-10.96,10.63-16.09.83-1.15,2.66-.44,2.53.96l-2.24,25.13c-.03.21.1.39.31.44,1.25.39,1.38,4.11.39,11.17-.03.23-.13.47-.26.7l-10.29,15.42c-.39.57-.16,1.38.49,1.64l.73.31c.18.08.42.03.52-.16l8.28-13.62c.36-.6,1.33-.34,1.3.36-.44,22.37-.52,47.71-.26,75.99.03,2.11-.05,3.65-.23,4.56-.57,2.68-.36,4.27.65,4.82.23.13.36.36.34.6l-.65,25.6c-.03.91-.42,1.8-1.09,2.45-4.69,4.48-8.62,10.42-11.8,17.84-.05.13,0,.29.13.36.1.08.29.03.36-.08l11.48-14.64c.29-.34.83-.21.91.21.89,4.4.18,7.71-2.14,9.87-1.22,1.12-4.04,5.34-8.49,12.66-.29.44-.03,1.04.49,1.12l1.04.16c.31.05.6-.08.76-.34l7.58-12.08c.31-.49,1.04-.31,1.12.26.6,4.77.23,8.44-1.09,11.02-2.73,5.26-6.67,10.99-11.82,17.21-.49.6,0,1.51.78,1.38l.76-.13c.36-.05.7-.26.91-.57l9.38-13.36c.36-.52,1.2-.29,1.2.36.03,14.82.21,29.48.57,43.98,0,.03-.23.91-.68,2.66-.18.73-.16,1.51.1,2.21,1.67,4.58,1.09,8.39-1.74,11.43-4.84,5.23-8.93,12.32-12.11,17.19-.21.34-.08.78.29.94l1.15.49c.1.03.21,0,.26-.08l11.25-16.69c.52-.78,1.72-.42,1.72.52v8.23c0,.42-.13.81-.39,1.12l-14.56,19.11c-.05.05-.03.13.03.18l.96.76c.23.18.6.13.78-.1l11.82-15.03c.55-.7,1.69-.26,1.61.65l-.6,6.82c-.03.31-.16.6-.34.83l-11.51,14.66c-.26.31-.21.78.08,1.07l.55.57c.29.29.76.26,1.02-.05l9.48-12.08c.31-.42.99-.18.99.34v43.15c0,.21.03.42.08.6,3.49,15.52,13.31,23.39,29.48,23.59,16.85.23,31.28.39,43.31.49,1.09,0,1.59,1.35.78,2.06l-14.97,13.15c-.23.21-.26.6-.05.83l.62.7c.42.47,1.15.49,1.59.05l12.71-12.71c.36-.36.57-.86.6-1.38.08-1.95,1.09-2.86,3-2.76,24.92,1.22,51.51,1.59,79.82,1.07.21,0,1.17.18,2.89.55.73.18,1.48.08,2.24-.29.81-.39,1.48-.55,2.08-.52,2.84.08,6.15-.03,9.97-.31.96-.08,2.71-.16,5.18-.29,4.9-.21,25.05-.6,60.44-1.15.94,0,1.41,1.12.75,1.77l-13.52,13.52c-.21.21-.21.55-.03.78l.49.57c.29.31.76.31,1.04.03l13.54-13.54c.1-.1.16-.23.16-.39-.05-1.15.47-1.85,1.59-2.11,4.19-.91,8.36-1.12,12.55-.57.96.13,1.93.13,2.89.03,14.04-1.72,23.28-7.99,27.73-18.83,1.33-3.23,1.98-14.66,1.9-34.32-.39-147.27-1.15-254.09-2.21-320.49-.18-11.02-5.63-20.16-16.38-27.37-.68-.44-1.46-.68-2.27-.7-1.3-.03-2.5-.26-3.62-.68-1.22-.44-1.56-2.03-.63-2.97,4.35-4.32,7.03-7.14,7.99-8.41.18-.26.16-.6-.08-.83-.21-.21-.57-.23-.83-.05-4.58,3.46-7.92,7.03-10.03,10.73-.23.39-.68.65-1.15.63l-11.74-.29c-.23,0-.36-.26-.23-.44l7.32-10.57c.1-.18.08-.39-.05-.55l-.55-.63c-.08-.1-.21-.1-.29,0l-8.05,11.38c-.31.49-.89.76-1.48.73l-20.7-.94c-.42-.03-.81.05-1.2.18-2.06.78-4.3.86-6.69.23-.83-.21-1.43-.94-1.51-1.82l-.65-8.83c-.13-1.77,1.25-3.28,3.02-3.28h19.79c1.3,0,1.93,1.56,1.02,2.47l-7.81,7.84c-.34.31-.31.86.05,1.15l.65.49c.29.21.65.21.91,0,3.52-3.05,6.41-6.48,8.7-10.36.57-.96,1.59-1.54,2.71-1.51l40.44,1.2c.26,0,.52.05.78.16,4.66,1.72,8.98,4.4,12.97,8.05,1.38,1.28,1.33,3.46-.13,4.66-4.32,3.57-7.99,8.54-10.99,14.95-.13.29.05.62.36.68l.81.13c.1.03.23-.03.29-.1l11.02-14.56c.6-.78,1.82-.57,2.08.36.49,1.69.52,3.36.03,5.05-.18.65.16,1.3.76,1.56.78.34,1.2,1.41,1.28,3.23.18,4.48.6,9.06,1.3,13.72.26,1.72-.31,3.46-1.56,4.71l-12.86,12.86c-.52.52-.49,1.41.08,1.87l.52.47c.05.03.1.03.13,0l12.66-12.79c.49-.52,1.35-.1,1.3.6l-.34,3.67c-.03.36-.18.68-.42.94l-11.9,12.63c-.5.52-.5,1.33-.03,1.85l.44.55c.23.23.63.23.83-.03,6.72-7.99,10.1-12.11,10.13-12.32.03-.18.18-.31.36-.31.18.03.34.16.34.34l.39,4.77c.08,1.07-.29,2.11-.99,2.92-6.35,7.29-13.07,13.2-11.64,19.92.08.39.44.65.86.62.39-.05.7-.39.7-.78.08-5.94,6.77-12.42,10.16-16.69.26-.34.81-.16.81.29v19.53c0,1.02-.42,2.01-1.15,2.71l-11.61,11.64c-.34.31-.36.86-.05,1.2l.47.52c.16.18.47.21.62.03l11.64-11.61s.08-.03.08.03v15.26c0,.42-.18.81-.49,1.09-4.53,3.91-8.41,8.57-11.61,14.01-.26.42-.1.99.34,1.25l.03.03c.31.08.62-.03.83-.26l9.74-12.16c.42-.52,1.25-.23,1.25.44v15.1c0,1.22-.36,2.42-1.07,3.41l-12.79,18.1c-.29.42-.21,1.02.18,1.33l.57.44c.13.1.34.05.42-.08l12.19-17.32c.23-.34.76-.18.76.23v51.69c0,.78-.26,1.51-.76,2.11l-11.04,13.26c-.03.05-.03.13,0,.18l1.69,1.88c.08.1.23.1.31,0l9.77-12.45c.13-.16.42-.08.42.16v28.2c0,1.12-.36,2.19-1.07,3.05l-10.76,13.7c-.16.21-.13.52.05.7l.55.55c.29.29.76.26,1.02-.05l10.1-12.89c.18-.23.57-.08.55.23l-.62,7.08c-.03.44-.21.86-.47,1.22l-12.86,16.38c-.16.21-.08.52.18.6l1.75.6s.03-.03.03-.05c-.05-.13,3.52-4.61,10.7-13.39.55-.68,1.64-.18,1.51.68l-.99,5.86c-.13.7-.49,1.35-1.04,1.85-4.35,3.75-7.81,8.26-10.39,13.54-.23.47-.05,1.04.42,1.28Z"/>
  <path class="st0" d="M360.86,88.14c6.37-1.27,10.57-7.16,9.37-13.16-1.2-6-7.32-9.83-13.71-8.55-6.37,1.27-10.57,7.16-9.37,13.16,1.2,6,7.32,9.83,13.71,8.55ZM358.64,70.57c3.8,0,6.88,3.07,6.88,6.88s-3.07,6.88-6.88,6.88-6.88-3.07-6.88-6.88,3.07-6.88,6.88-6.88Z"/>
  <path class="st0" d="M589.47,138.67c-.55-2.94-2.79-5.26-5.73-5.91-3.57-.81-6.28-2.27-8.15-4.38-.76-.83-1.2-1.9-1.3-3.05l-1.28-12.84c-.31-2.99-2.32-5.52-5.18-6.48-4.25-1.54-13.26-1.56-17.11.13-6.51,2.84-5.47,12.06-5.39,18.62,0,1.17-.63,2.24-1.64,2.81-7.42,4.22-6.72,10.16-7.08,18.8-.08,1.54-.1,5.63-.1,12.32,0,49.56.47,101.69,1.43,156.46.03.42.05,1.93.1,4.56,1.64,84.77,2.45,127.16,2.45,127.24.6,10.86,1.09,21.46,1.43,31.74.81,24.27,7.08,46.56,15.31,68.91.49,1.3,1.38,5.05,2.66,11.25.26,1.22,1.35,2.06,2.6,1.98,1.22-.08,2.21-1.07,2.32-2.29.34-4.09.89-7.29,1.64-9.58,9.56-28.83,14.58-58.49,15.03-88.96.44-28.83.21-83.44-.68-163.78,0-.99.94-1.69,1.85-1.38l4.01,1.35c3.23,1.09,6.54-1.41,6.41-4.79-.29-7.79-1.64-21.04-.86-30.47,3.46-42.16,4.56-81.98-2.73-122.27ZM555.8,109.43l6.98-.1c3.46-.05,6.3,3.33,6.38,7.58l.1,8.7c0,.34-.26.62-.6.62l-18.23.26c-.36,0-.65-.29-.65-.62l-.1-8.7c-.08-4.22,2.68-7.68,6.12-7.73ZM548.95,131.61l19.11-.57c3.57-.1,6.54,2.53,6.64,5.86v.39c0,.36-.26.65-.62.65l-30.73.91c-.36.03-.65-.26-.65-.62l-.03-.39c-.1-3.33,2.71-6.12,6.28-6.22ZM542.44,298.57l-1.22-150.96c-.03-1.69,1.28-3.12,2.97-3.23,10.1-.73,21.22-2.19,31.61,1.07.68.21,1.15.83,1.15,1.54l.21,21.2v.03l-.1,43.85c0,.16-.03.31-.05.44-1.54,8.26-2.06,16.02-1.61,23.28.23,3.62.18,8.1-.1,13.44-.42,7.76-.73,12.47-.94,14.14-.03.16-.03.31-.03.44l1.77,35.44c.03.65-.49,1.2-1.15,1.17l-31.15-.49c-.76,0-1.35-.6-1.35-1.35ZM543.04,311.16l-.05-4.58c0-.77.62-1.42,1.39-1.42l30-.31c.77,0,1.42.63,1.42,1.39l.05,4.58c0,.77-.62,1.42-1.39,1.42l-30,.31c-.77,0-1.42-.63-1.42-1.39ZM573.09,506.69c-4.64,17.71-6.9,30.94-10.96,35.23-.6.65-1.69.39-1.93-.47l-10.42-35.29c-.26-.89.42-1.74,1.33-1.72l20.49.31c1.02.03,1.74.96,1.48,1.93ZM575.44,479.01c-.05,1.33-.34,2.63-.89,3.91-.31.73-.39,1.54-.18,2.29,1.07,4.14.57,8.49-1.48,13.07-.49,1.12-1.64,1.82-2.86,1.8l-16.85-.26c-2.76-.05-5.05-2.16-5.31-4.9-.81-8.1-1.25-13.88-1.38-17.34-1.38-39.56-2.34-92.19-2.89-157.84,0-1.07.86-1.93,1.93-1.95l28.41-.63c1.15-.03,2.11.89,2.08,2.03-.1,29.27,0,60.16.31,92.63.26,25.49-.03,47.89-.89,67.19ZM580.07,247.76c-.03.55-.78.68-1.02.18-.42-.91-.52-2.97-.34-6.2.05-.76.99-1.04,1.43-.44.13.18.1,2.34-.08,6.46ZM580.8,137.29c-.76.44-1.67.52-2.68.26-.91-.23-.99-1.48-.13-2.03.65-.44,1.59-.34,2.76.26.62.31.65,1.17.05,1.51ZM588.9,248.39c-1.69,15.91-1.07,26.22-.36,41.41.05.99-.96,1.72-1.88,1.3-1.28-.57-2.06-1.88-2.29-3.88-1.15-9.35-.39-23.57.89-36.17,1.46-14.61,2.11-33.49,1.93-56.69-.08-9.24-.99-16.59-2.79-22.03-.34-.99-.52-2.01-.6-3.05l-1.72-27.92c-.05-.7.34-1.35.96-1.64l.81-.39c.62-.31,1.35.08,1.48.78,6.15,36.8,7.34,72.89,3.57,108.28Z"/>
  <path class="st0" d="M474.22,115.46c-2.22,2.74-3.68,5.24-3.26,5.57.41.35,2.55-1.61,4.76-4.36,2.22-2.74,3.68-5.24,3.26-5.57-.41-.35-2.55,1.61-4.76,4.36Z"/>
  <path class="st0" d="M445.75,111.77c-1.56.31-2.89,1.12-3.98,2.42-1.09,1.28-1.67,2.73-1.74,4.32-.03.57.7.83,1.04.36.78-1.07,1.61-2.14,2.47-3.18.89-1.04,1.8-2.03,2.73-2.99.42-.39.05-1.07-.52-.94Z"/>
  <path class="st0" d="M462.47,111.85c-1.09,1.12-2.21,2.29-3.36,3.49-1.12,1.17-2.24,2.32-3.33,3.44-.29.29-.31.73-.08,1.04.23.29.68.39,1.02.18,1.48-.83,2.81-1.88,4.01-3.1,1.22-1.25,2.21-2.66,2.99-4.17.18-.34.08-.76-.23-.99-.31-.23-.75-.18-1.02.1Z"/>
  <path class="st0" d="M496.68,111.3c-.54-.42-3.3,2.19-6.13,5.82-2.84,3.63-4.72,6.94-4.16,7.36.54.42,3.3-2.19,6.13-5.82,2.84-3.63,4.72-6.94,4.16-7.36Z"/>
  <path class="st0" d="M240.39,122.16c1.69-.96,3.26-2.14,4.64-3.54,1.41-1.43,2.55-3.02,3.49-4.77.21-.39.08-.89-.29-1.15-.36-.26-.86-.21-1.17.1-1.25,1.3-2.55,2.63-3.88,3.98-1.3,1.35-2.6,2.66-3.88,3.93-.31.31-.34.81-.08,1.17.29.36.78.47,1.17.26Z"/>
  <path class="st0" d="M436.87,112.06c-.73.78-1.35,1.85-1.9,3.2-.55,1.35-.83,2.58-.83,3.65,0,.36.26.68.63.76.36.05.73-.16.86-.49.42-1.12.81-2.16,1.2-3.15.42-.99.83-2.03,1.3-3.12.16-.34.03-.73-.26-.94-.31-.21-.73-.16-.99.1Z"/>
  <path class="st0" d="M231.58,120c2.47-.81,4.4-2.86,5.78-6.15.23-.57-.39-1.09-.91-.78-2.99,1.85-5.05,3.54-6.2,5.1-.68.94.23,2.19,1.33,1.82Z"/>
  <path class="st0" d="M251.45,121.72c1.07.03,1.93-.62,2.55-1.95.1-.21.23-.39.42-.55.18-.18.36-.36.55-.52.18-.16.39-.34.57-.49.18-.13.39-.26.62-.34,1.38-.44,2.14-1.22,2.24-2.29.13-.89-.75-1.59-1.59-1.3-1.02.36-2.21,1.15-3.62,2.4-1.43,1.25-2.37,2.34-2.84,3.31-.39.81.18,1.74,1.09,1.74Z"/>
  <path class="st0" d="M264.63,121.85c.39-.1,1.35-.91,2.94-2.45,1.56-1.54,2.4-2.47,2.5-2.86.23-.96.13-1.69-.31-2.14-.34-.39-.7-.55-1.07-.52-.55.03-1.02.44-1.12.99-.26,1.43-.73,2.47-1.41,3.12-.65.65-1.72,1.09-3.12,1.3-.57.1-.99.55-1.04,1.12-.03.36.13.73.49,1.07.44.44,1.17.57,2.14.36Z"/>
  <path class="st0" d="M564.76,114.92c-.34-.39-.76-.7-1.22-.91-.16-.05-.18-.05-.1-.03.49.26.94.57,1.33.94Z"/>
  <path class="st0" d="M278.43,118.6c1.59-1.15,2.32-2.87,1.62-3.85-.7-.98-2.57-.82-4.16.35-1.59,1.15-2.32,2.87-1.62,3.85.7.98,2.57.82,4.16-.35Z"/>
  <path class="st0" d="M498.68,119.52c2.1-2.25,3.48-4.39,3.1-4.73-.38-.36-2.38,1.2-4.47,3.45-2.1,2.25-3.48,4.39-3.1,4.73.38.36,2.38-1.2,4.47-3.45Z"/>
  <path class="st0" d="M565.75,115.7v-.16c0-.18-.13-.34-.31-.39-.23-.08-.44-.16-.68-.23l.83.81c.05.05.16.05.16-.03Z"/>
  <path class="st0" d="M298.36,121.74l.39-.6c.13-.18.34-.31.55-.31l104.97,1.64c1.67.03,3.33-.23,4.95-.73,2.4-.76,4.58-1.15,6.59-1.15.55,0,1.02-.42,1.07-.96l.08-.89c.05-.57-.42-1.07-.99-1.04-38.33.68-76.56.42-114.66-.76-1.85-.05-3.15.26-3.93.96-.99.91-1.15,2.14-.49,3.7.26.62,1.09.7,1.48.13Z"/>
  <path class="st0" d="M560.54,121.25c.23-1.25.29-2.01.13-2.27-.44-.73-1.54-.42-1.56.42-.03,1.28,0,1.95.03,2.03.31.65,1.28.52,1.41-.18Z"/>
  <path class="st0" d="M506.76,118.8c-.54-.5-3.27,1.61-6.12,4.7-2.85,3.09-4.7,6-4.17,6.5.54.5,3.27-1.61,6.12-4.7,2.85-3.09,4.7-6,4.17-6.5Z"/>
  <path class="st0" d="M217.96,129.11l10.94-8.78c.29-.23.36-.62.18-.94-.18-.31-.57-.44-.91-.31-4.4,1.88-7.97,5.05-10.7,9.58-.1.16-.08.34.05.44.13.1.31.1.44,0Z"/>
  <path class="st0" d="M212.7,135.63c2.47-1.54,3.59-2.89,3.39-4.06-.1-.7-.96-.99-1.48-.49-1.12,1.04-2.03,2.32-2.68,3.85-.21.49.31.99.78.7Z"/>
  <path class="st0" d="M511.78,142.05c3.19-4.81,5.25-9.05,4.63-9.46-.63-.41-3.71,3.16-6.89,7.96-3.19,4.81-5.25,9.05-4.63,9.46.63.41,3.71-3.16,6.89-7.96Z"/>
  <path class="st0" d="M208.48,149.67c2.19-4.02,3.44-7.59,2.8-7.93-.66-.36-2.95,2.64-5.13,6.67-2.19,4.02-3.44,7.59-2.8,7.93.66.36,2.95-2.64,5.13-6.67Z"/>
  <path class="st0" d="M512.27,149.29c-3,3.78-5,7.19-4.48,7.62.54.41,3.4-2.3,6.39-6.1,3-3.78,5-7.19,4.48-7.62-.54-.41-3.4,2.3-6.39,6.1Z"/>
  <path class="st0" d="M570.39,173.31c0,.26.23.49.49.49l1.77-.05c.29,0,.49-.23.49-.49v-.6c-.26-14.82-1.07-26.8-1.77-26.8h-.16c-.73.03-1.09,12.03-.83,26.85v.6Z"/>
  <path class="st0" d="M548.36,159.82c.36-4.58.16-8.44-.6-11.54-.1-.34-.42-.57-.78-.52-.34.05-.6.36-.57.7.18,7.21.36,11.07.52,11.56.26.76,1.38.6,1.43-.21Z"/>
  <path class="st0" d="M546.92,225.99c.49.39,1.2.1,1.33-.49,1.54-7.6-.65-14.69.08-21.67.94-8.93,1.12-18.1.52-27.5-.26-4.01,1.04-6.54-.29-12.11-.03-.1-.13-.18-.26-.18-.1.03-.21.1-.21.23l-.29,11.38c-.03.55.05,1.07.18,1.56,1.02,4.19.76,8.54-.81,13.1-.08.18-.1.39-.1.62l-.49,18.52c0,.13.03.23.05.36.99,3.31.78,8.44-.6,15.34-.03.08,0,.16.05.18l.83.65Z"/>
  <path class="st0" d="M213.59,167.89c-.26-.05-.57-.05-.89.03-.08.03-.21.1-.34.26-3.33,3.36-5.81,7.11-7.45,11.25-.1.21,0,.47.18.57.21.1.47.05.6-.13l8.05-11.59c.08-.13,0-.34-.16-.39Z"/>
  <path class="st0" d="M248.46,192.71l1.51,56.2c.05,1.77,1.54,3.18,3.31,3.12l52.58-1.17c1.77-.03,3.18-1.51,3.12-3.28l-.73-33.02c-.05-2.06.73-4.06,2.19-5.52,9.84-10.03,19.09-20.57,27.71-31.64,1.22-1.56,1.56-3.02,1.02-4.38-.83-2.06-3.54-2.58-5.34-1.04-7.68,6.56-15.44,14.32-23.31,23.31-.42.47-1.17.23-1.25-.39-.44-3.91-2.94-5.78-7.47-5.62-28.26.94-45.39,1.41-51.41,1.43-1.09.03-1.95.91-1.93,2.01ZM254.08,195.16l47.06-1.04c3.36-.08,5.21,3.91,2.97,6.43l-22.73,25.76c-.55.62-1.54.62-2.08,0l-11.15-12.66c-1.43-1.64-3.93-1.74-5.49-.21l-.86.86c-1.93,1.93-2.06,5-.26,7.03l17.06,19.4c.89,1.02,2.47,1.02,3.36,0l20.26-22.94c.68-.78,1.95-.29,1.95.73l-.42,25.73c-.03,1.04-.83,1.88-1.88,1.9l-45.6,1.02c-.78.03-1.41-.6-1.43-1.35l-1.35-50.03c0-.34.26-.6.6-.62Z"/>
  <path class="st0" d="M572.53,176.9c-.45-.05-1.21,3.2-1.7,7.3-.47,4.08-.5,7.44-.04,7.49.45.05,1.21-3.2,1.7-7.3.47-4.08.5-7.44.04-7.49Z"/>
  <path class="st0" d="M508.61,199.75l.09.05c.46.28,1.06.12,1.32-.34l7.75-13.15c.28-.45.12-1.05-.34-1.32l-.09-.05c-.46-.28-1.06-.12-1.32.34l-7.75,13.15c-.28.45-.12,1.05.34,1.32Z"/>
  <path class="st0" d="M570.65,294.84c.03.23.1.44.23.57.39.39.78.44,1.17.18.16-.08.23-.23.23-.42-.29-19.9-.44-36.56-.49-50-.05-13.44-.03-30.1.1-50,0-.18-.08-.34-.23-.42-.39-.26-.78-.18-1.17.18-.13.16-.21.34-.23.6-.49,18.78-.73,35.31-.68,49.64.05,14.32.42,30.89,1.07,49.66Z"/>
  <path class="st0" d="M509.34,217.5l9.01-9.92c.29-.31.26-.81-.05-1.09l-.5-.44c-.57-.52-1.46-.36-1.8.31-1.25,2.47-3.41,4.95-6.48,7.42-.78.65-1.22,1.74-1.3,3.26-.03.6.7.91,1.12.47Z"/>
  <path class="st0" d="M341.41,213.24l126.35-.44c1.06-.01,1.89-.85,1.89-1.91v-.78c0-1.05-.86-1.91-1.91-1.89l-126.35.44c-1.06.01-1.89.85-1.89,1.91v.78c0,1.05.86,1.91,1.91,1.89Z"/>
  <path class="st0" d="M203.03,222.23c.46.37,1.11.29,1.46-.16l8.8-10.9c.35-.44.3-1.09-.16-1.46l-.08-.07c-.46-.37-1.11-.29-1.46.16l-8.8,10.9c-.35.44-.3,1.09.16,1.46l.08.07Z"/>
  <path class="st0" d="M465.6,231.45c1.14-.02,2.08-.96,2.05-2.12v-.52c-.02-1.16-.98-2.07-2.13-2.05l-122.9,2.14c-1.14.02-2.08.96-2.05,2.12v.52c.02,1.16.98,2.07,2.13,2.05l122.9-2.15Z"/>
  <path class="st0" d="M507.68,241.75c.29.22.73.17.95-.13l10.22-13.36c.22-.29.16-.71-.13-.95l-.62-.47c-.29-.22-.73-.17-.95.13l-10.22,13.36c-.21.29-.16.71.13.95l.62.47Z"/>
  <path class="st0" d="M547.29,242.58c.89-1.15,1.41-2.66,1.56-4.58.16-1.9-.13-3.49-.83-4.77-.29-.52-1.04-.39-1.17.16-.23,1.07-.42,2.55-.55,4.4-.16,1.88-.21,3.36-.13,4.45.03.57.76.81,1.12.34Z"/>
  <path class="st0" d="M213.31,239.46l-.82-.45c-.34-.18-.75-.07-.92.26l-9.12,16.44c-.17.33-.07.74.26.92l.82.45c.34.18.75.07.92-.26l9.12-16.44c.17-.33.06-.74-.26-.92Z"/>
  <path class="st0" d="M514.07,255.75c1.92-2.44,3.27-4.57,3.04-4.77-.26-.19-2,1.63-3.94,4.06-1.92,2.44-3.27,4.57-3.04,4.77.26.2,2-1.63,3.94-4.06Z"/>
  <path class="st0" d="M547.49,251.45l-.73.03c-.39,0-.7.34-.68.73l.99,28.42c.02.39.34.7.73.68l.73-.03c.39,0,.7-.34.68-.73l-.99-28.42c-.02-.39-.34-.7-.73-.68Z"/>
  <path class="st0" d="M210.75,255.73c-.44-.13-.91.1-1.09.55l-6.88,16.51c-.08.18,0,.42.16.52.18.13.42.1.55-.05,4.58-4.97,7.24-10.47,7.94-16.51.05-.47-.23-.91-.68-1.02Z"/>
  <path class="st0" d="M508.4,274.48l.09.06c.49.31,1.14.15,1.44-.33l8.66-13.81c.31-.5.16-1.12-.33-1.44l-.09-.06c-.49-.31-1.14-.15-1.44.33l-8.66,13.81c-.31.5-.16,1.12.33,1.44Z"/>
  <path class="st0" d="M211.31,270.76c-.67-.35-2.77,2.34-4.68,6.02-1.9,3.68-2.92,6.94-2.23,7.29.67.35,2.77-2.34,4.68-6.02,1.9-3.68,2.92-6.94,2.23-7.29Z"/>
  <path class="st0" d="M518.57,273.41c-.55-.39-1.33-.29-1.74.29l-6.75,9.39c-.39.56-.29,1.34.29,1.74l.13.09c.55.39,1.33.29,1.74-.29l6.75-9.39c.39-.56.29-1.34-.29-1.74l-.13-.09Z"/>
  <path class="st0" d="M333.38,275l-.99-.23c-1.95-.52-4.01.13-5.36,1.64l-18.78,21.28c-.75.86-2.16.26-2.06-.89.18-2.27-2.16-3.41-7.03-3.44-13.44-.1-29.35-.08-47.73.08-.89.03-1.61.76-1.59,1.64l1.28,56.98c.03,1.69,1.43,3.05,3.15,3.02l50.73-1.12c1.67-.05,2.99-1.43,2.97-3.1l-.83-36.59c-.03-1.82.62-3.59,1.82-4.95l25.94-29.4c1.48-1.69.68-4.35-1.51-4.92ZM260.39,322.79l17.45,19.87c.62.73,1.74.73,2.37,0l21.2-24.01c.44-.49,1.28-.21,1.28.47l.23,28.96c0,.91-.73,1.64-1.61,1.67l-44.77.34c-.6.03-1.09-.47-1.09-1.07l-.42-49.84c0-.7.55-1.25,1.22-1.28,12.42-.21,26.51-.18,42.24.1,1.38.03,2.5.31,3.39.83,1.35.78,1.64,2.6.62,3.78l-22.14,25.08c-.52.6-1.46.6-1.98,0l-10.89-12.4c-1.51-1.72-4.14-1.88-5.86-.36l-.81.7c-2.11,1.85-2.29,5.05-.44,7.16Z"/>
  <path class="st0" d="M512.65,290.52c-2.47,3.12-4,5.99-3.43,6.45.57.45,3.02-1.71,5.48-4.83,2.47-3.12,4-5.99,3.43-6.45-.57-.45-3.02,1.71-5.48,4.83Z"/>
  <path class="st0" d="M547.1,286.59c-.23.36-.34.6-.34.73-.03.23.16.44.42.47.23.03.44-.16.47-.39.03-.23-.1-.49-.39-.81-.03-.05-.1-.05-.16,0Z"/>
  <path class="st0" d="M209.57,304.08c1.96-2.57,3.11-4.99,2.58-5.4-.54-.4-2.55,1.37-4.49,3.95-1.96,2.57-3.11,4.99-2.58,5.4.54.4,2.54-1.37,4.49-3.95Z"/>
  <path class="st0" d="M509.84,317.47l8.41-9.79c.26-.31.23-.78-.08-1.04l-.49-.42c-.55-.47-1.38-.31-1.69.34-1.17,2.42-3.18,4.87-6.07,7.32-.76.65-1.15,1.69-1.17,3.15-.03.6.7.89,1.09.44Z"/>
  <path class="st0" d="M569.97,308.78c.99.78,2.29.86,2.29.1,0-.52-.18-.99-.55-1.41-.42-.49-.96-.55-1.67-.16-.73.42-.76.91-.08,1.46Z"/>
  <path class="st0" d="M203.04,324.84l.13.08c.5.34,1.18.18,1.51-.32l8.8-13.6c.32-.5.19-1.18-.32-1.51l-.13-.08c-.5-.34-1.18-.18-1.51.32l-8.8,13.6c-.32.5-.19,1.18.32,1.51Z"/>
  <path class="st0" d="M346.01,313.7c-1.17,0-2.13.96-2.13,2.14v.31c0,1.17.96,2.13,2.14,2.13l120.42-.21c1.17,0,2.13-.96,2.13-2.14v-.31c0-1.17-.96-2.13-2.14-2.13l-120.42.21Z"/>
  <path class="st0" d="M512.88,322.39c-2.13,3.57-3.38,6.78-2.78,7.14.6.37,2.84-2.24,4.97-5.83,2.13-3.57,3.38-6.77,2.78-7.14-.6-.37-2.84,2.24-4.97,5.83Z"/>
  <path class="st0" d="M571.43,324.4c.31-1.59.44-2.4.42-2.42-.39-.68-1.41-.44-1.48.31-.16,1.48-.23,2.24-.21,2.27.29.6,1.15.49,1.28-.16Z"/>
  <path class="st0" d="M548.17,367.76c-.03.68.89.96,1.22.36.78-1.35.68-3.33-.29-5.94-.21-.57-.26-1.2-.13-1.82l.57-3.05c.03-.21.05-.42.05-.6l-.39-32.92c-.03-.81-.65-1.48-1.46-1.56l-.05-.03c-.49.1-.81.57-.7,1.07,2.27,10.81-.26,19.19.96,30.36.34,3.1.39,7.81.21,14.11Z"/>
  <path class="st0" d="M211.56,325.6l-8.52,15.05c-.47.83-.31,1.77.34,2.14l.62.36,10.18-17.99-.62-.36c-.65-.36-1.56,0-2.01.81Z"/>
  <path class="st0" d="M465.95,334.52c1.05-.04,1.89-.9,1.85-1.95l-.02-.83c-.02-1.06-.91-1.87-1.95-1.85l-122.25,3.2c-1.05.04-1.89.9-1.85,1.95l.02.83c.02,1.06.91,1.87,1.95,1.85l122.25-3.2Z"/>
  <path class="st0" d="M570.8,335.94c.39-.6.44-1.41.13-2.37-.18-.55-.86-.68-1.25-.26-.1.13-.13.89-.1,2.29.03.65.86.89,1.22.34Z"/>
  <path class="st0" d="M572.18,346.74c-.03-.49-.18-.94-.42-1.28-.39-.57-1.3-.42-1.46.29-.18.76-.16,1.28.03,1.59.55.89,1.93.44,1.85-.6Z"/>
  <path class="st0" d="M571.51,359.27c.13-.34.1-.81-.1-1.43-.16-.47-.86-.42-.94.08-.13.73-.05,1.22.21,1.51.26.29.7.18.83-.16Z"/>
  <path class="st0" d="M570.1,372.03c.26.44.91.36,1.04-.13l.83-3.18c.18-.73-.73-1.22-1.22-.68-1.22,1.33-1.46,2.66-.65,3.98Z"/>
  <path class="st0" d="M570.23,394.06c-.03,7.37,1.43,14.04.31,20.65-.39,2.27-.39,4.48,0,6.64.05.29.31.49.6.47.29,0,.52-.21.55-.49l1.38-12.14c.08-.65-.08-1.3-.42-1.85-.89-1.43-1.25-2.55-1.09-3.33,1.09-5.23.89-9.95-.6-14.14-.29-.78-.34-1.61-.13-2.42l1.48-5.68c.03-.08,0-.18-.05-.23l-.57-.65c-.39-.44-1.12-.34-1.35.23-1.51,3.65-1.67,7.21-.47,10.73.26.73.39,1.48.36,2.21Z"/>
  <path class="st0" d="M548.82,382.83c-.42.06-.47,1.77-.15,3.82.33,2.04.93,3.66,1.35,3.58.42-.06.47-1.77.15-3.82-.33-2.04-.93-3.66-1.34-3.58Z"/>
  <path class="st0" d="M208.02,388.44c.44-.08.89-.44,1.28-1.12.26-.44-.1-.96-.6-.89-.26.05-.68.29-1.25.7-.6.47-.18,1.43.57,1.3Z"/>
  <path class="st0" d="M203.69,407.06c.81.44,1.51.18,2.14-.83,6.51-10.49,9.14-16.09,7.89-16.8-1.28-.73-4.71,4.43-10.34,15.42-.55,1.04-.44,1.77.31,2.21Z"/>
  <path class="st0" d="M510.03,403.67c.51.34,1.22.21,1.56-.3l7.47-10.98c.35-.52.22-1.22-.3-1.56l-.04-.03c-.51-.34-1.22-.21-1.56.3l-7.47,10.98c-.35.52-.22,1.22.3,1.56l.04.03Z"/>
  <path class="st0" d="M550.13,395.39c-.31-.83-1.51-.7-1.64.16-.34,2.16-.39,3.52-.16,4.04.18.44.83.42.96-.05.68-2.47.96-3.85.83-4.14Z"/>
  <path class="st0" d="M303.69,395.79l-47.39.83c-2.12.02-3.78,1.77-3.76,3.89l.79,45.46c.04,2.1,1.79,3.79,3.89,3.76l47.39-.83c2.12-.02,3.78-1.77,3.76-3.89l-.79-45.46c-.04-2.1-1.79-3.79-3.89-3.76ZM301.9,444.04l-42.08.81c-.97.02-1.78-.76-1.8-1.74l-.77-40.2c0-.99.75-1.8,1.74-1.8l42.08-.81c.97-.02,1.78.76,1.8,1.74l.77,40.2c0,.99-.75,1.8-1.74,1.8Z"/>
  <path class="st0" d="M549.66,409.17c.21-.21.03-1.74-.55-4.58-.03-.1-.13-.18-.23-.18-.13,0-.21.1-.23.21l-.55,3.91c-.13.89,1.02,1.35,1.56.65Z"/>
  <path class="st0" d="M212.69,405.42c-.59-.31-1.32-.11-1.62.49l-7.68,14.32c-.32.58-.09,1.31.49,1.62l.14.07c.59.31,1.32.11,1.62-.49l7.68-14.32c.32-.58.09-1.31-.49-1.62l-.14-.07Z"/>
  <path class="st0" d="M467.82,406.23l-123.46,2.59c-.74,0-1.34.63-1.33,1.38l.04,2.13c.02.74.64,1.34,1.38,1.33l123.46-2.59c.74,0,1.34-.63,1.33-1.38l-.04-2.13c-.02-.74-.64-1.34-1.38-1.33Z"/>
  <path class="st0" d="M515.44,420.79c2.19-3,3.59-5.71,3.11-6.05-.48-.36-2.64,1.8-4.83,4.79-2.19,3-3.59,5.71-3.11,6.05.48.36,2.64-1.8,4.83-4.79Z"/>
  <path class="st0" d="M549.63,423.04c.52.03,1.01-1.74,1.09-3.95.08-2.2-.26-3.99-.78-4.02-.52-.03-1.01,1.74-1.09,3.95-.08,2.2.26,3.99.78,4.02Z"/>
  <path class="st0" d="M209.34,427.25c3.24-3.81,5.35-7.32,4.73-7.84-.61-.53-3.74,2.15-6.96,5.95-3.24,3.81-5.35,7.32-4.73,7.84.61.53,3.74-2.15,6.96-5.95Z"/>
  <path class="st0" d="M571.82,434.09c-.13-.65-.29-1.3-.47-1.95-.29-.99-.23-2.08.1-3.07.34-1.07.44-2.84.34-5.31-.03-.39-.31-.7-.7-.76-.39-.03-.73.21-.83.57-.91,3.18-.94,6.98-.08,11.38.1.65.26,1.3.44,1.95.29.99.26,2.08-.08,3.07-.34,1.07-.47,2.84-.34,5.31.03.39.31.7.7.73.36.05.73-.18.83-.55.91-3.18.94-6.98.08-11.38Z"/>
  <path class="st0" d="M510.52,441.67c.42.13.86-.05,1.04-.44l7.21-14.82c.08-.18.03-.39-.13-.49-.16-.13-.36-.1-.49.03-4.48,4.32-7.21,9.24-8.2,14.77-.08.42.18.83.57.96Z"/>
  <path class="st0" d="M549.29,436.17c.83-1.04,1.33-2.27,1.46-3.65.16-1.38-.08-2.68-.68-3.88-.18-.42-.81-.29-.83.16-.13,1.28-.23,2.45-.34,3.54-.13,1.07-.26,2.24-.39,3.52-.08.44.52.68.78.31Z"/>
  <path class="st0" d="M467.22,428.72l-122.36,2.78c-1.03.02-1.86.88-1.83,1.92l.02.83c.03,1.04.89,1.85,1.92,1.83l122.36-2.78c1.03-.02,1.86-.88,1.83-1.92l-.02-.83c-.03-1.04-.89-1.85-1.92-1.83Z"/>
  <path class="st0" d="M514.94,447.49c2.42-3.43,3.88-6.56,3.31-6.97-.6-.42-3.02,2.03-5.44,5.47-2.42,3.43-3.88,6.56-3.31,6.97.6.42,3.02-2.03,5.44-5.47Z"/>
  <path class="st0" d="M550.63,451.55c.64-.09.95-1.65.68-3.48-.27-1.82-1.03-3.2-1.69-3.11-.64.09-.95,1.65-.68,3.48.27,1.82,1.03,3.2,1.69,3.11Z"/>
  <path class="st0" d="M571.12,447.68c-.18.03-.31.18-.31.36.03,1.95.05,2.94.08,2.97.23.57,1.09.47,1.2-.16.08-.6-.1-1.56-.57-2.94-.05-.16-.23-.26-.39-.23Z"/>
  <path class="st0" d="M572,462.94l.78-8.88c.05-.62-.78-.86-1.09-.31-1.82,3.41-2.27,6.54-1.3,9.38.29.86,1.54.7,1.61-.18Z"/>
  <path class="st0" d="M510.28,466.09c3.65-2.92,6.17-6.87,7.55-11.88.05-.16-.03-.34-.16-.39-.16-.08-.34-.03-.42.1l-7.99,11.17c-.21.29-.18.7.08.94.26.23.65.26.94.05Z"/>
  <path class="st0" d="M550.55,466.28c.54,0,.93-2.66.88-5.9-.05-3.24-.52-5.87-1.05-5.87-.54,0-.93,2.66-.88,5.9.05,3.24.52,5.87,1.05,5.87Z"/>
  <path class="st0" d="M550.78,469.3h-.1c-.48,0-.87.42-.87.9l.37,23.8c0,.48.41.87.9.87h.1c.48,0,.87-.42.87-.9l-.37-23.8c0-.48-.41-.87-.9-.87Z"/>
  <path class="st0" d="M571.51,470.16l-.08,4.4c0,.57.73.83,1.07.36,1.07-1.48.99-3.15-.26-5-.21-.31-.73-.16-.73.23Z"/>
  <path class="st0" d="M213.35,472.16c-.18-.08-.42,0-.52.16l-9.97,14.74c-.26.36-.21.89.13,1.2.34.31.86.31,1.22.03,4.64-3.91,7.76-9.11,9.38-15.62.05-.21-.05-.42-.23-.49Z"/>
  <path class="st0" d="M508.81,488.68c.51.41,3.22-2.12,6.01-5.67,2.81-3.55,4.66-6.76,4.13-7.16-.51-.41-3.22,2.12-6.01,5.67-2.81,3.55-4.66,6.76-4.13,7.16Z"/>
  <path class="st0" d="M568.98,485.26c.18.05.34-.05.39-.23.23-.86.21-1.43-.08-1.77-.26.29-.44.83-.57,1.64-.03.18.08.34.26.36Z"/>
  <path class="st0" d="M570.18,490.91c.03-.52-.13-1.12-.47-1.82-.23-.49-1.02-.31-.96.23.05.55.29,1.15.68,1.8.21.34.73.18.76-.21Z"/>
  <path class="st0" d="M213.11,489.87l-.61-.4c-.32-.22-.76-.12-.97.2l-9.18,13.91c-.22.32-.12.77.2.97l.61.4c.32.22.76.12.97-.2l9.17-13.91c.22-.32.12-.77-.2-.97Z"/>
  <path class="st0" d="M569.24,494.27c-.23,1.67-.36,2.53-.36,2.55.18.91,1.38,1.09,1.8.29.52-1.02.47-2.03-.16-3.07-.34-.55-1.17-.39-1.28.23Z"/>
  <path class="st0" d="M507.23,506.56c.49.49,1.09.42,1.75-.21,6.8-6.56,9.79-10.23,9.01-10.99-.81-.76-4.35,2.4-10.57,9.51-.6.68-.68,1.25-.18,1.69Z"/>
  <path class="st0" d="M516.56,504.06c-4.43,4.71-8.62,6.67-12.29,11.54-4.87,6.48-11.77,14.04-20.73,22.66-1.74,1.69-2.99,3.57-3.75,5.6-.26.76.65,1.35,1.22.81,11.28-10.73,19.84-20.44,25.7-29.17.39-.6.89-1.12,1.43-1.56l10.47-8.39s.03-.03,0-.05l-.89-1.35c-.26-.39-.83-.44-1.17-.08Z"/>
  <path class="st0" d="M205.39,507.37c-1.64.13-2.81.99-3.52,2.58-.31.68.26,1.43.99,1.33,1.28-.18,2.37-1.09,3.28-2.73.31-.55-.13-1.22-.76-1.17Z"/>
  <path class="st0" d="M567.89,508.91c-.73-.49-1.61.34-1.2,1.09l.55,1.02c.36.68,1.35.49,1.48-.26s-.16-1.38-.83-1.85Z"/>
  <path class="st0" d="M562.1,509.22c-.86-.21-2.29-.03-4.27.52-.18.05-.31.23-.29.44.03.18.18.34.39.34,2.58,0,3.98-.05,4.27-.18.52-.23.44-.99-.1-1.12Z"/>
  <path class="st0" d="M513.98,514.64l-.05-.03c-.44-.29-1.02-.16-1.3.29-6.25,9.51-14.17,18.33-23.75,26.48-.18.16-.18.42-.03.6l.49.57c.26.31.73.36,1.04.1,9.58-7.32,17.53-16.28,23.85-26.85.23-.42.13-.94-.26-1.17Z"/>
  <path class="st0" d="M566.66,514.97c-1.38,2.5-2.08,3.98-2.06,4.48.03.7.94.96,1.35.39,1.17-1.67,1.72-3.2,1.69-4.61-.03-.55-.73-.73-.99-.26Z"/>
  <path class="st0" d="M223.66,523.27c-.67-.51-3.9,2.59-7.2,6.92-3.31,4.34-5.44,8.27-4.76,8.78.67.51,3.9-2.59,7.2-6.92,3.31-4.34,5.44-8.27,4.76-8.78Z"/>
  <path class="st0" d="M483.9,528.37l-.11-.11c-.49-.49-1.29-.49-1.77,0l-14.89,14.94c-.49.5-.49,1.28,0,1.77l.11.11c.48.49,1.29.49,1.77,0l14.89-14.94c.49-.5.49-1.28,0-1.77Z"/>
  <path class="st0" d="M231.19,529.69l-.55-.55c-.39-.36-.99-.31-1.28.13-1.9,2.94-4.74,5.78-8.54,8.49-.6.42-.86,1.17-.65,1.85l.29.91c.34,1.17,1.85,1.46,2.6.49l8.18-10.39c.21-.29.18-.68-.05-.94Z"/>
  <path class="st0" d="M471.64,529.74l-.04-.04c-.36-.35-.96-.33-1.29.05l-11.44,12.4c-.33.37-.31.95.05,1.29l.04.04c.36.35.96.33,1.29-.05l11.44-12.4c.33-.37.31-.95-.05-1.29Z"/>
  <path class="st0" d="M258.8,530.12l-.07-.07c-.37-.36-.97-.36-1.33.02l-11.96,12.34c-.37.38-.34.98.02,1.33l.07.07c.37.36.97.36,1.33-.02l11.96-12.34c.37-.38.34-.98-.02-1.33Z"/>
</svg>