<?xml version="1.0" encoding="UTF-8"?>
<svg id="Layer_1" xmlns="http://www.w3.org/2000/svg" version="1.1" viewBox="0 0 792 612">
  <!-- Generator: Adobe Illustrator 30.2.1, SVG Export Plug-In . SVG Version: 2.1.1 Build 1)  -->
  <defs>
    <style>
      .st0 {
        fill: #f29f05;
      }
    </style>
  </defs>
  <path class="st0" d="M137.77,610.57c15.16,6.76,30.12-6.67,38.75-17.5,29.6-37.1,65.76-84.37,108.48-141.84,9.32-12.53,23.22-30.83,18.42-45.94-.28-.94-.1-1.96.49-2.72l90.11-114.8c.47-.61,1.32-.78,1.99-.4,8.91,4.9,15.96,12.62,24.1,17.92,18.59,12.11,30.22,19.36,34.85,21.73,21.14,10.93,35.02,18.47,41.68,22.61,22.82,14.21,38.35,29.15,64.55,52.59,11.47,10.28,25.7,19.63,40.74,21.92,26.46,3.99,42.7-16.01,47.41-39.42,2.7-13.33,3.19-30.24,1.47-50.76-2.36-28.02-6.55-57.51-12.6-88.46-2.22-11.38-3.62-19.03-4.21-22.91-3.03-20.34-5.61-30.36-10.1-51.43-4.19-19.79-10.36-40.22-18.51-61.29-1.94-4.97-3.12-13.86-5.44-19.63-9.31-23.24-25.35-39.04-48.16-47.38-27.15-9.93-53.86-7.24-80.13,8.04-35.14,20.48-63.37,52.37-83.99,86.94-12.62,21.14-21.66,44.85-24.87,68.55-2.84,20.99.54,41.9,10.12,62.8.57,1.25,2.36,2.89,2.93,4,.59,1.13.47,2.48-.31,3.48l-88.17,113.28c-.61.8-1.56,1.27-2.56,1.25-19.58-.24-32.25,17.02-43.67,32.06-48.62,64.06-73.94,97.42-75.97,100.07-16.72,21.75-26.76,34.62-30.1,38.57-9.65,11.42-16.32,24.49-8.87,38.83,2.13,4.12,5.98,7.43,11.54,9.89l.03-.07ZM435.13,309.93l-20.99-12.53c-.28-.16-.4-.54-.28-.83.14-.31.47-.47.8-.38l17.42,4.56c.57.16.97.68,1.01,1.27l.03,1.68c.02.66.31,1.27.75,1.72,1.28,1.2,2.11,2.37,2.5,3.54.24.75-.57,1.4-1.25,1.01l.02-.02ZM437.18,302.9l.03-.24c.16-1.44,1.61-2.48,3.22-2.3l6.97.75c1.63.19,2.81,1.51,2.65,2.96v.23c-.07.28-.31.47-.57.45l-11.85-1.32c-.28-.02-.47-.26-.45-.54v.02ZM440.47,310.42l-1.44-3.24c-.23-.49.16-1.02.69-.97l12.18,1.09c1.02.09,1.91.68,2.41,1.56l2.15,3.95c.36.66-.21,1.44-.94,1.3l-13.67-2.63c-.61-.12-1.13-.5-1.39-1.07v.02ZM480.79,308.7c-.4-.71.09-1.59.9-1.63l12.72-.66c2.01-.1,3.9.95,4.89,2.7l5.06,9.24c.35.59-.12,1.35-.81,1.3l-14.75-1.06c-1.65-.12-3.12-1.04-3.93-2.48l-4.07-7.43v.02ZM480.55,317.3l-19.46-2.2c-.55-.07-1.01-.4-1.21-.9l-2.24-4.99c-.26-.57.14-1.21.78-1.25l16.53-.43c1.09-.03,2.13.55,2.67,1.52l3.81,6.97c.33.61-.16,1.35-.85,1.27l-.03.02ZM584.44,277.89l11.11,21.97c.12.26.03.59-.24.75l-20.38,10.29c-.28.14-.59.02-.75-.24l-11.11-21.97c-.12-.26-.03-.59.24-.75l20.38-10.29c.28-.14.59-.02.75.24ZM574.45,254.1c-.16-.26-.1-.61.14-.81l15.56-13.69c.33-.28.83-.19,1.04.19l10.52,19.29c.16.26.1.61-.14.81l-15.56,13.69c-.33.28-.83.19-1.04-.19l-10.52-19.29ZM570.71,310.89c.35.59.02,1.35-.66,1.52l-21.02,5.37s-.19-.02-.36-.1c-.07-.02-.12-.03-.19-.07-.09-.03-.14-.07-.19-.09-.19-.09-.33-.16-.35-.21l-10.93-18.75c-.35-.59-.02-1.37.62-1.52,5.22-1.39,12.37-3.9,21.49-7.61.26-.1.62-.07,1.06.12.45.19.71.4.83.68,3.76,9.1,7,15.98,9.67,20.64l.03.02ZM550.99,320.45l20.41-5.25c.35-.09.69.09.83.4l9.58,21.33c.21.43-.07.94-.54,1.01l-20.38,3.34c-.33.03-.62-.1-.75-.38l-9.65-19.41c-.21-.4.02-.9.47-1.02l.02-.02ZM575.06,314.54c-.14-.26,0-.57.26-.71l21.76-10.24c.28-.12.57,0,.71.26l10.71,22.75c.14.26,0,.57-.26.71l-21.76,10.24c-.28.12-.57,0-.71-.26l-10.71-22.75ZM587.31,339.6c9.11-3,16.17-6.08,21.12-9.31.5-.33,1.18-.1,1.39.47l7.04,19.06c.24.68,0,1.44-.59,1.85-6.03,4.09-12.82,7.38-20.41,9.89-.8.26-1.65-.16-1.94-.94l-7.26-19.69c-.21-.55.09-1.18.66-1.37v.02ZM611.23,325.13l-10.69-22.53c-.12-.24-.07-.55.16-.73l14.61-12.84c.33-.28.83-.19,1.01.21l10.28,22.87c.1.26.03.55-.16.73l-14.21,12.49c-.33.26-.81.16-1.01-.21h.02ZM614.55,285.6l-14.09,12.36c-.71.62-1.85.45-2.32-.4l-11.25-20.64c-.28-.49-.14-1.13.31-1.47l15.72-11.85c.26-.19.62-.1.78.19l11.11,20.34c.26.49.16,1.09-.24,1.47h-.02ZM604.43,257.53l-10.85-19.86c-.16-.31-.12-.66.09-.92l11.87-15.15c.36-.47,1.09-.4,1.39.12l10.85,19.88c.16.31.12.66-.09.92l-11.87,15.13c-.36.47-1.09.4-1.39-.12ZM604.43,218.47l-12.36,15.73c-.14.19-.45.19-.57-.02l-9.41-13.97c-.14-.21-.12-.45.02-.62l13.74-17.48c.23-.31.71-.26.87.09l7.75,15.61c.1.23.09.49-.07.68l.03-.02ZM588.61,236.56c.1.19.07.4-.1.55l-15.27,13.41c-.33.28-.83.23-1.09-.12l-8.61-11.56c-.21-.26-.19-.66.07-.9l16.01-16.01c.33-.33.88-.24,1.07.14l7.92,14.49h0ZM572.04,256.4l9.96,17.31c.16.28.07.68-.23.83l-16.03,9.22c-2.44,1.4-4.78,1.98-5.18,1.25l-9.08-15.77c-.4-.71,1.25-2.44,3.71-3.86l16.01-9.2c.28-.19.68-.09.83.23h0ZM557.97,286.33c.09.12.02.28-.12.35l-21.73,8.02c-.49.19-1.04,0-1.35-.45l-8.77-13c-.19-.26-.09-.62.21-.78l21.89-10.4c.47-.21,1.01-.02,1.25.4l8.65,15.86h-.02ZM534.42,299.1l10.52,18.33c.19.33-.02.73-.38.75l-16.55,1.28c-.23,0-.45-.1-.57-.31l-9.46-16.5c-.12-.21,0-.45.23-.49l15.67-3.31c.21-.07.43.03.55.24h0ZM523.66,317.89c.4.75-.14,1.68-1.02,1.68h-13.26c-.78,0-1.47-.4-1.84-1.07l-6.55-11.99c-.26-.5.03-1.13.61-1.21l11.42-1.85c1.51-.24,3,.49,3.73,1.82l6.9,12.63h.02ZM489.47,321.6l13.9-.12c2.2-.02,4.23,1.21,5.22,3.19l5.11,10.29c.35.68-.21,1.47-.95,1.39l-16.06-1.84c-1.78-.21-3.36-1.28-4.16-2.89l-4.11-8.3c-.38-.8.19-1.73,1.06-1.73v.02ZM510.87,323.64c-.35-.62.12-1.42.85-1.4l12.49.33c1.3.02,2.48.78,3.05,1.94l6.79,13.72c.26.5-.14,1.13-.71,1.06l-12.32-1.09c-1.49-.12-2.79-1.01-3.52-2.3l-6.65-12.23.02-.02ZM529.31,322.39c-.1-.16.02-.38.23-.38l15.94-.81c.75-.03,1.47.36,1.84,1.04l9.76,17.94c.14.24-.03.54-.31.54-11.25,0-17.03-.16-17.38-.5-.16-.16-.35-.28-.55-.38-.35-.19-3.52-5.98-9.5-17.4l-.02-.03ZM540.06,343.07c12.1.92,18.3,1.59,18.65,1.98.16.19.35.35.55.47.36.23,3.29,6.72,8.82,19.48.09.21-.07.4-.28.4l-17.19-.43c-.81-.02-1.54-.5-1.89-1.27l-9.01-20.08c-.12-.26.09-.57.38-.55l-.03.02ZM562.74,344.4s.02-.21.12-.21l19.11-3.47c.59-.12,1.16.23,1.39.78l8.04,20.73c.12.33-.09.69-.43.75l-18.32,3.29c-.54.1-1.06-.19-1.28-.69l-8.63-21.19v.02ZM573.62,368.66l18.65-2.36c.36-.03.71.19.81.54l5.6,19.03c.14.45-.12.92-.57,1.02l-15.54,4c-.66.16-1.32-.19-1.54-.81l-7.71-20.88c-.09-.23.09-.49.33-.54h-.02ZM595.89,365.9c-.19-.62.16-1.28.8-1.49,7.23-2.43,14.09-5.75,20.55-10.02.28-.19.68-.03.78.28l5.65,19.23c.16.54-.07,1.09-.55,1.37l-19.72,10.76c-.69.38-1.56.02-1.78-.75l-5.72-19.39h0ZM603.41,388.83l20.5-10.15s.21,0,.23.1l4.85,18.8c.16.57-.12,1.18-.68,1.42l-20.07,9.55c-.33.14-.69-.02-.78-.36l-4.64-18.04c-.14-.54.1-1.07.59-1.32h0ZM625.82,370.74l-5.25-17.83c-.09-.31,0-.66.24-.85l14.59-12.82s.23-.03.26.09l5.49,14.85c.45,1.18.19,2.53-.66,3.47l-12.06,13.67c-.8.9-2.29.59-2.62-.57h0ZM634.64,335.96l-14.04,12.34c-.45.38-1.14.23-1.35-.33l-6.78-18.39c-.16-.4-.03-.85.28-1.14l14.12-12.41c.4-.35,1.04-.21,1.21.31l6.81,18.47c.14.4.03.85-.28,1.14h.02ZM628.66,308.56l-9.6-21.37c-.1-.23-.07-.49.1-.68l11.21-12.72c.31-.33.83-.24,1.02.14l8.06,17.95c.09.19.07.38-.03.55l-9.65,16.2c-.26.4-.9.38-1.09-.09h-.02ZM629.65,269.57l-11.75,13.31c-.26.31-.78.24-.95-.12l-10.54-21.23c-.19-.36-.12-.81.14-1.13l12.29-13.91c.16-.19.43-.14.54.07l10.41,21.96c.16.36.12.78-.14,1.06ZM619.53,238.94l-10.87-19.91c-.14-.26-.14-.59-.02-.88l8.53-17.47c.12-.24.45-.24.57,0,6.91,14.5,10.38,21.82,10.36,21.92-.02.95-.28,1.89-.73,2.72l-7.35,13.6c-.1.19-.38.19-.49,0l-.02.02ZM615.31,198.96l-7.8,14.24c-.43.78-1.52.78-1.94,0l-7.24-13.27c-.61-1.13-.61-2.46,0-3.6l9.29-16.93c.31-.55,1.09-.5,1.37.07l6.52,14.54c.71,1.59.66,3.41-.19,4.97v-.02ZM605.09,176.99l-8.37,17.17c-.49,1.02-1.96,1.02-2.44,0l-3.24-6.5c-.68-1.37-.73-2.95-.16-4.35l8.53-21.26c.28-.69,1.27-.71,1.56-.02l4.19,9.32c.81,1.78.78,3.86-.09,5.63h.02ZM593.6,198.32c.24.47.23,1.02-.09,1.42l-12.23,16.95c-.47.66-1.47.57-1.84-.14l-1.66-3.38c-.38-.78-.38-1.66,0-2.44l10.26-21.09c.16-.33.62-.35.81-.02l4.75,8.68v.02ZM577.75,218.75c.24.47.16,1.04-.21,1.42-8.75,9.06-13.81,14.16-15.18,15.3-.14.12-.33.12-.47,0s-.16-.31-.09-.47l12.15-20.31c.36-.61,1.27-.59,1.59.02l2.2,4.04h0ZM570.24,251.83c.57.62.38,1.63-.35,2.03l-20.43,11.16c-.45.24-1.01.14-1.32-.24l-5.18-5.91c-.66-.75-.61-1.87.09-2.56l16.12-16.1c.24-.24.68-.24.9.02l10.19,11.59-.02.02ZM546.29,266.44c.38.45.24,1.16-.28,1.4l-20.6,9.79c-1.04.49-2.25.14-2.89-.81-.62-.95-.45-2.22.4-2.96l16.19-14.21c.36-.33.95-.31,1.28.09l5.91,6.72v-.02ZM523.73,282.92l7.19,11.09c.59.92.12,2.13-.92,2.46l-12.7,3.86c-.21.07-.4,0-.54-.19l-8.42-13.05c-.21-.31-.07-.71.28-.81l13.26-4.05c.71-.21,1.47.07,1.85.68v.02ZM519.57,279.89c-2.89.36-6.08,1.59-9.58,3.71-.94.55-2.13.59-3.64.12-.61-.19-.66-1.02-.07-1.27l12.93-5.27c.4-.19.87.02,1.04.43l.28.66c.28.73-.19,1.54-.95,1.63v-.02ZM506.13,289.1l7.09,10.52c.28.43.03,1.02-.47,1.09l-13.2,2.13c-.24.03-.5-.07-.66-.28l-6.39-9.48c-.5-.75-.14-1.77.73-2.03l10.1-2.96c1.06-.31,2.2.1,2.81,1.02v-.02ZM495.21,302.36c.19.26.02.61-.28.62l-15.41,1.59c-.24.02-.49-.07-.66-.24l-5.65-6.45c-.14-.16-.09-.43.14-.49l15.13-3.88c.38-.1.81.07,1.04.38l5.7,8.47-.02-.02ZM474.67,303.56c.49.55.1,1.44-.66,1.44l-16.38.12c-.71.02-1.39-.28-1.85-.81l-2.58-2.95c-.38-.43-.09-1.13.49-1.16l15.87-1.21c.66-.03,1.28.23,1.72.71l3.4,3.86h0ZM462.2,326.95l-17.64-10.54c-.38-.23-.55-.69-.38-1.13.16-.4.59-.66,1.04-.57l12.18,2.34c.78.16,1.44.68,1.77,1.4l3.6,8.01c.16.35-.24.69-.57.49h0ZM466.77,327.19l-3.93-7.19c-.5-.92.24-2.03,1.28-1.91l16.38,1.87c1.78.19,3.38,1.25,4.23,2.82l4.38,8.01c.43.8-.21,1.73-1.09,1.63l-16.2-1.84c-2.13-.24-4-1.51-5.04-3.4ZM494.78,344l-17.24-8.4c-.38-.19-.57-.61-.45-1.01.1-.4.49-.68.92-.62l11.52,1.21c.73.09,1.39.5,1.75,1.16l3.99,7.16c.16.31-.16.66-.49.49v.02ZM500.53,346.84c-.9-1.18-2.43-4.09-4.59-8.72-.31-.66.23-1.39.94-1.28,3.31.45,7.45,1.06,12.37,1.85,3.34.54,6.2.45,7.78,4.11,2.34,5.48,4.57,10.4,6.72,14.78.24.54-.12,1.13-.69,1.13-7.04,0-19.67-8.08-22.51-11.87h-.02ZM527.54,366.22c-.12.59-.78.88-1.28.59-.03-.03-.71-.62-2.01-1.82-1.28-1.18-1.96-1.78-1.99-1.85-.33-.47-.1-1.14.47-1.32,1.27-.38,2.44-.07,3.57.94,1.09,1.02,1.52,2.18,1.27,3.47h-.02ZM527.23,357.85l-7.16-15.98c-.21-.47.16-.97.68-.92l12.84,1.44c1.49.16,2.79,1.13,3.4,2.5l7.62,16.96c.33.73-.31,1.54-1.09,1.39l-12.44-2.37c-1.68-.33-3.14-1.47-3.85-3.03v.02ZM551.77,388.31c-7.26-4-14.38-11.04-21.37-21.04-.97-1.4.23-3.29,1.91-3.02l10.43,1.75c1.99.33,3.64,1.72,4.35,3.6l6.38,17.24c.38,1.04-.73,2.01-1.72,1.47l.02-.02ZM556.99,387.6c-.31-.81-.94-2.53-1.89-5.09-1.87-5.01-3.64-9.81-5.29-14.38-.14-.38.16-.8.59-.75l18.11,1.61c.95.09,1.77.71,2.11,1.61.31.81.95,2.53,1.91,5.09,1.87,5.03,3.64,9.81,5.29,14.38.14.38-.19.8-.59.75l-18.11-1.61c-.95-.09-1.78-.71-2.13-1.61ZM581.21,410.96c-9.79-3.81-17.59-9.67-23.38-17.59-.33-.43.02-1.04.55-1.01l19.84,1.77c.4.03.71.33.8.73l2.56,15.79c.03.21-.16.36-.36.28l-.02.03ZM584.69,408.72l-2.43-14.83c-.02-.14.07-.26.21-.28l16.91-3.24c.54-.1,1.04.26,1.13.8l2.77,16.91c.09.57-.33,1.09-.9,1.14l-15.54,1.18c-1.04.09-1.98-.66-2.13-1.66l-.02-.02ZM604.67,420.58c-6.76-.24-12.79-2.24-18.07-5.98-.43-.31-.24-.97.28-1.02l16.93-1.3c.35-.02.66.23.69.57l.9,6.97c.07.43-.31.8-.73.78v-.02ZM629.47,413.66c-5.96,4.4-12.49,6.88-19.58,7.45-.66.03-1.25-.43-1.35-1.07l-1.27-7.62c-.1-.66.33-1.27.95-1.4,7.36-1.65,13.91-4.63,19.63-8.89.69-.5,1.68-.1,1.84.75l1.2,7.28c.21,1.35-.35,2.7-1.44,3.52h.02ZM634.69,408.52c-.38.5-1.18.31-1.28-.33l-1.42-8.68c-.02-.16.02-.31.12-.43l13.81-17.62c.16-.21.5-.07.45.21-2.18,10.31-6.08,19.27-11.68,26.86h0ZM645.64,376.79l-14.04,17.88s-.23.07-.24-.03l-4.8-18.66c-.1-.36.03-.75.36-.97,6.65-4.7,11.4-9.48,14.23-14.37.38-.68,1.4-.55,1.63.21l3.6,12.18c.38,1.28.1,2.69-.73,3.76h-.02ZM647.56,363.41c-.35.09-.69-.1-.81-.43-.55-1.44-.9-2.95-1.02-4.52-.12-1.54-.02-3.07.28-4.57.09-.35.38-.59.75-.57.35.02.62.31.66.66.1,1.42.21,2.88.33,4.33.12,1.51.24,2.95.36,4.35.03.36-.21.68-.55.75l.02.02ZM646.26,324.4l1.59,20.99c.03.43-.07.87-.28,1.25l-2.88,4.8c-.55.92-1.91.73-2.22-.28l-4.16-14.09c-.21-.69-.1-1.47.26-2.1l6.5-10.85c.33-.54,1.14-.33,1.18.28h0ZM645.41,316.9l-7.49,13.69c-.26.49-1.01.43-1.2-.1l-6.07-16.38c-.1-.31-.09-.66.09-.92l9.7-16.24c.23-.36.78-.28.87.12l4.44,17.17c.23.9.1,1.84-.35,2.65h0ZM637.89,264.12l3.69,22.65c.02.19-.09.38-.28.43-.19.07-.38-.02-.47-.21l-7.07-15.77c-.35-.75-.31-1.63.1-2.36l2.7-4.97c.33-.59,1.21-.43,1.32.23h0ZM629.77,227.47c3.48,11.44,5.68,21.12,6.57,29.08.26,2.22-1.04,4.94-3.86,8.16-.38.45-1.13.36-1.39-.19l-9.81-20.62c-.21-.45-.19-.97.03-1.4l8.25-15.06s.16-.09.21.02v.02ZM624.71,188.56l4.31,26.46c.03.23-.1.45-.33.5-.23.09-.45-.03-.55-.24l-8.27-18.42c-.4-.87-.35-1.91.12-2.77l3.15-5.81c.38-.69,1.42-.5,1.54.26l.02.02ZM616.81,156.61c1.98,6.45,3.47,13.29,4.51,20.53.62,4.51-1.01,9.24-3.03,13.26-.23.43-.85.43-1.06-.02l-6.46-14.45c-.24-.55-.31-1.18-.14-1.77l4.57-17.5c.23-.83,1.39-.85,1.63-.03l-.02-.02ZM601.64,154.18l4.89-29.22c.03-.26.4-.31.5-.07,4.57,10.61,6.79,18.52,6.65,23.76-.1,4.25-1.72,10.74-4.78,19.48-.23.66-1.13.69-1.42.09l-5.35-10.76c-.5-1.01-.68-2.13-.49-3.26v-.02ZM372.35,255.3c-16.79-46.6,3.9-94.35,30.2-132.76,18.3-26.72,40.76-48.61,67.41-65.66,25.13-16.08,51.14-19.67,78.07-10.73,24.5,8.13,40.81,24.23,48.88,48.26,7.68,22.87,4.64,47.29-2.95,68.95-7.73,22.08-18.47,42.91-32.25,62.44-19.69,27.86-43.89,48.23-72.69,61.1-5.56,2.46-13.72,4.77-24.49,6.88-19.72,3.88-46.79,1.68-65.05-9.24-1.01-.57-1.89-1.32-2.63-2.2-3.48-4.05-7.88-7.5-13.2-10.35-6.52-3.47-8.66-9.41-11.3-16.7h0ZM290.16,392.71l91.79-117.49c.19-.24.54-.29.78-.09l9.2,7.19c.24.19.28.54.09.78l-91.79,117.49c-.19.24-.54.29-.78.09l-9.2-7.19c-.24-.19-.29-.54-.09-.76v-.02ZM135.29,568.13c39.58-49.59,81.24-106.71,115.25-150.31,6.43-8.27,25.35-28.7,37.22-20.64,6.27,4.25,9.95,7.97,11.07,11.13,3.5,9.88-6.57,25.35-12.37,33.25-19.1,25.98-43.79,58.73-74.1,98.31-21.82,28.45-36.08,46.56-42.82,54.36-1.04,1.21-4.35,4.16-9.93,8.77-6.34,5.25-15.39,6.76-23.08,2.32-14.14-8.14-10.17-25.99-1.25-37.19h0Z"/>
  <path class="st0" d="M465.18,284.77c33.12-5.72,68.26-32.77,87.63-59.73,5.75-8.04,12.22-17.99,19.36-29.84,6.32-10.48,12.25-24.35,17.76-41.54,2.25-7,3.43-16.84,4.16-24.24,2.58-26.22-8.28-53.16-31.04-68.17-12.34-8.14-24.57-12.39-36.7-12.75-44.9-1.32-78.41,27.55-107.35,62.05-20.86,24.85-35.02,51.52-42.54,80.02-5.96,22.56-5.53,44.81,5.16,65.87,13.88,27.22,57.79,32.79,83.54,28.35l.02-.02ZM393.87,265.87c-2.55-2.82-4.82-6.2-6.81-10.12-.35-.69-.28-1.51.16-2.11l2.06-2.81c.23-.28.69-.23.81.12l5.13,14.09c.31.83-.75,1.49-1.35.83h0ZM461.02,261.66h-.03s-.03-.02-.05-.03c-.03-.03-.09-.14-.1-.28l-2.89-20.57c-.16-1.06.31-2.1,1.18-2.69,1.54-1.06,17.88-12.86,17.94-12.84.09.03,2.34,20.07,2.6,21.92.14,1.06-.33,2.1-1.18,2.69l-17.19,11.7c-.1.09-.21.12-.26.12v-.02ZM461.07,261.69s-.05,0-.09-.03c0,0,.03.02.09.03ZM457.21,235.38v-.02s-.09-.14-.1-.28l-3.24-21.66c-.16-1.09.31-2.2,1.21-2.82,1.61-1.14,18.72-13.72,18.8-13.67.03.02,2.6,21.11,2.91,23.03.16,1.09-.33,2.22-1.25,2.84l-17.97,12.49c-.12.09-.23.12-.28.1-.03,0-.05,0-.09-.02h0ZM428.04,200.16l17.74-15.6c.61-.54,1.54-.16,1.65.62l3.14,24.66c.03.33-.09.68-.33.9l-17.28,15.18c-.47.4-1.18.16-1.28-.45l-3.97-24.38c-.07-.35.07-.71.33-.95v.02ZM427.58,195.48l-.61-27.33c0-.23.1-.45.28-.57l16.2-11.56c.19-.12.43-.02.45.19l2.6,23.45c.02.23-.07.43-.23.57l-17.81,15.65c-.35.31-.9.07-.9-.38l.02-.02ZM469.93,139.94c-.1-.71.28-1.4.95-1.68l16.79-7.56c.78-.35,1.68.16,1.78,1.02l2.69,21.07c.03.47-.21.94-.61,1.14l-18.28,9.08c-.19.09-.4-.02-.43-.23l-2.91-22.84.02-.02ZM470.39,168.46h.05s.03.02.05.03c.07.03.1.16.12.31l3.41,22.56c.19,1.14-.33,2.3-1.28,2.95-1.66,1.18-19.48,14.33-19.51,14.33-.09-.03-2.82-22.02-3.12-24.03-.19-1.16.31-2.3,1.27-2.96l18.72-13.07c.12-.09.24-.12.28-.12h.02ZM473.77,167.85c-.1-.9.36-1.75,1.16-2.13l17.26-8.56c.19-.1.4.02.43.23l2.5,19.72c.03.33-.09.66-.35.83l-17.24,12.36c-.38.28-.92.03-.97-.43l-2.79-22.01h0ZM491.57,129.56c-.07-.35.14-.69.47-.81l15.99-6.03c.28-.1.59.09.62.38l2.46,21.75c.03.28-.12.57-.38.68l-15.02,6.27c-.16.07-.33-.03-.36-.23l-3.78-22.02v.02ZM507.43,100.43c-.07-.4.17-.78.57-.87l14.54-3.07c.4-.09.78.16.87.57l3.74,17.76c.07.4-.17.78-.57.87l-14.54,3.07c-.4.09-.78-.16-.87-.57l-3.74-17.76ZM508.08,119.26c.09.49-.23.95-.69,1.09l-14.8,4.35c-.69.23-1.42-.24-1.54-.97l-2.3-14.11c-.35-2.15.95-4.23,3.03-4.85l12.6-3.71c.38-.1.78.12.83.5l2.88,17.66v.03ZM503.91,97.22l-15.49,5.82c-.4.16-.85-.09-.94-.5l-2.6-12.91c-.14-.73.26-1.44.94-1.68l13.19-4.99c.36-.12.78.09.9.45l4.4,13c.1.33-.07.69-.38.81h-.02ZM485.33,108.23c.19-.1.43.02.45.23l2.84,17.42c.03.21-.09.42-.26.5l-19.04,9.46c-.19.1-.4-.02-.45-.23l-2.79-17.12c-.07-.4.14-.8.5-.97l18.75-9.31v.02ZM466.89,141.57c.59,4.42,1.75,11.71,3.43,21.89.12.78-.23,1.52-.87,1.94-7.36,4.57-13.86,9.08-19.48,13.5-.16.12-.31.14-.47.09-.14-.09-.23-.21-.24-.4-.4-7.12-1.32-14.97-2.76-23.53-.12-.78.23-1.52.87-1.94,8.75-5.46,14.97-9.41,18.7-11.89.16-.1.35-.12.5-.07.16.09.26.23.28.43l.03-.02ZM429.22,233.55c1.77,5.81,3.1,10.29,3.97,13.5.94,3.48,1.44,5.44,1.49,5.86.16.92-.12,1.85-.8,2.46l-9.96,9.53c-.43.4-1.14.23-1.32-.33-1.77-5.81-3.1-10.29-3.95-13.52-.95-3.47-1.44-5.44-1.51-5.86-.16-.92.14-1.84.8-2.46l9.96-9.53c.43-.4,1.14-.23,1.32.35ZM432.6,230.24s.07-.24.21-.61c.12-.36.21-.55.23-.57,5.49-4.56,11.07-8.98,16.77-13.26.16-.12.35-.14.54-.09.21.09.31.21.35.4,1.49,6.98,2.81,13.98,3.93,21,0,.03-.07.24-.21.61-.12.35-.21.55-.24.57-5.48,4.56-11.06,8.98-16.76,13.26-.16.12-.35.14-.54.09-.21-.09-.33-.23-.36-.4-1.49-6.98-2.79-13.98-3.9-21h-.02ZM479.35,218.25c-.1-1.13-.62-6.81-1.61-17.14-.26-2.63-.4-4.42-.47-5.41-.09-1.16.47-2.29,1.44-2.93l15.6-10.5c.28-.21.68,0,.69.35.1,1.13.66,6.81,1.63,17.14.24,2.6.4,4.42.47,5.41.09,1.16-.47,2.29-1.44,2.93l-15.6,10.5c-.28.19-.69,0-.71-.35ZM495.85,155.43c-.03-.23.09-.43.28-.5l14.26-6.13c.21-.1.43.03.47.26l1.73,18.39c.02.23-.1.43-.31.55l-13.79,8.25c-.31.19-.69-.02-.73-.36l-1.91-20.43v-.02ZM498.31,179l14.09-7c.23-.12.5.03.5.31l.55,25.72c.02.35-.19.68-.49.83l-12.34,6.1c-.28.14-.62-.03-.66-.36l-1.94-25.16c-.02-.19.1-.36.26-.45l.02.02ZM511.55,122.57c-.03-.38.21-.71.57-.78l15.2-2.48c.38-.07.73.21.8.59l3.07,18.89c.07.35-.14.69-.49.78l-15.61,4.63c-.4.12-.81-.16-.88-.59l-2.67-21.02.02-.02ZM530.59,114.66l-4.52-17.62c-.16-.59.26-1.18.88-1.25l13.14-1.01c.73-.07,1.42.4,1.63,1.13l5.49,18.66c.09.31-.14.61-.45.61h-15.47c-.33,0-.61-.23-.69-.54v.02ZM532,118.38h15.42c.88,0,1.61.62,1.73,1.47l2.67,16.31c.07.45-.26.87-.71.94l-15.98,2.03c-.4.03-.78-.23-.83-.62l-3.12-19.15c-.09-.5.31-.95.81-.95v-.02ZM535.24,141.86l17.4-1.32c.23-.02.43.12.49.35l4.4,17.05c.14.55-.24,1.09-.81,1.14l-19.91,1.51c-.5.03-.94-.33-.97-.83l-1.3-17.05c-.03-.43.28-.8.71-.83v-.02ZM535.36,196.29l1.66,25.21c.02.38-.24.73-.62.85l-18.68,4.89c-.35.09-.68-.16-.68-.5l-.21-24.76c0-.33.21-.61.5-.69l17.62-5.29c.19-.03.36.1.38.31l.02-.02ZM536.02,165.71c-.09-1.02.68-1.89,1.68-1.98l20-1.52c.59-.03,1.13.38,1.21.97l4.59,28.25c.09.43-.28.81-.71.78-8.75-.83-16.67-.61-23.78.66-.5.09-.97-.28-1.02-.8l-2.01-26.36h.03ZM560.61,157.79l-4.4-17.07c-.09-.28.14-.57.45-.57l14.45.38c.31,0,.57.21.68.49l7.35,19.88c.09.26-.12.5-.38.47l-17.4-2.91c-.36-.07-.66-.33-.73-.68l-.02.02ZM571.54,137.82l-16.24-1.44c-.28-.02-.5-.23-.55-.5l-2.76-16.91c-.03-.31.21-.55.5-.5l12.22,2.03c.57.1,1.06.49,1.25,1.04l5.87,15.89c.09.21-.09.43-.31.4h.02ZM564.32,117.29l-13.46-1.87c-.26-.03-.47-.23-.55-.49l-5.75-19.49c-.09-.26.14-.54.43-.5l13.31,1.18c.26.02.49.21.57.47l5.94,20.15c.1.31-.16.61-.47.57l-.02-.02ZM557.73,92.98l-11.82-.31c-.9-.02-1.68-.59-2.01-1.44l-4.77-12.88c-.21-.57.21-1.18.81-1.18l13.34-.1c.35,0,.62.23.71.54l4.31,14.61c.12.38-.19.78-.59.78v-.02ZM541.11,90.69c.28.66-.14,1.39-.85,1.42l-14.19,1.09c-.47.03-.92-.26-1.04-.73l-3.6-12.25c-.19-.59.23-1.21.83-1.28l12.1-1.52c.45-.07.87.19,1.06.59l5.7,12.68h0ZM522.02,92.68c.16.57-.21,1.14-.8,1.25l-13.38,2.18c-.49.09-.95-.21-1.09-.69l-3.62-12.25c-.16-.57.21-1.14.8-1.25l13.38-2.18c.49-.09.95.21,1.09.69l3.62,12.25ZM516.09,76.71l-13.45,2.2c-.57.1-1.13-.23-1.32-.78l-3.52-9.53c-.24-.69.12-1.44.81-1.65l12.25-3.6c.49-.14,1.02.1,1.2.59l4.45,12.04c.12.33-.09.66-.43.71v.02ZM498.43,79.91c.09.28-.07.57-.35.66l-12.93,4.05c-.28.09-.57-.07-.66-.35l-3.47-11.07c-.09-.28.07-.57.35-.66l12.93-4.05c.28-.09.57.07.66.35l3.47,11.07ZM482.63,90.53l2.08,12.7c.1.71-.24,1.44-.88,1.78l-18.28,9.96c-.33.19-.73-.02-.78-.38l-1.91-15.02c-.02-.23.09-.45.28-.55l17.42-9.5c.85-.47,1.91.03,2.06,1.01h.02ZM463.81,121.85l2.58,15.91c.03.28-.09.55-.35.69l-19.22,10.5c-.4.23-.92-.03-1.01-.49l-2.58-15.91c-.03-.28.09-.55.35-.69l19.22-10.5c.4-.23.92.03,1.01.49ZM462.13,117.22l-19.01,12.15c-.23.16-.55,0-.57-.28l-1.51-14.49c-.07-.54.19-1.04.62-1.3l17.61-11.28c.1-.09.24-.02.28.12l3.15,13.57c.14.59-.1,1.18-.59,1.51h.02ZM441.59,136.42l1.25,13.69c.1,1.16-.38,2.29-1.3,3.02l-13.88,10.76c-.45.35-1.09.02-1.13-.55l-.16-14.49c-.02-1.56.69-3.1,1.96-4.07l11.66-9.06c.62-.49,1.54-.1,1.61.69l-.02.02ZM428.93,227c-.31.94-.8,1.77-1.47,2.44l-10.83,11.11c-.16.14-.4.09-.47-.14l-5.03-22.2c-.07-.31.02-.61.21-.85l13.05-14.5c.16-.21.49-.12.55.14,2.69,15.94,4.04,23.93,3.99,24.02v-.02ZM413.66,241.55c.07.19,0,.4-.12.55l-8.68,11.09c-.33.43-1.02.28-1.14-.24l-4.7-18.23c-.07-.19,0-.4.12-.55l8.68-11.09c.33-.43,1.02-.28,1.14.24l4.7,18.23ZM408.05,216.77c-2.41,4.54-5.25,9.01-8.53,13.41-.38.5-1.2.36-1.39-.26-1.47-5.06-2.44-10.29-2.88-15.72-.24-2.89-.14-4.71.28-5.53,2.41-4.54,5.25-9.01,8.53-13.41.38-.54,1.2-.36,1.39.24,1.47,5.06,2.43,10.31,2.88,15.73.23,2.89.14,4.71-.28,5.53h0ZM395.69,234.28c.1.57-.02,1.14-.31,1.65l-3.93,6.55c-.38.66-1.39.5-1.56-.23l-2.82-11c-.36-1.44-.35-3,.09-4.44,1.06-3.57,2.63-6.84,4.71-9.79.31-.43.97-.28,1.06.24l2.77,17.02ZM396.19,262.19l-4.4-14.92c-.03-.14-.02-.31.07-.43l5.09-8.53s.12-.03.14.02l4.31,16.83c.24.95.03,1.98-.57,2.76l-3.52,4.51c-.33.4-.97.28-1.13-.23ZM406.31,273.85c-2.2-1.07-4.05-2.08-5.58-3.02-1.44-.87-2.25-1.85-2.44-2.91-.21-.94-.07-1.89.4-2.7l2.55-4.45c.28-.5,1.06-.45,1.27.1l4.54,12.32c.16.45-.31.87-.73.68v-.02ZM410.33,274.36c-3.07-5.87-4.8-10.95-5.22-15.2-.07-.57.1-1.14.43-1.61l7.73-10.97c.23-.33.73-.24.83.12l5.7,19.29c.69,2.41.12,4.99-1.52,6.86l-1.98,2.24c-1.72,1.91-4.8,1.54-5.98-.73h0ZM425.67,279.54c-.26.35-2.58-.16-6.97-1.52-.62-.19-.95-.85-.73-1.47.07-.14.49-.75,1.3-1.84.8-1.06,1.27-1.65,1.39-1.73.54-.38,1.27-.26,1.61.28,2.53,3.83,3.64,5.93,3.4,6.27v.02ZM440.29,281.57c-.19-.45-.23-.75-.14-.94.59-1.04-.66-2.15-1.73-1.54-7.54,4.25-10.61-1.37-13.9-7.31-.68-1.21-.45-2.72.54-3.71l8.99-9.01c.59-.59,1.61-.28,1.78.55,1.42,6.81,5.58,13.78,5.32,21.82-.02.47-.68.59-.85.14h-.02ZM443.66,275.48l-5.6-19.15c-.09-.33.02-.66.26-.87l14.37-12.56c.94-.81,2.41-.28,2.58.94l2.93,18.51c.23,1.28-.31,2.58-1.32,3.36l-12.96,9.88s-.23.03-.26-.09v-.02ZM460.78,281.01l-14.07,1.07c-1.87.14-2.82-2.18-1.42-3.41l12.67-11.11c.62-.57,1.65-.21,1.78.62l1.91,11.71c.09.55-.33,1.06-.88,1.09l.02.02ZM464.69,276.23c-.1.03-.23,0-.24-.12l-2.25-11.45c-.1-.49.1-.97.54-1.25l16.25-9.63c.21-.12.45.02.47.24l.85,12.18c.03.43-.19.85-.57,1.06l-15.04,8.96v.02ZM480.74,274.55c-.09.83-.61,1.54-1.39,1.85-4.51,1.77-8.82,2.91-12.94,3.38-.95.1-1.37-1.18-.5-1.65l14.43-7.88c.36-.19.8.09.75.49l-.35,3.81h0ZM482.02,246.39c-.68-7.02-1.14-12.44-1.37-16.29-.26-4.19-.38-6.53-.33-7.04.02-1.06.57-2.06,1.47-2.6l13.57-8.51c.59-.36,1.35,0,1.42.69.68,7,1.13,12.44,1.37,16.29.26,4.18.36,6.52.33,7.02-.02,1.07-.59,2.08-1.49,2.63l-13.57,8.51c-.59.36-1.35-.02-1.4-.69v-.02ZM482.59,264.71l.5-12.32c.07-1.47.85-2.82,2.11-3.6l11.87-7.21c.61-.38,1.42.07,1.42.78l.26,12.46c.03,1.3-.66,2.5-1.77,3.14l-13.33,7.42c-.5.28-1.13-.09-1.07-.66h0ZM498.99,266.33c-.02.75-.43,1.44-1.09,1.78l-11.89,6.5c-.73.4-1.63-.07-1.73-.9l-.5-3.95c-.1-.88.33-1.72,1.07-2.13l13.33-7.26c.45-.24.97.09.95.59l-.14,5.37ZM513.46,256.79l-9.11,8.02c-.75.68-1.98.23-2.1-.8l-.5-4.05c-.12-.92.36-1.78,1.2-2.18,2.69-1.28,6-2.08,9.93-2.41.78-.07,1.18.9.59,1.4v.02ZM513.2,249.79c-.03,1.28-.92,2.41-2.13,2.77l-7.69,2.25c-.81.24-1.65-.36-1.68-1.21l-.38-14.63s.03-.12.1-.16l12.37-6.64s.03.02.03.03l-.61,17.59-.02-.02ZM514.03,228.31c0,.4-.23.8-.59.97l-11.47,6.27c-.12.07-.26-.02-.26-.16l-1.91-24.95c-.09-1.06.5-2.03,1.47-2.46l10.87-4.89c.9-.4,1.91.24,1.91,1.21v24h-.02ZM515.54,166.94l-1.4-18.3c-.02-.24.14-.47.36-.55l14.69-5.44c1.21-.45,2.53.38,2.62,1.66l1.18,15.54c.07.85-.45,1.65-1.27,1.96l-15.35,5.65c-.38.14-.83-.12-.85-.55l.02.03ZM516.3,170.19l15.98-4.7c.47-.14.94.19.97.68l1.98,25.94c.03.61-.35,1.16-.94,1.32l-16.93,4.35c-.33.09-.62-.16-.66-.49l-.71-26.69c0-.21.12-.36.31-.43v.02ZM531.32,244.17c-3.47,2.41-10.41,5.6-13.26,10.19-.49.8-1.72.45-1.68-.49l.57-21.94c.02-1.09.78-2.03,1.85-2.32l16.32-4.21c.87-.23,1.75.28,2.01,1.14,2.25,7.47.33,13.34-5.82,17.62h0ZM546.83,226.48c-.9.81-1.77,1.73-2.58,2.7s-1.54,1.98-2.2,3.03c-.35.55-1.18.43-1.37-.21-.61-1.94-.94-4-.97-6.22,0-.16.02-.26.09-.33.03-.07.14-.12.31-.14,2.18-.35,4.3-.4,6.31-.16.66.09.92.88.43,1.32h-.02ZM564.78,198.46l-13.53,22.65c-.55.92-1.54,1.47-2.63,1.44l-7.12-.19c-.8-.02-1.44-.62-1.51-1.42l-1.78-23.5c-.07-.71.45-1.37,1.16-1.49,7.56-1.39,15.47-1.66,23.76-.83,1.61.16,2.5,1.96,1.66,3.34h0ZM581.3,166.4l-11.35,26.5c-.62,1.47-2.77,1.2-3.03-.36l-4.82-29.56c-.09-.45.28-.85.73-.83,6.9.12,12.86,1.09,17.88,2.91.55.21.81.81.59,1.37v-.02ZM587.78,145.59l-3.88,14.83c-.21.8-1.3.85-1.59.09l-6.76-18.32c-.21-.57.31-1.14.9-1.01l10.36,2.72c.73.19,1.16.94.97,1.66v.02ZM590.19,129.51l-1.21,10.73c-.09.68-.71,1.09-1.37.94l-11.94-3.14c-.38-.1-.71-.38-.85-.78l-6-16.22c-.09-.21.12-.4.35-.35l19.63,6.6c.94.31,1.51,1.25,1.4,2.22h-.02ZM588.02,104.15l2.44,19.23c.02.1-.1.21-.21.16l-21.61-6.26c-.33-.1-.59-.36-.69-.71l-5.74-19.46c-.03-.14.09-.26.23-.23l24.97,6.55c.33.09.57.36.61.69v.02ZM577.57,81.37c3.74,5.51,6.69,11.07,8.84,16.65.35.9-.47,1.82-1.4,1.56l-22.48-5.87c-.69-.19-1.21-.69-1.42-1.39l-4.19-14.21c-.24-.81.4-1.61,1.25-1.52l13.29,1.18c2.48.23,4.71,1.54,6.13,3.6h-.02ZM553.09,59.39l18.23,13.79c.49.36.23,1.14-.38,1.14l-13.5-.03c-.88-.02-1.65-.61-1.87-1.47l-3.6-12.68c-.19-.66.59-1.18,1.13-.75ZM548.95,61.68l3.4,10.71c.28.92-.4,1.85-1.37,1.85h-12.22c-.28.02-.55-.14-.66-.38l-6-12.96c-.23-.5.14-1.07.71-1.07h13.53c1.18-.02,2.22.75,2.58,1.87l.02-.02ZM530.2,53.83c.03-.26.26-.47.54-.43h.31c7.02.73,12.63,1.96,12.56,2.77v.28c-.1.81-5.86.92-12.86.21h-.31c-.28-.03-.47-.28-.45-.55l.23-2.29-.02.02ZM528.74,61.32c.21.12.31.19.33.21,2.01,3.88,3.73,7.92,5.15,12.06.1.28.21.19-.07.61-.26.43-.21.28-.5.35-4.33.75-8.68,1.18-13.07,1.26-.02,0-.12-.07-.33-.19-.21-.1-.31-.19-.31-.19-2.01-3.88-3.74-7.92-5.16-12.1-.1-.28-.19-.16.09-.61.24-.43.19-.28.49-.35,4.33-.73,8.68-1.16,13.07-1.26.02,0,.12.07.33.19v.02ZM509.54,53.52c3-.38,7.47-.62,13.43-.78,3-.07,4.56,1.16,4.66,3.71.03.75-.5,1.4-1.27,1.51l-13.05,1.66c-.49.07-.97-.19-1.21-.62l-2.77-5.06c-.09-.19.02-.38.21-.4v-.02ZM493.68,57.87l11.66-3c.85-.23,1.75.16,2.18.94l2.08,3.78c.31.59.02,1.3-.61,1.49l-11.97,3.52c-.35.1-.71-.07-.88-.36l-2.91-5.34c-.23-.4,0-.92.45-1.04v.02ZM481.92,62.48l5.48-1.84c2.2-.71,4.52.31,5.16,2.29l.4,1.2c.23.73-.16,1.51-.9,1.75l-10.81,3.59c-.73.24-1.51-.16-1.75-.88l-.4-1.2c-.66-1.99.61-4.19,2.81-4.9h.02ZM478.57,75.34l2.32,9.01c.21.78-.14,1.61-.85,1.99l-17.35,9.44c-.49.28-1.13,0-1.27-.55l-2.7-10.48c-.19-.78.19-1.56.9-1.94l16.93-8.4c.81-.4,1.78.03,2.01.92v.02ZM474.95,66.57l.31-.19c.24-.12.54-.03.68.19l1.51,2.67c.14.23.07.54-.19.66l-.33.19c-10.81,6.15-20,10.35-20.55,9.37-.55-.97,7.78-6.74,18.58-12.88v-.02ZM439.81,95.47l15.84-10.66c.1-.07.24-.02.26.1l3.17,12.34c.14.54-.07,1.07-.5,1.39l-17.1,11.51c-.21.14-.5.02-.54-.24l-1.68-13.2c-.07-.47.14-.94.55-1.2v-.03ZM438.63,117.95l1.72,11.78c.19,1.21-.33,2.46-1.32,3.17l-11.78,8.61c-.45.33-1.06.03-1.09-.49l-.97-11.75c-.1-1.4.49-2.79,1.61-3.69l10.4-8.25c.55-.43,1.37-.1,1.47.59l-.03.02ZM424.3,113.58c.02-1.13.43-2.18,1.16-3.02l9.55-10.83c.55-.61,1.54-.31,1.65.5l1.32,10.43c.1.8-.21,1.59-.8,2.11l-11.45,10.05c-.61.55-1.56.1-1.56-.71l.14-8.56v.02ZM424.09,173.21l.69,25.3c0,.31-.12.59-.33.8l-12.94,12.96c-.14.14-.36.03-.38-.14l-2.65-20.79c-.16-1.2.23-2.43,1.02-3.31l13.43-15.21c.4-.45,1.14-.19,1.16.43v-.03ZM423.83,151.64l-.23,14.31c-.02,1.01-.38,1.98-1.06,2.72l-13,14.73c-.23.26-.62.1-.66-.24l-.47-17.66c-.03-1.32.5-2.58,1.49-3.43l12.58-11.04c.54-.47,1.35-.09,1.35.61h-.02ZM422.53,130.74l.85,11.3c.14,1.72-.47,3.4-1.68,4.63l-12.84,12.82c-.33.33-.87.1-.87-.36l.23-14.12c.02-1.09.47-2.13,1.25-2.91l11.8-11.82c.45-.45,1.25-.16,1.28.49l-.02-.02ZM406.21,137.51l12.7-21.26c.5-.85,1.82-.59,1.98.38l1.16,7.1c.21,1.26-.24,2.53-1.2,3.36l-13.2,11.59c-.35.31-.85.31-1.21.02-.35-.31-.45-.81-.21-1.2h-.02ZM405.86,168.88l.43,19.56c.02.71-.35,1.37-.94,1.75-3.81,2.44-5.82,6.9-10.19,14.23-.36.59-1.28.4-1.37-.28l-1.89-15.01c-.1-.73.09-1.49.49-2.11l12.41-18.44c.33-.47,1.04-.26,1.06.31v-.02ZM395,154.46l8.61-12.15c.09-.1.23-.12.33-.07l.07.03c1.06.75.02,4.04-2.32,7.33l-.4.59c-2.34,3.29-5.09,5.35-6.15,4.63l-.07-.07c-.1-.07-.12-.21-.07-.31v.02ZM392.8,164.65c.1-1.26.61-2.44,1.44-3.38l9.48-10.74c.47-.54,1.35-.21,1.35.5l.09,10.28c0,.62-.19,1.25-.54,1.75l-13.05,20.08c-.12.21-.45.1-.43-.14l1.65-18.35h.02ZM389.68,193.59l2.22,17.54c.02.21,0,.4-.1.59l-5.58,10.19c-.19.33-.68.28-.8-.07-2.76-7.43-3.14-14.97-1.13-22.61.38-1.44,1.66-3.48,3.88-6.08.47-.57,1.39-.31,1.49.43l.02.02ZM379.92,196.92l7.24-27.66c.12-.49.59-.8,1.09-.73.5.07.87.49.87,1.01v16.55c0,.92-.31,1.84-.9,2.56l-7.02,8.94c-.49.62-1.51.12-1.3-.66l.02-.02ZM378.67,202.74c.26-.45.94-.31.97.21.23,2.25-.23,3.64-1.35,4.16-.47.23-.97-.16-.92-.68.14-1.26.57-2.48,1.28-3.69h.02ZM378.34,237.15c-1.82-7.47-2.11-15.84-.87-25.13.14-1.09,1.68-1.21,1.99-.16l3.52,11.94c.43,1.47.36,3.03-.21,4.44l-3.6,8.98c-.16.4-.73.35-.83-.07ZM383.77,234.69c.4-.61,1.35-.47,1.54.24l3.03,10.28c.23.75.14,1.56-.24,2.25l-2.58,4.71c-.28.5-1.01.54-1.3.03-4.04-6.13-4.18-11.99-.45-17.54v.02Z"/>
  <path class="st0" d="M370.15,306.71c11.13-12.84,16.43-19.51,15.87-19.98-.57-.47-6.15,5.96-16.72,19.29-.28.35-.28.66-.02.88.28.23.57.16.87-.19h0Z"/>
  <path class="st0" d="M366.65,311.18c1.25-.12,1.96-.85,2.1-2.22.03-.36-.35-.66-.69-.5-.55.23-1.2.78-1.96,1.65-.38.45-.03,1.14.55,1.07Z"/>
  <path class="st0" d="M362.99,316.52c.42.26,1.21-.31,1.8-1.28.57-.97.71-1.94.31-2.2-.42-.26-1.21.31-1.8,1.28-.57.97-.71,1.94-.31,2.2Z"/>
  <path class="st0" d="M359.37,321.7c1.82-1.84,3-3.62,2.63-3.99-.36-.36-2.13.83-3.95,2.67s-3,3.62-2.63,3.99c.36.36,2.13-.83,3.95-2.67Z"/>
  <path class="st0" d="M351.88,330.12s.57-.62,1.59-1.84c1.04-1.2,1.54-1.82,1.56-1.85.16-.49-.28-.97-.78-.81-.8.24-1.52.73-2.15,1.49-.66.75-1.02,1.54-1.14,2.37-.09.5.47.87.92.62v.02Z"/>
  <path class="st0" d="M344.47,339.37l.45.1c.4.09.8-.19.85-.59.26-2.18,1.16-3.36,2.7-3.59.75-.1,1.35-.71,1.4-1.47.03-.73-.45-1.39-1.18-1.52-.83-.16-1.54.31-2.15,1.42-1.07,1.87-1.84,3.64-2.29,5.32-.03.14.03.28.21.33Z"/>
  <rect class="st0" x="331.13" y="345.11" width="14.94" height="1.75" rx=".33" ry=".33" transform="translate(-143.45 390.55) rotate(-50.9)"/>
  <path class="st0" d="M332.23,355.37c.49-.66.5-1.16.03-1.52-.47-.38-.97-.28-1.51.31-5.56,6.26-7.94,9.67-7.19,10.29.75.61,3.64-2.43,8.65-9.08h.02Z"/>
  <path class="st0" d="M321.26,367.72c.62.02,1.06-.14,1.25-.54.23-.45-.16-.97-.68-.94-.55.03-.9.19-1.06.4-.31.43-.03,1.04.49,1.06v.02Z"/>
  <path class="st0" d="M317.43,373.18c1.42-.73,2.25-1.4,2.53-1.99.24-.54-.16-1.13-.75-1.07-1.73.1-2.56.97-2.55,2.6,0,.38.43.62.78.47h-.02Z"/>
  <path class="st0" d="M310.71,381.85l5.68-6.55c.16-.21.14-.5-.07-.69l-.33-.28c-.36-.33-.94-.21-1.14.23-.8,1.63-2.13,3.26-4.09,4.89-.5.45-.78,1.16-.8,2.11-.02.4.47.59.73.31l.02-.02Z"/>
  <path class="st0" d="M306.69,387.64c1.49-1.32,2.41-2.36,2.72-3.14.26-.66-.38-1.28-1.02-1.01-1.28.59-2.1,1.84-2.41,3.74-.07.38.4.66.69.38l.02.02Z"/>
  <path class="st0" d="M300.14,396.37c.19-.24.38-.78.62-1.56.16-.55-.55-.94-.92-.49-.14.19-.26.78-.38,1.78-.03.38.45.59.68.26Z"/>
</svg>