<?xml version="1.0" encoding="UTF-8"?>
<svg id="Layer_1" data-name="Layer 1" xmlns="http://www.w3.org/2000/svg" viewBox="0 0 65.27 84.11">
  <defs>
    <style>
      .cls-1 {
        fill: #32a9d9;
        fill-rule: evenodd;
      }
    </style>
  </defs>
  <path class="cls-1" d="M18.54,64.16c0-.08-.03-.16.05-.23.11-.03.19.03.27.07,1.16.67,2.35,1.31,3.46,2.03,1.82,1.19,3.12,2.65,3.88,4.4.19.43.4.87.57,1.3.67,1.74,1.73,3.32,3.07,4.81,1.59,1.77,3.35,3.45,4.92,5.28.15-.18.04-.29,0-.41-.6-1.56-1.48-3.02-2.74-4.33-.56-.58-1.09-1.17-1.61-1.76-1.38-1.56-2.46-3.24-3.16-5.05-.98-2.55-2.65-4.78-4.93-6.78-1.69-1.48-2.96-3.17-3.67-5.09-.73-1.95-.82-3.92-.49-5.93.29-1.75,1.01-3.42,1.53-5.12.21-.68.39-1.36.43-2.06.02-.28.05-.56.31-.78-.59-1.14-1.27-2.25-1.6-3.44-.25-.91-.77-1.63-1.72-2.24-1.34-.85-2.23-1.98-2.88-3.22-.09-.17-.1-.39-.36-.49l.03.03c.02-.08.04-.15.06-.27,1.14.66,2.31,1.24,3.62,1.69.02-.11.05-.19.04-.26-.19-2.22.29-4.37.97-6.52.56-1.76.74-3.54.3-5.34,0-.04.02-.08.04-.15.42.79.59,1.58.69,2.39.18,1.46.05,2.92-.24,4.36-.45,2.22-.05,4.37.78,6.53,3.63,1.32,6.76,3.09,8.55,6.06.75-1.09,1.26-2.16,1.51-3.3.21-.95.04-1.87-.16-2.8-.08-.38-.36-.7-.61-1.03-.72-.95-1.4-1.91-1.8-2.97-.46-1.2-.59-2.42-.47-3.67.11-1.07.35-2.14.41-3.22.05-1.05-.13-2.07-.55-3.07-.38-.91-.64-1.84-.85-2.92,2.38,2,5.01,3.66,6.49,6.07.27-.09.3-.26.38-.39.71-1.07,1.55-2.07,2.34-3.11,1.04-1.36,2-2.75,2.51-4.29.43-1.29.44-2.61.5-3.92.04-.88.02-1.76.19-2.63.29-1.46.98-2.8,2.09-4.03.15.18-.03.29-.1.4-.92,1.64-1.03,3.32-.35,5.03.34.86.71,1.71.85,2.61.24,1.53-.14,2.98-.87,4.39-.55,1.06-1.25,2.06-1.89,3.08-1.4,2.25-2.18,4.64-2.57,7.11-.38,2.44-.2,4.86.36,7.27.04.15.06.32.2.45.06-.04.14-.07.17-.12.94-1.2,1.94-2.36,2.81-3.59,1.43-2.03,1.88-4.2,1.69-6.48-.08-.96-.21-1.91-.5-2.84-.02-.05.01-.11.03-.25.66,1.29,1.15,2.55,1.48,3.84.39,1.54.53,3.08.31,4.65-.26,1.85-1.01,3.58-2.12,5.22-.8,1.19-1.72,2.32-2.6,3.49.25.77.51,1.54.73,2.31.86,3.01.68,5.95-.96,8.79-.15.25-.32.5-.5.79.16.22.35.46.53.7,1.61,2.13,1.92,4.35.76,6.67-.31.61-.51,1.24-.45,1.92.08-.04.14-.05.16-.08.72-1.45,1.53-2.88,1.9-4.42.29-1.21.31-2.42.14-3.64-.21-1.45-.37-2.9-.13-4.36.31-1.84,1.3-3.43,2.74-4.88.86-.87,1.88-1.64,2.83-2.47.11.11.05.21.07.31l.02-.03c-.23.19-.36.41-.33.67-.05.17-.18.34-.15.52-.17.01-.26.08-.35.2-.75,1.12-1.46,2.24-1.73,3.5-.23,1.11-.06,2.19.27,3.26.26.81.55,1.62.75,2.44.26,1.11.27,2.22,0,3.34.14.03.16-.06.21-.11.07-.06.12-.13.17-.2.65-.74,1.28-1.5,1.96-2.23,1.59-1.72,2.29-3.64,2.23-5.74-.02-.88-.01-1.76.06-2.64.13-1.67.7-3.22,2.1-4.55.78-.74,1.72-1.32,2.73-1.85,1.36-.7,2.82-1.26,4.3-1.79,2.59-.93,4.33-2.49,5.55-4.43.56-.89.88-1.83.85-2.83-.03-.77-.32-1.48-.74-2.18.23-.03.29.1.37.18,2.09,1.96,2.03,4.56-.15,6.52-.92.83-2.04,1.47-3.24,2.03-1,.47-1.94.99-2.81,1.59-1.66,1.14-2.96,2.46-3.47,4.16-.39,1.3-.3,2.62-.14,3.93.16,1.27.4,2.54.39,3.82-.02,2.17-.91,4.06-2.81,5.68-.86.73-1.79,1.38-2.71,2.06-.82.61-1.62,1.23-2.27,1.97-1.02,1.15-1.29,2.41-.99,3.77.16.71.36,1.41.4,2.13.1,1.73-.44,3.36-1.2,4.97-.68,1.43-1.63,2.76-2.34,4.17-.56,1.11-1.12,2.23-1.87,3.28-.02.03,0,.07.02.16.78-.72,1.48-1.45,2.15-2.19.85-.93,1.6-1.92,2.27-2.93,1.21-1.81,2.97-3.2,5.22-4.24.74-.34,1.46-.72,2.27-1.13-.13.56-.28,1.04-.63,1.47-.85,1.05-1.35,2.19-1.7,3.39-.4,1.35-1.13,2.56-2.42,3.55-.82.63-1.76,1.12-2.83,1.44-.46.14-.92.28-1.38.39-1.52.36-2.71,1.07-3.67,2.02-.65.64-1.31,1.29-1.92,1.96-.26.28-.55.38-.99.34-.51-.05-1.03-.05-1.53-.08-.05-.04-.11-.06-.13-.09-1.14-2.13-3.13-3.63-5.74-4.69-.78-.31-1.57-.62-2.37-.9-2.75-.98-4.44-2.63-5.16-4.87-.38-1.18-.71-2.37-1.07-3.55-.23-.74-.55-1.46-.98-2.14-.32-.51-.39-1.07-.59-1.6-.21-.55-.28-1.13-.65-1.64.04-.14-.05-.26-.12-.38ZM33.48,51.08c-.29.46-.17.98-.4,1.52-.43-1.06-.62-2.08-.77-3.11-.16-1.03-.06-2.07-.15-3.1-.73.99-1.32,2-1.72,3.08-.1.27-.2.55-.21.82,0,1.76-.3,3.51-.04,5.27.24,1.62,1.02,3.11,1.97,4.68.29-1.57.95-2.92,1.89-4.16-.45-1.13-.74-2.24-.75-3.39,0-.54.23-1.07.15-1.61.3-.21.02-.6.4-.79.79,1.68,1.46,2.64,2.16,3.05.43-1.04.8-2.06.62-3.17-.21-1.32-.65-2.58-1.24-3.82-.05-.11-.02-.3-.3-.33-.29.37-.43.8-.61,1.21-.53,1.25-.93,2.53-1.02,3.85ZM34.31,78.79c.11-.1.08-.19.06-.26-.28-1.02-.39-2.05-.43-3.09-.05-1.24-.08-2.48-.13-3.71-.01-.38-.02-.76-.1-1.13-.49-2.33-1.58-4.49-2.98-6.57-.24-.35-.54-.62-.98-.83-.93-.44-1.79-.95-2.6-1.51-2.87-1.97-4.05-4.42-3.52-7.36.2-1.09.64-2.14,1.06-3.18.36-.88.7-1.76.82-2.67.4-2.88-1.39-4.96-4.17-6.7.26,1.52.43,3.03.14,4.56-.35-.46-.49-.99-.88-1.48-.03.1-.05.12-.04.13.04.11.08.23.14.34,1.14,2.05,1.18,4.18.82,6.35-.22,1.33-.45,2.65-.37,4,.1,1.5.66,2.86,1.79,4.08.6.65,1.3,1.24,2.01,1.83.76.63,1.53,1.25,2.27,1.89,3.1,2.66,4.76,5.8,5.16,9.36.13,1.15.25,2.31.61,3.44.28.89.67,1.74,1.31,2.54ZM40.98,63.98c-.8,1.16-1.48,2.34-1.77,3.63-.08.36-.02.71.15,1.06.25.5.48,1.01.7,1.52.53,1.21.7,2.44.44,3.72-.27,1.35-.78,2.64-1.38,3.92-.44.94-.93,1.86-1.37,2.8-.23.5-.42,1.01-.39,1.57.18-.03.24-.12.3-.21,1.1-1.33,2.15-2.68,3.06-4.09,2.21-3.43,2.61-6.97,1.19-10.64-.41-1.07-.88-2.13-.94-3.27ZM35.02,70.14c.41-.59.65-1.21.77-1.86.01-.06,0-.12-.02-.18-.23-.84-.3-1.7-.37-2.55-.09-1.08-.11-2.16.22-3.22.54-1.71-.11-3.26-.95-4.81-.08.05-.13.07-.15.1-.05.07-.1.14-.14.21-.56.91-.87,1.87-.99,2.87-.11.93-.04,1.82.45,2.69.84,1.5,1.25,3.07,1.2,4.72-.02.67,0,1.35,0,2.03ZM36.6,80.45c.2-.94.42-1.84.71-2.73.35-1.07.48-2.15.21-3.26-.24-1.02-.56-2.02-.84-3.04-.02-.07-.07-.15-.23-.12-.14.31-.29.63-.41.95-.41,1.1-.72,2.2-.42,3.36.23.92.37,1.85.55,2.78.14.69.28,1.37.42,2.06ZM35.13,76.6c-.01,1.21.3,2.84.67,3.48-.14-1.17-.33-2.34-.67-3.48Z"/>
  <path class="cls-1" d="M18.54,64.16c.07.12.16.24.12.38.17.68.35,1.37.52,2.05.02.07.09.15-.03.24-.81-.38-1.55-.86-2.28-1.33-2.34-1.53-4.26-3.32-5.43-5.53-.64-1.21-.95-2.48-1.02-3.79-.08-1.5.16-2.99.4-4.47.24-1.45.34-2.9-.14-4.34-.63-1.93-2.16-3.38-4.15-4.57-.98-.59-2.01-1.13-2.99-1.72-.84-.5-1.6-1.08-2.22-1.75-1.18-1.29-1.61-2.7-1.16-4.26.04-.12.08-.23.25-.34-.05.74.02,1.44.27,2.13.35.98,1.01,1.83,1.89,2.58,1.24,1.06,2.73,1.89,4.28,2.66,1.18.58,2.37,1.14,3.46,1.82,3.37,2.11,5.24,4.84,5.6,8.17.13,1.22-.06,2.43-.26,3.64-.11.63-.21,1.27-.26,1.9-.12,1.81.59,3.42,1.91,4.89.46.51.91,1.01,1.17,1.6,0,.01.04.02.07.03Z"/>
  <path class="cls-1" d="M26.46,22.83c-2.13-1.68-4.06-3.31-5.1-5.44-.67-1.38-.75-2.8-.42-4.24.32-1.41.78-2.8,1.06-4.23.46-2.35-.16-4.52-1.83-6.51-.7-.84-1.54-1.6-2.41-2.33.08-.11.18-.09.26-.04,3.21,1.57,5.87,3.53,7.55,6.2,1.21,1.93,1.49,3.96,1.12,6.07-.21,1.17-.62,2.3-.87,3.46-.33,1.52-.24,3.02.1,4.52.18.8.34,1.6.54,2.53Z"/>
  <path class="cls-1" d="M13.86,35.12c.11.64.58,1.19.92,1.89-.31-.18-.53-.29-.73-.42-2.25-1.46-3.93-3.21-4.74-5.42-.67-1.82-.5-3.63.11-5.43.39-1.14.84-2.26,1.1-3.42.31-1.4.32-2.78-.24-4.14-.47-1.14-1.34-2.11-2.33-3.01-.18-.17-.37-.33-.63-.55.3.03.42.16.56.25,1.46.94,2.8,1.95,3.89,3.16,1.28,1.43,2.08,2.98,2.19,4.73.07,1.11-.17,2.19-.48,3.26-.26.89-.55,1.78-.74,2.69-.41,1.85-.19,3.66.6,5.42.16.35.26.72.55,1.03l-.03-.03Z"/>
  <path class="cls-1" d="M44.98,45.42c-.03-.19.1-.35.15-.52.2-.2.31-.42.33-.67l-.02.03c.66-1,1.05-2.07,1.26-3.17.44-2.32,0-4.57-.84-6.79-.45-1.21-.88-2.42-1.11-3.66-.49-2.69.03-5.21,2.1-7.46.12-.13.24-.26.37-.38.04-.04.12-.07.19-.11.11.21-.09.35-.18.5-.83,1.51-1.24,3.08-1.01,4.73.17,1.2.65,2.34,1.3,3.43.54.91,1.13,1.79,1.6,2.72.58,1.16.95,2.36,1.01,3.61.12,2.33-.92,4.34-2.87,6.09-.61.55-1.26,1.06-1.95,1.54-.09.06-.17.16-.32.14Z"/>
  <path class="cls-1" d="M58.14,55.21c-.32.38-.65.76-.95,1.15-1.04,1.38-1.28,2.84-.78,4.39.25.75.54,1.5.73,2.26.54,2.17-.12,4.07-2.05,5.71-.8.68-1.7,1.28-2.75,1.86.08-.54.32-.98.53-1.43.33-.73.69-1.46.86-2.23.2-.92.16-1.83.05-2.75-.08-.7-.19-1.39-.24-2.09-.14-2.22.93-4.09,2.82-5.72.52-.44,1.08-.86,1.77-1.16Z"/>
</svg>