<?xml version="1.0" encoding="UTF-8"?>
<svg id="Warstwa_1" xmlns="http://www.w3.org/2000/svg" version="1.1" viewBox="0 0 5022.02 1522.04">
  <!-- Generator: Adobe Illustrator 30.2.1, SVG Export Plug-In . SVG Version: 2.1.1 Build 1)  -->
  <defs>
    <style>
      .st0 {
        fill: #f0a200;
        fill-rule: evenodd;
      }
    </style>
  </defs>
  <g>
    <path class="st0" d="M4575.67,1233.08c40.62,7.34,79.84,19.43,118.66,33.06,69.08,24.33,137.82,49.71,203.64,82.25,11.82,5.83,23.42,12.12,33.3,21.11,13.66,12.51,13.3,35.45-9.09,42.22-15.84,4.82-31.97,7.13-48.14,8.75-61,6.1-122.15,8.93-183.39,10.06-66.52,1.25-133.06,2.31-199.54,4.31-87.62,2.67-175.16,6.65-262.87,5.46-56-.76-111.72-5.98-167.47-10.83-36.78-3.2-73.48-6.86-110.44-8.6-97.32-4.58-194.18,3.38-291.02,10.74-68.59,5.18-137.04,7.62-205.44-1.44-31.44-4.12-62.46-10.3-91.22-24.58-5.91-2.96-11.89-3.75-18.33-3.69-25.34.3-50.63-1.04-75.91-3.17-70.64-5.92-123.74-38.58-156.98-101.99-9.85-18.72-18.66-37.91-25.43-57.86-28.57-84.69-71.27-161.98-121.23-235.66-19.19-28.3-39.59-55.94-53.43-88.08-19.99-.18-28.62-13.45-34.22-29.89-1.53-4.49-2.24-9.22-3.81-13.66-3.94-11.63-1.62-24.07-4.12-35.75-33.18-14.67-67.32-13.6-101.65-9.13-13,1.65-25.45,4.64-36.6,13.24-12.03,9.25-29.34,7.6-41.39-1.74-13.36-10.43-15.14-24.8-12.12-40.07,2.9-14.34,15.07-25.04,29.68-26.97,7.42-1,14.85-.91,21.86,2.03,5.15,2.19,10.38,2.16,15.56,1.09,44.44-8.97,88.89-17.91,132.06-32,8.51-2.78,17.14-6,23.75-12.3,17.87-17.07,33.94-36.02,52.92-50.8-31.23-134.87-139.13-336.29-266.01-443.02-4.94-.74-10.21-1.18-15.31-2.3-30.63-7.09-42.88-40.93-23.54-65.76,12.47-16.02,29.53-21.87,49.3-17.79,18.15,3.78,25.51,17.13,27.67,34.25.77,6.12,3.94,10.71,8.57,14.66,6.04,5.14,11.68,10.65,17.66,15.87,35.25,31.08,69.45,63.3,101.34,97.93,65.58,71.4,121.7,149.82,172.44,232.27,12.15,19.79,24.49,39.44,37.04,58.98,7.34,11.45,18,18.48,32.08,21.79,5.49-20.16,7.99-40.04,9.79-59.87,6.07-66.82,9.19-133.65,4.73-200.84-4.19-62.78-12.42-124.81-26.32-186.13-1.86-7.98-5.06-14.23-11.77-19.67-17.45-14.04-22.08-35.25-12.96-53.91,8.72-17.92,31.54-27.82,52.58-22.79,24.37,5.83,37.47,26.5,30.01,50.23-3.35,10.74-2.75,20.2.48,30.48,31.2,98.26,52.16,198.74,64.69,301,7.48,60.77,12.3,121.77,16.41,182.86,1.19,17.81,5.56,33.57,17.01,48.08,27.3,34.63,58.81,64.88,92.47,93.06,19.46,16.26,40.15,30.69,63.18,43.87,13.66-17.08,32.53-24.25,52.66-26.84,6.62-23.89,12.42-46.28,19.07-68.43,28.36-94.24,72.35-180.13,138.51-253.49,112.27-124.52,253.37-187.68,420.31-194.33,56.21-2.22,111.72,3.84,166.47,16.44,124.34,28.66,232.95,85.86,322.18,178.1,49.02,50.76,86.69,108.7,109.71,175.73,3.45,10,7.56,19.63,12.22,29.1,33.83,68.75,44.41,140.3,24.22,215.05-3.02,11.11-3.67,21.53-1.77,32.55,5.03,28.85,5.12,57.98,1.71,86.82-9.07,77.2-36.54,146.98-88.24,207.08,2.18,1.68,2.93,2.72,3.82,2.87ZM2789.57,797.06c29.28-1.48,57.95,1.04,85.71,12.42,8.14-8.33,9.76-21.71,21.14-26.56,4.97,2.63,3.62,6.68,3.38,10.06-.74,11.07-1.75,22.13-2.81,33.15-2.13,21.8-.57,42.94,10.09,63.78,11.29-4.58,21.17-10.53,32.79-10.44,1.86-9.97-2.45-19.05,1.41-27.94,7.34,1.01,10.36,7.03,13.84,12,8.17,11.65,15.8,23.69,23.9,35.43,11.11,16.23,23.92,30.9,40.24,42.14,20.85,14.43,43.15,21.94,68.64,14.55,2.87-.85,6.11-2.13,10.21.65-3.26,15.22-16.74,19.27-28.54,25.31.61,4.64,4.55,6.77,7.39,9.52,45.44,44.68,78.92,97.31,104.05,155.6,14.82,34.39,29.25,68.98,48.35,101.28,24.95,42.29,55.56,79.54,96.82,107.21,39.35,26.44,83.05,40.62,129.71,46.78,68.99,9.17,138.05,5.55,207.12,1.06,39.5-2.58,79.03-4.96,118.49-7.89,54.83-4.04,109.73-4.25,164.65-3.08,48.05,1,95.92,6.04,143.65,10.82,70.49,6.94,141.09,10.47,211.91,9.34,94.51-1.53,188.91-6.11,283.39-9.25,43.26-1.48,86.57-2.98,129.84-3.87,47.52-.97,95.03-3.51,142.4-7.19,13.99-1.1,28.32-2.01,42.34-6.16-2.51-5.43-7.37-6.5-11.36-8.36-100.21-46.33-202.93-85.71-309.89-113.58-6.12-1.59-12.28-2.95-18.48-4.2-4.64-.92-9.32-1.5-14.2-2.33-66.92,59.14-144.76,89.89-234.39,86.54-89-3.35-164.11-39.23-226.7-102.69-62.3,10.52-111.86-13.51-154.2-57.55-9.02-9.37-14.4-23.27-27.35-27.76-11.79-4.14-24.73-5.09-37.16-7.34-61.63-11.26-120.59-30.19-175.58-60.67-44.14-24.46-83.91-54.84-121.23-88.53-25.87-23.39-51.18-47.34-76.89-70.85-24.74-22.54-52.24-40.9-82.09-56.09-67.71-34.47-125.51-81.52-174.49-139.47-6.77-8.02-13.07-16.47-18.75-23.71-3.99-1.45-5.91,2.64-9.46-.57-8.69-20.7-11.83-43.67-13.42-66.79-6.59-98.5-16.65-196.6-35.25-293.64-11.23-58.58-26.71-116.09-42.14-173.65-.98-3.54-1.62-7.19-2.75-10.7-3.6-10.86-4.19-21.25.66-32.26,4.25-9.67.77-17-7.62-21.11-8.51-4.12-20.96-.95-25.41,6.5-4.41,7.37-2.19,18.42,6.92,23.18,10.17,5.35,13.58,13.84,16.35,23.69,15.09,54.56,23.95,110.12,29.1,166.45,5.61,61.2,5.21,122.41,1.92,183.6-2.4,44.73-6.41,89.44-18.15,133.02-3.9,14.45-10.09,27.74-19.4,39.47-2.83,3.6-5.15,8.14-11.62,8.4-4.5-13.93,1.44-27.62,1.93-42.02-28.77-7.5-46.52-27.17-61.3-51.47-33.23-54.58-67.47-108.48-105.29-160.03-51.75-70.46-110.08-134.93-174.64-193.88-8.19-7.45-16.24-15.11-24.33-22.7-11.2-10.53-22.3-20.99-23.57-37.91-.5-6.27-4.61-10.65-11.29-11.41-8.98-1.04-15,3.96-19.88,10.61-3.91,5.26-3.6,10.76-.3,16.29,3.07,5.12,8.1,7.27,13.42,6.95,11.15-.73,18.93,5.14,26.77,11.56,39.59,32.15,73.37,69.82,104.03,110.44,63.37,83.94,113.51,175.08,148.28,274.51,3.11,8.96,5.83,18.04,8.66,27.09,2.75,8.95,5.32,17.94,8.08,27.4,12.45-2.75,22.76-10.52,36.26-9.55.62,6.83-3.29,11.08-7.25,14.97-8.6,8.57-17.21,17.17-26.41,25.04-18.48,15.8-37.07,31.49-53.58,49.33-14.88,16.09-33.29,25.48-54.08,31.14-35.07,9.54-70.43,17.89-105.98,25.6-2.45.5-5.39.12-6.2,3.57-7.31-1.42-14.61.03-21.92.17-6.29.15-12.39-.47-18.51-2.66-8.51-2.99-13.51-1.1-16.29,4.43-2.9,5.91-1.07,11.83,5.58,17.56.71.65,1.89.77,4.67,1.89,12.93-10.58,29.53-16.21,46.18-21.8,10.12.92,19.86-2.37,29.89-2.84ZM3950.71,1164.76c31.88,29.54,64.72,50.74,107.75,50.74,1.86-5.37-2.25-7.31-4.08-9.94-39.13-56.48-62.22-119.37-74.84-186.55-11.68-62.62-15.59-125.66-8.98-189.11,7.48-72.07,24.98-141.26,63.19-203.82,45.06-73.84,108.88-122.27,193.88-141.37,66.83-15.05,132.12-8.58,195.96,15.11,35.8,13.3,69.21,31.11,100.09,53.61,2.84,2.06,5.09,5.26,10.41,5.32-.65-6.35-5.32-9.94-8.67-14.04-82.37-101.19-187.77-166.54-312.98-201.28-67.8-18.8-136.9-26.88-206.87-21.56-146.6,11.21-271.77,68.8-372.04,177.56-67.14,72.85-110.62,158.75-138.65,253.11-5.95,20.2-11.92,40.44-17.91,60.96,2.16,3.82,6.59,4.31,10.27,6.04,33.8,15.52,63.6,37.28,92.72,60.14,34.47,27.06,67.29,56.12,102.63,82.11,79.12,58.25,167.19,97.69,260.59,126.32,6.95,2.12,14.45,2.87,22.11,8.54-13.12,1.93-23.96-1.98-34.83-3.9-111.68-20.07-209-70.64-297.31-140.36-34-26.84-66.88-55.05-102.4-79.87-19.04-13.36-38.8-25.67-60.58-34-16.38-6.29-32.79-7.18-47.25,4.17-.88,2.72.32,3.99,1.69,4.55,43.79,18.09,79.01,48.34,112.91,80.27,38.94,36.51,77.98,72.74,121.83,103.46,62.29,43.67,131.16,71.45,205.68,85.83,33.65,6.53,67.38,12.38,100.32,22.11,15.75,4.64,30.78,10.99,44.62,19.88,3.02,1.95,6.19,4.05,8.02,10.96-22.63,1.09-43.61-4.19-67.29-4.97ZM4617.75,987.9c-45.56,56.15-115.86,75.45-183.84,50.62-40.01-14.63-71.88-40.25-95.86-74.78-48.97-70.7-64.29-148.34-41.18-231.77,10.53-38.05,31.45-70.54,64.45-93.31,44.68-30.84,93.43-35.78,143.02-15,60.56,25.37,95.89,72.74,107.99,136.72,4.02,21.2,2.46,43-4.31,64.17-20.31,63.34-85.36,85.09-139.31,46.33-45.47-32.67-55.47-100.59-21.2-143.43,20.38-25.51,55.94-33.77,85.8-19.98,28.83,13.33,44.65,43.97,38.73,75.87-3.13,16.86-12.62,28.95-28.88,34.83-14.55,5.24-28.09,2.51-39.95-7.55-12.63-10.68-16.65-27.73-9.94-41.39,3.72-7.65,9.34-12.39,18.03-12.45,4.02,4.74-.09,8.35-.77,12.13-1.62,8.82,1.56,15.56,8.21,20.87,5.38,4.21,11.59,5.27,17.79,1.92,7.87-4.26,10.77-11.56,9.94-20.01-1.8-18.57-11.98-31.2-29.04-38.15-15.49-6.32-30.58-2.33-43.19,10.65-7.98,8.24-12.13,18.3-14.51,29.34-7.6,35.05,15.61,73.59,50.02,82.79,25.82,6.95,50.44-3.75,62.65-27.8,12.29-24.25,13.12-49.88,6.18-75.55-13.45-49.71-44.18-84.51-92.65-102.54-45.53-16.95-96.31-2.99-127.79,33.92-24.24,28.42-36.08,62.06-38.79,98.47-4.49,61.09,10.43,117.27,47.43,166.74,15.04,20.07,33.7,36.25,55.68,48.58,65.76,36.84,138.68,19.64,180.49-43.31,28.45-42.91,39.71-90.95,34.92-141.73-8.48-89.32-48.1-163.4-116.86-220.73-54.2-45.23-116.85-73.62-187.4-81.7-86.55-9.96-163.04,13.06-226.65,74.05-38.12,36.61-63.01,81.54-79.8,131.22-14.76,43.7-22.8,88.8-26.1,134.74-6.41,89.72,5.64,176.95,38.64,260.7,35.4,89.92,98.61,154.14,190.1,184.77,112.36,37.64,213.76,12.25,299.95-68.59,54.65-51.27,84.09-116.54,96.37-189.95,3.47-20.81,5.42-41.75,3.23-64.14-3.84,4.79-7.72,9.64-11.59,14.43ZM3284.47,1358.35c-42.1-35.07-72.89-78.89-96.64-127.76-15.68-32.23-29.8-65.23-44.85-97.69-25.19-54.28-60.26-101.37-104.14-142.02-10.86-10.08-21.97-19.61-34.34-27.76-18.83-12.39-33.06-29.31-45.72-47.7-5.46-7.87-11.92-13.6-22.29-8.54-1.98,4.64,1.65,7.07,3.36,10,14.05,24.18,30.31,46.96,46.21,69.93,50.35,72.68,93.14,149.29,122.23,233.13,8.43,24.4,19.04,48.01,31.97,70.44,27.73,48.01,70.14,73.09,124.22,79.62,11.41,1.42,22.82,4.38,37.61,2.64-7.12-5.79-12.39-10-17.6-14.31Z"/>
    <path class="st0" d="M3953.73,1355.77c-1.44-5.68-4.43-7.19-8.3-8.17-7.22-1.89-14.52-2.28-21.95-2.6-63.37-2.64-126.49.65-189.71,5.2-65.77,4.78-131.59,9.66-197.62,4.14-51.27-4.25-101.16-14.22-147.88-36.84-1.84-.92-3.76-1.83-5.74-2.63-5.3-2.25-10.61-2.74-13.69,3.17-2.75,5.33-1.16,10.53,3.56,14.01,4.25,3.1,8.93,5.7,13.66,7.98,32.03,15.56,66.12,24.4,101.1,29.99,64.97,10.43,130.39,8.48,195.75,4.38,82.09-5.12,164.02-14.11,246.5-11.47,8.45.27,18.27,2.78,24.31-7.16Z"/>
    <path class="st0" d="M3002.26,781.9c-4.97,6.44-2.83,13.09-1.56,18.89,3.52,16.35-.45,29.12-12.13,41.69-16.44,17.72-10.58,42.67,10.43,52.98,22.06,10.88,50.33-2.48,51.33-26.75.8-19.43,8.4-33,22.15-44.95,3.38-2.93,7.65-5.98,6.86-11.65-13.6-3.2-29.28,3.23-40.13,15-11.26,12.19-8.91,28.79-14.07,42.26q-13.78,5.03-21.26-7.71c1.07-6.66,6.77-10.38,10.47-15.35,10.06-13.81,12.83-28.81,7.53-44.92-3.14-9.67-7.99-18.27-19.61-19.49Z"/>
    <path class="st0" d="M3251.72,1213.92c5.03-5.82,3.26-11.8-.42-17.35-22.94-34.5-37.25-73.19-54.08-110.62-11.26-25.16-24.98-48.81-43.67-69.36-6.38-7.07-13.45-13.42-20.96-19.25-3.23-2.49-6.62-5.06-10.85-3.96-2.08,4.61,1.06,6.59,2.89,8.81,27.48,33.32,46.95,71.18,62.86,111.07,10.35,25.96,20.75,51.89,35.42,75.82,4.11,6.71,8.69,13.21,13.6,19.43,3.72,4.67,8.39,8.2,15.22,5.39Z"/>
    <path class="st0" d="M4215.38,1379.61c-11.83-4.5-24.64-3.81-36.87-5.36-39.13-4.97-77.92-12.35-116.88-18.33-17.17-2.63-34.35-5.33-51.75-5.48-9.13-.09-9.13.12-14.22,8.63,2.51,6.35,8.02,7.57,13.95,8.26,35.04,4.08,70.02,8.39,105.06,12.32,27.79,3.14,55.67,3.79,83.6,3.44,5.76-.06,11.5,0,17.25,0-.06-1.18-.12-2.31-.15-3.47Z"/>
    <path class="st0" d="M3276.48,1234.36c-5.09.72-8.24,3.84-10.22,11.39,13.78,22.42,33.79,40.21,56.72,54.47,11.68-5.58,13.54-10,7.19-17.5-4.78-5.59-10.73-10.12-16.03-15.28-8.3-8.11-16.44-16.38-24.65-24.55-3.72-3.69-6.86-8.24-13.02-8.54Z"/>
    <path class="st0" d="M4062.98,920.58c-9.67-.54-9.88,5.09-10.25,10.43-.89,14.31,1.44,28.47,3.42,42.55,6.98,50.97,20.55,100.08,44.26,146.03,14.88,28.83,33.67,54.78,58.04,76.46,9.54,8.46,20.07,15.32,31.87,20.29,3.5,1.47,6.89,2.86,10.67-.86-.3-7.28-6.12-11.53-10.64-16.29-12.75-13.36-25.19-26.96-36.57-41.57-34.8-44.47-55.29-95.6-69.36-149.59-6.07-23.42-10.8-47.19-15.89-70.88-1.24-5.73-2.77-11.14-5.55-16.56Z"/>
    <path class="st0" d="M4057.71,878.53c6-2.57,7.62-6.92,7.34-11.94-.82-13.81,2.48-28.21-6.32-43.4-11.45,13.57-9.32,28.45-10.06,42.43-.3,5.98.47,11.86,9.04,12.9Z"/>
  </g>
  <g>
    <path class="st0" d="M456.71,1211.3c-18.16-21.14-34.68-42.73-49.27-65.7-45.87-72-73.21-150.6-85.1-235.02-7.27-51.45-9.14-103.05-4.8-154.62,6.92-81.84,26.59-160.67,61.56-235.23,90.09-191.99,237.61-320.76,435.2-393.89,58.11-21.53,118.36-34.41,180.08-40.81,112.13-11.68,221.7-1.13,327.23,39.23,184.8,70.69,313.07,200.83,393.92,379.64,28.45,63.04,46.7,129.31,60.89,196.81,2.61,12.38,5.82,24.62,8.34,37.02,2.75,13.54,9.2,24.52,20.65,32.43,1.66,1.13,3.1,2.64,4.73,3.81,16.59,11.8,26.84,27.27,27.82,49.59,39.04-9.26,77.67-16.26,111.45-38.27,12.63-8.21,19.69-19.95,24.87-33.45,9.69-25.22,14.42-51.57,18.18-78.16,8.04-56.06,11.83-112.72,23.91-168.27,9.7-44.56,22.45-88.2,38.12-130.99,4.59-12.57,7.31-24.58,5.89-38.24-1.8-17.66,4.49-33.18,20.58-42.7,15.68-9.31,31.94-8.99,47.7-.12,24.66,13.87,30.4,47.79,10.18,67.53-10.8,10.55-16.23,22.5-20.23,36.33-24.34,85.09-31.97,171.97-29.15,260.06.45,13.66.72,27.32,3.66,41.45,5.12-1.56,6.09-6.35,8.04-9.82,16.86-30.04,30.82-61.51,45.16-92.78,35.7-77.92,81.75-149.02,139.39-212.49,9.61-10.61,17.24-21.83,21.56-36.01,6.41-21.02,23.25-31.85,42.08-29.92,20.49,2.13,36.73,18.07,40.37,39.6,3.19,18.92-6.68,37.28-25.96,44.91-10.89,4.35-18.75,11.06-25.75,20.1-55.23,71.34-94.59,150.63-120.5,236.85-10.08,33.48-18.22,67.41-23.24,102.01-1.39,9.46-1.32,19.13-1.86,28,9.23,9.43,17.59,18.21,26.23,26.75,23.21,22.85,44.18,47.46,59.53,76.41,2.99,5.63,7.56,9.05,13.03,12.16,23.96,13.6,49.73,22.46,76.03,30.1,8.26,2.39,16.56,4.76,23.92,9.4,12.3,7.75,17.75,20.04,14.49,32.32-3.16,11.85-14.64,19.64-29.18,19.91-8.3.15-15.99-2.58-23.59-5.27-14.96-5.3-30.33-7.96-46.21-7.55-3.02.09-6.1-.09-9.59,2.58-4.2,13.03-5.91,27.79-12.95,40.42,2.04,6.56,7.99,8.1,12.26,11.42,6.41,4.94,13.57,9.01,19.45,14.46,12.56,11.65,14.38,27.27,5.55,39.68-8.6,12.01-24.81,15.41-39.35,7.6-7.1-3.82-13.61-8.75-20.34-13.3-5.42-3.69-10.73-7.57-17.38-12.27-18.18,16.5-41.34,24.13-62.81,35.12-18.33,9.38-31.17,25.61-42.4,42.72-16,24.34-25.73,51.48-34.44,79.06-5.82,18.3-11.8,36.57-18.03,54.74-4.64,13.48-11.38,25.93-18.93,37.97-27.35,43.37-67.32,64.36-117.86,66.33-12.18.48-24.39.92-36.44-1.06-5.5-.89-9.82.6-14.2,3.54-41.39,27.65-88.39,36.48-136.75,40.46-41.02,3.41-81.91,1.65-122.89-1.83-27.23-2.31-54.68-2.31-81.96,1.04-50.01,6.12-98.99.27-147.46-12.18-46.27-11.89-92.94-12.59-140.18-6.22-50.18,6.72-99.92,16.41-150.31,21.38-46.45,4.61-92.93,6.22-139.57,2.03-48.93-4.4-97.46-12.51-146.61-14.58-21.29-.89-42.5-1.16-63.81-.39-81.53,2.98-162.96,8.38-244.54,9.02-65.93.51-131.73-1.74-197.48-6.13-40.93-2.76-81.88-5.3-122.6-10.24-27.14-3.29-54.18-7.01-80.43-15.12-10.18-3.14-20.04-7.1-29.04-12.96-10.79-7.01-15.41-16.44-13.69-29.68,3.01-22.94,16.17-38.85,34.1-51.54,19.46-13.72,41.73-20.4,64.87-24.28,44.89-7.55,89.92-14.38,134.39-24.3,46.54-10.37,91.7-24.92,135.75-43.03,1.8-.74,3.34-2.04,5.71-3.51ZM1123.37,1202.51c-4.29-23.66,4.58-44.8,12.98-66.02,5.39-13.61,11.66-26.94,16.58-40.75,26.59-74.69,37.38-152.16,39.15-231.04,1.16-51.81-4.55-103.14-14.73-153.93-15.38-76.67-41.88-148.96-85.93-214.1-38.36-56.72-88.03-100.38-151.31-127.45-80.3-34.34-162.72-39.09-246.55-14.97-119.27,34.34-208.7,105.41-262.6,218.13-34.6,72.35-46.66,148.43-28.94,227.66,11.48,51.48,34.33,97.29,72.77,134.29,45.89,44.2,101.16,62.86,164.14,54.94,58.01-7.27,106.56-34.56,145.65-77.74,53.29-58.84,75.66-129.22,74.57-207.76-.65-45.9-11.38-89.21-34.22-129.22-38.12-66.76-106.33-107.09-187.13-94.21-76.16,12.15-129.93,56.27-159.87,127.6-18.78,44.71-21.02,90.68-2.51,136.11,13.92,34.26,38.24,58.2,75.25,66.89,48.55,11.38,102.11-13.27,127.91-58.28,9.2-16.05,14.91-33.39,17.29-51.51,4.73-36.26-3.23-69.57-26.87-98.15-23.54-28.51-59.59-38.46-92.99-26.32-38.89,14.13-62.78,53.57-55.61,92.23,3.28,17.57,12.22,31.08,30.08,36.81,14.72,4.73,33.5-3.42,41.75-17.53,7.62-13.06,6.12-33.62-8.13-41.95-2.58-1.53-4.91-3.66-5.5-7.19-.29-5.7,3.25-7.78,8.39-8.29,10.03-1.01,17.81,3.2,23.68,10.95,7.98,10.58,11.65,22.83,9.47,35.8-3.85,23.21-16.82,40.04-39.1,48.31-22.23,8.24-43.22,4.85-60.86-11.18-22.8-20.72-28.26-48.04-22.79-76.62,8.29-43.37,34.39-73.37,77.21-85.27,42.76-11.86,80.55-.3,109.96,33.21,29.37,33.51,39.66,73.41,34,117.33-7.19,55.38-35.13,96.52-86.02,120.32-70.37,32.93-147.63,2.46-177.86-68.96-14.48-34.19-17.59-69.96-12.01-105.86,9.1-58.28,36.7-107.03,83.59-143.47,58.75-45.68,124.49-62.54,197.01-40.86,67.88,20.34,111.65,67.63,137.61,131.96,22.76,56.39,26.65,114.84,15.78,174.61-10.99,60.32-35.58,113.85-77.83,158.54-45.91,48.58-101.86,78.53-168.87,83.83-66.33,5.27-123.57-17.62-171.27-63.37-57.13-54.77-82.4-124.07-86.57-201.51-3.75-69.72,12.17-135.75,43.59-197.96,84.12-166.56,274.07-253.23,433.84-229.87,80.22,11.71,149.95,44.12,208.28,100.68,53.16,51.57,88.38,114.22,113.48,183.08,38.37,105.02,49.61,213.43,40.21,324.48-5.63,66.49-19.52,130.99-43.38,193.34-6.32,16.53-14.23,32.44-19.05,49.56-1.63,5.79-3.73,11.44-.66,17.94,8.76-2.57,12.99-9.82,17.81-16.08,13.64-17.79,28.38-34.29,47.55-46.51,19.4-12.33,40.44-20.75,62.28-27.46,37.85-11.62,77-17.13,115.74-24.39,43.85-8.21,86.99-18.74,128.57-35.3,60.46-24.05,113.39-60.08,163.07-101.43,42.85-35.69,82.12-75.4,125.67-110.26,1.54-1.24,2.46-3.14,3.6-4.65.33-14.94-7.92-23.15-19.89-28.71-54.68,52.49-123.83,107.78-144.92,114.99,49.15-38.68,94.05-79.45,140.66-120.02-20.2-14.26-26.32-35.61-31.32-57.56-.68-2.98-1.47-5.91-2.16-8.87-12.06-52.24-24.1-104.43-42.31-155-44.65-124.25-115.29-230.45-217.78-314.52-107.16-87.91-230.88-134.81-368.45-145.15-61.79-4.67-123.36-.59-184.56,10.82-131.26,24.43-249.06,77.68-350.51,164.64-148.91,127.66-233.24,288.97-248.15,485.5-5.67,74.54,1.69,147.79,22.6,219.41,28.9,99.17,79.71,184.69,160.41,250.78,96.02,78.63,206.34,106.81,328.34,89.88,76.99-10.67,146.73-41.12,211.27-83.86,19.83-13.12,39.18-26.94,57.44-43.5ZM2169.51,776.57c.62-1.56,1.54-2.9,1.68-4.29,4.09-39.94,13.66-78.72,25.07-117.06,25.96-87.2,65.5-167.62,121.15-239.84,10.21-13.24,20.7-26.2,38.06-31.17,5.5-1.59,11.08-5.06,10.92-13.48-7.5-.76-13.78-3.23-18.06-9.76-4.29-6.47-2.57-13.21-.94-20.22-13.51,2.31-17.39,3.66-19.3,12.69-4.71,22.08-19.4,37.41-33.23,53.52-28.07,32.73-54.32,66.79-77.09,103.47-25.97,41.79-46.43,86.45-67.38,130.87-15.52,32.88-29.68,66.56-54.79,93.46,3.34,21.77,8.05,42.58,8.75,67.09-9.76-9.66-14.04-18.69-17.84-28-11.7-28.45-15.76-58.52-18.03-88.89-3.46-47.1-1.4-94.12,2.3-141.18,4.32-54.7,14.85-108.13,30.58-160.67,3.55-11.94,8.57-22.54,18.34-30.69,5.39-4.52,9.49-10.12,9.55-19.58-8.67,2.93-16.27,4.49-24.01.39-8.55-4.59-8.22-13.63-10.8-21.83-12.21,6.65-14.45,16.77-13.34,27.82,1.56,15.49-1.31,29.95-6.41,44.59-11.65,33.42-22.05,67.23-30.86,101.59-14.85,58.13-19.75,117.72-27.15,176.96-4.1,32.67-9.38,65.14-21.03,96.16-8.11,21.56-18.22,40.42-41.69,50.66-17.59,7.68-34.54,16.89-53.14,21.89-24.9,6.68-49.95,12.84-75.17,18.33-6.92,1.5-11.94,4.49-16.89,9.04-41.84,38.33-83.66,76.7-127.45,112.84-79.86,65.97-170.79,107.54-272.72,125.57-36.36,6.45-72.89,12.07-108.75,21.15-46.89,11.83-88.5,31.6-116.47,73.69-8.21,12.35-19.96,21.59-35,25.31-4.12,1.01-7.21,3.23-10.27,6.04-47.22,43.25-101.38,75.66-160.26,100.06-79.65,33.03-162.43,46.54-248.25,34.25-94.53-13.54-176.53-53.72-246.08-119.25-3.19-3.02-5.5-7.45-10.89-8.2-2.57,1.04-5.41,2.1-8.2,3.29-61.32,25.9-124.87,44.2-190.37,55.85-33.36,5.94-66.86,11.24-100.18,17.5-20.63,3.88-40.06,11.23-55.17,26.78-8.96,9.22-15.84,19.52-14.48,33.24,11.77,8.82,24.98,12.48,38.2,15.84,29.51,7.54,59.64,11.8,89.84,14.55,77.23,7.04,154.62,11.59,232.14,12.81,50.15.79,100.32.97,150.44-2.2,39.47-2.52,79.03-2.68,118.45-5.06,69.57-4.29,138.65-.51,207.63,9.07,30.05,4.2,60.33,7.13,90.81,7.37,63.6.45,126-10.7,188.62-19.79,28.54-4.17,57.07-8.66,85.92-10.37,41.86-2.48,82.8,3.72,123.33,13.54,36.69,8.9,73.77,13.36,111.47,9.4,36.95-3.85,73.95-3.66,110.83-.86,42.59,3.23,85.01,3.69,127.45-.72,75.37-7.81,134.93-43.03,179.84-103.64,13-17.56,23.6-36.6,33.27-56.12,31.04-62.48,79.13-108.14,139.27-142.07,19.02-10.73,39-19.14,59.29-27.14,11.53-4.55,23.39-8.9,34.11-19.11-8.93-5.17-16.77-9.52-24.36-14.22-7.18-4.49-16-6.68-22.3-15.12,22.7-1.8,41.46,5.18,59.44,14.94,14.7,7.99,28.36,17.66,42.04,27.29,5.73,4.04,11.21,8.76,18.66,9.04,9.32-8.11,9.63-10.86,1.54-17.3-3.16-2.49-6.71-4.56-10.08-6.8-16.02-10.76-31.28-22.38-44.33-36.78-9.02-9.97-15.2-21.41-18.39-34.44-.79-3.08-2.31-6.65,1.8-10.28,11.41,12.54,20.72,27.14,36.1,36.6,6.69-12.93,8.73-25.82,10.08-38.88,3.14-31.23-7.37-58.81-23.34-84.77-15.23-24.77-34.72-46.04-55.47-66.27-13.04-12.74-25.79-25.79-38.47-38.91-3.69-3.84-8.13-7.51-8.67-14.19,7.49-1.74,12.87,6.04,20.14,4.61ZM1938.57,1366.41c1.28.44,2.57,1.29,3.88,1.29,46.06.62,82.21-17.69,107.31-56.75,10.17-15.8,17.23-33.09,23.18-50.88,12.8-38.24,23.24-77.41,43.89-112.6.09-.18-.53-.79-1.01-1.44-4.14.18-6.8,3.29-9.87,5.59-40.53,30.67-73.39,67.66-96.01,113.63-17.98,36.45-39.95,70.34-70.26,98.1-.62.57-.67,1.8-1.12,3.07ZM2297.81,961.76c12.47,1.98,24.1.06,35.48,2.69,11.33,2.64,22.36,5.82,33.3,9.69,9.76,3.43,12.42,1.96,18.3-8.07-12.8-10.65-29.54-11.38-44.26-16.85-15.22-5.64-30.4-11.21-47.86-17.68,3.6,10.94,3.48,19.95,5.03,30.22Z"/>
    <path class="st0" d="M1583.66,954.41c-34.95,22.71-68.68,39.77-104.06,53.88-44.91,17.91-91.72,28.39-139.18,36.21-45.07,7.4-89.39,17.13-131.41,35.49-1.83.8-3.76,1.68-6.12-.18,11.18-9.11,24.31-14.2,37.09-19.88,32.7-14.51,67.5-21.44,102.51-26.65,79.36-11.77,154.55-35.77,225.38-73.44,3.84-2.07,7.45-4.88,15.79-5.43Z"/>
  </g>
</svg>