<?xml version="1.0" encoding="UTF-8"?>
<svg id="Layer_1" xmlns="http://www.w3.org/2000/svg" version="1.1" viewBox="0 0 792 612">
  <!-- Generator: Adobe Illustrator 30.2.1, SVG Export Plug-In . SVG Version: 2.1.1 Build 1)  -->
  <defs>
    <style>
      .st0 {
        fill: #32a9d9;
      }
    </style>
  </defs>
  <path class="st0" d="M23.61,419.55h573.4c.5,0,.91-.41.91-.93V71.33c0-.7-.39-1.36-1-1.7-31.54-16.97-61.81-33.41-90.83-49.33-2.82-1.55-4.8-2.32-5.91-2.32-190.04.09-302.02.04-335.93-.13-12.38-.07-20.36.04-23.93.29-.29,0-.59.09-.84.2L22.96,70.67c-.59.25-.96.84-.96,1.48v345.73c0,.89.71,1.63,1.61,1.63v.04ZM501.18,20.83l87.42,47.83c.27.16.18.57-.14.57l-12.18.34c-.18,0-.34-.07-.48-.18-4.13-3.23-7.59-5.66-10.38-7.34-16.54-9.97-37.72-22.52-63.47-37.66-.57-.34-1-.84-1.29-1.43l-.54-1.18c-.29-.64.41-1.29,1.02-.95h.04ZM571.22,69.69h-70.33c-.3,0-.55-.23-.55-.55V27.11c0-.41.46-.68.82-.46l70.33,42.02c.48.27.29,1-.27,1v.02ZM142.23,21.4c0-.25.2-.46.46-.46h354.7c.25,0,.46.2.46.46v47.7c0,.25-.2.46-.46.46H142.69c-.25,0-.46-.2-.46-.46V21.4h0ZM34.52,68.85l104.46-46.9c.36-.18.77.16.68.55l-.11.57c-.13.63-.54,1.18-1.11,1.46l-90.35,44.84c-.52.25-1.05.39-1.63.38l-11.82-.2c-.41,0-.52-.55-.16-.71h.04ZM139.62,27.9v41.02c0,.36-.29.64-.64.64H56.34c-.68,0-.91-.93-.29-1.23l82.63-41.02c.43-.2.95.11.95.59h-.02ZM25.16,73.08c0-.25.2-.46.46-.46h568.74c.25,0,.46.2.46.46v342.84c0,.25-.2.46-.46.46H25.63c-.25,0-.46-.2-.46-.46V73.08h0Z"/>
  <path class="st0" d="M39.56,401.05h542.49c.84,0,1.52-.68,1.52-1.52V83.73c0-.84-.68-1.52-1.52-1.52H39.56c-.84,0-1.52.68-1.52,1.52v315.8c0,.84.68,1.52,1.52,1.52h0ZM41,398.01v-255.12c0-.52.34-.96.84-1.07,26.27-6.75,52.51-6.55,78.13.75,7.55,2.14,13.61,3.45,18.16,3.88.64.07,1.16.61,1.14,1.27l-.2,76.81c0,.38-.27.68-.63.73h-.04c-.23-.07-.43-.25-.5-.52l-6.95-30.07c-.32-1.38-2.25-1.46-2.7-.13-3.68,11.11-7.11,24.02-4.36,36.2,1.7,7.52,4.39,19.09,1.07,24.36-.27.45-.95.32-1.05-.18-2.89-12.2-12-29.11-15.22-45.52-2.32-11.84-2.41-23.68-2.82-35.61,0-.32-.09-.59-.21-.79-.59-.88-1.88-.79-2.36.14-6.09,11.77-10.45,22.9-11.54,37.13-.2,2.68.45,8.32,1.93,16.93,1.27,7.27,1.46,15.48.61,24.61-.25,2.64.84,7.55,3.29,14.72,2.41,7.13,10.23,20.54,12.09,31.13,1.02,5.8,2.43,12.27,4.2,19.39.11.38-.34.63-.63.38-6.04-5.63-10.36-11.54-12.97-17.79-2.95-7.11-4.61-11.04-5-11.82-3.46-6.93-11.91-15.89-14.68-22.16-5.38-12.16-7.34-25.95-5.66-39.65,1.2-9.68,2.13-18.29-.11-27.74-1.39-5.98-3.75-13.16-7.05-21.57-.52-1.3-2.38-1.2-2.73.16-4.5,16.61-6.66,34.24-6.45,52.85,0,1.82-.61,6.68-1.91,14.54-3.27,19.88,3.7,37.36,16.02,52.08,17.18,20.5,48.38,12.98,42.86,50.77-.32,2.16-1.02,3.96-2.11,5.34-.25.34-.59.59-1,.75l-7.16,2.88c-.36.16-.75.2-1.13.14-6.45-.95-9.5-.2-14.41,4.63-6.54,6.48-15.45,12-22.16,18.52-6.79,6.57-15.63,12.82-26.47,18.75-.07.04-.16,0-.16-.09h0ZM169.37,219.05c1.7,13.39-9.11,25.56-11.79,39.08-1.7,8.55-1.2,17.59-1.57,26.27-.8,17.91-12.18,32.29-21.13,47.43-3.68,6.25-2.39,10.77-1.82,19.56,0,.25-.18.5-.43.55-.25.04-.52-.13-.59-.38-1.32-4.7-1.71-10.95-1.14-18.72,0-.27,0-.55-.04-.84-.36-2.61-.41-4.25-.14-4.88.13-.29.45-.45.75-.38.3.09.52.38.48.68l-.41,4.57c0,.23.29.36.45.16,1.18-1.63,1.8-2.96,1.91-4.05.75-7.48,2.11-14.52,4.04-21.11.41-1.38.64-2.82.71-4.25.75-16.34-.79-35.25,8.79-52.4,4.46-7.98,9.52-18.02,9.98-27,.64-12.64,4-24.47,10.04-35.45.32-.59,1.23-.3,1.16.38-.96,8.93-.73,19.18.73,30.79l.02-.02ZM134.98,352.7c-.55-4.09-.73-17.81,3.04-21.45.39-.38,1.04-.05.96.5-.89,6.36-.64,13.64.7,21.88.11.66-.32,1.3-.98,1.43-1.75.36-3.05.84-3.88,1.46-.39.3-.96,0-.93-.5.04-.64.27-1.3.73-1.95.29-.41.41-.91.34-1.38h.02ZM131.4,323.2c-.16.61-.66,1.07-1.29,1.18l-1.71.27c-.82.14-1.36.91-1.23,1.73.46,2.73.71,6.89.79,12.52.05,5.66,1.7,11.89,3.39,17.11.13.41-.21.8-.63.7l-1.27-.29s-.11-.05-.13-.13c-2.82-12.59-4.84-19.61-3.73-29.54,1.14-10.27,1.66-24.5,2.46-28.97.07-.41.64-.45.77-.05,1.98,6.54,4.25,18.7,2.55,25.47h.02ZM118.62,331.67c-1.27-5.57-1.96-9.54-2.13-11.91-.21-3.46-.7-6.82-1.43-10.05-3.11-13.68-5.45-22.29-7.02-25.86-5.79-13.13-12.14-24.77-11.18-34.86.71-7.52.96-11.93.75-13.25-1.11-6.86-3.48-16.89-3.27-24.09.32-10.72,3.25-21.22,8.72-31.5.11-.2.38-.13.39.09.88,18.27,1.91,35.66,8.14,49.65.29.64,2.25,5.25,5.91,13.84,5.13,12.04,6.29,24.56,7.79,37.9.91,7.88.86,15.97-.16,24.25-1.04,8.59-1.91,16.91-2.61,25-.68,7.84,1.38,14.56,3.55,24.34.2.96-.59,1.88-1.57,1.79-2.73-.23-5.2-1.23-7.38-2.95-.39-.3-.55-.82-.41-1.3,2.52-8.55,3.13-15.59,1.88-21.11l.02.04ZM127.21,271.96l-1.75-13.93c-.05-.36.05-.73.27-1.02,2.61-3.48,3.84-6.73,3.68-9.75-.32-5.96-1.45-12.23-3.36-18.81-.39-1.34-.59-2.7-.59-4.07-.07-7.77,1.21-15.56,3.86-23.4.13-.34.61-.3.68.05,1,4.91,2.84,13.39,5.52,25.43,1.14,5.09,1.59,11.45,1.34,19.09-.32,9.75-3.45,18.57-9.38,26.49-.07.11-.21.05-.23-.07l-.04-.02ZM74.65,258.12c3.46,13.59,14.88,23.04,20.77,36.45,3.79,8.63,5.43,12.47,9.72,17.89.2.25-.09.61-.38.46-5.59-2.89-10.38-5.27-14.41-7.16-11.95-5.59-19.32-14.41-25.29-25.91-6.32-12.2-7.54-23.04-5.25-37.41,1.93-12.23,1.02-29.5,2.59-38.75,1.48-8.86,2.8-15.88,3.95-21.04.09-.43.68-.45.82-.04,2.34,7.66,5.11,14.97,6,22.77.88,7.55-.41,16.16-1.25,24.79-1.04,10.75.36,18.64,2.73,27.97v-.02ZM577.26,397.8H47.22c-.2,0-.29-.25-.13-.38.5-.36,3.3-2.14,8.45-5.36,9.14-5.71,17.2-14.63,25.45-20.65,2.98-2.16,7.66-6,14.02-11.52,1.05-.91,3.21-1.27,6.46-1.05.86.05,1.27,1.09.64,1.71l-15.45,15.47c-.2.18,0,.48.21.43,2.79-.54,4.25-.88,4.38-1,3.14-2.98,7.97-8.38,14.52-16.16.18-.2.38-.34.59-.45l6.7-2.64c1.14-.46,2.45-.29,3.41.48l4.68,3.68c1,.79,2.41.77,3.39-.04,2.5-2,4.61-2.43,6.34-1.27,2.89,1.93,6.5,5.36,10.88,10.29.34.39.93.5,1.36.23l.45-.23c.3-.18.38-.57.16-.82l-6.93-7.89c-.84-.96-.21-2.46,1.04-2.54,3.57-.27,7.73.61,12.54,2.66.77.32,1.43.84,1.96,1.48l9.97,12.5c.55.7,1.64.63,2.11-.14l.39-.66c.43-.71.3-1.63-.27-2.2l-9.79-9.79c-.66-.66-.3-1.79.61-1.96,1.8-.32,3.45-.14,4.91.55,7.23,3.34,12.68,7.09,21.18,4.8,9.88-2.66,16.25-4.3,19.07-4.91,6.52-1.41,12.13,1.48,18.43,4.48,1.5.71,3.11,1.18,4.77,1.38,5.11.61,10.27.91,15.54.89,3.32,0,9.63-2.98,12.07-2.32,5.95,1.57,13.32,4.39,18.23,2.07,8.02-3.75,18.45-9.72,24.57-8.61.55.11.7.82.21,1.13-10.23,6.63-18.06,11.32-23.52,14.11-3.3,1.7-4.09,4.05-2.38,7.11,2.5,4.39,6.32,6.97,11.47,7.7.68.09,1.36.05,2.04-.11,6.48-1.63,11.04-3.09,16.18-.89,3.29,1.39,5.75,2.3,7.41,2.73,1.05.21,2.14.29,3.23.18l13.16-1.32c1.41-.14,2.55-1.21,2.8-2.61.59-3.46.54-5.96-.2-7.48-.2-.43.13-.93.59-.93l4.84.09c.75,0,1.48.14,2.18.36,5.38,1.73,9.75,2.5,13.11,2.3,5.23-.29,9.2.27,11.91,1.66.71.38,1.43-.5.96-1.14-1.2-1.61-3.11-2.45-5.75-2.52-6.5-.16-11.95-.55-16.32-1.18-1.05-.16-1.29-1.57-.34-2.07,4.66-2.45,8.72-5.75,12.11-9.91.27-.32.7-.5,1.11-.45l27.32,3.45c.3.05.63.16.91.32,1.14.7,1.96,2.68,3.48,3.21,2.98,1.04,6.11,1.02,9.38-.04.66-.21.59-1.16-.09-1.3l-10.79-2.07c-.54-.11-.63-.84-.14-1.07,6.86-3.39,14.13-5.46,22.11-2.46,3.39,1.29,8.13,1.77,14.22,1.52.64,0,1.29.16,1.8.5,1.45.96,2.34,3.8,3.84,4.04,1.13.18,1.68-1.36.68-1.93-.77-.46-1.59-1.34-2.43-2.64-.29-.46-.07-1.07.46-1.21.91-.25,1.73-.2,2.46.21.32.2.55.5.63.84l1.04,4.04c.3,1.21-.5,2.43-1.75,2.59-3.2.43-5.14,1.45-5.88,3.05-.45.96.73,1.88,1.55,1.2,2.68-2.2,6.05-2.57,8.68-4.59,8.41-6.46,19.14-3.86,28.84,1.23,1.7.88,7.05,3.45,16.09,7.73.55.25,1.18.18,1.63-.21l.8-.7c.63-.57.36-1.61-.46-1.79l-5.57-1.3c-.16-.04-.29-.09-.41-.16l-12.43-6.75c-.41-.21-.45-.8-.05-1.05,6.89-4.55,13.36-2.7,20.65-.29,2.02.64,4.23.2,5.84-1.21,3.21-2.82,7.04-4.29,11.45-4.39.41,0,.84.05,1.21.2l13.23,4.89c.45.18.57.73.21,1.07l-14.56,14.57c-.45.45-.55,1.11-.27,1.66l.36.71c.27.55,1,.66,1.43.23l16-16c.54-.52,1.32-.64,1.96-.34,2.91,1.38,6.97,4.16,12.14,8.32,2,1.59,4.3,2.46,6.91,2.59.79.04,1.43-.63,1.36-1.41l-.04-.55c-.05-.68-.59-1.23-1.25-1.3l-2.95-.34c-.46-.05-.91-.25-1.27-.57-4.88-4.36-10.47-8.18-16.75-11.43-1.11-.59-2.89-2.29-5.3-5.14-2.59-3.05-5.59-9.22-8.97-18.48-6.73-18.43-3.14-36.16,4.79-55.97,4.82-12.04,8.29-26.41,5.61-38.9-1.88-8.73-6.97-17.7-12.13-28.32-.39-.8-.7-1.66-.91-2.52-2.68-11.05-3.13-22.48-1.3-34.27.05-.36.55-.41.66-.07.38,1.14.66,2.96.89,5.46.45,5.46,1.75,9.43,3.64,16.97,2.46,9.84,6.32,15.41,11.93,25.97,4.07,7.68,6.02,16.09,5.8,25.27-.25,10.77-1.98,20.81-5.14,30.11-3.79,11.18-6.14,18.79-7.07,22.84-5.14,22.59,10.29,40.11,21.61,57.35,1.88,2.88,2.59,5.95,2.14,9.2-.14.96,1.05,1.48,1.7.77,10.45-12,24.63-2.91,33.16,5.96,5.11,5.29,10.36,10.18,15.77,14.63.3.25.13.75-.27.75l.09.07ZM319.1,362.54c.38.38.95.52,1.45.34,8.34-2.73,13.7-4.27,18.7-8.54,1.63-1.38,4.13-.64,4.73,1.39l1.2,4.07c.73,2.48-.07,5.14-2.04,6.8-6.66,5.68-13.66,12.32-21.97,6.66-6.23-4.25-10.89-8.48-13.97-12.7-.48-.66-1.16-1.16-1.93-1.41l-3.43-1.16c-.57-.2-.77-.86-.41-1.32l4.71-6c.25-.34.75-.38,1.05-.07l11.89,11.91v.02ZM309.32,347.2c5.89-5.05,11.5-9.07,19.52-4.64,4.54,2.52,8.27,4.96,11.18,7.38.41.32.39.96-.04,1.29-5.3,4.02-11.36,6.86-18.09,8.57-1.57.39-3.21-.13-4.27-1.34l-8.41-9.57c-.43-.5-.38-1.25.13-1.68h-.02ZM306.89,366.03c.3.41.68.77,1.11,1.05,5.95,3.95,10.57,7.8,13.89,11.54,1.45,1.64,1.55,3.66.27,6.05-.36.66-1,1.11-1.75,1.21l-11.7,1.48c-1.13.14-2.27-.07-3.29-.57-7.61-3.8-14.61-4.52-21.02-2.13-3.73,1.39-7.95.63-10.93-2.02l-1.36-1.2c-1.98-1.75-1.52-4.93.86-6.05,6.05-2.84,13.48-7.47,22.27-13.88,6.39-4.68,8.38,0,11.63,4.46l.02.04ZM416.85,325.47c-2.3-10.61-14.02-4-19.18-.98-.63.36-1.55.21-2.8-.41-1.39-.71-1.84-2.5-.91-3.68,1.89-2.45,6.79-5.52,4.64-10.38-2.16-4.96-5.73-7.09-10.68-6.32-4.71.71-10.3,2.3-11.59-1.79-.61-2,1.05-4.05,3.38-4.14,5.38-.23,17.43,1.71,14.48-8.52-1.52-5.23-5.45-7.77-9.52-9.89-3.34-1.75-3.68-4.71-2.61-7.95.68-2.07,2.86-2.14,4.8-2.2,3.18-.11,5.7-3.91,5.86-6.2.5-7.86-.2-15.13,3.79-19.14,1.16-1.18,3.2-.86,4.14.68,1.04,1.68,1.36,3.57.93,5.7-2.23,10.84-4.05,16.68,1.43,24.2,1,1.39,2.88,1.86,4.43,1.13l3.41-1.63c1.91-.93,4,.93,3.3,2.93-1.91,5.66-6.02,12.14-3.32,19.2,1.93,5.04,5.16,9.23,9.72,12.59.71.54,1.73.41,2.29-.27,1.7-2.05,3.21-5.05,4.55-9.04.54-1.55,2.52-1.95,3.63-.71l1.89,2.14c1.45,1.66,1.82,3.98.96,6-2.7,6.36-.59,10.09,3.41,15.31.38.48.59,1.09.57,1.73-.13,4.46,2.16,7.84,6.86,10.09,1.04.5,1.36,1.05.93,1.7-.2.32.11.71.46.61.32-.09,1.84-1.45,4.52-4.07,5.3-5.16,6.63-11,3.98-17.52-1.39-3.45-2.98-6-4.79-7.64-4.5-4.14-9.25-7.59-7.3-13.75.57-1.8,2.75-2.52,4.27-1.39.73.54,1.61,1.48,2.63,2.89,2.52,3.45,5.13,4.55,9.05,5.05.64.09,1.29-.21,1.63-.77,3.8-6.2,4.84-12.52,3.05-18.95-2.7-9.8-19.39-8.5-19.32-18.48,0-1,1.02-1.7,1.96-1.32l4.25,1.7c.55.21,1.16.21,1.7-.04,4.98-2.36,3.2-8.05.59-11.63-4.75-6.46-10.09-9.66-17.27-13.43-3.89-2.05-5.77-4.79-5.11-8.95.11-.64.68-1.09,1.34-1.02l4.7.54c1.36.16,2.59-.77,2.86-2.13.61-3.45-.25-8.54-1.45-11.57-2.63-6.75-6.16-21.66-2.16-28.11.86-1.38,2.84-1.48,3.82-.2,1.29,1.66,2.07,3.52,2.36,5.55.64,4.48-3.16,25.57,7.45,28.79.75.23,1.57-.09,1.96-.75l3.11-5.21c.98-1.66,3.23-2.07,4.75-.88,2.5,1.95,2.84,5.18,1.02,9.7-2.07,5.18-4.79,9.3-4.38,14.14.54,6.16,3.68,10.63,9.41,13.36.86.41,1.88.2,2.52-.52l5.63-6.38c1.04-1.2,2.91-1.11,3.86.16,3.93,5.29-3.09,13.98-1.27,22.04,1.07,4.73,1.89,8.09,7.22,8.23.55,0,1.09-.2,1.5-.55l3.25-2.86c1.45-1.29,3.73-.48,4.07,1.41.79,4.54-1.73,7.38-5.68,10.09-3.2,2.2-4.71,5.98-4.54,11.36.05,1.57.93,2.82,2,2.84,1.29,0,2-.55,2.13-1.63.05-.36.46-.52.73-.27,1.64,1.41,2.25,2.77,1.18,4.73-2.04,3.7-5.23,5.5-9.66,5.41-.52,0-1.02.11-1.46.34-3.54,1.88-5.88,4.79-7.05,8.72-.45,1.5.32,3.09,1.77,3.68,3.3,1.36,7.77,2.54,7.52,6.05-.16,2.13-2.02,3.7-4.13,3.5-2.59-.23-4.45-.32-5.52-.25-1.29.09-2.48.61-3.39,1.5-3.36,3.29-5.5,7.2-6.39,11.73-.34,1.77.89,3.46,2.68,3.68l4.02.45c2.5.27,2.86,3.75.46,4.52-2.32.75-4.66,1.29-7,1.57-8.88,1.11-10.45,9.95-10.73,17,0,.5-.45.86-.95.8l-2.02-.21c-.57-.07-1-.55-1.02-1.11-.07-2,0-3.27.18-3.79,2.39-6.93,7.02-20.59,12.7-30.32,3.09-5.29,7.29-12.16,7.41-17.98,0-.21-.16-.39-.36-.45-.21-.04-.43.09-.5.29-2.45,6.79-5.63,13.23-9.52,19.34-3.93,6.16-6.18,14.25-9.38,21.77-.59-5.23-.73-10.43-.39-15.64.04-.48-.3-.89-.79-.95l-.57-.07c-.52-.05-.96.34-.95.86l.59,26.13c0,.59-.46,1.05-1.04,1.04l-2.43-.07c-.32,0-.59-.27-.59-.59l.75-29.02c0-.95-.25-1.84-.8-2.59-5.8-8.09-9.23-12.98-17.45-16.86-2.98-1.41-6.25-4.13-9.8-8.16-9.86-11.18-14.73-24.54-14.64-40.04,0-3.54-.07-6.89-.21-10.11,0-.14-.13-.25-.25-.25-.14,0-.25.09-.29.21-.63,3.39-1.09,6.79-1.38,10.13-.48,5.54,1.07,11.09,2.52,18.47,1.77,9.14,7.05,17.36,13,24.02,2.5,2.8,7.89,6.21,10.34,8.52.23.21.43.55.55.96.09.3.13.48.14.5.2.39.64.57,1.05.41,4-1.55,11.79,7.97,13.82,11.18,1.27,1.98,1.86,4.39,1.77,7.23-.23,9.54-.71,17.97-1.43,25.22-.07.7-.66,1.21-1.36,1.2l-1.75-.04c-.91,0-1.8.23-2.55.75l-3.8,2.54c-.77.54-1.82,0-1.89-.93l-.14-1.75c-.09-1.07.43-2.13,1.34-2.73l4.41-2.96c.34-.23.63-.55.86-.91,3.36-5.66,8.25-20.82-.18-24.79-5.04-2.38-9.29-1.36-12.73,3.02-.52.66-1.5.7-2.05.07l-4.25-4.84c-.25-.29-.63-.45-1-.41l-.61.04c-.46.04-.7-.55-.34-.84.46-.36,1.04-.38,1.75-.05.5.23,1.05.2,1.5-.11,2.84-1.89,3.93-4.36,3.29-7.36l-.14.02ZM439.94,323.33c4.64-.96,6-8.09,11.86-3.82.5.36.77.95.73,1.55-.23,4.13-2.16,7.91-5.77,11.34-.38.34-.95.36-1.34.04-2.91-2.45-4.98-5.04-6.18-7.79-.23-.55.09-1.2.68-1.32h.02ZM498.77,242.14c-.05-1.43.18-2.84.68-4.21.14-.36.63-.38.79-.04,3.5,7.77,5.21,13.73,5.16,17.86-.11,6.72-1.88,15.34-5.32,25.91-.13.38-.64.36-.75,0-.39-1.41-.57-2.64-.52-3.68.45-12.02.43-23.95-.04-35.83v-.02ZM520.48,331.67c0,.18-.16.32-.34.3h0c-.18,0-.32-.13-.34-.29-.79-6.21.75-12.41-.89-18.5-1.48-5.45-1.91-8.54-1.32-9.25.5-.59-.07-1.46-.82-1.27-.04,0,.23,2.55.8,7.63.2,1.59.21,3.43.11,5.54-.73,14.06.91,28.04,4.88,41.93,0,.09,0,.18-.09.2-.09.04-.18,0-.21-.05-5-7.13-9.29-14.2-12.86-21.27-7.3-14.41-3.48-29.65,1.75-44.02,2.88-7.95,4.36-14.32,5.34-21.43.07-.55.86-.61,1.02-.09,5.32,15.73,5.45,34.15,2.95,50.29,0,.2-.04.39-.04.59l.07,9.7h0ZM531.13,329.68c-.07-3.68,0-7.7.16-12.05.2-4.96-.13-10.77-.96-17.39-1.04-8.22,2.45-15.81,6.36-25.86,1.18-3,2.41-5.3,3.71-6.91.32-.41.57-.88.71-1.36,2.14-7.27,5.93-16.82,6.97-24.11.89-6.34,1.48-15.82,1.79-28.49.32-13.84,3.18-27.06,8.55-39.63.11-.23.36-.36.59-.29s.39.29.38.55c-1,10.43-2.55,24.34-4.68,41.72-.59,4.86-1,9.29-1.2,13.27-.8,16.23-.73,31.29-5.84,45.75-.63,1.77-3.61,8.29-8.91,19.52-2.54,5.36-4.34,10.25-5.41,14.63-.16.59-.21,1.16-.21,1.75,0,15.43-.93,30.7-2.79,45.79-.04.23-.25.43-.5.39-.13,0-.21-.14-.2-.25,1.14-9.57,1.64-18.57,1.48-27.02v-.02ZM521.02,228.48c-.79-2.16-1.7-9.2-2.71-21.13,0-.16.09-.29.23-.3.14-.04.29.07.32.2l3.68,13.54s.04.09.05.14c2.86,7.39,9.07,17.95,11.04,26.15,1.68,6.91,2.27,14.18,1.79,21.86-.09,1.32-1.23,4.63-3.43,9.95-.16.36-.68.32-.79-.05,0,0-.09-4.96-.25-14.88-.2-11.82-5.8-24.04-9.93-35.45v-.02ZM545.97,308.16c-2.16,12.3-5.86,28.49-10.32,42.86-.84,2.7-1.63,4.43-2.36,5.16-.27.27-.75.04-.7-.36,1.7-12.22.8-31.27,3.45-43.5,2.11-9.72,5.7-19.56,10.8-29.47.2-.38.75-.25.77.18.25,9.02-.29,17.39-1.64,25.13h0ZM531.54,359.92s0,.04-.05.04c0,0-.04,0-.04-.04,0-.2,0-.41.05-.64h0v.64h.04ZM562.22,268.82c0-.18.09-.32.25-.38.18-.04.34.05.41.21,5.25,13.84,6.39,28.32,3.38,43.43-4.2,21.11-7.14,38.99-16.7,56.43-1.25,2.27-4.7,1.2-4.45-1.38.77-7.79,1.16-16.45,3.04-24.18,1.95-7.95,6.09-16.22,9.88-24.27,2.63-5.55,4.25-9.72,4.86-12.47,2.73-12.04.93-23.9-.7-37.41h.04ZM500.25,85.78c0-.34.27-.61.61-.61h79.15c.34,0,.61.27.61.61v49.13c0,.45-.45.75-.86.57l-79.15-33.91c-.21-.09-.38-.3-.38-.57v-15.22h.02ZM500.14,104.78c0-.27.29-.46.55-.36l75.42,32.34c.3.14.21.59-.11.61-13.63,1.23-35.22,5.23-50.65,3.8-7.16-.64-15.23-1.96-24.18-3.95-.61-.14-1.04-.68-1.04-1.3v-31.16.02ZM500.09,140.77c0-.57.5-.98,1.04-.88,1.61.34,6.23,1.32,13.88,2.93,9.95,2.11,21.41,1.98,33.08.55,12.72-1.59,23.2-2.75,31.45-3.52.46-.05.86.3.86.77v255.14c0,.41-.52.61-.79.3-8.75-9.43-17.81-17.63-27.15-24.65-.36-.27-.48-.77-.25-1.18,9.5-18.22,13.39-39.88,17.02-59.01,1.95-10.32,1.98-20.11-.32-31.2-2.54-12.23-4.41-20.57-5.63-24.98-.29-1.02-.59-1.7-.89-1.98-.91-.84-2.38-.29-2.52.95-1.75,16.23,4.45,34.5.54,51.81-1.84,8.23-6.84,16.09-10.11,23.57-4.89,11.22-7.27,22.81-7.11,34.77,0,.21-.14,1.11-.45,2.66-.16.71-.79,1.21-1.52,1.18-2.89-.14-5.89.57-9.04,2.09-.43.2-.88-.2-.71-.64,3.91-11.04,6.7-19.02,8.38-23.95,4.52-13.32,7.82-27.56,9.88-42.74,1-7.5,1.18-14.73.5-21.72-.29-2.91-.05-5.86.7-8.68,2.39-9.09,4.25-17.98,4.61-27.95.46-12.54.68-20.86,1.98-30.52,2.41-18.06,4.66-33.91,4.66-51.29,0-1.3-1.79-1.64-2.27-.43-6.84,17.07-12.25,32.9-12.8,51.79-.41,13.77-.73,21.66-.96,23.68-.77,6.32-2.96,14.5-6.61,24.56-.14.38-.7.32-.75-.09-1.36-10.38-2.77-17.27-4.21-20.7-5.52-12.88-8.64-20.43-9.36-22.68-3.84-12.04-5.66-24.29-5.52-36.75,0-1.11-1.5-1.41-1.91-.39-1.02,2.59-1.55,4.09-1.61,4.52-1.09,12.41-.96,24.02.41,34.86,1.73,13.64,10.27,25.38,12.02,38.95,1.48,11.47,1.14,22.45-1,32.91-.13.57-.16,1.16-.11,1.75,1.34,16.18,1.7,36.11,1.09,59.76-.04,1.02.09,2.52.34,4.5.34,2.63,1.43,4.84.71,7.57-.13.46-.75.54-.96.11-5.05-10.43-7.29-21.75-6.72-33.97.3-6.38.84-13,1.59-19.91,1.77-16.23.7-31.36-4.66-45.58-.79-2.11-1.14-4.36-1.02-6.59.68-13.59-1.11-23.06-8.43-35.74-4.25-7.38-9.8-16.93-9.5-26.06.45-13.91.5-33.22.16-57.93v.02ZM141.82,86.12c0-.38.29-.68.66-.68h354.82c.21,0,.41.2.41.41v14.16c0,.32-.25.59-.59.59-10.8-.2-23.93,1-39.38,3.59-1.2.2-5.16.2-11.89,0-7.7-.23-16.7-3.48-24.22-4.68-6.7-1.07-13.82-1.21-21.41-.38-8.82.96-31.09,6-47.63,5.23-5.96-.27-11.16-.79-15.63-1.54-21-3.55-45.33-7.27-67.06-5.27-9.88.91-21.68,4.45-31.38,6.39-2.61.54-7.66.68-15.16.46-9.52-.27-21.34-4.41-30.99-6.48-4.3-.93-10.98-1.38-20.02-1.36-6.64,0-16.57.82-29.81,2.43-.39.05-.75-.27-.75-.68v-12.16l.02-.05ZM142.14,102.32c.04-.52.45-.95.96-.98,17.38-1.59,36.29-4.16,54.31.54,14.31,3.71,26.47,6.88,40.67,4.88,2.29-.32,9.36-1.91,21.22-4.77,15.61-3.75,34.79-2.48,51.92-.13,17.13,2.34,33.66,5.88,50.18,5.23,12.07-.48,24.9-2.98,37.16-4.98,14.16-2.32,27.81,1.14,41.52,4.18,5.64,1.27,16.47.96,23.73-.11,12.3-1.79,23.13-2.79,32.49-2.96.63,0,1.14.5,1.16,1.14l.23,30.93c0,.73-.61,1.34-1.36,1.29-4.21-.23-7.13-.41-8.73-.52-11.05-.7-21.81.98-37,3.07-19.86,2.71-41.56-2.32-60.56-3.36-22.43-1.25-44.81,6.57-66.63,8.52-14.73,1.32-29.49,1.45-44.25.43-10.59-.73-28.16-6.09-39.2-6.54-17.52-.7-27.84,1.5-47.58,4.79-16.47,2.75-32.95,3.13-49.49,1.14-.61-.07-1.05-.61-1.02-1.23l1.05-16.25c0-.27,0-.55-.07-.8-1.25-5-1.48-12.84-.71-23.48v-.02ZM141.57,147.2c0-.45.39-.79.84-.71,16.77,2.71,35.02,2.14,52.45-1.11,16.06-2.98,33.15-6.43,49.31-4.11,10.61,1.52,23.84,5.18,34.06,6.09,17.23,1.59,34.72,1.2,52.51-1.18,3.7-.5,15.07-2.52,34.13-6.11,4.45-.84,12.13-1.41,23.06-1.73,4.8-.14,17.29,1.21,37.5,4.04,15.29,2.13,32.13-1.61,46.56-3.27,5.48-.63,13.7-.59,24.65.16.71.05,1.29.64,1.27,1.36l-.75,48.74s-.07.18-.18.18c-.09,0-.18-.07-.18-.16-.45-4.57-1.43-13.11-2.96-25.61-.09-.64-.2-1-.39-1.09-.96-.48-2.13.2-2.29,1.36-.73,5.16-1.36,12.39-1.88,21.7-.91,16.43-1.14,28.18,6.14,41.72,1.05,1.98,1.55,4.2,1.41,6.43-.71,12.41.64,22.57-.39,33.72-.57,6-.5,13.16.2,21.5.09,1.09-.05,2.18-.39,3.21-3.2,9.18-5.09,17.27-5.64,24.29-1.07,13.39,1.86,27,8.84,40.83,1.68,3.3,4.05,5.88,7.11,7.66.21.13.29.39.18.61h0c-.11.2-.32.29-.54.2-10.16-4.98-16.63-8.11-26.75.23-.75.61-1.77.84-2.71.57-8.27-2.34-17.07-5.23-24.25,1.45-.54.5-1.38.16-1.45-.57-.29-3.5.2-6.88,1.5-10.13,2.5-6.2,9.13-5.54,14.73-6.88.57-.16,1.07-.43,1.5-.84,2.04-1.95,2.61-4.36,1.73-7.2-.27-.82-1.02-1.39-1.89-1.41l-6.39-.18c-.73,0-1.27-.71-1.07-1.43,1.05-4.11,2.89-7.23,5.48-9.39.59-.5,1.3-.79,2.07-.82,5.79-.32,9.93.71,12.16-5.73.57-1.64.04-3.46-1.34-4.52l-6.55-5.16c-.38-.29-.57-.75-.5-1.21.36-2.91,1.75-4.46,4.21-4.66,6.57-.46,10.98-3.48,13.25-9.04.2-.52.27-1.07.18-1.64-.59-3.27-2.04-5.59-4.38-6.97-1.61-.96-1.75-3.25-.27-4.39,5.36-4.21,10.61-8.27,8.36-15.23-1.5-4.68-6.14-4.73-9.7-1.95-.86.66-1.5,1.09-1.96,1.3-.59.25-1.25.07-1.63-.45-1.7-2.38-2.57-4.61-2.66-6.7-.25-6.95,6.97-16.5-.68-22.86-1.59-1.34-3.95-1.14-5.32.41l-4.66,5.27c-.98,1.13-2.68,1.32-3.91.45-5.7-4.02-6.25-10.64-3.43-16.86,2.5-5.5,5.73-12.7,1.3-17.68-3.34-3.73-7.72-2.59-10.13,1.41-.84,1.36-1.41,2.25-1.75,2.68-.61.8-1.86.68-2.32-.2-3.75-7.23-2.96-13.18-2.55-20.86.21-4.25-1.25-11.72-6.14-12.98-9.7-2.52-7.11,19.41-6.13,23.5.8,3.41,2.5,8.95,5.09,16.61.34,1-.52,2.02-1.57,1.84-1.79-.3-3.27-.41-4.43-.29-2.11.2-3.79,1.84-4.07,3.95-.7,5.25,1.41,9.22,6.39,11.89,7.72,4.14,11.89,5.89,16.5,12.38,1.29,1.8,1.93,3.64,1.91,5.5,0,1.04-.98,1.79-2,1.52l-5.71-1.5c-.63-.18-1.32.05-1.73.57-4.27,5.23.71,11.54,5.48,13.95,5.79,2.91,8.79,4.45,9.02,4.61,6.41,3.95,4.77,13.79,1.45,19.16-.84,1.36-2.73,1.5-3.79.32-2.96-3.32-4.5-5.04-4.59-5.13-7.11-6.14-13.05,3.21-9.32,9.32,2.16,3.55,4.82,6.93,7.93,10.14,2.14,2.21,3.63,4.64,4.39,7.29.11.34.16.54.14.59-.05.36-.54.46-.71.14-2.79-4.91-7.61-1.16-10.11,1.75-.63.73-1.77.71-2.39-.04l-3.46-4.27c-.75-.93-1.11-2.11-1.02-3.29.14-2.13,1.8-4.73,1.75-6.8-.09-4.66-2.29-8.13-6.61-10.39-1.63-.86-3.64-.29-4.59,1.3l-4.54,7.59c-.3.52-.98.64-1.46.3-5.27-3.8-7.82-8.47-7.63-13.95.18-4.95,5.5-11.04,4.3-15.64-.57-2.13-2.11-3.45-4.64-3.95-.34-.07-.68-.04-1,.09l-4.55,1.7c-.55.2-1.18.04-1.54-.43-5.05-6.36-2.41-12.41-.5-21.98.59-2.91-.38-7.5-2.91-9.34-4.98-3.63-9.23,3.57-10.18,7.72-.71,3.2-.95,7.61-.64,13.31.11,1.96-1.3,3.68-3.23,4l-4.2.68c-.5.09-.95.3-1.27.64-3.82,3.88-4.45,7.82-1.82,11.86,3.75,5.82,10.79,4.2,11.73,12.7.2,1.73-1.25,3.2-2.96,3.05-4.34-.32-11.61-1.27-14.09,2.45-1.79,2.7-1.79,5.79.59,8.14,5.71,5.57,13.61-1.95,18.36,2.27,5.05,4.5.73,8.68-2.82,12-1.14,1.07-1.36,2.84-.54,4.16,4.39,6.98,11.2,1.98,18.43-1.2,1-.45,2.2,0,2.68.96l2.13,4.25c.45.91-.11,2-1.09,2.14l-2.68.45c-2.82.46-3.55,4.16-1.13,5.66,2.66,1.66,4.96,3.32,6.91,5.05,1.36,1.21,3.41,1.02,4.43-.39,2.43-3.36,6.59-3.84,9.97-2.66,5.11,1.79,4.25,8.91,3.07,13.32-1.73,6.34-5.43,10.59-11.14,12.75-.23.09-.5.14-.75.13l-15.31-.39c-.59,0-1.14-.14-1.68-.39-3.16-1.46-6.41-2.41-9.79-2.84-4.34-.54-11.97,2.89-16.86,4.64-.45.18-.91.21-1.38.18l-26.65-3.02c-.73-.09-1.32-.64-1.41-1.36-.96-6.46-4.38-11.84-10.27-16.09-5-3.63-12.55-8.3-18.75-6.59-8.22,2.23-14.52,7.68-18.86,16.34-.57,1.13-1.84,1.73-3.05,1.39-9.63-2.52-20.27,4.43-29.02,8.39-4.63,2.11-12.23-1.86-16.11-2.77-1.23-.27-2.52-.21-3.71.2-5.98,2-13.27,2.55-21.9,1.68-10.72-1.11-16.75-8.93-28.34-5.61-7.73,2.21-20.04,6.21-27.11,4.07-5.43-1.64-10.77-7.29-19.06-3.32-.43.2-.91.2-1.32,0l-8.32-4.05c-.52-.23-.82-.79-.77-1.36.2-1.91.04-7.95-.46-18.09-.52-10.63,4.86-17.34,9.34-24.54,5.71-9.16,8.52-19.23,8.39-30.24-.11-9.57.38-17.98,1.43-25.2.09-.66.96-.86,1.32-.27,9.52,15.93,5.3,29.43-1.16,45.36-.5,1.25.11,2.66,1.36,3.16.91.36,2.13.23,3.68-.39,9.11-3.66,17.38-8.91,24.88-15.77.57-.52,1.39-.55,2-.09l7.66,6.02c.43.32.57.91.32,1.39l-2.61,5.38c-.16.29-.23.59-.27.91l-1.89,14.75c-.16,1.09.55,2.13,1.61,2.41,4.95,1.34,15.86-7.77,19.39-10.91.36-.32.88-.39,1.3-.2l13,6.34c.64.32.89,1.13.52,1.75l-7.82,13.07c-.8,1.36,0,3.09,1.54,3.34,1.23.2,3.27-.04,6.07-.7,9.14-2.2,17.13-6.2,23.91-11.98.54-.46,1.2-.77,1.89-.89,17.97-2.96,38.88-14.59,50.76-29.93.39-.5.05-1.21-.59-1.23l-6.13-.09c-.27,0-.39-.32-.2-.52,2.29-2.18,9.93-3.34,6.27-8.72-7.34-10.77-17.25-19.77-29.77-26.99-4.25-2.45-9.66-4.23-13.5-6.13-1.04-.52-1.96-1.23-2.71-2.11-8.98-10.52-21.72-22.7-37-19.66-5.34,1.05-8.64,4.3-9.89,9.73-1.57,6.75-2.7,13.54-3.39,20.34-.09.8-.41,1.55-.96,2.13-5.04,5.45-10.66,10.11-16.82,14.02-.48.3-1.07.23-1.46-.14-10.75-10.34-15.41-16.04-27.77-20.07-.48-.16-.66-.71-.39-1.13,4.23-6.46,6.97-13.48,8.18-21.06,1.02-6.43.14-12.23-.46-21.04-.63-9.16-.04-17.66,1.77-25.54.18-.71-.66-1.25-1.23-.79-11.07,8.97-16.11,29.74-16.79,43.38-.63,12.93-7.29,21.81-15.2,36.09-1.57,2.84-2.52,7.3-2.82,13.43-.11,1.96-.34,12.48-.73,31.56-.05,2.43-.54,4.45-1.46,6.04-.2.38-.79.27-.86-.16-.82-5.13-2.71-13.95-5.68-26.47-.73-3.07.04-6.34,2.29-9.79,4.14-6.38,7.29-12.32,9.47-17.86.41-1.05.64-2.18.68-3.32,1.18-36.43,1.5-71.38.96-104.82l-.07.09ZM176.02,274.21l11.66,1.32c.21.04.39.2.39.43v.52c0,.3-.23.57-.55.59l-11.39.88c-.14,0-.18.2-.05.25,1.14.57,2.7.64,4.63.21,3.16-.7,3.02,1.52,6.2,0,.45-.21.98.09,1.02.59l.18,2.14c.04.41-.29.77-.7.77l-13.32.11c-.25,0-.32.34-.11.46,1.46.75,2.75.82,3.82.2.46-.25,1.04-.21,1.48.09,1.18.86,2.55.79,4.14-.2.52-.32,1.2-.2,1.54.32l.32.48c.2.29.14.7-.16.93-3.39,2.64-7.22,6.39-11.61,7-.52.07-.95.45-1.07.96l-.52,1.98c-.05.2.18.38.34.25l15-10.11c.32-.21.75-.16.98.16l.05.07c.3.43.23,1.02-.18,1.36-6.91,5.71-14.88,10.66-23.84,14.88-.36.18-.73-.2-.59-.55,2.23-6.09,3.52-9.55,3.8-10.43,4.52-13.31,3.3-25.79-3.7-37.52-.27-.48.21-1,.71-.77,9.07,4.52,17.23,10.79,24.48,18.81,1.23,1.36.25,3.5-1.57,3.48-2.89-.05-5.46-.34-7.73-.88-1.05-.25-2.32-.07-3.79.54-.34.14-.27.64.09.68h.04ZM215.09,255.1c17.5-12.18,36.33-13.61,56.49-4.32.23.11.27.41.09.57-14.38,12.3-13.68,33.33-5.54,49.17.2.36.43.66.71.95l8.09,7.47c.18.16.14.45-.09.55-4.43,2.07-9.52,3.73-15.34,5-13.27,2.89-33.02-4.89-42.65-12.2-7.84-5.93-15.47-11.79-22.88-17.56-6.13-4.77-2.23-12.13,3.21-15.23,5.89-3.38,11.5-9.97,17.89-14.41v.02ZM213.36,251.35c1.14-7.55,2.71-14.5,4.71-20.86.95-3.02,3.5-4.71,7.64-5.11,13.38-1.27,22.65,6.61,31.02,16.5.21.27,0,.68-.36.61-13.66-2.63-26.06-.48-37.16,6.46-.39.25-1.05.5-2,.75-.96.25-1.75.96-2.39,2.13-.2.34-.59.5-.95.38s-.57-.5-.54-.88l.02.02ZM295.99,289.63c.43.59,1.2.73,1.8.38,1.77-1.07,3.38-1.41,4.8-1.04.54.14.7.79.32,1.16-7.36,7.32-15.32,12.98-23.88,17-.59.27-1.27.21-1.79-.14-10.04-6.86-13.09-15.57-14.06-27.43-.77-9.66,2.41-18.34,9.52-26,.82-.89,2.13-1.11,3.23-.59,10.8,5.32,20.34,14.98,28.11,24.38.95,1.13.8,2.82-.3,3.79l-7.55,6.66c-.54.46-.61,1.27-.2,1.82l-.02.02ZM235.67,319.91c1.96-.48,2.64-1.41,2.09-2.8-.16-.41.2-.84.61-.77l12.22,2.05c.45.07.57.64.2.91-6.64,4.84-14.31,7.91-22.98,9.2-.45.07-.75-.39-.55-.79l6.7-12.2c.21-.41.71-.57,1.13-.36.88.45,1.39.84,1.61,1.16.29.48.27,1.07-.07,1.52l-1.25,1.63c-.18.21.04.54.3.46l.02-.02ZM204.89,298.02c-.09-.27.21-.48.45-.3l8.82,6.91c.93.73.8,2.14-.21,2.71l-14.29,7.8c-.64.36-1.41-.21-1.25-.95,1.07-4.29.39-12.41,4.07-17.25.25-.34.73-.48,1.13-.29.61.29.91.91.88,1.86,0,.27.3.45.54.27.05-.05,0-.3-.13-.77h0ZM140.37,127.57c-.8,2.86-3.59,4.57-6.2,3.84s-4.07-3.66-3.27-6.52,3.59-4.57,6.2-3.84,4.07,3.66,3.27,6.52ZM139.66,102.8l-.25,15.95c0,.36-.36.59-.68.48-5.36-2-8.79.18-10.3,6.48-1.45,6.09,5.88,10.29,10.75,7.05.36-.23.84.04.84.46l-.16,9.47c0,.64-.57,1.14-1.2,1.09-11.79-1.02-28.79-6.73-39.67-8.34-15.59-2.3-32.16-1.66-49.74,1.96-.32.07-.52-.36-.23-.55,1.63-1.18,3.54-2.18,5.71-3.02,7.16-2.8,15.61-5.52,23.09-8.88,19.32-8.63,39.61-16.23,60.86-22.86.48-.16.96.2.96.71v-.02ZM40.91,86c0-.34.29-.63.64-.63h96.53c.7,0,1.29.59,1.27,1.29l-.18,11.27c0,.63-.41,1.18-.98,1.36-20.59,6.75-37.75,13.22-51.47,19.38-4.64,2.09-12.25,5.07-22.84,8.97-7.29,2.68-14.72,6.04-22.29,10.07-.3.18-.68-.07-.68-.43v-51.27h0Z"/>
  <path class="st0" d="M166.77,133.29c3.36-.11,6.02-3,5.91-6.5-.11-3.48-2.91-6.23-6.29-6.13-3.36.11-6.02,3-5.91,6.5.11,3.48,2.91,6.23,6.29,6.13ZM166.57,123.23c2.07,0,3.73,1.68,3.73,3.73s-1.68,3.73-3.73,3.73-3.73-1.68-3.73-3.73,1.68-3.73,3.73-3.73Z"/>
  <path class="st0" d="M236.79,160.31c3.16,0,5.71-2.55,5.71-5.71s-2.55-5.71-5.71-5.71-5.71,2.55-5.71,5.71,2.55,5.71,5.71,5.71ZM236.77,151.38c1.79,0,3.27,1.46,3.27,3.27s-1.46,3.27-3.27,3.27-3.27-1.46-3.27-3.27,1.46-3.27,3.27-3.27Z"/>
  <path class="st0" d="M122.31,163.27c3.45,0,6.23-2.79,6.23-6.23s-2.79-6.23-6.23-6.23-6.23,2.79-6.23,6.23,2.79,6.23,6.23,6.23ZM122.35,153.29c2.07,0,3.73,1.68,3.73,3.73s-1.68,3.73-3.73,3.73-3.73-1.68-3.73-3.73,1.68-3.73,3.73-3.73Z"/>
  <path class="st0" d="M351.27,162.38c1.96,0,3.57-1.61,3.57-3.57s-1.61-3.57-3.57-3.57-3.57,1.61-3.57,3.57,1.61,3.57,3.57,3.57ZM350.11,158.52c.09-.54.73-.86,1.39-.73.66.14,1.13.66,1.02,1.2-.09.54-.73.86-1.39.73-.66-.14-1.13-.66-1.02-1.2Z"/>
  <path class="st0" d="M325.6,177.11c4.89,0,8.86-3.96,8.86-8.86s-3.96-8.86-8.86-8.86-8.86,3.96-8.86,8.86,3.96,8.86,8.86,8.86ZM325.68,161.93c3.46,0,6.29,2.82,6.29,6.29s-2.82,6.29-6.29,6.29-6.29-2.82-6.29-6.29,2.82-6.29,6.29-6.29Z"/>
  <path class="st0" d="M322.41,170.38c.23-.57.23-1.16,0-1.75-.2-.54-.93-.64-1.13-.18-.27.63-.25,1.27.07,1.93.21.45.88.45,1.05,0h0Z"/>
  <path class="st0" d="M342.43,200.58c3.54,0,6.39-2.88,6.39-6.39s-2.88-6.39-6.39-6.39-6.39,2.88-6.39,6.39,2.88,6.39,6.39,6.39ZM342.39,190.22c2.21,0,4.02,1.79,4.02,4.02s-1.79,4.02-4.02,4.02-4.02-1.79-4.02-4.02,1.79-4.02,4.02-4.02Z"/>
  <path class="st0" d="M553.83,203.03s.11.04.16,0c.52-.13.75-.34.73-.64-.04-.55-.82-.55-1.02,0-.13.32-.09.55.14.63l-.02.02Z"/>
  <path class="st0" d="M164.32,208.96c-.43-.45-1.18-.11-1.09.52.3,2.18.23,4.34-.21,6.43-.05.21.13.43.34.45.32,0,.57-.27.5-.59-.55-2.46,1.11-3.59.82-5.77-.07-.54-.2-.88-.34-1.04h-.02Z"/>
  <path class="st0" d="M365.07,229.19c5.27,1.61,10.95-1.64,12.66-7.29,1.71-5.63-1.14-11.5-6.43-13.13-5.27-1.61-10.95,1.64-12.66,7.29-1.71,5.63,1.14,11.5,6.43,13.13ZM361.02,217.42c.89-4.3,4.79-7.16,8.73-6.34,3.93.8,6.41,4.96,5.52,9.27s-4.79,7.16-8.73,6.34c-3.93-.8-6.41-4.96-5.52-9.27Z"/>
  <path class="st0" d="M553.08,210.72s.38-.21,1.04-.68c.39-.27.2-.91-.27-.89-.23,0-.48.14-.71.38-.45.46-.48,1.14-.05,1.2h0Z"/>
  <path class="st0" d="M496.82,215.08c0,.29.39,1.13,1.14,2.52.11.2.41.13.41-.11,0-.95-.2-1.82-.66-2.66-.23-.45-.91-.27-.89.23v.02Z"/>
  <path class="st0" d="M99.78,214.71c-.25.32-.23.63.09.96.23.23.63,0,.63-.36,0-.29-.09-.5-.27-.64-.14-.11-.32-.09-.45.05v-.02Z"/>
  <path class="st0" d="M66.7,218.92c.2-.21.11-.84-.23-1.84-.18-.48-.82-.57-1.09-.14-.23.34-.21.91.05,1.71.2.55.89.7,1.29.27h-.02Z"/>
  <path class="st0" d="M473.05,297.7c-.05.52-.2.98-.45,1.41l-2.34,3.91c-.43.71.41,1.5,1.09,1.04,2.39-1.63,3.57-3.36,3.8-6.79.54-7.16-.43-13.97-2.89-20.43-3.27-8.63-7.05-15.88-11.36-21.73-5.64-7.68-7.63-12.29-13.07-21.13-.18-.29-.32-.59-.45-.89l-6.54-16.34s-.07-.07-.13-.04l-.23.09c-.2.07-.29.27-.23.48l3.96,13.7c.05.2.14.38.23.57,2.89,5.13,8.72,14.95,17.56,29.52,5.98,9.84,11.95,24.32,11.04,36.65v-.02Z"/>
  <path class="st0" d="M366.39,224.6c.45.14.8-.41.5-.75-.52-.61-1.05-1.3-1.61-2.09s-1.02-1.52-1.41-2.2c-.23-.41-.86-.25-.89.2-.05,1.25.2,2.27.77,3.07.59.8,1.45,1.39,2.64,1.75v.02Z"/>
  <path class="st0" d="M163.14,220.08c0,.13.2.54.57,1.27.18.32.66.2.66-.18,0-.34-.11-.79-.3-1.36-.18-.48-.89-.29-.93.25v.02Z"/>
  <path class="st0" d="M499.18,220.69c-.29-.13-.59.21-.38.46,1.11,1.36,1.86,2.13,2.29,2.32.48.2.89-.38.55-.75-.96-1.07-1.79-1.75-2.46-2.04h0Z"/>
  <path class="st0" d="M163.78,222.4l-2.13,4.36c-.2.41.21.86.64.66,1.63-.7,2.21-2.36,1.79-4.98-.04-.16-.23-.18-.3-.04h0Z"/>
  <path class="st0" d="M316.26,238.85c3.63.82,7.27-1.55,8.16-5.38.88-3.8-1.34-7.55-4.98-8.41-3.63-.82-7.27,1.55-8.16,5.38-.88,3.8,1.34,7.55,4.98,8.41ZM317.82,227.62c2.36,0,4.27,1.91,4.27,4.27s-1.91,4.27-4.27,4.27-4.27-1.91-4.27-4.27,1.91-4.27,4.27-4.27Z"/>
  <path class="st0" d="M100.74,228.35c.14.82.34,1.36.61,1.66.27.29.75.09.71-.3-.11-1.14-.2-1.75-.32-1.88-.41-.41-1.11-.05-1,.54v-.02Z"/>
  <path class="st0" d="M450.89,234.17c.23-.05.2-1.25-.14-2.64-.32-1.39-.79-2.48-1.05-2.43-.23.05-.2,1.25.14,2.64.32,1.39.79,2.48,1.05,2.43Z"/>
  <path class="st0" d="M236.9,234.96c.52-.25.52-1.34,0-2.45s-1.38-1.8-1.89-1.57c-.52.25-.52,1.34,0,2.45s1.38,1.8,1.89,1.57Z"/>
  <path class="st0" d="M505.32,231.23c-.18.13.14.93.71,1.79.57.88,1.16,1.5,1.36,1.38.18-.13-.14-.93-.71-1.79-.57-.88-1.16-1.5-1.36-1.38Z"/>
  <path class="st0" d="M224.36,235.4c.86-.3,1.23-1.41.84-2.46-.38-1.05-1.39-1.66-2.23-1.36-.86.3-1.23,1.41-.84,2.46.38,1.05,1.39,1.66,2.23,1.36Z"/>
  <path class="st0" d="M232.56,234.74c.75.2,1.29-.73.73-1.3l-1.43-1.43c-.63-.63-1.68.05-1.36.89.36.96,1.04,1.59,2.07,1.84h-.02Z"/>
  <path class="st0" d="M133.71,231.69c-.16.05-.29.27-.39.7-.14.59.34,1.11.88.96.16-.05.29-.27.39-.7.16-.57-.32-1.09-.88-.96Z"/>
  <path class="st0" d="M159.93,232.17c-.63.84-.84,1.59-.64,2.27.2.66,1.09.77,1.39.18.29-.54.32-1.29.14-2.23-.09-.43-.63-.55-.89-.2v-.02Z"/>
  <path class="st0" d="M103.29,235.71c.29,0,.54-.21.57-.5.07-.54-.21-1.32-.88-2.34-.2-.3-.64-.13-.59.21l.34,2.13c.05.27.29.48.57.48l-.02.02Z"/>
  <path class="st0" d="M228.02,237.76c.68-.73.86-1.86.5-3.36-.14-.55-.86-.66-1.14-.2-.59.96-.75,2.04-.5,3.25.13.54.77.7,1.14.3h0Z"/>
  <path class="st0" d="M249.24,239.37c.32-.21.18-.98-.3-1.7-.48-.71-1.14-1.13-1.46-.91s-.18.98.3,1.7c.48.71,1.14,1.13,1.46.91Z"/>
  <path class="st0" d="M233.06,239.92c0-.3-.27-1.07-.8-2.32-.25-.59-1.04-.64-1.39-.14-.79,1.14-.64,2.25.41,3.29.64.64,1.77.14,1.79-.84v.02Z"/>
  <path class="st0" d="M235.49,237.23c-.36-.21-.8.09-.7.5.39,1.48.84,2.46,1.34,2.91.52.46,1.34.04,1.25-.66-.18-1.16-.8-2.09-1.88-2.75h-.02Z"/>
  <path class="st0" d="M243.51,240.12c.34.29.86.04.82-.41-.05-.86-.2-1.52-.41-2-.23-.55-1.02-.5-1.21.07-.29.88-.04,1.64.8,2.34Z"/>
  <path class="st0" d="M219.5,240.23c.68.09,1.07.54,1.16,1.36.04.32.43.46.64.21.27-.29.46-.57.59-.79.14-.29.09-.63-.13-.89l-2.18-2.63c-.36-.43-1.02-.3-1.21.2-.21.63-.36,1.13-.39,1.5-.05.57.45.91,1.52,1v.04Z"/>
  <path class="st0" d="M157.84,240.39c-.91,1.14-1.27,2.38-.79,2.77.46.39,1.61-.25,2.52-1.38.91-1.14,1.27-2.38.79-2.77-.46-.39-1.61.25-2.52,1.38Z"/>
  <path class="st0" d="M223.79,241.83c-.07.46.09,1.3.45,2.48.13.39.68.41.82,0,.45-1.27.52-2.18.2-2.77-.36-.64-1.36-.46-1.45.27l-.02.02Z"/>
  <path class="st0" d="M217.2,247.66c.86-1.66,1.16-3.32.93-5.02-.04-.29-.29-.52-.59-.52-.29,0-.54.23-.57.54l-.43,4.82c-.04.39.5.54.66.2v-.02Z"/>
  <path class="st0" d="M220.63,244.42c-.41-.21-.88.18-.75.61.2.7.32,1.07.41,1.16.52.5,1.36.16,1.34-.54,0-.5-.36-.91-.98-1.25l-.02.02Z"/>
  <path class="st0" d="M133.78,247.28c-.23-.11-.5,0-.61.23-.46.95-.43,1.7.09,2.25.11.13.3.07.36-.09l.48-1.82c.07-.23-.07-.5-.3-.59l-.02.02Z"/>
  <path class="st0" d="M512.2,258.25c.16,0,.29-.13.32-.27.43-3.18.2-6.39-.7-9.68-.04-.14-.09-.23-.14-.27-.18-.18-.34-.27-.54-.32-.14-.04-.25.07-.23.2l.96,10.09c0,.16.16.27.32.27v-.02Z"/>
  <path class="st0" d="M156.35,248.57c-.46-.29-.96-.13-1.48.54-.05.05-.39.54-1.02,1.46-.64.95-.98,1.43-1.02,1.48-.41.73-.39,1.27.04,1.59.2.16.48.13.64-.05.14-.14.64-.88,1.55-2.18s1.39-2.05,1.46-2.21c.11-.21.04-.5-.18-.61v-.02Z"/>
  <path class="st0" d="M106.01,251.78c-.13-.98-1.5-1.14-1.84-.2-1.75,4.82-1.82,9.47-.2,13.95.11.29.34.5.63.55.41.07.8-.05,1.2-.38.32-.25.43-.71.25-1.09-1.38-3.09-1.91-6.39-1.59-9.88,0-.13.07-.21.16-.29.16-.13.29-.2.41-.23.32-.07.61.2.57.54-.14,1.23-.11,1.96.13,2.21.34.43.91.59,1.41.41l.07-.04c.32-.13.46-.5.29-.8-.77-1.3-1.29-2.88-1.5-4.73l.02-.04Z"/>
  <path class="st0" d="M252.81,259.68c.25.21.64.2.86-.07.77-.95,1.75-1.45,2.93-1.5.64-.04.96-.38.91-1-.04-.36-.45-.73-1.21-1.11-.46-.23-.68-.77-.52-1.27.57-1.61.11-2.86-1.36-3.71-.61-.38-1.36.2-1.16.89.46,1.55,1.04,2.68,1.77,3.41.57.57.46,1.5-.21,1.95l-1.89,1.21c-.39.25-.48.8-.16,1.16l.04.05.02-.02Z"/>
  <path class="st0" d="M250.04,255.62c.3.5,1.07.23,1.02-.34-.16-1.57-.41-2.64-.8-3.21-.38-.57-1.04-.84-1.7-.7h-.09c-.45.11-.68.59-.45.96l2,3.29h.02Z"/>
  <path class="st0" d="M65.65,252.8c-.11.11-.13.25-.04.38.45.66.8,1.36,1.05,2.09.25.73.43,1.48.5,2.3,0,.14.14.23.27.25.29,0,.43-.16.45-.48.05-.82-.07-1.63-.34-2.39-.25-.77-.68-1.45-1.25-2.07-.2-.23-.43-.27-.64-.09v.02Z"/>
  <path class="st0" d="M245.77,255.16c.14-.43.2-.93.16-1.5-.04-.55-.73-.77-1.14-.36-.66.63-.59,1.34.18,2.07.25.25.7.14.82-.2l-.02-.02Z"/>
  <path class="st0" d="M240.63,256.66c.64-.21.79-.71.41-1.45-.66-1.34-2.45-1.77-2.48-.61,0,.57.2,1.13.59,1.73.32.46.8.59,1.46.34l.02-.02Z"/>
  <path class="st0" d="M236.45,258.26c.45-.27.54-.89.16-1.27l-1.98-1.98c-.32-.32-.88-.05-.82.39.16,1.32.45,2.18.89,2.63.54.55,1.11.61,1.75.21v.02Z"/>
  <path class="st0" d="M63.52,255.32c-.11-.36-.63-.32-.7.05-.29,1.77-.05,3.09.71,3.95.41.46,1.18.05,1-.55l-1.02-3.45h0Z"/>
  <path class="st0" d="M152.12,256.1c-.59.29-.98.7-1.21,1.25-.18.43.27.86.7.66.36-.16.73-.5,1.11-1,.36-.48-.09-1.14-.59-.91h0Z"/>
  <path class="st0" d="M111.71,258.14c-.45.68-.55,1.5-.32,2.48.77,3.16.93,5.25.5,6.3-.16.39.13.8.55.8h.5c.29-.04.55-.25.57-.55.39-2.71.16-5.68-.71-8.88-.14-.5-.8-.59-1.07-.16h-.02Z"/>
  <path class="st0" d="M182.27,267.32c.07-.14.05-.32-.07-.43l-10.04-8.93c-.27-.21-.66-.23-.93,0-.27.21-.32.59-.14.91,2.46,3.84,6.04,6.72,10.77,8.57.14.07.3,0,.39-.13h.02Z"/>
  <path class="st0" d="M248.67,260.85c.43-.32.43-1.09-.04-1.71-.46-.63-1.2-.86-1.63-.54-.43.32-.43,1.09.04,1.71.46.63,1.2.86,1.63.54Z"/>
  <path class="st0" d="M70.92,261.05c-.05-.32-.27-.63-.68-.95-.18-.13-.41-.11-.55.05-.16.16-.14.39,0,.55.36.38.66.59.95.61.18.04.3-.11.29-.27Z"/>
  <path class="st0" d="M256.74,261c-.68,0-1.2.91-1.2,1.96s.59,1.93,1.27,1.93,1.2-.91,1.2-1.96-.59-1.93-1.27-1.93Z"/>
  <path class="st0" d="M225.04,263.41c.7.21,1.14.34,1.34.38.7.14,1.23-.63.88-1.27-.34-.63-1-.93-2-.88-.98.05-1.16,1.45-.2,1.75l-.02.02Z"/>
  <path class="st0" d="M233.02,268.66c1.77.38,3.59-1.43,3.96-3.96.05-.32-1.02-1.2-3.27-2.64-.63-.41-1.48,0-1.54.75-.05.66.48,1.13,1.59,1.39.21.05.32.21.34.55,0,.32-.09.61-.32.84-.29.27-.73.27-1.02,0-.59-.55-1.05-.77-1.36-.66-.48.16-.73.64-.59,1.13.48,1.52,1.21,2.39,2.2,2.59v.02Z"/>
  <path class="st0" d="M247.38,268.66c.66.59,1.7-.05,1.7-1.02,0-1.38.63-2.14,1.88-2.3.55-.07.93-.61.79-1.14-.13-.55-.41-.93-.88-1.14-.43-.21-.96-.04-1.14.41-.48,1.09-1.3,1.73-2.48,1.88-.55.07-.93.59-.82,1.14.21,1.09.54,1.82.96,2.18h0Z"/>
  <path class="st0" d="M508.59,277.09c.14.07.3,0,.32-.16l1.93-12.11c.04-.2-.09-.38-.27-.43-.2-.05-.39.05-.48.23-1.46,3.59-2.16,7.43-2.13,11.54,0,.18.04.29.07.36.16.25.34.43.55.55v.02Z"/>
  <path class="st0" d="M242.63,269.46c.07.59.32,1.02.77,1.27.43.23.96.23,1.57,0,.77-.29.88-1.34.2-1.79-1.29-.88-1.86-2.27-1.75-4.2.04-.41-.3-.73-.71-.68l-.55.07c-.39.05-.63.43-.52.8.48,1.48.8,2.98.98,4.54l.02-.02Z"/>
  <path class="st0" d="M221.36,267.93c1.88,1.14,3.13,1.71,3.71,1.68.38,0,.48-.52.16-.68-1.86-.96-2.77-2.16-2.71-3.59,0-.46-.52-.73-.88-.45-.45.36-.75.79-.95,1.29-.29.73-.07,1.34.64,1.75h.02Z"/>
  <path class="st0" d="M282.42,265.68c-3.29,0-5.95,2.66-5.95,5.95s2.66,5.95,5.95,5.95,5.95-2.66,5.95-5.95-2.66-5.95-5.95-5.95ZM284.56,274.75c-1.68,1.16-4.04.63-5.27-1.16s-.89-4.18.79-5.32c1.68-1.16,4.04-.63,5.27,1.16s.89,4.18-.79,5.32Z"/>
  <path class="st0" d="M70.52,268.43l.23,2.96c0,.29.41.39.57.16.91-1.39,1-2.57.27-3.54-.36-.48-1.13-.2-1.07.41Z"/>
  <path class="st0" d="M187.55,272.46v-.07c.32-1.14-2.09-2.8-5.36-3.68l-.93-.25c-3.29-.89-6.21-.68-6.52.46v.07c-.05.11,0,.21.14.25l12.41,3.36c.13.04.21-.04.25-.14h0Z"/>
  <path class="st0" d="M67.36,270.62c-.46-.75-.91-1.54-1.32-2.34-.05-.09-.14-.16-.25-.2-.36-.07-.57.09-.64.43-.04.13-.05.25-.04.43,0,.34.39,1.13,1.14,2.36.75,1.21,1.29,1.91,1.59,2.09.14.09.27.14.39.16.34.09.57-.04.66-.39.04-.11,0-.21-.05-.3-.54-.71-1.02-1.46-1.48-2.21v-.02Z"/>
  <path class="st0" d="M203.89,269.73c.82.32,1.43.39,1.86.2.57-.25.59-1.05,0-1.32-.77-.36-1.45-.41-2.02-.14-.52.25-.43,1.02.14,1.25l.02.02Z"/>
  <path class="st0" d="M542.09,270.3c.18.04.34-.04.41-.2.05-.13.16-.5.27-1.13.04-.14-.05-.29-.2-.32-.14-.05-.29,0-.36.14-.2.39-.32.77-.38,1.13,0,.18.09.32.23.38h.02Z"/>
  <path class="st0" d="M208.54,274.02c.32.09.66-.09.79-.39.32-.8.45-1.52.34-2.13s.41-1.14,1.02-1.04l1.79.3c.36.05.7-.2.75-.55l.09-.48c.09-.54-.34-1.02-.88-.98-2.75.13-4.21,1.64-4.43,4.55,0,.32.2.63.52.7l.02.02Z"/>
  <path class="st0" d="M282.55,269.28c-1.32,0-2.38,1.05-2.38,2.38s1.05,2.38,2.38,2.38,2.38-1.05,2.38-2.38-1.05-2.38-2.38-2.38Z"/>
  <path class="st0" d="M345.55,269.48c-5.34.5-9.25,5.39-8.73,10.93.52,5.52,5.29,9.61,10.61,9.09,5.34-.5,9.25-5.39,8.73-10.93-.52-5.52-5.29-9.61-10.61-9.09ZM346.04,286.62c-3.79-.13-6.77-3.52-6.63-7.55.14-4.04,3.34-7.22,7.13-7.07,3.79.13,6.77,3.52,6.63,7.55-.14,4.04-3.34,7.22-7.13,7.07Z"/>
  <path class="st0" d="M221.16,273.61c.38.05.73-.2.86-.55.11-.36-.07-.75-.41-.93l-1.71-.84c-.59-.27-1.2.3-.95.91.34.79,1.07,1.25,2.2,1.39l.02.02Z"/>
  <path class="st0" d="M229.34,274.03c.7.2,1.13,0,1.32-.55.23-.73,0-1.64-.59-2.13-.57-.48-1.27-.38-1.63.25-.2.32-.04,1.02.48,2.09.07.18.21.29.41.34h0Z"/>
  <path class="st0" d="M204.89,272.94c-.27-.21-.66-.23-.96-.04-.45.32-.57.77-.43,1.36.09.32.32.59.71.75.5.2,1,.23,1.5.13.55-.14.7-.82.29-1.18l-1.13-1,.02-.02Z"/>
  <path class="st0" d="M535.61,289.8l.13.04c.23.07.5-.04.59-.29l5.36-15.45c.09-.25-.05-.5-.29-.59l-.13-.04c-.23-.07-.5.04-.59.29l-5.36,15.45c-.09.25.05.5.29.59Z"/>
  <path class="st0" d="M235.76,276.18c.52-.36.57-1.16.13-1.84-.46-.66-1.23-.93-1.75-.57-.52.36-.57,1.16-.13,1.84.46.66,1.23.93,1.75.57Z"/>
  <path class="st0" d="M245.27,277.23c1.39.59,2.14,1.14,2.27,1.61.11.38.57.52.86.25l.38-.38c.2-.2.18-.48-.04-.64l-4.45-3.5c-.54-.41-1.29.13-1.05.75.27.8.96,1.43,2.05,1.91h-.02Z"/>
  <path class="st0" d="M196.68,277.73c.16.46.79.55,1.04.13.86-1.41,1.89-1.59,3.11-.52.34.3.89,0,.77-.46-.39-1.55-1.79-2.18-4.16-1.89-1.04.13-1.29,1.04-.75,2.75h0Z"/>
  <path class="st0" d="M203.2,280.52c.63,0,1.55.55,2.8,1.7.16.14.38.13.52-.04l.29-.38c.18-.21.14-.54-.09-.7l-1.57-1.23c-.34-.27-.29-.82.13-.98.55-.21.86-.48.91-.73.09-.46-.29-.89-.75-.86-1.45.13-2.39.34-2.86.66-1.14.8-.7,2.59.63,2.55h0Z"/>
  <path class="st0" d="M214.65,280.41c.79-.25,1.23-.43,1.36-.52.5-.39.43-1.14-.13-1.41-.57-.29-1.18.07-1.88,1.04-.32.46.13,1.05.64.89h0Z"/>
  <path class="st0" d="M225.4,280.36c.61-.2,1.18-.2,1.7,0,.63.23,1.05.86,1.04,1.54-.04,1.75.45,2.61,1.43,2.54.39-.04.66-.41.55-.79l-1.3-4.23c-.07-.21-.21-.43-.43-.57-.95-.63-2.16-.61-3.68.09-.34.14-.5.55-.36.89v.07c.2.41.63.61,1.05.48v-.02Z"/>
  <path class="st0" d="M232.06,278.87s0-.04-.04-.04-.04,0-.04.04,0,.04.04.04.04,0,.04-.04Z"/>
  <path class="st0" d="M210.13,279.7c-.36.96-.46,1.71-.29,2.18.25.68,1.23.64,1.43-.05.27-.95.3-1.63.13-2.04-.48-1.02-.91-1.05-1.27-.11v.02Z"/>
  <path class="st0" d="M245.22,282.16s.11-.89.25-2.52c.05-.45-.48-.7-.82-.41-1.05.91-1.64,1.59-1.75,2.09-.16.61.2,1.25.77,1.46.59.21,1.27-.05,1.55-.61v-.02Z"/>
  <path class="st0" d="M341.73,279.73c-.18.38.25,1.57,1.29,3.57.21.43.84.41,1.02-.04.21-.5-.2-1.7-1.29-3.59-.21-.41-.82-.38-1.02.05Z"/>
  <path class="st0" d="M503.41,292.39c.34.11,1.54-2.71,2.64-6.29,1.13-3.57,1.75-6.57,1.41-6.68s-1.54,2.71-2.64,6.29c-1.13,3.57-1.75,6.57-1.41,6.68Z"/>
  <path class="st0" d="M82.45,288.88c.5-.2.59-.88.16-1.21-2.34-1.84-1.2-3.29-2.27-5.39-.32-.63-.57-.96-.7-1.04-.46-.21-.96.23-.79.71,1.11,2.89,1.68,4.32,1.68,4.34-.13.71-.91,1.09-1.54.75-.11-.05-.38-.48-.8-1.25-.27-.5-.96-.55-1.32-.11l-.29.36c-.2.27-.21.64,0,.95,1.63,2.2,3.59,2.84,5.89,1.89h-.04Z"/>
  <path class="st0" d="M233.26,281.75l-.2,2.2c0,.21.09.43.29.55.57.32,1.21.14,1.96-.57.29-.29.39-.7.27-1.07-.11-.29-.57-.8-1.43-1.5-.34-.27-.86-.05-.91.39h.02Z"/>
  <path class="st0" d="M148.09,287.66c-1.45-.21-1.86-1.14-1.25-2.73.2-.57-.14-1.16-.71-1.27l-.54-.09c-.55-.09-1.04.3-1.07.86-.13,2.16.3,3.95,1.32,5.29.7.96,2.13.91,2.73-.11.16-.27.21-.64.2-1.14,0-.46-.23-.73-.68-.82v.02Z"/>
  <path class="st0" d="M216.06,286.02c.59-.41.68-1.34.16-2.05-.5-.71-1.39-.96-1.98-.55s-.68,1.34-.16,2.05c.5.71,1.39.96,1.98.55Z"/>
  <path class="st0" d="M402.77,287c.18.57.91.7,1.27.23,1.04-1.36.52-2.57-1.61-3.63-.29-.14-.61.14-.54.45l.88,2.93v.02Z"/>
  <path class="st0" d="M247.95,284.29c-.25-.2-.54-.16-.86.11-.18.16-.2.39-.11.59.07.13.2.2.41.23.57.09.96-.59.55-.93Z"/>
  <path class="st0" d="M469.66,284.23l-.21-.05-3.07,14.14.23.05c.63.14,1.79-2.8,2.59-6.54l.14-.59c.8-3.73.96-6.88.32-7.02h0Z"/>
  <path class="st0" d="M172.39,288.29c-.21.39.14.88.57.77,2.84-.66,5.21-1.71,7.13-3.14.21-.16.29-.45.18-.66l-.2-.39c-.18-.32-.61-.38-.86-.09-.61.77-2.3,1.52-5.04,2.23-.84.23-1.43.64-1.77,1.29h-.02Z"/>
  <path class="st0" d="M117.44,287.29c.38-.5.2-1.23-.39-1.48l-.09-.05c-.68-.3-1.46.05-1.68.77-.63,2.27-.43,4.73.59,7.34.2.52.88.63,1.23.21l.61-.7c.32-.38.34-.91.05-1.3-1.29-1.75-1.39-3.36-.34-4.8l.02.02Z"/>
  <path class="st0" d="M204.93,286.23s.07.54.21,1.46c.14.93.21,1.41.23,1.43.25.5.89.64,1.34.34,1.02-.71,1.45-1.45,1.34-2.25-.13-.79-.79-1.36-1.96-1.71-.54-.18-1.07.18-1.16.71v.02Z"/>
  <path class="st0" d="M223.25,287.54c-.5-.25-1.04-.38-1.66-.36-.57,0-1.04.45-1.14.98-.09.55.25,1.05.79,1.18.64.16,1.29.11,1.89-.13.75-.27.84-1.32.13-1.7v.02Z"/>
  <path class="st0" d="M121.81,295.34c.55-.04.91-1.73.82-3.82-.09-2.09-.61-3.77-1.16-3.75-.55.04-.91,1.73-.82,3.82.09,2.09.61,3.77,1.16,3.75Z"/>
  <path class="st0" d="M233.88,289.93c-.32-1.18-.95-1.7-1.88-1.54-.64.11-.96.84-.57,1.34.36.45.8.82,1.36,1.13.59.32,1.29-.25,1.09-.93h0Z"/>
  <path class="st0" d="M246.06,289.96c-1.5,1.27-2.34,3.2-2.52,5.79,0,.07.14.18.39.32.27.16.54.2.77.11.57-.18.95-.75.84-1.36-.32-1.73-.04-3.25.84-4.55.07-.09.05-.21-.04-.29-.09-.09-.2-.09-.29,0v-.02Z"/>
  <path class="st0" d="M249.99,290.8c.23-.36.27-.73.05-.88-.2-.13-.55.02-.79.38-.23.36-.27.73-.05.88.2.13.55-.02.79-.38Z"/>
  <path class="st0" d="M211.98,291.3c-.14.25-.2.89-.16,1.91,0,.43.54.64.84.34.57-.54.91-.91.98-1.09.16-.29.18-.59.04-.86-.14-.25-.34-.48-.63-.64-.45-.29-.8-.18-1.07.34h0Z"/>
  <path class="st0" d="M227.56,290.82c-.96.59-.82,1.55.41,2.91.91,1,1.57,1.36,2.04,1.07.45-.27.45-1.04-.04-2.29-.64-1.71-1.45-2.27-2.41-1.7h0Z"/>
  <path class="st0" d="M84.58,295.98c.86.29,1.61.98,2.27,2.13.5.88,1.45,1.38,2.45,1.32h.11c.71-.07,1.14-.84.82-1.46l-3.21-6.48c-.39-.8-1.54-.77-1.89.05l-1.23,2.88c-.27.63.05,1.36.7,1.59v-.02Z"/>
  <path class="st0" d="M535.43,292.98c0,.14.11.2.23.14s.21-.21.23-.36c.05-.54,0-.86-.13-1-.25.5-.38.91-.36,1.23l.02-.02Z"/>
  <path class="st0" d="M235.42,292.63c-.39-.34-1.27,0-1.95.77s-.91,1.68-.52,2.04c.39.34,1.27,0,1.95-.77s.91-1.68.52-2.04Z"/>
  <path class="st0" d="M249.01,294.64c.25.68,1.25.63,1.41-.09.14-.61,0-1.29-.48-2.02-.23-.38-.82-.25-.89.2-.14.98-.16,1.63-.05,1.91h.02Z"/>
  <path class="st0" d="M270.69,292.84c-.36-.25-.84.11-.7.54.3.95.77,1.57,1.36,1.91.38.2.82-.14.7-.55-.2-.75-.64-1.38-1.36-1.89Z"/>
  <path class="st0" d="M215.38,294.96c-.21.66-.23,1.39-.09,2.2.07.38.59.45.75.09.7-1.48.95-2.36.71-2.59-.41-.48-1.2-.3-1.38.3h0Z"/>
  <path class="st0" d="M240.26,297.3c.64-.2.68-.86.13-1.96-.46-.89-1.61-1.14-1.75-.41-.16.77-.07,1.41.21,1.93.27.5.73.63,1.39.45h.02Z"/>
  <path class="st0" d="M170.14,294.79c-.96,0-1.57.36-1.75,1.09-.09.32.25.59.57.45l1.38-.68c.43-.2.29-.86-.2-.86h0Z"/>
  <path class="st0" d="M219.66,298.18c.96.41,1.96-.5,1.54-1.39-.5-1.07-1.34-1.73-2.5-1.98-.54-.13-.96.43-.73.91.64,1.45,1.21,2.27,1.7,2.48v-.02Z"/>
  <path class="st0" d="M257.19,295.72c-.59,0-1.07.18-1.43.48-.43.38-.29,1.07.23,1.27.77.27,1.36.23,1.79-.11.68-.55.29-1.66-.59-1.64h0Z"/>
  <path class="st0" d="M501.86,295.97h-.04c-.16-.04-.3.05-.36.2-3.09,9.55-4.27,18.59-3.57,27.06,0,.07.07.14.16.14s.16-.07.16-.16c.73-10.52,1.55-17.45,3.89-26.81.05-.2-.05-.39-.23-.45l-.02.02Z"/>
  <path class="st0" d="M275.49,297.32c-.41-.34-1.04-.29-1.38.13l-.32.39c-.34.41-.29,1.04.13,1.38l3.8,3.16c.41.34,1.04.29,1.38-.13l.32-.39c.34-.41.29-1.04-.13-1.38l-3.8-3.16Z"/>
  <path class="st0" d="M146.37,298.66c-.43-.77-1.48-.86-2.04-.18-1.02,1.29-1.64,3.23-1.86,5.82-.07.93,1.07,1.41,1.7.71l2.45-2.77c.63-.73.75-1.77.29-2.63l-.54-.96Z"/>
  <path class="st0" d="M120.51,303.36c.77-.04,1.3-1.11,1.25-2.38-.07-1.29-.71-2.29-1.48-2.25s-1.3,1.11-1.25,2.38c.07,1.29.71,2.29,1.48,2.25Z"/>
  <path class="st0" d="M203.77,299.79c-.98,1.04-1.48,1.79-1.46,2.25,0,.38.46.57.73.3,1.41-1.36,2.13-2.09,2.07-2.23-.18-.59-.93-.77-1.34-.32h0Z"/>
  <path class="st0" d="M225.63,299.18c-.71.25-1.02,1.2-.71,2.14.32.95,1.16,1.5,1.88,1.25.71-.25,1.02-1.2.71-2.14-.32-.95-1.16-1.5-1.88-1.25Z"/>
  <path class="st0" d="M232.15,299.77c-.43,1.09-.46,1.96-.13,2.59.38.66,1.36.64,1.7-.04.52-1.02.59-1.89.27-2.61-.36-.8-1.52-.77-1.84.05h0Z"/>
  <path class="st0" d="M240.63,300.18c-.11.21,0,.45.34.64.64.41,1.25.32,1.77-.27.09-.13.04-.32-.16-.61-.52-.73-1.64-.59-1.96.23h.02Z"/>
  <path class="st0" d="M255.47,302.29c.55-.5.48-1.46-.16-2.18s-1.61-.91-2.16-.41-.48,1.46.16,2.18,1.61.91,2.16.41Z"/>
  <path class="st0" d="M207.29,302.88c.25.13.57,0,.68-.25.16-.3.16-.64,0-1.02-.27-.64-1.21-.52-1.32.18-.09.54.14.89.63,1.11l.02-.02Z"/>
  <path class="st0" d="M235.68,305c-.57.3-.48,1.13.14,1.3.96.25,1.75.13,2.38-.41.34-.29.48-.77.34-1.2-.21-.73-.16-1.61.18-2.63.11-.3-.09-.61-.39-.68h-.04c-.38-.11-.73.18-.77.55-.13,1.45-.71,2.48-1.82,3.07l-.02-.02Z"/>
  <path class="st0" d="M260.85,309.86c1.79-.21,2.93-.89,3.45-2,.13-.23.14-.52.07-.77l-1.18-4.63c-.11-.41-.57-.61-.96-.43-.95.5-.91,1.55.13,3.16.39.63.36,1.43-.11,2.02-.36.46-.89.77-1.57.93-.46.13-.77.57-.68,1.02v.09c.09.39.46.66.86.61Z"/>
  <path class="st0" d="M209.63,306.14c.36-.09.68-.34.96-.75.23-.34-.14-.75-.5-.59-.39.2-.7.41-.89.63-.29.3,0,.8.43.7v.02Z"/>
  <path class="st0" d="M206.54,305.56c.18-.05.27-.2.23-.38-.05-.29-.38-.46-1-.52-.43-.04-.68.48-.39.79.2.21.59.25,1.16.11Z"/>
  <path class="st0" d="M249.97,305c-.77-.38-1.77.07-2.23,1.02s-.21,2,.55,2.39c.77.38,1.77-.07,2.23-1.02s.21-2-.55-2.39Z"/>
  <path class="st0" d="M464.01,311.38c.32-.23.52-.68.55-1.32.05-.5.2-1,.46-1.55.96-1.96,1.43-2.96,1.41-3-.18-.41-.77-.38-.88.05-.32,1.36-1.25,2.11-2.73,2.25-1.39.13-1.98,1.84-.95,2.75.98.86,1.71,1.13,2.13.82h0Z"/>
  <path class="st0" d="M255.28,307.22c-.41-.11-.79,0-1.09.36-1.2,1.3-1.54,2.27-1.02,2.91.52.64,1.54.54,3.05-.36.41-.23.59-.57.59-.98,0-.25-.2-.61-.59-1.09-.38-.48-.68-.75-.93-.82l-.02-.02Z"/>
  <path class="st0" d="M242.42,307.54c-.46-.34-.75-.48-.84-.43-.86.57-.73,1.91.23,2.59.2.16.43.14.68-.04.73-.46.68-1.57-.09-2.13h.02Z"/>
  <path class="st0" d="M324.05,308.02c-3.13-1.39-6.89.2-8.43,3.61-1.54,3.41-.25,7.3,2.86,8.72,3.13,1.39,6.89-.2,8.43-3.61,1.54-3.41.25-7.3-2.86-8.72ZM324.6,315.27c-.64,2.2-2.68,3.54-4.54,3-1.86-.54-2.86-2.77-2.21-4.96.64-2.2,2.68-3.54,4.54-3,1.86.54,2.86,2.77,2.21,4.96Z"/>
  <path class="st0" d="M206.61,307.97s-.05.04-.05.07,0,.05.05.05.13,0,.2-.04c.05,0,.04-.11,0-.11h-.18l-.02.02Z"/>
  <path class="st0" d="M204.68,308.52c-1.32-.14-2.48,0-3.52.48-.64.29-.45,1.27.27,1.27s1.86-.34,3.36-1.04c.34-.16.25-.66-.13-.7l.02-.02Z"/>
  <path class="st0" d="M76.31,329.06c-2.21-4.71-11.52-14.68-17.98-11.75-6.43,2.91-5.05,16.48-2.96,21.27,2.59,5.98,9.2,9.27,15.54,6.39,6.36-2.89,8.22-10.04,5.41-15.93v.02ZM59.2,339.81c-.41-.48-.77-1-1.04-1.57-2.63-5.21-2.75-10.82-.36-16.86.2-.48.77-.95,1.73-1.36.96-.43,1.68-.55,2.16-.38,6.07,2.25,10.18,6.09,12.29,11.52.23.59.39,1.2.46,1.82.54,4.59-1.13,7.73-4.93,9.43-3.8,1.71-7.23.84-10.3-2.61h-.02Z"/>
  <path class="st0" d="M243.49,321.06c2.11-.84,3.7-1.8,3.57-2.14-.13-.32-1.96.09-4.05.93-2.11.84-3.7,1.8-3.57,2.14.13.32,1.96-.09,4.05-.93Z"/>
  <path class="st0" d="M345.29,333.81c.14,7.41,6.07,13.29,13.27,13.18,7.22-.13,12.93-6.23,12.8-13.63-.14-7.41-6.07-13.29-13.27-13.18-7.22.13-12.93,6.23-12.8,13.63ZM358.27,322.86c5.68.05,10.23,4.88,10.18,10.8-.05,5.91-4.7,10.68-10.38,10.63-5.68-.05-10.23-4.88-10.18-10.8.05-5.91,4.7-10.68,10.38-10.63Z"/>
  <path class="st0" d="M63.06,323.22c-.68.14-1.13.75-.98,1.32.13.59.77.93,1.45.79s1.13-.75.98-1.32c-.13-.59-.77-.93-1.45-.79Z"/>
  <path class="st0" d="M429.6,332.86c.36-.34-.11-1.41-1.02-2.36-.93-.96-1.96-1.45-2.32-1.11-.36.34.11,1.41,1.02,2.36.93.96,1.96,1.45,2.32,1.11Z"/>
  <path class="st0" d="M58.7,329.75c-.25.04-.46.27-.45.54.04,3.46,1.2,6.77,3.48,9.86.07.11.2.14.3.09.11-.07.16-.2.13-.3l-2.89-9.79c-.07-.25-.32-.41-.59-.38l.02-.02Z"/>
  <path class="st0" d="M500.41,333.13c.32-.57.3-1.38-.05-2.43-.13-.36-.61-.36-.73,0-.3.91-.39,1.68-.25,2.27.13.52.79.61,1.04.16Z"/>
  <path class="st0" d="M352.16,333.18c.2-.59.2-1,0-1.29-.34-.43-1.02-.3-1.21.2-.16.48-.11.91.18,1.27.29.38.88.25,1.04-.2v.02Z"/>
  <path class="st0" d="M557.77,334.65l-3.2,3.2c-.39.39-.04,1.07.52.96,1.2-.23,2.2-1.55,3-3.95.07-.2-.18-.34-.32-.2v-.02Z"/>
  <path class="st0" d="M501.12,336.77c-.39-.18-.64-.2-.79-.13-1.54,1-.66,3.41,1.21,3.29.25,0,.48-.21.63-.64.36-.98-.11-2.11-1.05-2.52h0Z"/>
  <path class="st0" d="M350.61,337.97c.79,2.89,2.68,3.46,5.7,1.71.32-.2.39-.61.14-.91l-.39-.45c-.18-.2-.45-.23-.66-.14-1.93.96-3.36.8-4.3-.45-.2-.23-.57-.07-.48.21v.02Z"/>
  <path class="st0" d="M554.59,343.06c-.5-.25-.86-.14-1.07.38-1.25,2.84-1.73,4.32-1.43,4.46.29.14,1.23-1.11,2.84-3.73.27-.48.18-.86-.32-1.11h-.02Z"/>
  <path class="st0" d="M504.73,349.02c-.41.21-.38,1.14.09,2.07s1.2,1.54,1.61,1.3c.41-.21.38-1.14-.09-2.07s-1.2-1.54-1.61-1.3Z"/>
  <path class="st0" d="M550.04,352.26c-.32-.05-.82,1.77-1.11,4.02-.29,2.27-.25,4.14.09,4.18.32.05.82-1.77,1.11-4.02.29-2.27.25-4.14-.09-4.18Z"/>
  <path class="st0" d="M508.5,355.42c-.18.25-.07.79.3,1.55.2.39.79.32.88-.11.16-.7.13-1.18-.09-1.46-.39-.52-.77-.52-1.09,0v.02Z"/>
  <path class="st0" d="M512.39,360.06c-.36.21-.25,1.05.23,1.86s1.18,1.3,1.54,1.09c.36-.21.25-1.05-.23-1.86s-1.18-1.3-1.54-1.09Z"/>
  <path class="st0" d="M547.77,362.22c-.2.82-.3,1.25-.3,1.27.05.41.61.5.79.13.34-.75.48-1.23.41-1.41-.16-.45-.77-.41-.89.04v-.02Z"/>
  <path class="st0" d="M322.96,372.54c.25.66,1.16.77,1.55.18l.3-.46c.23-.36.21-.82-.05-1.16-1.68-2.18-2.79-4.27-3.34-6.25-.09-.3-.43-.45-.7-.3l-.41.21c-.18.11-.25.32-.2.52l2.84,7.27Z"/>
  <path class="st0" d="M329.37,366.51c1.14-.39,1.73-.8,1.75-1.21.04-.63-.64-1.02-1.18-.71-.43.25-.82.66-1.14,1.23-.21.39.16.86.59.7h-.02Z"/>
  <path class="st0" d="M285.03,372.79s.04.05.07.05l20.34-1.55c.46-.05.95.11,1.3.43,4.11,3.54,7.14,7.39,9.04,11.57.23.54.95.61,1.3.18l.89-1.14s.04-.09,0-.13l-10.47-13.25c-.34-.43-.96-.48-1.36-.14-.8.7-1.43,1.04-1.91,1.05-6.25.05-12.63,1-19.16,2.86-.04,0-.05.04-.05.07h0Z"/>
  <path class="st0" d="M105.87,375.22c2.34-1.73,4.79-2.79,7.32-3.14,2.54-.38,5.2-.07,7.93.93.5.2.96-.32.71-.79-1.34-2.73-6.18-2.93-9-2.52-2.79.39-7.38,1.96-7.88,4.96-.11.52.48.88.91.57v-.02Z"/>
  <path class="st0" d="M191.66,370.94c-5.23-1.07-9.5.34-12.82,4.21-.11.14-.13.32-.04.46l.29.54c.27.52.98.59,1.38.16,2.61-3.02,5.93-3.88,9.91-2.54.7.23,1.45-.09,1.77-.75l.25-.52c.3-.64-.07-1.41-.77-1.55l.04-.02Z"/>
  <path class="st0" d="M328.57,372.21c.54-.11.95-.29,1.27-.55.27-.23.09-.68-.27-.63-.11,0-.52.2-1.21.55-.16.07-.21.25-.18.41.07.16.21.25.39.21Z"/>
  <path class="st0" d="M199.7,380.22c-.36.54.2,1.2.79.95.05,0,1.39-.91,4.07-2.7,3.07-2.07,6.43-2.2,10.07-.41.63.3,1.25-.43.84-.98-4.5-6.05-12.61-1.63-15.77,3.16v-.02Z"/>
  <path class="st0" d="M239.92,375.76c-2.89.05-7.73,1.05-8.63,4.04-.16.52.38.95.86.68,2.59-1.45,5.2-2.2,7.8-2.25,2.63-.04,5.27.61,7.93,1.96.46.23.98-.2.82-.71-.98-2.93-5.88-3.75-8.77-3.7l-.02-.02Z"/>
  <path class="st0" d="M292.23,375.56c-1.5.5-2.61,1.23-2.48,1.64.14.41,1.46.32,2.96-.18s2.61-1.23,2.48-1.64c-.14-.41-1.46-.32-2.96.18Z"/>
  <path class="st0" d="M159.21,378.05c-4.59-4.04-14.52-1.63-20.02.2-.45.16-.73.59-.64,1.07l.09.59c.13.7.88,1.11,1.52.84,3.07-1.32,4.84.88,7.27-1.48.54-.52,1.23-.79,1.96-.77l9.55.23c.38,0,.55-.45.27-.7v.02Z"/>
  <path class="st0" d="M413.77,379.71l-2.95.48c-.41.07-.82.04-1.2-.13l-10.54-4.23c-1.48-.59-3.16-.63-4.66-.07l-15.2,5.61c-.8.3-1.39.96-1.63,1.79l-.27,1c-.11.41.3.77.7.59,5.23-2.57,10.45-4.48,15.7-5.77,5.63-1.36,10.88,1.95,16.47,4.07.5.2,1.04.14,1.5-.14.96-.59,1.8-1.45,2.52-2.55.2-.3-.07-.7-.43-.64h-.02Z"/>
  <path class="st0" d="M301.53,379.06c-.2.54.04,1,.73,1.45.16.11.38.11.52-.04.36-.32.45-.63.25-.96-.43-.73-1.32-.98-1.5-.46v.02Z"/>
  <path class="st0" d="M90.28,379.46c-4.18-1.02-7.38-.13-9.59,2.73-.41.52-.3,1.29.23,1.68l.09.07c.64.48,1.57.21,1.89-.5.95-2.13,3.36-3.21,7.29-3.29.2,0,.32-.14.36-.3,0-.18-.11-.34-.27-.39Z"/>
  <path class="st0" d="M286.17,380.44c-1.5.63-2.57,1.46-2.41,1.84.16.39,1.52.2,3-.43,1.5-.63,2.57-1.46,2.41-1.84-.16-.39-1.52-.2-3,.43Z"/>
  <path class="st0" d="M443.03,382.08c-.29-.77-1.04-1.29-1.86-1.27l-14.43.3c-.79,0-1.34.75-1.14,1.5l.13.46c.2.75.96,1.21,1.73,1.02,5.55-1.36,10.63-1.39,15.22-.13.5.14.96-.34.77-.84l-.39-1.07-.02.02Z"/>
  <path class="st0" d="M116.4,381.42c-4.71-.2-7.84,1.95-12.16,4.38-.89.5-1.96.59-2.93.27-3.09-1.05-5.68-1.43-7.75-1.11-.59.09-1.07.43-1.36.91l-.34.59c-.23.39.11.88.55.8,2.54-.43,5.34-.16,8.39.84,1.84.61,3.41.38,4.71-.7,3.68-3.05,7.36-4.36,11.05-3.86.39.05.73-.23.75-.63v-.46c.04-.55-.39-.98-.93-1v-.04Z"/>
  <path class="st0" d="M353.41,387.4l-2.09-.04c-1.63,0-2.93.96-2.95,2.18v.07c0,.13.11.21.21.21l7.48.07c.13,0,.21-.09.21-.21v-.07c0-1.21-1.29-2.2-2.89-2.21h.02Z"/>
  <path class="st0" d="M535.91,387.85c-2.48-.59-4.64-.57-4.8.09-.16.64,1.73,1.68,4.23,2.27,2.48.59,4.64.57,4.8-.09.16-.64-1.73-1.68-4.23-2.27Z"/>
  <path class="st0" d="M125.62,387.89c-2.52-.59-4.7-.45-4.88.3s1.73,1.84,4.25,2.41c2.52.59,4.7.45,4.88-.3s-1.73-1.84-4.25-2.41Z"/>
  <path class="st0" d="M158.32,387.71l-2.75.2c-1.79.16-3.18,1.2-3.09,2.36v.11c0,.11.11.18.2.18l8.89-.68c.11,0,.18-.11.18-.2v-.11c-.11-1.16-1.63-1.98-3.43-1.84v-.02Z"/>
  <path class="st0" d="M407.1,388.14c-3.43-1.05-7.02-.57-10.77,1.5-.21.11-.38.32-.41.59l-.14,1.09c-.09.57.52.96,1,.71,2.98-1.52,6.36-2.3,10.07-2.36.39,0,.71-.29.79-.66.05-.39-.2-.75-.55-.88h.02Z"/>
  <path class="st0" d="M513.07,387.73h-.34c-.2,0-.34.16-.34.34l-.04,2.02c0,.2.16.34.34.34h.34c5.23.07,9.5-.25,9.5-.71v-1.05c0-.45-4.23-.86-9.48-.93h.02Z"/>
  <path class="st0" d="M266.22,388.78c-3.04-.05-8.18.82-9.22,3.89-.2.54.38,1,.88.77,2.79-1.43,5.55-2.13,8.3-2.07,2.75.04,5.5.82,8.22,2.36.5.25,1.05-.2.91-.73-.95-3.13-6.04-4.16-9.07-4.21h-.02Z"/>
  <path class="st0" d="M183.34,389.39c-2.88.05-7.66,1.05-8.54,4.02-.16.5.39.93.84.66,2.55-1.45,5.14-2.2,7.75-2.25,2.57-.05,5.2.59,7.8,1.91.48.23.98-.2.82-.7-.98-2.91-5.82-3.7-8.68-3.64h0Z"/>
  <path class="st0" d="M222.33,389.73c-.84.13-1.57.63-1.98,1.38l-.41.75c-.27.5.2,1.07.73.95,4.59-1.21,9.11-.96,13.57.73.41.16.89,0,1.09-.41.21-.38.11-.88-.25-1.13-3.2-2.3-7.45-3.05-12.75-2.27h0Z"/>
  <path class="st0" d="M442.31,391.46c-2.91-1.79-6.39-2.18-10.36-1.16-.23.05-.43.21-.54.45l-.39.98c-.2.52.23,1.02.77.91,3.14-.7,6.45-.63,9.93.2.36.09.73-.11.89-.45.14-.34,0-.75-.3-.95v.02Z"/>
</svg>